<?xml version="1.0" encoding="UTF-8" standalone="no"?>
<!-- Created with Inkscape (http://www.inkscape.org/) -->

<svg
   xmlns:ns0="http://www.iki.fi/pav/software/textext/"
   xmlns:dc="http://purl.org/dc/elements/1.1/"
   xmlns:cc="http://creativecommons.org/ns#"
   xmlns:rdf="http://www.w3.org/1999/02/22-rdf-syntax-ns#"
   xmlns:svg="http://www.w3.org/2000/svg"
   xmlns="http://www.w3.org/2000/svg"
   xmlns:xlink="http://www.w3.org/1999/xlink"
   xmlns:sodipodi="http://sodipodi.sourceforge.net/DTD/sodipodi-0.dtd"
   xmlns:inkscape="http://www.inkscape.org/namespaces/inkscape"
   width="716.82086"
   height="415.69595"
   id="svg2"
   version="1.1"
   inkscape:version="0.47 r22583"
   sodipodi:docname="interpolation.svg">
  <sodipodi:namedview
     id="base"
     pagecolor="#ffffff"
     bordercolor="#666666"
     borderopacity="1.0"
     inkscape:pageopacity="0.0"
     inkscape:pageshadow="2"
     inkscape:zoom="1.7729304"
     inkscape:cx="358.41043"
     inkscape:cy="230.40949"
     inkscape:document-units="px"
     inkscape:current-layer="layer1"
     showgrid="false"
     inkscape:window-width="1920"
     inkscape:window-height="1005"
     inkscape:window-x="0"
     inkscape:window-y="24"
     inkscape:window-maximized="1" />
  <defs
     id="defs4">
    <marker
       style="overflow:visible"
       id="Arrow1Lend"
       refX="0"
       refY="0"
       orient="auto"
       inkscape:stockid="Arrow1Lend">
      <path
         transform="matrix(-0.8,0,0,-0.8,-10,0)"
         style="fill-rule:evenodd;stroke:#000000;stroke-width:1pt;marker-start:none"
         d="M 0,0 5,-5 -12.5,0 5,5 0,0 z"
         id="path3759" />
    </marker>
    <marker
       style="overflow:visible"
       id="Arrow1Lstart"
       refX="0"
       refY="0"
       orient="auto"
       inkscape:stockid="Arrow1Lstart">
      <path
         transform="matrix(0.8,0,0,0.8,10,0)"
         style="fill-rule:evenodd;stroke:#000000;stroke-width:1pt;marker-start:none"
         d="M 0,0 5,-5 -12.5,0 5,5 0,0 z"
         id="path3756" />
    </marker>
    <marker
       style="overflow:visible"
       id="Arrow1Mstart"
       refX="0"
       refY="0"
       orient="auto"
       inkscape:stockid="Arrow1Mstart">
      <path
         transform="matrix(0.4,0,0,0.4,4,0)"
         style="fill-rule:evenodd;stroke:#000000;stroke-width:1pt;marker-start:none"
         d="M 0,0 5,-5 -12.5,0 5,5 0,0 z"
         id="path3762" />
    </marker>
    <inkscape:perspective
       id="perspective10"
       inkscape:persp3d-origin="372.04724 : 350.78739 : 1"
       inkscape:vp_z="744.09448 : 526.18109 : 1"
       inkscape:vp_y="0 : 1000 : 0"
       inkscape:vp_x="0 : 526.18109 : 1"
       sodipodi:type="inkscape:persp3d" />
    <inkscape:perspective
       sodipodi:type="inkscape:persp3d"
       inkscape:vp_x="0 : 0.5 : 1"
       inkscape:vp_y="0 : 1000 : 0"
       inkscape:vp_z="1 : 0.5 : 1"
       inkscape:persp3d-origin="0.5 : 0.33333333 : 1"
       id="perspective2866" />
    <inkscape:perspective
       sodipodi:type="inkscape:persp3d"
       inkscape:vp_x="0 : 0.5 : 1"
       inkscape:vp_y="0 : 1000 : 0"
       inkscape:vp_z="1 : 0.5 : 1"
       inkscape:persp3d-origin="0.5 : 0.33333333 : 1"
       id="perspective4608" />
    <inkscape:perspective
       sodipodi:type="inkscape:persp3d"
       inkscape:vp_x="0 : 0.5 : 1"
       inkscape:vp_y="0 : 1000 : 0"
       inkscape:vp_z="1 : 0.5 : 1"
       inkscape:persp3d-origin="0.5 : 0.33333333 : 1"
       id="perspective22366" />
    <inkscape:perspective
       sodipodi:type="inkscape:persp3d"
       inkscape:vp_x="0 : 0.5 : 1"
       inkscape:vp_y="0 : 1000 : 0"
       inkscape:vp_z="1 : 0.5 : 1"
       inkscape:persp3d-origin="0.5 : 0.33333333 : 1"
       id="perspective22465" />
  </defs>
  <metadata
     id="metadata7">
    <rdf:RDF>
      <cc:Work
         rdf:about="">
        <dc:format>image/svg+xml</dc:format>
        <dc:type
           rdf:resource="http://purl.org/dc/dcmitype/StillImage" />
        <dc:title />
      </cc:Work>
    </rdf:RDF>
  </metadata>
  <g
     transform="translate(147.47823,-336.62214)"
     id="layer1"
     inkscape:groupmode="layer"
     inkscape:label="Ebene 1">
    <path
       d="m 23.507501,699.94664 0,-70.01375"
       style="fill:none;stroke:#000000;stroke-width:0.75015002;stroke-linecap:butt;stroke-linejoin:miter;stroke-miterlimit:10;stroke-opacity:1;stroke-dasharray:none"
       id="path4618" />
    <path
       d="m 23.507501,699.94664 500.099879,0"
       style="fill:none;stroke:#000000;stroke-width:0.75015002;stroke-linecap:butt;stroke-linejoin:miter;stroke-miterlimit:10;stroke-opacity:1;stroke-dasharray:none"
       id="path4634" />
    <path
       d="m 23.507501,349.87677 0,350.06987 500.099879,0"
       style="fill:none;stroke:#000000;stroke-width:0.75015002;stroke-linecap:butt;stroke-linejoin:miter;stroke-miterlimit:10;stroke-opacity:1;stroke-dasharray:none;marker-start:url(#Arrow1Lstart);marker-end:url(#Arrow1Lend)"
       id="path4636" />
    <g
       id="g5079"
       ns0:preamble="/home/tobias/Uni/talksAndPoster/120401_karlsruhe/header.tex"
       ns0:text="$f(\\omega(i))$"
       transform="matrix(4.8305043,0,0,4.8305043,-155.52223,396.08525)">
      <defs
         id="defs5081">
        <g
           id="g5083">
          <symbol
             id="textext-8bf2e918-0"
             overflow="visible"
             style="overflow:visible">
            <path
               id="path5086"
               d=""
               style="stroke:none" />
          </symbol>
          <symbol
             id="textext-8bf2e918-1"
             overflow="visible"
             style="overflow:visible">
            <path
               id="path5089"
               d="m 3.65625,-3.984375 0.859375,0 c 0.203125,0 0.296875,0 0.296875,-0.203125 0,-0.109375 -0.09375,-0.109375 -0.265625,-0.109375 l -0.828125,0 0.203125,-1.140625 c 0.046875,-0.203125 0.1875,-0.90625 0.25,-1.03125 0.078125,-0.1875 0.25,-0.34375 0.46875,-0.34375 0.03125,0 0.296875,0 0.484375,0.1875 -0.4375,0.03125 -0.546875,0.390625 -0.546875,0.53125 0,0.234375 0.1875,0.359375 0.375,0.359375 C 5.21875,-5.734375 5.5,-5.96875 5.5,-6.34375 c 0,-0.453125 -0.453125,-0.6875 -0.859375,-0.6875 -0.34375,0 -0.96875,0.1875 -1.265625,1.171875 -0.0625,0.203125 -0.09375,0.3125 -0.328125,1.5625 l -0.6875,0 c -0.203125,0 -0.3125,0 -0.3125,0.1875 0,0.125 0.09375,0.125 0.28125,0.125 l 0.65625,0 -0.734375,3.9375 c -0.1875,0.96875 -0.359375,1.875 -0.875,1.875 -0.046875,0 -0.28125,0 -0.484375,-0.1875 C 1.359375,1.609375 1.453125,1.25 1.453125,1.109375 1.453125,0.875 1.265625,0.75 1.078125,0.75 0.8125,0.75 0.53125,0.984375 0.53125,1.359375 c 0,0.4375 0.4375,0.6875 0.84375,0.6875 0.546875,0 0.953125,-0.59375 1.125,-0.96875 0.328125,-0.625 0.546875,-1.828125 0.5625,-1.90625 l 0.59375,-3.15625 z m 0,0"
               style="stroke:none" />
          </symbol>
          <symbol
             id="textext-8bf2e918-2"
             overflow="visible"
             style="overflow:visible">
            <path
               id="path5092"
               d="m 6.03125,-3.703125 c 0,-0.453125 -0.171875,-0.703125 -0.40625,-0.703125 -0.25,0 -0.515625,0.234375 -0.515625,0.46875 0,0.09375 0.046875,0.203125 0.140625,0.296875 0.171875,0.15625 0.359375,0.421875 0.359375,0.84375 0,0.390625 -0.203125,0.96875 -0.5,1.421875 C 4.8125,-0.953125 4.4375,-0.609375 3.96875,-0.609375 3.40625,-0.609375 3.09375,-0.96875 3,-1.5 c 0.109375,-0.265625 0.34375,-0.90625 0.34375,-1.1875 0,-0.109375 -0.046875,-0.21875 -0.1875,-0.21875 -0.078125,0 -0.1875,0.03125 -0.265625,0.171875 C 2.78125,-2.53125 2.65625,-1.890625 2.65625,-1.53125 2.328125,-1.0625 1.9375,-0.609375 1.3125,-0.609375 c -0.671875,0 -0.875,-0.59375 -0.875,-1.140625 0,-1.25 1.015625,-2.296875 1.015625,-2.421875 0,-0.109375 -0.078125,-0.1875 -0.1875,-0.1875 -0.125,0 -0.203125,0.125 -0.265625,0.21875 -0.5,0.734375 -0.875,1.921875 -0.875,2.828125 0,0.6875 0.21875,1.421875 1.046875,1.421875 0.703125,0 1.171875,-0.5 1.53125,-1.046875 0.09375,0.578125 0.484375,1.046875 1.09375,1.046875 0.78125,0 1.25,-0.609375 1.609375,-1.359375 0.25,-0.484375 0.625,-1.84375 0.625,-2.453125 z m 0,0"
               style="stroke:none" />
          </symbol>
          <symbol
             id="textext-8bf2e918-3"
             overflow="visible"
             style="overflow:visible">
            <path
               id="path5095"
               d="m 2.828125,-6.234375 c 0,-0.203125 -0.140625,-0.359375 -0.359375,-0.359375 -0.28125,0 -0.546875,0.265625 -0.546875,0.53125 0,0.1875 0.140625,0.359375 0.375,0.359375 0.234375,0 0.53125,-0.234375 0.53125,-0.53125 z m -0.75,3.75 c 0.109375,-0.28125 0.109375,-0.3125 0.21875,-0.578125 0.078125,-0.203125 0.125,-0.34375 0.125,-0.53125 0,-0.4375 -0.3125,-0.8125 -0.8125,-0.8125 -0.9375,0 -1.3125,1.453125 -1.3125,1.53125 0,0.109375 0.09375,0.109375 0.109375,0.109375 0.109375,0 0.109375,-0.03125 0.15625,-0.1875 0.28125,-0.9375 0.671875,-1.234375 1.015625,-1.234375 0.078125,0 0.25,0 0.25,0.3125 0,0.21875 -0.078125,0.421875 -0.109375,0.53125 -0.078125,0.25 -0.53125,1.40625 -0.6875,1.84375 -0.109375,0.25 -0.234375,0.578125 -0.234375,0.796875 0,0.46875 0.34375,0.8125 0.8125,0.8125 0.9375,0 1.3125,-1.4375 1.3125,-1.53125 0,-0.109375 -0.09375,-0.109375 -0.125,-0.109375 -0.09375,0 -0.09375,0.03125 -0.140625,0.1875 -0.1875,0.625 -0.515625,1.234375 -1.015625,1.234375 -0.171875,0 -0.25,-0.09375 -0.25,-0.328125 0,-0.25 0.0625,-0.390625 0.296875,-1 l 0.390625,-1.046875 z m 0,0"
               style="stroke:none" />
          </symbol>
          <symbol
             id="textext-8bf2e918-4"
             overflow="visible"
             style="overflow:visible">
            <path
               id="path5098"
               d=""
               style="stroke:none" />
          </symbol>
          <symbol
             id="textext-8bf2e918-5"
             overflow="visible"
             style="overflow:visible">
            <path
               id="path5101"
               d="m 3.296875,2.390625 c 0,-0.03125 0,-0.046875 -0.171875,-0.21875 C 1.890625,0.921875 1.5625,-0.96875 1.5625,-2.5 c 0,-1.734375 0.375,-3.46875 1.609375,-4.703125 0.125,-0.125 0.125,-0.140625 0.125,-0.171875 0,-0.078125 -0.03125,-0.109375 -0.09375,-0.109375 -0.109375,0 -1,0.6875 -1.59375,1.953125 -0.5,1.09375 -0.625,2.203125 -0.625,3.03125 0,0.78125 0.109375,1.984375 0.65625,3.125 C 2.25,1.84375 3.09375,2.5 3.203125,2.5 c 0.0625,0 0.09375,-0.03125 0.09375,-0.109375 z m 0,0"
               style="stroke:none" />
          </symbol>
          <symbol
             id="textext-8bf2e918-6"
             overflow="visible"
             style="overflow:visible">
            <path
               id="path5104"
               d="m 2.875,-2.5 c 0,-0.765625 -0.109375,-1.96875 -0.65625,-3.109375 -0.59375,-1.21875 -1.453125,-1.875 -1.546875,-1.875 -0.0625,0 -0.109375,0.046875 -0.109375,0.109375 0,0.03125 0,0.046875 0.1875,0.234375 0.984375,0.984375 1.546875,2.5625 1.546875,4.640625 0,1.71875 -0.359375,3.46875 -1.59375,4.71875 C 0.5625,2.34375 0.5625,2.359375 0.5625,2.390625 0.5625,2.453125 0.609375,2.5 0.671875,2.5 0.765625,2.5 1.671875,1.8125 2.25,0.546875 2.765625,-0.546875 2.875,-1.65625 2.875,-2.5 z m 0,0"
               style="stroke:none" />
          </symbol>
        </g>
      </defs>
      <g
         id="textext-8bf2e918-7">
        <g
           id="g5107"
           style="fill:#000000;fill-opacity:1">
          <use
             id="use5109"
             y="-0.80900002"
             x="1.1339999"
             xlink:href="#textext-8bf2e918-1"
             width="744.09448"
             height="1052.3622" />
        </g>
        <g
           id="g5111"
           style="fill:#000000;fill-opacity:1">
          <use
             id="use5113"
             y="-0.80900002"
             x="7.0840001"
             xlink:href="#textext-8bf2e918-5"
             width="744.09448"
             height="1052.3622" />
        </g>
        <g
           id="g5115"
           style="fill:#000000;fill-opacity:1">
          <use
             id="use5117"
             y="-0.80900002"
             x="10.958"
             xlink:href="#textext-8bf2e918-2"
             width="744.09448"
             height="1052.3622" />
        </g>
        <g
           id="g5119"
           style="fill:#000000;fill-opacity:1">
          <use
             id="use5121"
             y="-0.80900002"
             x="17.517"
             xlink:href="#textext-8bf2e918-5"
             width="744.09448"
             height="1052.3622" />
        </g>
        <g
           id="g5123"
           style="fill:#000000;fill-opacity:1">
          <use
             id="use5125"
             y="-0.80900002"
             x="21.391001"
             xlink:href="#textext-8bf2e918-3"
             width="744.09448"
             height="1052.3622" />
        </g>
        <g
           id="g5127"
           style="fill:#000000;fill-opacity:1">
          <use
             id="use5129"
             y="-0.80900002"
             x="24.823999"
             xlink:href="#textext-8bf2e918-6"
             width="744.09448"
             height="1052.3622" />
          <use
             id="use5131"
             y="-0.80900002"
             x="28.698456"
             xlink:href="#textext-8bf2e918-6"
             width="744.09448"
             height="1052.3622" />
        </g>
      </g>
    </g>
    <g
       ns0:text="$\\omega$"
       ns0:preamble=""
       transform="matrix(4.8305043,0,0,4.8305043,-539.08061,62.819241)"
       id="g21078">
      <defs
         id="defs21080">
        <g
           id="g21082">
          <symbol
             style="overflow:visible"
             overflow="visible"
             id="textext-e72aae5e-0">
            <path
               style="stroke:none"
               d=""
               id="path21085" />
          </symbol>
          <symbol
             style="overflow:visible"
             overflow="visible"
             id="textext-e72aae5e-1">
            <path
               style="stroke:none"
               d="m 6.03125,-3.703125 c 0,-0.453125 -0.171875,-0.703125 -0.40625,-0.703125 -0.25,0 -0.515625,0.234375 -0.515625,0.46875 0,0.09375 0.046875,0.203125 0.140625,0.296875 0.171875,0.15625 0.359375,0.421875 0.359375,0.84375 0,0.390625 -0.203125,0.96875 -0.5,1.421875 C 4.8125,-0.953125 4.4375,-0.609375 3.96875,-0.609375 3.40625,-0.609375 3.09375,-0.96875 3,-1.5 c 0.109375,-0.265625 0.34375,-0.90625 0.34375,-1.1875 0,-0.109375 -0.046875,-0.21875 -0.1875,-0.21875 -0.078125,0 -0.1875,0.03125 -0.265625,0.171875 C 2.78125,-2.53125 2.65625,-1.890625 2.65625,-1.53125 2.328125,-1.0625 1.9375,-0.609375 1.3125,-0.609375 c -0.671875,0 -0.875,-0.59375 -0.875,-1.140625 0,-1.25 1.015625,-2.296875 1.015625,-2.421875 0,-0.109375 -0.078125,-0.1875 -0.1875,-0.1875 -0.125,0 -0.203125,0.125 -0.265625,0.21875 -0.5,0.734375 -0.875,1.921875 -0.875,2.828125 0,0.6875 0.21875,1.421875 1.046875,1.421875 0.703125,0 1.171875,-0.5 1.53125,-1.046875 0.09375,0.578125 0.484375,1.046875 1.09375,1.046875 0.78125,0 1.25,-0.609375 1.609375,-1.359375 0.25,-0.484375 0.625,-1.84375 0.625,-2.453125 z m 0,0"
               id="path21088" />
          </symbol>
        </g>
      </defs>
      <g
         id="textext-e72aae5e-2">
        <g
           style="fill:#000000;fill-opacity:1"
           id="g21091">
          <use
             height="1052.3622"
             width="744.09448"
             xlink:href="#textext-e72aae5e-1"
             x="223.43201"
             y="134.765"
             id="use21093" />
        </g>
      </g>
    </g>
    <path
       id="path21197"
       style="fill:none;stroke:#000000;stroke-width:0.75015002;stroke-linecap:butt;stroke-linejoin:miter;stroke-miterlimit:10;stroke-opacity:1;stroke-dasharray:none"
       d="m 23.507501,699.94664 0,-70.01375" />
    <path
       id="path21213"
       style="fill:none;stroke:#000000;stroke-width:0.75015002;stroke-linecap:butt;stroke-linejoin:miter;stroke-miterlimit:10;stroke-opacity:1;stroke-dasharray:none"
       d="m 23.507501,699.94664 500.099879,0" />
    <path
       id="path21215"
       style="fill:none;stroke:#000000;stroke-width:1;stroke-linecap:butt;stroke-linejoin:miter;stroke-miterlimit:10;stroke-opacity:1;stroke-dasharray:none;marker-start:url(#Arrow1Lstart);marker-end:url(#Arrow1Lend)"
       d="m 23.507501,349.87677 0,350.06987 500.099879,0" />
    <g
       id="g21351"
       transform="matrix(4.8305043,0,0,4.8305043,-539.08061,62.819241)"
       ns0:preamble=""
       ns0:text="$\\omega$">
      <defs
         id="defs21353">
        <g
           id="g21355">
          <symbol
             id="symbol21357"
             overflow="visible"
             style="overflow:visible">
            <path
               id="path21359"
               d=""
               style="stroke:none" />
          </symbol>
          <symbol
             id="symbol21361"
             overflow="visible"
             style="overflow:visible">
            <path
               id="path21363"
               d="m 6.03125,-3.703125 c 0,-0.453125 -0.171875,-0.703125 -0.40625,-0.703125 -0.25,0 -0.515625,0.234375 -0.515625,0.46875 0,0.09375 0.046875,0.203125 0.140625,0.296875 0.171875,0.15625 0.359375,0.421875 0.359375,0.84375 0,0.390625 -0.203125,0.96875 -0.5,1.421875 C 4.8125,-0.953125 4.4375,-0.609375 3.96875,-0.609375 3.40625,-0.609375 3.09375,-0.96875 3,-1.5 c 0.109375,-0.265625 0.34375,-0.90625 0.34375,-1.1875 0,-0.109375 -0.046875,-0.21875 -0.1875,-0.21875 -0.078125,0 -0.1875,0.03125 -0.265625,0.171875 C 2.78125,-2.53125 2.65625,-1.890625 2.65625,-1.53125 2.328125,-1.0625 1.9375,-0.609375 1.3125,-0.609375 c -0.671875,0 -0.875,-0.59375 -0.875,-1.140625 0,-1.25 1.015625,-2.296875 1.015625,-2.421875 0,-0.109375 -0.078125,-0.1875 -0.1875,-0.1875 -0.125,0 -0.203125,0.125 -0.265625,0.21875 -0.5,0.734375 -0.875,1.921875 -0.875,2.828125 0,0.6875 0.21875,1.421875 1.046875,1.421875 0.703125,0 1.171875,-0.5 1.53125,-1.046875 0.09375,0.578125 0.484375,1.046875 1.09375,1.046875 0.78125,0 1.25,-0.609375 1.609375,-1.359375 0.25,-0.484375 0.625,-1.84375 0.625,-2.453125 z m 0,0"
               style="stroke:none" />
          </symbol>
        </g>
      </defs>
      <g
         id="g21365">
        <g
           id="g21367"
           style="fill:#000000;fill-opacity:1">
          <use
             id="use21369"
             y="134.765"
             x="223.43201"
             xlink:href="#textext-e72aae5e-1"
             width="744.09448"
             height="1052.3622" />
        </g>
      </g>
    </g>
    <path
       transform="matrix(1.2780721,0,0,1.2780721,365.41602,300.87806)"
       d="m -20.192315,176.31592 c 0,2.23038 -1.808081,4.03846 -4.038463,4.03846 -2.230381,0 -4.038462,-1.80808 -4.038462,-4.03846 0,-2.23038 1.808081,-4.03846 4.038462,-4.03846 2.230382,0 4.038463,1.80808 4.038463,4.03846 z"
       sodipodi:ry="4.0384626"
       sodipodi:rx="4.0384626"
       sodipodi:cy="176.31592"
       sodipodi:cx="-24.230778"
       id="path21392"
       style="fill:#000000;fill-opacity:1;stroke:#000000;stroke-width:1;stroke-miterlimit:4;stroke-opacity:1;stroke-dasharray:none;stroke-dashoffset:0"
       sodipodi:type="arc" />
    <path
       sodipodi:type="arc"
       style="fill:#000000;fill-opacity:1;stroke:#000000;stroke-width:1;stroke-miterlimit:4;stroke-opacity:1;stroke-dasharray:none;stroke-dashoffset:0"
       id="path21394"
       sodipodi:cx="-24.230778"
       sodipodi:cy="176.31592"
       sodipodi:rx="4.0384626"
       sodipodi:ry="4.0384626"
       d="m -20.192315,176.31592 c 0,2.23038 -1.808081,4.03846 -4.038463,4.03846 -2.230381,0 -4.038462,-1.80808 -4.038462,-4.03846 0,-2.23038 1.808081,-4.03846 4.038462,-4.03846 2.230382,0 4.038463,1.80808 4.038463,4.03846 z"
       transform="matrix(1.2780721,0,0,1.2780721,123.15571,334.54768)" />
    <path
       transform="matrix(1.2780721,0,0,1.2780721,191.78728,229.54765)"
       d="m -20.192315,176.31592 c 0,2.23038 -1.808081,4.03846 -4.038463,4.03846 -2.230381,0 -4.038462,-1.80808 -4.038462,-4.03846 0,-2.23038 1.808081,-4.03846 4.038462,-4.03846 2.230382,0 4.038463,1.80808 4.038463,4.03846 z"
       sodipodi:ry="4.0384626"
       sodipodi:rx="4.0384626"
       sodipodi:cy="176.31592"
       sodipodi:cx="-24.230778"
       id="path21396"
       style="fill:#000000;fill-opacity:1;stroke:#000000;stroke-width:1;stroke-miterlimit:4;stroke-opacity:1;stroke-dasharray:none;stroke-dashoffset:0"
       sodipodi:type="arc" />
    <path
       sodipodi:type="arc"
       style="fill:#000000;fill-opacity:1;stroke:#000000;stroke-width:1;stroke-miterlimit:4;stroke-opacity:1;stroke-dasharray:none;stroke-dashoffset:0"
       id="path21398"
       sodipodi:cx="-24.230778"
       sodipodi:cy="176.31592"
       sodipodi:rx="4.0384626"
       sodipodi:ry="4.0384626"
       d="m -20.192315,176.31592 c 0,2.23038 -1.808081,4.03846 -4.038463,4.03846 -2.230381,0 -4.038462,-1.80808 -4.038462,-4.03846 0,-2.23038 1.808081,-4.03846 4.038462,-4.03846 2.230382,0 4.038463,1.80808 4.038463,4.03846 z"
       transform="matrix(1.2780721,0,0,1.2780721,270.63802,256.28442)" />
    <path
       d="m 92.256442,711.73123 0,-152.04981"
       style="fill:none;stroke:#000000;stroke-width:1;stroke-linecap:butt;stroke-linejoin:miter;stroke-miterlimit:10;stroke-opacity:1;stroke-dasharray:none"
       id="path22477" />
    <path
       d="m 161.03857,711.72278 0,-257.08099"
       style="fill:none;stroke:#000000;stroke-width:1;stroke-linecap:butt;stroke-linejoin:miter;stroke-miterlimit:10;stroke-opacity:1;stroke-dasharray:none"
       id="path22479" />
    <path
       d="m 239.63937,712.26666 0,-229.31302"
       style="fill:none;stroke:#000000;stroke-width:1;stroke-linecap:butt;stroke-linejoin:miter;stroke-miterlimit:10;stroke-opacity:1;stroke-dasharray:none"
       id="path22481" />
    <path
       id="path23194"
       style="fill:none;stroke:#000000;stroke-width:1;stroke-linecap:butt;stroke-linejoin:miter;stroke-miterlimit:10;stroke-opacity:1;stroke-dasharray:none"
       d="m 334.30322,711.26287 0,-184.37649" />
    <path
       transform="translate(-68.846674,349.50169)"
       id="path23198"
       d="M 403.97249,177.645 308.75826,132.51455 230.60555,105.54636 161.80914,210.1169"
       style="fill:none;stroke:#000000;stroke-width:1px;stroke-linecap:butt;stroke-linejoin:miter;stroke-opacity:1" />
    <path
       id="path23200"
       style="fill:none;stroke:#000000;stroke-width:1;stroke-linecap:butt;stroke-linejoin:miter;stroke-miterlimit:10;stroke-opacity:1;stroke-dasharray:none;marker-end:url(#Arrow1Lend)"
       d="m 24.14371,383.41093 505.16129,0" />
    <path
       d="m 119.51009,375.67759 0,14.91633"
       style="fill:none;stroke:#000000;stroke-width:1;stroke-linecap:butt;stroke-linejoin:miter;stroke-miterlimit:10;stroke-opacity:1;stroke-dasharray:none"
       id="path23202" />
    <path
       id="path23204"
       style="fill:none;stroke:#000000;stroke-width:1;stroke-linecap:butt;stroke-linejoin:miter;stroke-miterlimit:10;stroke-opacity:1;stroke-dasharray:none"
       d="m 192.68985,375.67759 0,14.91633" />
    <path
       d="m 262.17926,375.67759 0,14.91633"
       style="fill:none;stroke:#000000;stroke-width:1;stroke-linecap:butt;stroke-linejoin:miter;stroke-miterlimit:10;stroke-opacity:1;stroke-dasharray:none"
       id="path23206" />
    <path
       d="m 192.68985,382.69958 0,316.87939"
       style="fill:none;stroke:#000000;stroke-width:1;stroke-linecap:butt;stroke-linejoin:miter;stroke-miterlimit:10;stroke-opacity:1;stroke-dasharray:6, 6;stroke-dashoffset:0"
       id="path23208" />
    <g
       ns0:text="$\\omega_{I-1}$"
       ns0:preamble=""
       transform="matrix(4.8305043,0,0,4.8305043,-1049.5531,90.118141)"
       id="g24398">
      <defs
         id="defs24400">
        <g
           id="g24402">
          <symbol
             style="overflow:visible"
             overflow="visible"
             id="textext-c2f86328-0">
            <path
               style="stroke:none"
               d=""
               id="path24405" />
          </symbol>
          <symbol
             style="overflow:visible"
             overflow="visible"
             id="textext-c2f86328-1">
            <path
               style="stroke:none"
               d="m 6.03125,-3.703125 c 0,-0.453125 -0.171875,-0.703125 -0.40625,-0.703125 -0.25,0 -0.515625,0.234375 -0.515625,0.46875 0,0.09375 0.046875,0.203125 0.140625,0.296875 0.171875,0.15625 0.359375,0.421875 0.359375,0.84375 0,0.390625 -0.203125,0.96875 -0.5,1.421875 C 4.8125,-0.953125 4.4375,-0.609375 3.96875,-0.609375 3.40625,-0.609375 3.09375,-0.96875 3,-1.5 c 0.109375,-0.265625 0.34375,-0.90625 0.34375,-1.1875 0,-0.109375 -0.046875,-0.21875 -0.1875,-0.21875 -0.078125,0 -0.1875,0.03125 -0.265625,0.171875 C 2.78125,-2.53125 2.65625,-1.890625 2.65625,-1.53125 2.328125,-1.0625 1.9375,-0.609375 1.3125,-0.609375 c -0.671875,0 -0.875,-0.59375 -0.875,-1.140625 0,-1.25 1.015625,-2.296875 1.015625,-2.421875 0,-0.109375 -0.078125,-0.1875 -0.1875,-0.1875 -0.125,0 -0.203125,0.125 -0.265625,0.21875 -0.5,0.734375 -0.875,1.921875 -0.875,2.828125 0,0.6875 0.21875,1.421875 1.046875,1.421875 0.703125,0 1.171875,-0.5 1.53125,-1.046875 0.09375,0.578125 0.484375,1.046875 1.09375,1.046875 0.78125,0 1.25,-0.609375 1.609375,-1.359375 0.25,-0.484375 0.625,-1.84375 0.625,-2.453125 z m 0,0"
               id="path24408" />
          </symbol>
          <symbol
             style="overflow:visible"
             overflow="visible"
             id="textext-c2f86328-2">
            <path
               style="stroke:none"
               d=""
               id="path24411" />
          </symbol>
          <symbol
             style="overflow:visible"
             overflow="visible"
             id="textext-c2f86328-3">
            <path
               style="stroke:none"
               d="m 2.875,-4.203125 c 0.0625,-0.25 0.078125,-0.3125 0.609375,-0.3125 0.171875,0 0.25,0 0.25,-0.140625 0,-0.0625 -0.046875,-0.109375 -0.109375,-0.109375 -0.140625,0 -0.328125,0.03125 -0.46875,0.03125 -0.15625,0 -0.3125,0 -0.46875,0 0,0 -0.484375,0 -0.484375,0 -0.15625,0 -0.328125,-0.03125 -0.484375,-0.03125 -0.046875,0 -0.140625,0 -0.140625,0.15625 0,0.09375 0.078125,0.09375 0.234375,0.09375 0,0 0.140625,0 0.25,0.015625 0.140625,0.015625 0.203125,0.03125 0.203125,0.109375 0,0.03125 -0.015625,0.078125 -0.03125,0.140625 l -0.9375,3.703125 C 1.25,-0.328125 1.21875,-0.25 0.703125,-0.25 c -0.1875,0 -0.25,0 -0.25,0.15625 0,0 0,0.09375 0.109375,0.09375 C 0.765625,0 1.296875,-0.03125 1.5,-0.03125 l 0.484375,0.015625 C 2.125,-0.015625 2.3125,0 2.453125,0 2.5,0 2.609375,0 2.609375,-0.15625 2.609375,-0.25 2.515625,-0.25 2.390625,-0.25 2.375,-0.25 2.21875,-0.25 2.078125,-0.265625 1.921875,-0.28125 1.921875,-0.3125 1.921875,-0.375 c 0,0 0,-0.046875 0.03125,-0.140625 L 2.875,-4.203125 z m 0,0"
               id="path24414" />
          </symbol>
          <symbol
             style="overflow:visible"
             overflow="visible"
             id="textext-c2f86328-4">
            <path
               style="stroke:none"
               d=""
               id="path24417" />
          </symbol>
          <symbol
             style="overflow:visible"
             overflow="visible"
             id="textext-c2f86328-5">
            <path
               style="stroke:none"
               d="m 5.1875,-1.578125 c 0.109375,0 0.28125,0 0.28125,-0.15625 0,-0.1875 -0.171875,-0.1875 -0.28125,-0.1875 l -4.15625,0 c -0.109375,0 -0.28125,0 -0.28125,0.171875 0,0.171875 0.15625,0.171875 0.28125,0.171875 l 4.15625,0 z m 0,0"
               id="path24420" />
          </symbol>
          <symbol
             style="overflow:visible"
             overflow="visible"
             id="textext-c2f86328-6">
            <path
               style="stroke:none"
               d=""
               id="path24423" />
          </symbol>
          <symbol
             style="overflow:visible"
             overflow="visible"
             id="textext-c2f86328-7">
            <path
               style="stroke:none"
               d="m 2.328125,-4.4375 c 0,-0.1875 0,-0.1875 -0.203125,-0.1875 -0.453125,0.4375 -1.078125,0.4375 -1.359375,0.4375 l 0,0.25 c 0.15625,0 0.625,0 1,-0.1875 l 0,3.546875 c 0,0.234375 0,0.328125 -0.6875,0.328125 l -0.265625,0 0,0.25 c 0.125,0 0.984375,-0.03125 1.234375,-0.03125 0.21875,0 1.09375,0.03125 1.25,0.03125 l 0,-0.25 -0.265625,0 c -0.703125,0 -0.703125,-0.09375 -0.703125,-0.328125 l 0,-3.859375 z m 0,0"
               id="path24426" />
          </symbol>
        </g>
      </defs>
      <g
         id="textext-c2f86328-8">
        <g
           style="fill:#000000;fill-opacity:1"
           id="g24429">
          <use
             height="405.49869"
             width="638.18933"
             xlink:href="#textext-c2f86328-1"
             x="223.43201"
             y="134.765"
             id="use24431" />
        </g>
        <g
           style="fill:#000000;fill-opacity:1"
           id="g24433">
          <use
             height="405.49869"
             width="638.18933"
             xlink:href="#textext-c2f86328-3"
             x="229.633"
             y="136.259"
             id="use24435" />
        </g>
        <g
           style="fill:#000000;fill-opacity:1"
           id="g24437">
          <use
             height="405.49869"
             width="638.18933"
             xlink:href="#textext-c2f86328-5"
             x="233.70599"
             y="136.259"
             id="use24439" />
        </g>
        <g
           style="fill:#000000;fill-opacity:1"
           id="g24441">
          <use
             height="405.49869"
             width="638.18933"
             xlink:href="#textext-c2f86328-7"
             x="239.933"
             y="136.259"
             id="use24443" />
        </g>
      </g>
    </g>
    <g
       id="g24908"
       transform="matrix(4.8305043,0,0,4.8305043,-941.3635,90.118141)"
       ns0:preamble=""
       ns0:text="$\\omega_{I}$">
      <defs
         id="defs24910">
        <g
           id="g24912">
          <symbol
             id="textext-b0999306-0"
             overflow="visible"
             style="overflow:visible">
            <path
               id="path24915"
               d=""
               style="stroke:none" />
          </symbol>
          <symbol
             id="textext-b0999306-1"
             overflow="visible"
             style="overflow:visible">
            <path
               id="path24918"
               d="m 6.03125,-3.703125 c 0,-0.453125 -0.171875,-0.703125 -0.40625,-0.703125 -0.25,0 -0.515625,0.234375 -0.515625,0.46875 0,0.09375 0.046875,0.203125 0.140625,0.296875 0.171875,0.15625 0.359375,0.421875 0.359375,0.84375 0,0.390625 -0.203125,0.96875 -0.5,1.421875 C 4.8125,-0.953125 4.4375,-0.609375 3.96875,-0.609375 3.40625,-0.609375 3.09375,-0.96875 3,-1.5 c 0.109375,-0.265625 0.34375,-0.90625 0.34375,-1.1875 0,-0.109375 -0.046875,-0.21875 -0.1875,-0.21875 -0.078125,0 -0.1875,0.03125 -0.265625,0.171875 C 2.78125,-2.53125 2.65625,-1.890625 2.65625,-1.53125 2.328125,-1.0625 1.9375,-0.609375 1.3125,-0.609375 c -0.671875,0 -0.875,-0.59375 -0.875,-1.140625 0,-1.25 1.015625,-2.296875 1.015625,-2.421875 0,-0.109375 -0.078125,-0.1875 -0.1875,-0.1875 -0.125,0 -0.203125,0.125 -0.265625,0.21875 -0.5,0.734375 -0.875,1.921875 -0.875,2.828125 0,0.6875 0.21875,1.421875 1.046875,1.421875 0.703125,0 1.171875,-0.5 1.53125,-1.046875 0.09375,0.578125 0.484375,1.046875 1.09375,1.046875 0.78125,0 1.25,-0.609375 1.609375,-1.359375 0.25,-0.484375 0.625,-1.84375 0.625,-2.453125 z m 0,0"
               style="stroke:none" />
          </symbol>
          <symbol
             id="textext-b0999306-2"
             overflow="visible"
             style="overflow:visible">
            <path
               id="path24921"
               d=""
               style="stroke:none" />
          </symbol>
          <symbol
             id="textext-b0999306-3"
             overflow="visible"
             style="overflow:visible">
            <path
               id="path24924"
               d="m 2.875,-4.203125 c 0.0625,-0.25 0.078125,-0.3125 0.609375,-0.3125 0.171875,0 0.25,0 0.25,-0.140625 0,-0.0625 -0.046875,-0.109375 -0.109375,-0.109375 -0.140625,0 -0.328125,0.03125 -0.46875,0.03125 -0.15625,0 -0.3125,0 -0.46875,0 0,0 -0.484375,0 -0.484375,0 -0.15625,0 -0.328125,-0.03125 -0.484375,-0.03125 -0.046875,0 -0.140625,0 -0.140625,0.15625 0,0.09375 0.078125,0.09375 0.234375,0.09375 0,0 0.140625,0 0.25,0.015625 0.140625,0.015625 0.203125,0.03125 0.203125,0.109375 0,0.03125 -0.015625,0.078125 -0.03125,0.140625 l -0.9375,3.703125 C 1.25,-0.328125 1.21875,-0.25 0.703125,-0.25 c -0.1875,0 -0.25,0 -0.25,0.15625 0,0 0,0.09375 0.109375,0.09375 C 0.765625,0 1.296875,-0.03125 1.5,-0.03125 l 0.484375,0.015625 C 2.125,-0.015625 2.3125,0 2.453125,0 2.5,0 2.609375,0 2.609375,-0.15625 2.609375,-0.25 2.515625,-0.25 2.390625,-0.25 2.375,-0.25 2.21875,-0.25 2.078125,-0.265625 1.921875,-0.28125 1.921875,-0.3125 1.921875,-0.375 c 0,0 0,-0.046875 0.03125,-0.140625 L 2.875,-4.203125 z m 0,0"
               style="stroke:none" />
          </symbol>
        </g>
      </defs>
      <g
         id="textext-b0999306-4">
        <g
           id="g24927"
           style="fill:#000000;fill-opacity:1">
          <use
             id="use24929"
             y="134.765"
             x="223.43201"
             xlink:href="#textext-b0999306-1"
             width="638.18933"
             height="405.49869" />
        </g>
        <g
           id="g24931"
           style="fill:#000000;fill-opacity:1">
          <use
             id="use24933"
             y="136.259"
             x="229.633"
             xlink:href="#textext-b0999306-3"
             width="638.18933"
             height="405.49869" />
        </g>
      </g>
    </g>
    <g
       ns0:text="$\\omega_{I+1}$"
       ns0:preamble=""
       transform="matrix(4.8305043,0,0,4.8305043,-863.52926,90.118141)"
       id="g25223">
      <defs
         id="defs25225">
        <g
           id="g25227">
          <symbol
             style="overflow:visible"
             overflow="visible"
             id="textext-1020975d-0">
            <path
               style="stroke:none"
               d=""
               id="path25230" />
          </symbol>
          <symbol
             style="overflow:visible"
             overflow="visible"
             id="textext-1020975d-1">
            <path
               style="stroke:none"
               d="m 6.03125,-3.703125 c 0,-0.453125 -0.171875,-0.703125 -0.40625,-0.703125 -0.25,0 -0.515625,0.234375 -0.515625,0.46875 0,0.09375 0.046875,0.203125 0.140625,0.296875 0.171875,0.15625 0.359375,0.421875 0.359375,0.84375 0,0.390625 -0.203125,0.96875 -0.5,1.421875 C 4.8125,-0.953125 4.4375,-0.609375 3.96875,-0.609375 3.40625,-0.609375 3.09375,-0.96875 3,-1.5 c 0.109375,-0.265625 0.34375,-0.90625 0.34375,-1.1875 0,-0.109375 -0.046875,-0.21875 -0.1875,-0.21875 -0.078125,0 -0.1875,0.03125 -0.265625,0.171875 C 2.78125,-2.53125 2.65625,-1.890625 2.65625,-1.53125 2.328125,-1.0625 1.9375,-0.609375 1.3125,-0.609375 c -0.671875,0 -0.875,-0.59375 -0.875,-1.140625 0,-1.25 1.015625,-2.296875 1.015625,-2.421875 0,-0.109375 -0.078125,-0.1875 -0.1875,-0.1875 -0.125,0 -0.203125,0.125 -0.265625,0.21875 -0.5,0.734375 -0.875,1.921875 -0.875,2.828125 0,0.6875 0.21875,1.421875 1.046875,1.421875 0.703125,0 1.171875,-0.5 1.53125,-1.046875 0.09375,0.578125 0.484375,1.046875 1.09375,1.046875 0.78125,0 1.25,-0.609375 1.609375,-1.359375 0.25,-0.484375 0.625,-1.84375 0.625,-2.453125 z m 0,0"
               id="path25233" />
          </symbol>
          <symbol
             style="overflow:visible"
             overflow="visible"
             id="textext-1020975d-2">
            <path
               style="stroke:none"
               d=""
               id="path25236" />
          </symbol>
          <symbol
             style="overflow:visible"
             overflow="visible"
             id="textext-1020975d-3">
            <path
               style="stroke:none"
               d="m 2.875,-4.203125 c 0.0625,-0.25 0.078125,-0.3125 0.609375,-0.3125 0.171875,0 0.25,0 0.25,-0.140625 0,-0.0625 -0.046875,-0.109375 -0.109375,-0.109375 -0.140625,0 -0.328125,0.03125 -0.46875,0.03125 -0.15625,0 -0.3125,0 -0.46875,0 0,0 -0.484375,0 -0.484375,0 -0.15625,0 -0.328125,-0.03125 -0.484375,-0.03125 -0.046875,0 -0.140625,0 -0.140625,0.15625 0,0.09375 0.078125,0.09375 0.234375,0.09375 0,0 0.140625,0 0.25,0.015625 0.140625,0.015625 0.203125,0.03125 0.203125,0.109375 0,0.03125 -0.015625,0.078125 -0.03125,0.140625 l -0.9375,3.703125 C 1.25,-0.328125 1.21875,-0.25 0.703125,-0.25 c -0.1875,0 -0.25,0 -0.25,0.15625 0,0 0,0.09375 0.109375,0.09375 C 0.765625,0 1.296875,-0.03125 1.5,-0.03125 l 0.484375,0.015625 C 2.125,-0.015625 2.3125,0 2.453125,0 2.5,0 2.609375,0 2.609375,-0.15625 2.609375,-0.25 2.515625,-0.25 2.390625,-0.25 2.375,-0.25 2.21875,-0.25 2.078125,-0.265625 1.921875,-0.28125 1.921875,-0.3125 1.921875,-0.375 c 0,0 0,-0.046875 0.03125,-0.140625 L 2.875,-4.203125 z m 0,0"
               id="path25239" />
          </symbol>
          <symbol
             style="overflow:visible"
             overflow="visible"
             id="textext-1020975d-4">
            <path
               style="stroke:none"
               d=""
               id="path25242" />
          </symbol>
          <symbol
             style="overflow:visible"
             overflow="visible"
             id="textext-1020975d-5">
            <path
               style="stroke:none"
               d="m 3.21875,-1.578125 2.140625,0 c 0.09375,0 0.25,0 0.25,-0.15625 0,-0.1875 -0.15625,-0.1875 -0.25,-0.1875 l -2.140625,0 0,-2.140625 c 0,-0.078125 0,-0.25 -0.15625,-0.25 -0.171875,0 -0.171875,0.15625 -0.171875,0.25 l 0,2.140625 -2.140625,0 c -0.09375,0 -0.265625,0 -0.265625,0.171875 0,0.171875 0.15625,0.171875 0.265625,0.171875 l 2.140625,0 0,2.140625 c 0,0.09375 0,0.265625 0.15625,0.265625 0.171875,0 0.171875,-0.171875 0.171875,-0.265625 l 0,-2.140625 z m 0,0"
               id="path25245" />
          </symbol>
          <symbol
             style="overflow:visible"
             overflow="visible"
             id="textext-1020975d-6">
            <path
               style="stroke:none"
               d="m 2.328125,-4.4375 c 0,-0.1875 0,-0.1875 -0.203125,-0.1875 -0.453125,0.4375 -1.078125,0.4375 -1.359375,0.4375 l 0,0.25 c 0.15625,0 0.625,0 1,-0.1875 l 0,3.546875 c 0,0.234375 0,0.328125 -0.6875,0.328125 l -0.265625,0 0,0.25 c 0.125,0 0.984375,-0.03125 1.234375,-0.03125 0.21875,0 1.09375,0.03125 1.25,0.03125 l 0,-0.25 -0.265625,0 c -0.703125,0 -0.703125,-0.09375 -0.703125,-0.328125 l 0,-3.859375 z m 0,0"
               id="path25248" />
          </symbol>
        </g>
      </defs>
      <g
         id="textext-1020975d-7">
        <g
           style="fill:#000000;fill-opacity:1"
           id="g25251">
          <use
             height="405.49869"
             width="638.18933"
             xlink:href="#textext-1020975d-1"
             x="223.43201"
             y="134.765"
             id="use25253" />
        </g>
        <g
           style="fill:#000000;fill-opacity:1"
           id="g25255">
          <use
             height="405.49869"
             width="638.18933"
             xlink:href="#textext-1020975d-3"
             x="229.633"
             y="136.259"
             id="use25257" />
        </g>
        <g
           style="fill:#000000;fill-opacity:1"
           id="g25259">
          <use
             height="405.49869"
             width="638.18933"
             xlink:href="#textext-1020975d-5"
             x="233.70599"
             y="136.259"
             id="use25261" />
          <use
             height="405.49869"
             width="638.18933"
             xlink:href="#textext-1020975d-6"
             x="239.82202"
             y="136.259"
             id="use25263" />
        </g>
      </g>
    </g>
    <g
       ns0:text="$\\epsilon_{j}$"
       ns0:preamble=""
       transform="matrix(4.8305043,0,0,4.8305043,-904.7814,-293.6047)"
       id="g26184">
      <defs
         id="defs26186">
        <g
           id="g26188">
          <symbol
             overflow="visible"
             id="textext-2a995827-0"
             style="overflow:visible">
            <path
               style="stroke:none"
               d=""
               id="path26191" />
          </symbol>
          <symbol
             overflow="visible"
             id="textext-2a995827-1"
             style="overflow:visible">
            <path
               style="stroke:none"
               d="m 2.96875,-2.25 c 0.15625,0 0.34375,0 0.34375,-0.171875 0,-0.140625 -0.125,-0.140625 -0.296875,-0.140625 l -1.609375,0 c 0.234375,-0.84375 0.796875,-1.421875 1.703125,-1.421875 l 0.3125,0 c 0.171875,0 0.328125,0 0.328125,-0.171875 0,-0.140625 -0.125,-0.140625 -0.296875,-0.140625 l -0.359375,0 c -1.296875,0 -2.625,1 -2.625,2.515625 0,1.109375 0.75,1.890625 1.796875,1.890625 0.65625,0 1.296875,-0.40625 1.296875,-0.515625 0,-0.015625 0,-0.125 -0.09375,-0.125 -0.015625,0 -0.046875,0 -0.125,0.046875 -0.3125,0.203125 -0.6875,0.375 -1.046875,0.375 -0.578125,0 -1.078125,-0.421875 -1.078125,-1.296875 0,-0.34375 0.078125,-0.734375 0.109375,-0.84375 l 1.640625,0 z m 0,0"
               id="path26194" />
          </symbol>
          <symbol
             overflow="visible"
             id="textext-2a995827-2"
             style="overflow:visible">
            <path
               style="stroke:none"
               d=""
               id="path26197" />
          </symbol>
          <symbol
             overflow="visible"
             id="textext-2a995827-3"
             style="overflow:visible">
            <path
               style="stroke:none"
               d="M 3.0625,-4.359375 C 3.0625,-4.46875 2.96875,-4.625 2.78125,-4.625 c -0.203125,0 -0.390625,0.203125 -0.390625,0.390625 0,0.109375 0.078125,0.265625 0.28125,0.265625 0.1875,0 0.390625,-0.1875 0.390625,-0.390625 z M 1.578125,0.34375 C 1.46875,0.828125 1.09375,1.21875 0.6875,1.21875 c -0.09375,0 -0.171875,0 -0.25,-0.03125 0.171875,-0.09375 0.234375,-0.25 0.234375,-0.359375 0,-0.171875 -0.140625,-0.25 -0.28125,-0.25 C 0.1875,0.578125 0,0.765625 0,0.984375 c 0,0.265625 0.265625,0.4375 0.6875,0.4375 0.421875,0 1.234375,-0.25 1.453125,-1.09375 l 0.625,-2.5 c 0.015625,-0.078125 0.03125,-0.140625 0.03125,-0.25 0,-0.375 -0.328125,-0.65625 -0.734375,-0.65625 -0.78125,0 -1.21875,0.96875 -1.21875,1.078125 0,0.078125 0.09375,0.078125 0.109375,0.078125 0.078125,0 0.09375,-0.015625 0.140625,-0.125 C 1.265625,-2.453125 1.625,-2.875 2.03125,-2.875 c 0.171875,0 0.234375,0.109375 0.234375,0.34375 0,0.078125 0,0.171875 -0.015625,0.203125 L 1.578125,0.34375 z m 0,0"
               id="path26200" />
          </symbol>
        </g>
      </defs>
      <g
         id="textext-2a995827-4">
        <g
           style="fill:#000000;fill-opacity:1"
           id="g26203">
          <use
             xlink:href="#textext-2a995827-1"
             x="223.43201"
             y="134.765"
             id="use26205"
             width="638.18933"
             height="405.49869" />
        </g>
        <g
           style="fill:#000000;fill-opacity:1"
           id="g26207">
          <use
             xlink:href="#textext-2a995827-3"
             x="227.476"
             y="136.259"
             id="use26209"
             width="638.18933"
             height="405.49869" />
        </g>
      </g>
    </g>
    <g
       ns0:text="$I=i(\\epsilon_j)$"
       ns0:preamble=""
       transform="matrix(4.0849327,0,0,4.0849327,-605.28535,-107.39007)"
       id="g28257">
      <defs
         id="defs28259">
        <g
           id="g28261">
          <symbol
             style="overflow:visible"
             overflow="visible"
             id="textext-71985cf6-0">
            <path
               style="stroke:none"
               d=""
               id="path28264" />
          </symbol>
          <symbol
             style="overflow:visible"
             overflow="visible"
             id="textext-71985cf6-1">
            <path
               style="stroke:none"
               d="M 3.734375,-6.046875 C 3.8125,-6.40625 3.84375,-6.5 4.640625,-6.5 c 0.234375,0 0.3125,0 0.3125,-0.1875 0,-0.125 -0.109375,-0.125 -0.140625,-0.125 -0.296875,0 -1.03125,0.03125 -1.328125,0.03125 -0.296875,0 -1.015625,-0.03125 -1.328125,-0.03125 -0.0625,0 -0.1875,0 -0.1875,0.203125 C 1.96875,-6.5 2.046875,-6.5 2.25,-6.5 c 0.40625,0 0.6875,0 0.6875,0.1875 0,0.046875 0,0.078125 -0.03125,0.15625 l -1.34375,5.375 c -0.09375,0.375 -0.109375,0.46875 -0.90625,0.46875 -0.234375,0 -0.3125,0 -0.3125,0.203125 C 0.34375,0 0.453125,0 0.484375,0 0.78125,0 1.5,-0.03125 1.796875,-0.03125 2.09375,-0.03125 2.828125,0 3.125,0 c 0.078125,0 0.203125,0 0.203125,-0.1875 0,-0.125 -0.078125,-0.125 -0.296875,-0.125 -0.1875,0 -0.234375,0 -0.421875,-0.015625 -0.21875,-0.015625 -0.25,-0.0625 -0.25,-0.171875 0,-0.078125 0.015625,-0.15625 0.03125,-0.234375 l 1.34375,-5.3125 z m 0,0"
               id="path28267" />
          </symbol>
          <symbol
             style="overflow:visible"
             overflow="visible"
             id="textext-71985cf6-2">
            <path
               style="stroke:none"
               d="m 2.828125,-6.234375 c 0,-0.203125 -0.140625,-0.359375 -0.359375,-0.359375 -0.28125,0 -0.546875,0.265625 -0.546875,0.53125 0,0.1875 0.140625,0.359375 0.375,0.359375 0.234375,0 0.53125,-0.234375 0.53125,-0.53125 z m -0.75,3.75 c 0.109375,-0.28125 0.109375,-0.3125 0.21875,-0.578125 0.078125,-0.203125 0.125,-0.34375 0.125,-0.53125 0,-0.4375 -0.3125,-0.8125 -0.8125,-0.8125 -0.9375,0 -1.3125,1.453125 -1.3125,1.53125 0,0.109375 0.09375,0.109375 0.109375,0.109375 0.109375,0 0.109375,-0.03125 0.15625,-0.1875 0.28125,-0.9375 0.671875,-1.234375 1.015625,-1.234375 0.078125,0 0.25,0 0.25,0.3125 0,0.21875 -0.078125,0.421875 -0.109375,0.53125 -0.078125,0.25 -0.53125,1.40625 -0.6875,1.84375 -0.109375,0.25 -0.234375,0.578125 -0.234375,0.796875 0,0.46875 0.34375,0.8125 0.8125,0.8125 0.9375,0 1.3125,-1.4375 1.3125,-1.53125 0,-0.109375 -0.09375,-0.109375 -0.125,-0.109375 -0.09375,0 -0.09375,0.03125 -0.140625,0.1875 -0.1875,0.625 -0.515625,1.234375 -1.015625,1.234375 -0.171875,0 -0.25,-0.09375 -0.25,-0.328125 0,-0.25 0.0625,-0.390625 0.296875,-1 l 0.390625,-1.046875 z m 0,0"
               id="path28270" />
          </symbol>
          <symbol
             style="overflow:visible"
             overflow="visible"
             id="textext-71985cf6-3">
            <path
               style="stroke:none"
               d="m 2.96875,-2.25 c 0.15625,0 0.34375,0 0.34375,-0.171875 0,-0.140625 -0.125,-0.140625 -0.296875,-0.140625 l -1.609375,0 c 0.234375,-0.84375 0.796875,-1.421875 1.703125,-1.421875 l 0.3125,0 c 0.171875,0 0.328125,0 0.328125,-0.171875 0,-0.140625 -0.125,-0.140625 -0.296875,-0.140625 l -0.359375,0 c -1.296875,0 -2.625,1 -2.625,2.515625 0,1.109375 0.75,1.890625 1.796875,1.890625 0.65625,0 1.296875,-0.40625 1.296875,-0.515625 0,-0.015625 0,-0.125 -0.09375,-0.125 -0.015625,0 -0.046875,0 -0.125,0.046875 -0.3125,0.203125 -0.6875,0.375 -1.046875,0.375 -0.578125,0 -1.078125,-0.421875 -1.078125,-1.296875 0,-0.34375 0.078125,-0.734375 0.109375,-0.84375 l 1.640625,0 z m 0,0"
               id="path28273" />
          </symbol>
          <symbol
             style="overflow:visible"
             overflow="visible"
             id="textext-71985cf6-4">
            <path
               style="stroke:none"
               d=""
               id="path28276" />
          </symbol>
          <symbol
             style="overflow:visible"
             overflow="visible"
             id="textext-71985cf6-5">
            <path
               style="stroke:none"
               d="m 6.84375,-3.265625 c 0.15625,0 0.34375,0 0.34375,-0.1875 C 7.1875,-3.65625 7,-3.65625 6.859375,-3.65625 l -5.96875,0 c -0.140625,0 -0.328125,0 -0.328125,0.203125 0,0.1875 0.1875,0.1875 0.328125,0.1875 l 5.953125,0 z m 0.015625,1.9375 c 0.140625,0 0.328125,0 0.328125,-0.203125 0,-0.1875 -0.1875,-0.1875 -0.34375,-0.1875 l -5.953125,0 c -0.140625,0 -0.328125,0 -0.328125,0.1875 0,0.203125 0.1875,0.203125 0.328125,0.203125 l 5.96875,0 z m 0,0"
               id="path28279" />
          </symbol>
          <symbol
             style="overflow:visible"
             overflow="visible"
             id="textext-71985cf6-6">
            <path
               style="stroke:none"
               d="m 3.296875,2.390625 c 0,-0.03125 0,-0.046875 -0.171875,-0.21875 C 1.890625,0.921875 1.5625,-0.96875 1.5625,-2.5 c 0,-1.734375 0.375,-3.46875 1.609375,-4.703125 0.125,-0.125 0.125,-0.140625 0.125,-0.171875 0,-0.078125 -0.03125,-0.109375 -0.09375,-0.109375 -0.109375,0 -1,0.6875 -1.59375,1.953125 -0.5,1.09375 -0.625,2.203125 -0.625,3.03125 0,0.78125 0.109375,1.984375 0.65625,3.125 C 2.25,1.84375 3.09375,2.5 3.203125,2.5 c 0.0625,0 0.09375,-0.03125 0.09375,-0.109375 z m 0,0"
               id="path28282" />
          </symbol>
          <symbol
             style="overflow:visible"
             overflow="visible"
             id="textext-71985cf6-7">
            <path
               style="stroke:none"
               d="m 2.875,-2.5 c 0,-0.765625 -0.109375,-1.96875 -0.65625,-3.109375 -0.59375,-1.21875 -1.453125,-1.875 -1.546875,-1.875 -0.0625,0 -0.109375,0.046875 -0.109375,0.109375 0,0.03125 0,0.046875 0.1875,0.234375 0.984375,0.984375 1.546875,2.5625 1.546875,4.640625 0,1.71875 -0.359375,3.46875 -1.59375,4.71875 C 0.5625,2.34375 0.5625,2.359375 0.5625,2.390625 0.5625,2.453125 0.609375,2.5 0.671875,2.5 0.765625,2.5 1.671875,1.8125 2.25,0.546875 2.765625,-0.546875 2.875,-1.65625 2.875,-2.5 z m 0,0"
               id="path28285" />
          </symbol>
          <symbol
             style="overflow:visible"
             overflow="visible"
             id="textext-71985cf6-8">
            <path
               style="stroke:none"
               d=""
               id="path28288" />
          </symbol>
          <symbol
             style="overflow:visible"
             overflow="visible"
             id="textext-71985cf6-9">
            <path
               style="stroke:none"
               d="M 3.0625,-4.359375 C 3.0625,-4.46875 2.96875,-4.625 2.78125,-4.625 c -0.203125,0 -0.390625,0.203125 -0.390625,0.390625 0,0.109375 0.078125,0.265625 0.28125,0.265625 0.1875,0 0.390625,-0.1875 0.390625,-0.390625 z M 1.578125,0.34375 C 1.46875,0.828125 1.09375,1.21875 0.6875,1.21875 c -0.09375,0 -0.171875,0 -0.25,-0.03125 0.171875,-0.09375 0.234375,-0.25 0.234375,-0.359375 0,-0.171875 -0.140625,-0.25 -0.28125,-0.25 C 0.1875,0.578125 0,0.765625 0,0.984375 c 0,0.265625 0.265625,0.4375 0.6875,0.4375 0.421875,0 1.234375,-0.25 1.453125,-1.09375 l 0.625,-2.5 c 0.015625,-0.078125 0.03125,-0.140625 0.03125,-0.25 0,-0.375 -0.328125,-0.65625 -0.734375,-0.65625 -0.78125,0 -1.21875,0.96875 -1.21875,1.078125 0,0.078125 0.09375,0.078125 0.109375,0.078125 0.078125,0 0.09375,-0.015625 0.140625,-0.125 C 1.265625,-2.453125 1.625,-2.875 2.03125,-2.875 c 0.171875,0 0.234375,0.109375 0.234375,0.34375 0,0.078125 0,0.171875 -0.015625,0.203125 L 1.578125,0.34375 z m 0,0"
               id="path28291" />
          </symbol>
        </g>
      </defs>
      <g
         id="textext-71985cf6-10">
        <g
           style="fill:#000000;fill-opacity:1"
           id="g28294">
          <use
             height="415.69595"
             width="716.82086"
             xlink:href="#textext-71985cf6-1"
             x="223.43201"
             y="134.765"
             id="use28296" />
        </g>
        <g
           style="fill:#000000;fill-opacity:1"
           id="g28298">
          <use
             height="415.69595"
             width="716.82086"
             xlink:href="#textext-71985cf6-5"
             x="231.36099"
             y="134.765"
             id="use28300" />
        </g>
        <g
           style="fill:#000000;fill-opacity:1"
           id="g28302">
          <use
             height="415.69595"
             width="716.82086"
             xlink:href="#textext-71985cf6-2"
             x="241.877"
             y="134.765"
             id="use28304" />
        </g>
        <g
           style="fill:#000000;fill-opacity:1"
           id="g28306">
          <use
             height="415.69595"
             width="716.82086"
             xlink:href="#textext-71985cf6-6"
             x="245.30901"
             y="134.765"
             id="use28308" />
        </g>
        <g
           style="fill:#000000;fill-opacity:1"
           id="g28310">
          <use
             height="415.69595"
             width="716.82086"
             xlink:href="#textext-71985cf6-3"
             x="249.183"
             y="134.765"
             id="use28312" />
        </g>
        <g
           style="fill:#000000;fill-opacity:1"
           id="g28314">
          <use
             height="415.69595"
             width="716.82086"
             xlink:href="#textext-71985cf6-9"
             x="253.22701"
             y="136.259"
             id="use28316" />
        </g>
        <g
           style="fill:#000000;fill-opacity:1"
           id="g28318">
          <use
             height="415.69595"
             width="716.82086"
             xlink:href="#textext-71985cf6-7"
             x="257.42499"
             y="134.765"
             id="use28320" />
        </g>
      </g>
    </g>
    <g
       id="g29055"
       transform="matrix(4.8305043,0,0,4.8305043,-531.1085,-259.19838)"
       ns0:preamble=""
       ns0:text="$\\epsilon$">
      <defs
         id="defs29057">
        <g
           id="g29059">
          <symbol
             id="textext-4ef6257a-0"
             overflow="visible"
             style="overflow:visible">
            <path
               id="path29062"
               d=""
               style="stroke:none" />
          </symbol>
          <symbol
             id="textext-4ef6257a-1"
             overflow="visible"
             style="overflow:visible">
            <path
               id="path29065"
               d="m 2.96875,-2.25 c 0.15625,0 0.34375,0 0.34375,-0.171875 0,-0.140625 -0.125,-0.140625 -0.296875,-0.140625 l -1.609375,0 c 0.234375,-0.84375 0.796875,-1.421875 1.703125,-1.421875 l 0.3125,0 c 0.171875,0 0.328125,0 0.328125,-0.171875 0,-0.140625 -0.125,-0.140625 -0.296875,-0.140625 l -0.359375,0 c -1.296875,0 -2.625,1 -2.625,2.515625 0,1.109375 0.75,1.890625 1.796875,1.890625 0.65625,0 1.296875,-0.40625 1.296875,-0.515625 0,-0.015625 0,-0.125 -0.09375,-0.125 -0.015625,0 -0.046875,0 -0.125,0.046875 -0.3125,0.203125 -0.6875,0.375 -1.046875,0.375 -0.578125,0 -1.078125,-0.421875 -1.078125,-1.296875 0,-0.34375 0.078125,-0.734375 0.109375,-0.84375 l 1.640625,0 z m 0,0"
               style="stroke:none" />
          </symbol>
        </g>
      </defs>
      <g
         id="textext-4ef6257a-2">
        <g
           id="g29068"
           style="fill:#000000;fill-opacity:1">
          <use
             id="use29070"
             y="134.765"
             x="223.43201"
             xlink:href="#textext-4ef6257a-1"
             width="716.82086"
             height="415.69595" />
        </g>
      </g>
    </g>
  </g>
</svg>
