<?xml version="1.0" encoding="UTF-8" standalone="no"?>
<!-- Created with Inkscape (http://www.inkscape.org/) -->

<svg
   xmlns:ns0="http://www.iki.fi/pav/software/textext/"
   xmlns:dc="http://purl.org/dc/elements/1.1/"
   xmlns:cc="http://creativecommons.org/ns#"
   xmlns:rdf="http://www.w3.org/1999/02/22-rdf-syntax-ns#"
   xmlns:svg="http://www.w3.org/2000/svg"
   xmlns="http://www.w3.org/2000/svg"
   xmlns:xlink="http://www.w3.org/1999/xlink"
   xmlns:sodipodi="http://sodipodi.sourceforge.net/DTD/sodipodi-0.dtd"
   xmlns:inkscape="http://www.inkscape.org/namespaces/inkscape"
   sodipodi:docname="inverse.svg"
   inkscape:version="0.47 r22583"
   version="1.1"
   id="svg2"
   height="659.77692"
   width="873.92609">
  <sodipodi:namedview
     id="base"
     pagecolor="#ffffff"
     bordercolor="#666666"
     borderopacity="1.0"
     inkscape:pageopacity="0.0"
     inkscape:pageshadow="2"
     inkscape:zoom="0.70027417"
     inkscape:cx="62.197997"
     inkscape:cy="235.11412"
     inkscape:document-units="px"
     inkscape:current-layer="svg2"
     showgrid="false"
     inkscape:window-width="1920"
     inkscape:window-height="1005"
     inkscape:window-x="0"
     inkscape:window-y="24"
     inkscape:window-maximized="1"
     showguides="true"
     inkscape:guide-bbox="true" />
  <defs
     id="defs4">
    <marker
       inkscape:stockid="Arrow1Lend"
       orient="auto"
       refY="0"
       refX="0"
       id="Arrow1Lend"
       style="overflow:visible">
      <path
         id="path3759"
         d="M 0,0 5,-5 -12.5,0 5,5 0,0 z"
         style="fill-rule:evenodd;stroke:#000000;stroke-width:1pt;marker-start:none"
         transform="matrix(-0.8,0,0,-0.8,-10,0)" />
    </marker>
    <marker
       inkscape:stockid="Arrow1Lstart"
       orient="auto"
       refY="0"
       refX="0"
       id="Arrow1Lstart"
       style="overflow:visible">
      <path
         id="path3756"
         d="M 0,0 5,-5 -12.5,0 5,5 0,0 z"
         style="fill-rule:evenodd;stroke:#000000;stroke-width:1pt;marker-start:none"
         transform="matrix(0.8,0,0,0.8,10,0)" />
    </marker>
    <marker
       inkscape:stockid="Arrow1Mstart"
       orient="auto"
       refY="0"
       refX="0"
       id="Arrow1Mstart"
       style="overflow:visible">
      <path
         id="path3762"
         d="M 0,0 5,-5 -12.5,0 5,5 0,0 z"
         style="fill-rule:evenodd;stroke:#000000;stroke-width:1pt;marker-start:none"
         transform="matrix(0.4,0,0,0.4,4,0)" />
    </marker>
    <inkscape:perspective
       sodipodi:type="inkscape:persp3d"
       inkscape:vp_x="0 : 526.18109 : 1"
       inkscape:vp_y="0 : 1000 : 0"
       inkscape:vp_z="744.09448 : 526.18109 : 1"
       inkscape:persp3d-origin="372.04724 : 350.78739 : 1"
       id="perspective10" />
    <inkscape:perspective
       id="perspective2866"
       inkscape:persp3d-origin="0.5 : 0.33333333 : 1"
       inkscape:vp_z="1 : 0.5 : 1"
       inkscape:vp_y="0 : 1000 : 0"
       inkscape:vp_x="0 : 0.5 : 1"
       sodipodi:type="inkscape:persp3d" />
    <inkscape:perspective
       id="perspective4608"
       inkscape:persp3d-origin="0.5 : 0.33333333 : 1"
       inkscape:vp_z="1 : 0.5 : 1"
       inkscape:vp_y="0 : 1000 : 0"
       inkscape:vp_x="0 : 0.5 : 1"
       sodipodi:type="inkscape:persp3d" />
    <inkscape:perspective
       id="perspective22366"
       inkscape:persp3d-origin="0.5 : 0.33333333 : 1"
       inkscape:vp_z="1 : 0.5 : 1"
       inkscape:vp_y="0 : 1000 : 0"
       inkscape:vp_x="0 : 0.5 : 1"
       sodipodi:type="inkscape:persp3d" />
    <inkscape:perspective
       id="perspective22465"
       inkscape:persp3d-origin="0.5 : 0.33333333 : 1"
       inkscape:vp_z="1 : 0.5 : 1"
       inkscape:vp_y="0 : 1000 : 0"
       inkscape:vp_x="0 : 0.5 : 1"
       sodipodi:type="inkscape:persp3d" />
    <inkscape:perspective
       sodipodi:type="inkscape:persp3d"
       inkscape:vp_x="0 : 0.5 : 1"
       inkscape:vp_y="0 : 1000 : 0"
       inkscape:vp_z="1 : 0.5 : 1"
       inkscape:persp3d-origin="0.5 : 0.33333333 : 1"
       id="perspective74073" />
    <inkscape:perspective
       sodipodi:type="inkscape:persp3d"
       inkscape:vp_x="0 : 0.5 : 1"
       inkscape:vp_y="0 : 1000 : 0"
       inkscape:vp_z="1 : 0.5 : 1"
       inkscape:persp3d-origin="0.5 : 0.33333333 : 1"
       id="perspective74447" />
  </defs>
  <metadata
     id="metadata7">
    <rdf:RDF>
      <cc:Work
         rdf:about="">
        <dc:format>image/svg+xml</dc:format>
        <dc:type
           rdf:resource="http://purl.org/dc/dcmitype/StillImage" />
        <dc:title />
      </cc:Work>
    </rdf:RDF>
  </metadata>
  <g
     inkscape:label="Ebene 1"
     inkscape:groupmode="layer"
     id="layer1"
     transform="translate(-597.20232,-164.10049)">
    <g
       id="g70015"
       transform="matrix(4.8305043,0,0,4.8305043,-449.82947,-450.72911)"
       ns0:preamble=""
       ns0:text="$\\omega(i)$">
      <defs
         id="defs70017">
        <g
           id="g70019">
          <symbol
             id="textext-87781183-0"
             overflow="visible"
             style="overflow:visible">
            <path
               id="path70022"
               d=""
               style="stroke:none" />
          </symbol>
          <symbol
             id="textext-87781183-1"
             overflow="visible"
             style="overflow:visible">
            <path
               id="path70025"
               d="m 6.03125,-3.703125 c 0,-0.453125 -0.171875,-0.703125 -0.40625,-0.703125 -0.25,0 -0.515625,0.234375 -0.515625,0.46875 0,0.09375 0.046875,0.203125 0.140625,0.296875 0.171875,0.15625 0.359375,0.421875 0.359375,0.84375 0,0.390625 -0.203125,0.96875 -0.5,1.421875 C 4.8125,-0.953125 4.4375,-0.609375 3.96875,-0.609375 3.40625,-0.609375 3.09375,-0.96875 3,-1.5 c 0.109375,-0.265625 0.34375,-0.90625 0.34375,-1.1875 0,-0.109375 -0.046875,-0.21875 -0.1875,-0.21875 -0.078125,0 -0.1875,0.03125 -0.265625,0.171875 C 2.78125,-2.53125 2.65625,-1.890625 2.65625,-1.53125 2.328125,-1.0625 1.9375,-0.609375 1.3125,-0.609375 c -0.671875,0 -0.875,-0.59375 -0.875,-1.140625 0,-1.25 1.015625,-2.296875 1.015625,-2.421875 0,-0.109375 -0.078125,-0.1875 -0.1875,-0.1875 -0.125,0 -0.203125,0.125 -0.265625,0.21875 -0.5,0.734375 -0.875,1.921875 -0.875,2.828125 0,0.6875 0.21875,1.421875 1.046875,1.421875 0.703125,0 1.171875,-0.5 1.53125,-1.046875 0.09375,0.578125 0.484375,1.046875 1.09375,1.046875 0.78125,0 1.25,-0.609375 1.609375,-1.359375 0.25,-0.484375 0.625,-1.84375 0.625,-2.453125 z m 0,0"
               style="stroke:none" />
          </symbol>
          <symbol
             id="textext-87781183-2"
             overflow="visible"
             style="overflow:visible">
            <path
               id="path70028"
               d="m 2.828125,-6.234375 c 0,-0.203125 -0.140625,-0.359375 -0.359375,-0.359375 -0.28125,0 -0.546875,0.265625 -0.546875,0.53125 0,0.1875 0.140625,0.359375 0.375,0.359375 0.234375,0 0.53125,-0.234375 0.53125,-0.53125 z m -0.75,3.75 c 0.109375,-0.28125 0.109375,-0.3125 0.21875,-0.578125 0.078125,-0.203125 0.125,-0.34375 0.125,-0.53125 0,-0.4375 -0.3125,-0.8125 -0.8125,-0.8125 -0.9375,0 -1.3125,1.453125 -1.3125,1.53125 0,0.109375 0.09375,0.109375 0.109375,0.109375 0.109375,0 0.109375,-0.03125 0.15625,-0.1875 0.28125,-0.9375 0.671875,-1.234375 1.015625,-1.234375 0.078125,0 0.25,0 0.25,0.3125 0,0.21875 -0.078125,0.421875 -0.109375,0.53125 -0.078125,0.25 -0.53125,1.40625 -0.6875,1.84375 -0.109375,0.25 -0.234375,0.578125 -0.234375,0.796875 0,0.46875 0.34375,0.8125 0.8125,0.8125 0.9375,0 1.3125,-1.4375 1.3125,-1.53125 0,-0.109375 -0.09375,-0.109375 -0.125,-0.109375 -0.09375,0 -0.09375,0.03125 -0.140625,0.1875 -0.1875,0.625 -0.515625,1.234375 -1.015625,1.234375 -0.171875,0 -0.25,-0.09375 -0.25,-0.328125 0,-0.25 0.0625,-0.390625 0.296875,-1 l 0.390625,-1.046875 z m 0,0"
               style="stroke:none" />
          </symbol>
          <symbol
             id="textext-87781183-3"
             overflow="visible"
             style="overflow:visible">
            <path
               id="path70031"
               d=""
               style="stroke:none" />
          </symbol>
          <symbol
             id="textext-87781183-4"
             overflow="visible"
             style="overflow:visible">
            <path
               id="path70034"
               d="m 3.296875,2.390625 c 0,-0.03125 0,-0.046875 -0.171875,-0.21875 C 1.890625,0.921875 1.5625,-0.96875 1.5625,-2.5 c 0,-1.734375 0.375,-3.46875 1.609375,-4.703125 0.125,-0.125 0.125,-0.140625 0.125,-0.171875 0,-0.078125 -0.03125,-0.109375 -0.09375,-0.109375 -0.109375,0 -1,0.6875 -1.59375,1.953125 -0.5,1.09375 -0.625,2.203125 -0.625,3.03125 0,0.78125 0.109375,1.984375 0.65625,3.125 C 2.25,1.84375 3.09375,2.5 3.203125,2.5 c 0.0625,0 0.09375,-0.03125 0.09375,-0.109375 z m 0,0"
               style="stroke:none" />
          </symbol>
          <symbol
             id="textext-87781183-5"
             overflow="visible"
             style="overflow:visible">
            <path
               id="path70037"
               d="m 2.875,-2.5 c 0,-0.765625 -0.109375,-1.96875 -0.65625,-3.109375 -0.59375,-1.21875 -1.453125,-1.875 -1.546875,-1.875 -0.0625,0 -0.109375,0.046875 -0.109375,0.109375 0,0.03125 0,0.046875 0.1875,0.234375 0.984375,0.984375 1.546875,2.5625 1.546875,4.640625 0,1.71875 -0.359375,3.46875 -1.59375,4.71875 C 0.5625,2.34375 0.5625,2.359375 0.5625,2.390625 0.5625,2.453125 0.609375,2.5 0.671875,2.5 0.765625,2.5 1.671875,1.8125 2.25,0.546875 2.765625,-0.546875 2.875,-1.65625 2.875,-2.5 z m 0,0"
               style="stroke:none" />
          </symbol>
        </g>
      </defs>
      <g
         id="textext-87781183-6">
        <g
           id="g70040"
           style="fill:#000000;fill-opacity:1">
          <use
             id="use70042"
             y="134.765"
             x="223.43201"
             xlink:href="#textext-87781183-1"
             width="716.82086"
             height="415.69595" />
        </g>
        <g
           id="g70044"
           style="fill:#000000;fill-opacity:1">
          <use
             id="use70046"
             y="134.765"
             x="229.991"
             xlink:href="#textext-87781183-4"
             width="716.82086"
             height="415.69595" />
        </g>
        <g
           id="g70048"
           style="fill:#000000;fill-opacity:1">
          <use
             id="use70050"
             y="134.765"
             x="233.86501"
             xlink:href="#textext-87781183-2"
             width="716.82086"
             height="415.69595" />
        </g>
        <g
           id="g70052"
           style="fill:#000000;fill-opacity:1">
          <use
             id="use70054"
             y="134.765"
             x="237.297"
             xlink:href="#textext-87781183-5"
             width="716.82086"
             height="415.69595" />
        </g>
      </g>
    </g>
    <g
       ns0:text="$i$"
       ns0:preamble=""
       transform="matrix(4.8305043,0,0,4.8305043,377.725,117.29098)"
       id="g70441">
      <defs
         id="defs70443">
        <g
           id="g70445">
          <symbol
             style="overflow:visible"
             overflow="visible"
             id="textext-eae389a3-0">
            <path
               style="stroke:none"
               d=""
               id="path70448" />
          </symbol>
          <symbol
             style="overflow:visible"
             overflow="visible"
             id="textext-eae389a3-1">
            <path
               style="stroke:none"
               d="m 2.828125,-6.234375 c 0,-0.203125 -0.140625,-0.359375 -0.359375,-0.359375 -0.28125,0 -0.546875,0.265625 -0.546875,0.53125 0,0.1875 0.140625,0.359375 0.375,0.359375 0.234375,0 0.53125,-0.234375 0.53125,-0.53125 z m -0.75,3.75 c 0.109375,-0.28125 0.109375,-0.3125 0.21875,-0.578125 0.078125,-0.203125 0.125,-0.34375 0.125,-0.53125 0,-0.4375 -0.3125,-0.8125 -0.8125,-0.8125 -0.9375,0 -1.3125,1.453125 -1.3125,1.53125 0,0.109375 0.09375,0.109375 0.109375,0.109375 0.109375,0 0.109375,-0.03125 0.15625,-0.1875 0.28125,-0.9375 0.671875,-1.234375 1.015625,-1.234375 0.078125,0 0.25,0 0.25,0.3125 0,0.21875 -0.078125,0.421875 -0.109375,0.53125 -0.078125,0.25 -0.53125,1.40625 -0.6875,1.84375 -0.109375,0.25 -0.234375,0.578125 -0.234375,0.796875 0,0.46875 0.34375,0.8125 0.8125,0.8125 0.9375,0 1.3125,-1.4375 1.3125,-1.53125 0,-0.109375 -0.09375,-0.109375 -0.125,-0.109375 -0.09375,0 -0.09375,0.03125 -0.140625,0.1875 -0.1875,0.625 -0.515625,1.234375 -1.015625,1.234375 -0.171875,0 -0.25,-0.09375 -0.25,-0.328125 0,-0.25 0.0625,-0.390625 0.296875,-1 l 0.390625,-1.046875 z m 0,0"
               id="path70451" />
          </symbol>
        </g>
      </defs>
      <g
         id="textext-eae389a3-2">
        <g
           style="fill:#000000;fill-opacity:1"
           id="g70454">
          <use
             height="415.69595"
             width="716.82086"
             xlink:href="#textext-eae389a3-1"
             x="223.43201"
             y="134.765"
             id="use70456" />
        </g>
      </g>
    </g>
    <path
       d="m 731.20805,744.41569 0,20.58355"
       style="fill:none;stroke:#000000;stroke-width:1;stroke-linecap:butt;stroke-linejoin:miter;stroke-miterlimit:10;stroke-opacity:1;stroke-dasharray:none"
       id="path71188" />
    <path
       id="path71190"
       style="fill:none;stroke:#000000;stroke-width:1;stroke-linecap:butt;stroke-linejoin:miter;stroke-miterlimit:10;stroke-opacity:1;stroke-dasharray:none"
       d="m 657.52563,443.22462 20.58356,0" />
    <path
       d="m 664.79714,443.22462 607.33346,0"
       style="fill:none;stroke:#000000;stroke-width:1;stroke-linecap:butt;stroke-linejoin:miter;stroke-miterlimit:10;stroke-opacity:1;stroke-dasharray:4, 4;stroke-dashoffset:0"
       id="path71192" />
    <path
       d="m 657.52563,356.06984 20.58356,0"
       style="fill:none;stroke:#000000;stroke-width:1;stroke-linecap:butt;stroke-linejoin:miter;stroke-miterlimit:10;stroke-opacity:1;stroke-dasharray:none"
       id="path75548" />
    <path
       id="path75550"
       style="fill:none;stroke:#000000;stroke-width:1;stroke-linecap:butt;stroke-linejoin:miter;stroke-miterlimit:10;stroke-opacity:1;stroke-dasharray:4, 4;stroke-dashoffset:0"
       d="m 664.79714,356.06984 607.33346,0" />
    <path
       d="m 657.52563,488.35834 20.58356,0"
       style="fill:none;stroke:#000000;stroke-width:1;stroke-linecap:butt;stroke-linejoin:miter;stroke-miterlimit:10;stroke-opacity:1;stroke-dasharray:none"
       id="path75552" />
    <path
       id="path75554"
       style="fill:none;stroke:#000000;stroke-width:1;stroke-linecap:butt;stroke-linejoin:miter;stroke-miterlimit:10;stroke-opacity:1;stroke-dasharray:4, 4;stroke-dashoffset:0"
       d="m 664.79714,488.35834 607.33346,0" />
    <path
       id="path75556"
       style="fill:none;stroke:#000000;stroke-width:1;stroke-linecap:butt;stroke-linejoin:miter;stroke-miterlimit:10;stroke-opacity:1;stroke-dasharray:none"
       d="m 657.52563,621.09051 20.58356,0" />
    <path
       d="m 664.79714,621.09051 607.33346,0"
       style="fill:none;stroke:#000000;stroke-width:1;stroke-linecap:butt;stroke-linejoin:miter;stroke-miterlimit:10;stroke-opacity:1;stroke-dasharray:4, 4;stroke-dashoffset:0"
       id="path75558" />
    <path
       id="path75560"
       style="fill:none;stroke:#000000;stroke-width:1;stroke-linecap:butt;stroke-linejoin:miter;stroke-miterlimit:10;stroke-opacity:1;stroke-dasharray:none"
       d="m 731.20805,744.41569 0,20.58355" />
    <path
       id="path75562"
       style="fill:none;stroke:#000000;stroke-width:1;stroke-linecap:butt;stroke-linejoin:miter;stroke-miterlimit:10;stroke-opacity:1;stroke-dasharray:none"
       d="m 731.20805,744.41569 0,20.58355" />
    <path
       d="m 731.20805,744.41569 0,20.58355"
       style="fill:none;stroke:#000000;stroke-width:1;stroke-linecap:butt;stroke-linejoin:miter;stroke-miterlimit:10;stroke-opacity:1;stroke-dasharray:none"
       id="path75564" />
    <path
       id="path75566"
       style="fill:none;stroke:#000000;stroke-width:1;stroke-linecap:butt;stroke-linejoin:miter;stroke-miterlimit:10;stroke-opacity:1;stroke-dasharray:none"
       d="m 987.20805,744.41569 0,20.58355" />
    <path
       d="m 987.20805,744.41569 0,20.58355"
       style="fill:none;stroke:#000000;stroke-width:1;stroke-linecap:butt;stroke-linejoin:miter;stroke-miterlimit:10;stroke-opacity:1;stroke-dasharray:none"
       id="path75568" />
    <path
       d="m 987.20805,744.41569 0,20.58355"
       style="fill:none;stroke:#000000;stroke-width:1;stroke-linecap:butt;stroke-linejoin:miter;stroke-miterlimit:10;stroke-opacity:1;stroke-dasharray:none"
       id="path75570" />
    <path
       id="path75572"
       style="fill:none;stroke:#000000;stroke-width:1;stroke-linecap:butt;stroke-linejoin:miter;stroke-miterlimit:10;stroke-opacity:1;stroke-dasharray:none"
       d="m 987.20805,744.41569 0,20.58355" />
    <path
       d="m 1009.208,744.41569 0,20.58355"
       style="fill:none;stroke:#000000;stroke-width:1;stroke-linecap:butt;stroke-linejoin:miter;stroke-miterlimit:10;stroke-opacity:1;stroke-dasharray:none"
       id="path75574" />
    <path
       id="path75576"
       style="fill:none;stroke:#000000;stroke-width:1;stroke-linecap:butt;stroke-linejoin:miter;stroke-miterlimit:10;stroke-opacity:1;stroke-dasharray:none"
       d="m 1009.208,744.41569 0,20.58355" />
    <path
       id="path75578"
       style="fill:none;stroke:#000000;stroke-width:1;stroke-linecap:butt;stroke-linejoin:miter;stroke-miterlimit:10;stroke-opacity:1;stroke-dasharray:none"
       d="m 1009.208,744.41569 0,20.58355" />
    <path
       d="m 1009.208,744.41569 0,20.58355"
       style="fill:none;stroke:#000000;stroke-width:1;stroke-linecap:butt;stroke-linejoin:miter;stroke-miterlimit:10;stroke-opacity:1;stroke-dasharray:none"
       id="path75580" />
    <path
       id="path75582"
       style="fill:none;stroke:#000000;stroke-width:1;stroke-linecap:butt;stroke-linejoin:miter;stroke-miterlimit:10;stroke-opacity:1;stroke-dasharray:none"
       d="m 1267.208,744.41569 0,20.58355" />
    <path
       d="m 1267.208,744.41569 0,20.58355"
       style="fill:none;stroke:#000000;stroke-width:1;stroke-linecap:butt;stroke-linejoin:miter;stroke-miterlimit:10;stroke-opacity:1;stroke-dasharray:none"
       id="path75584" />
    <path
       d="m 1267.208,744.41569 0,20.58355"
       style="fill:none;stroke:#000000;stroke-width:1;stroke-linecap:butt;stroke-linejoin:miter;stroke-miterlimit:10;stroke-opacity:1;stroke-dasharray:none"
       id="path75586" />
    <path
       id="path75588"
       style="fill:none;stroke:#000000;stroke-width:1;stroke-linecap:butt;stroke-linejoin:miter;stroke-miterlimit:10;stroke-opacity:1;stroke-dasharray:none"
       d="m 1267.208,744.41569 0,20.58355" />
    <g
       ns0:text="$i_l^1$"
       ns0:preamble=""
       transform="matrix(4.8305043,0,0,4.8305043,-361.92454,158.96572)"
       id="g76715">
      <defs
         id="defs76717">
        <g
           id="g76719">
          <symbol
             overflow="visible"
             id="textext-1909498c-0"
             style="overflow:visible">
            <path
               style="stroke:none"
               d=""
               id="path76722" />
          </symbol>
          <symbol
             overflow="visible"
             id="textext-1909498c-1"
             style="overflow:visible">
            <path
               style="stroke:none"
               d="m 2.828125,-6.234375 c 0,-0.203125 -0.140625,-0.359375 -0.359375,-0.359375 -0.28125,0 -0.546875,0.265625 -0.546875,0.53125 0,0.1875 0.140625,0.359375 0.375,0.359375 0.234375,0 0.53125,-0.234375 0.53125,-0.53125 z m -0.75,3.75 c 0.109375,-0.28125 0.109375,-0.3125 0.21875,-0.578125 0.078125,-0.203125 0.125,-0.34375 0.125,-0.53125 0,-0.4375 -0.3125,-0.8125 -0.8125,-0.8125 -0.9375,0 -1.3125,1.453125 -1.3125,1.53125 0,0.109375 0.09375,0.109375 0.109375,0.109375 0.109375,0 0.109375,-0.03125 0.15625,-0.1875 0.28125,-0.9375 0.671875,-1.234375 1.015625,-1.234375 0.078125,0 0.25,0 0.25,0.3125 0,0.21875 -0.078125,0.421875 -0.109375,0.53125 -0.078125,0.25 -0.53125,1.40625 -0.6875,1.84375 -0.109375,0.25 -0.234375,0.578125 -0.234375,0.796875 0,0.46875 0.34375,0.8125 0.8125,0.8125 0.9375,0 1.3125,-1.4375 1.3125,-1.53125 0,-0.109375 -0.09375,-0.109375 -0.125,-0.109375 -0.09375,0 -0.09375,0.03125 -0.140625,0.1875 -0.1875,0.625 -0.515625,1.234375 -1.015625,1.234375 -0.171875,0 -0.25,-0.09375 -0.25,-0.328125 0,-0.25 0.0625,-0.390625 0.296875,-1 l 0.390625,-1.046875 z m 0,0"
               id="path76725" />
          </symbol>
          <symbol
             overflow="visible"
             id="textext-1909498c-2"
             style="overflow:visible">
            <path
               style="stroke:none"
               d=""
               id="path76728" />
          </symbol>
          <symbol
             overflow="visible"
             id="textext-1909498c-3"
             style="overflow:visible">
            <path
               style="stroke:none"
               d="m 2.328125,-4.4375 c 0,-0.1875 0,-0.1875 -0.203125,-0.1875 -0.453125,0.4375 -1.078125,0.4375 -1.359375,0.4375 l 0,0.25 c 0.15625,0 0.625,0 1,-0.1875 l 0,3.546875 c 0,0.234375 0,0.328125 -0.6875,0.328125 l -0.265625,0 0,0.25 c 0.125,0 0.984375,-0.03125 1.234375,-0.03125 0.21875,0 1.09375,0.03125 1.25,0.03125 l 0,-0.25 -0.265625,0 c -0.703125,0 -0.703125,-0.09375 -0.703125,-0.328125 l 0,-3.859375 z m 0,0"
               id="path76731" />
          </symbol>
          <symbol
             overflow="visible"
             id="textext-1909498c-4"
             style="overflow:visible">
            <path
               style="stroke:none"
               d=""
               id="path76734" />
          </symbol>
          <symbol
             overflow="visible"
             id="textext-1909498c-5"
             style="overflow:visible">
            <path
               style="stroke:none"
               d="M 1.96875,-4.625 C 1.96875,-4.640625 2,-4.734375 2,-4.734375 2,-4.78125 1.96875,-4.84375 1.875,-4.84375 c -0.140625,0 -0.71875,0.0625 -0.890625,0.078125 -0.046875,0 -0.140625,0.015625 -0.140625,0.15625 0,0.09375 0.09375,0.09375 0.171875,0.09375 0.34375,0 0.34375,0.0625 0.34375,0.109375 0,0.046875 -0.015625,0.09375 -0.03125,0.15625 l -0.875,3.4375 C 0.4375,-0.734375 0.4375,-0.65625 0.4375,-0.59375 c 0,0.453125 0.390625,0.65625 0.71875,0.65625 0.171875,0 0.390625,-0.046875 0.5625,-0.359375 C 1.875,-0.5625 1.96875,-0.96875 1.96875,-1 c 0,-0.09375 -0.09375,-0.09375 -0.109375,-0.09375 -0.109375,0 -0.125,0.046875 -0.140625,0.171875 C 1.625,-0.578125 1.484375,-0.125 1.1875,-0.125 1,-0.125 0.953125,-0.296875 0.953125,-0.46875 0.953125,-0.546875 0.96875,-0.671875 1,-0.75 l 0.96875,-3.875 z m 0,0"
               id="path76737" />
          </symbol>
        </g>
      </defs>
      <g
         id="textext-1909498c-6">
        <g
           style="fill:#000000;fill-opacity:1"
           id="g76740">
          <use
             xlink:href="#textext-1909498c-1"
             x="223.43201"
             y="134.765"
             id="use76742"
             width="654.78424"
             height="468.62686" />
        </g>
        <g
           style="fill:#000000;fill-opacity:1"
           id="g76744">
          <use
             xlink:href="#textext-1909498c-3"
             x="226.864"
             y="131.14999"
             id="use76746"
             width="654.78424"
             height="468.62686" />
        </g>
        <g
           style="fill:#000000;fill-opacity:1"
           id="g76748">
          <use
             xlink:href="#textext-1909498c-5"
             x="226.864"
             y="137.586"
             id="use76750"
             width="654.78424"
             height="468.62686" />
        </g>
      </g>
    </g>
    <g
       id="g77260"
       transform="matrix(4.8305043,0,0,4.8305043,-119.44652,158.96572)"
       ns0:preamble=""
       ns0:text="$i_r^1$">
      <defs
         id="defs77262">
        <g
           id="g77264">
          <symbol
             id="textext-9a31cd26-0"
             overflow="visible"
             style="overflow:visible">
            <path
               id="path77267"
               d=""
               style="stroke:none" />
          </symbol>
          <symbol
             id="textext-9a31cd26-1"
             overflow="visible"
             style="overflow:visible">
            <path
               id="path77270"
               d="m 2.828125,-6.234375 c 0,-0.203125 -0.140625,-0.359375 -0.359375,-0.359375 -0.28125,0 -0.546875,0.265625 -0.546875,0.53125 0,0.1875 0.140625,0.359375 0.375,0.359375 0.234375,0 0.53125,-0.234375 0.53125,-0.53125 z m -0.75,3.75 c 0.109375,-0.28125 0.109375,-0.3125 0.21875,-0.578125 0.078125,-0.203125 0.125,-0.34375 0.125,-0.53125 0,-0.4375 -0.3125,-0.8125 -0.8125,-0.8125 -0.9375,0 -1.3125,1.453125 -1.3125,1.53125 0,0.109375 0.09375,0.109375 0.109375,0.109375 0.109375,0 0.109375,-0.03125 0.15625,-0.1875 0.28125,-0.9375 0.671875,-1.234375 1.015625,-1.234375 0.078125,0 0.25,0 0.25,0.3125 0,0.21875 -0.078125,0.421875 -0.109375,0.53125 -0.078125,0.25 -0.53125,1.40625 -0.6875,1.84375 -0.109375,0.25 -0.234375,0.578125 -0.234375,0.796875 0,0.46875 0.34375,0.8125 0.8125,0.8125 0.9375,0 1.3125,-1.4375 1.3125,-1.53125 0,-0.109375 -0.09375,-0.109375 -0.125,-0.109375 -0.09375,0 -0.09375,0.03125 -0.140625,0.1875 -0.1875,0.625 -0.515625,1.234375 -1.015625,1.234375 -0.171875,0 -0.25,-0.09375 -0.25,-0.328125 0,-0.25 0.0625,-0.390625 0.296875,-1 l 0.390625,-1.046875 z m 0,0"
               style="stroke:none" />
          </symbol>
          <symbol
             id="textext-9a31cd26-2"
             overflow="visible"
             style="overflow:visible">
            <path
               id="path77273"
               d=""
               style="stroke:none" />
          </symbol>
          <symbol
             id="textext-9a31cd26-3"
             overflow="visible"
             style="overflow:visible">
            <path
               id="path77276"
               d="m 2.328125,-4.4375 c 0,-0.1875 0,-0.1875 -0.203125,-0.1875 -0.453125,0.4375 -1.078125,0.4375 -1.359375,0.4375 l 0,0.25 c 0.15625,0 0.625,0 1,-0.1875 l 0,3.546875 c 0,0.234375 0,0.328125 -0.6875,0.328125 l -0.265625,0 0,0.25 c 0.125,0 0.984375,-0.03125 1.234375,-0.03125 0.21875,0 1.09375,0.03125 1.25,0.03125 l 0,-0.25 -0.265625,0 c -0.703125,0 -0.703125,-0.09375 -0.703125,-0.328125 l 0,-3.859375 z m 0,0"
               style="stroke:none" />
          </symbol>
          <symbol
             id="textext-9a31cd26-4"
             overflow="visible"
             style="overflow:visible">
            <path
               id="path77279"
               d=""
               style="stroke:none" />
          </symbol>
          <symbol
             id="textext-9a31cd26-5"
             overflow="visible"
             style="overflow:visible">
            <path
               id="path77282"
               d="m 1.640625,-1.40625 c 0,-0.046875 0.171875,-0.671875 0.171875,-0.703125 0.015625,-0.0625 0.21875,-0.40625 0.453125,-0.578125 0.0625,-0.046875 0.25,-0.1875 0.5625,-0.1875 0.0625,0 0.234375,0 0.375,0.09375 -0.21875,0.0625 -0.296875,0.265625 -0.296875,0.390625 0,0.140625 0.109375,0.25 0.265625,0.25 0.171875,0 0.390625,-0.125 0.390625,-0.421875 0,-0.359375 -0.375,-0.515625 -0.734375,-0.515625 -0.359375,0 -0.671875,0.15625 -0.984375,0.5 -0.125,-0.421875 -0.546875,-0.5 -0.71875,-0.5 -0.25,0 -0.421875,0.171875 -0.546875,0.359375 -0.15625,0.265625 -0.25,0.671875 -0.25,0.71875 0,0.078125 0.09375,0.078125 0.125,0.078125 0.09375,0 0.09375,-0.015625 0.140625,-0.203125 0.109375,-0.421875 0.25,-0.75 0.515625,-0.75 0.1875,0 0.234375,0.15625 0.234375,0.34375 0,0.125 -0.0625,0.390625 -0.125,0.578125 -0.046875,0.1875 -0.109375,0.46875 -0.140625,0.625 L 0.84375,-0.4375 C 0.828125,-0.34375 0.78125,-0.171875 0.78125,-0.15625 0.78125,0 0.90625,0.0625 1.015625,0.0625 1.125,0.0625 1.265625,0 1.3125,-0.125 1.328125,-0.171875 1.40625,-0.484375 1.453125,-0.65625 l 0.1875,-0.75 z m 0,0"
               style="stroke:none" />
          </symbol>
        </g>
      </defs>
      <g
         id="textext-9a31cd26-6">
        <g
           id="g77285"
           style="fill:#000000;fill-opacity:1">
          <use
             id="use77287"
             y="134.765"
             x="223.43201"
             xlink:href="#textext-9a31cd26-1"
             width="654.78424"
             height="468.62686" />
        </g>
        <g
           id="g77289"
           style="fill:#000000;fill-opacity:1">
          <use
             id="use77291"
             y="131.14999"
             x="226.864"
             xlink:href="#textext-9a31cd26-3"
             width="654.78424"
             height="468.62686" />
        </g>
        <g
           id="g77293"
           style="fill:#000000;fill-opacity:1">
          <use
             id="use77295"
             y="137.228"
             x="226.864"
             xlink:href="#textext-9a31cd26-5"
             width="654.78424"
             height="468.62686" />
        </g>
      </g>
    </g>
    <g
       ns0:text="$i_l^2$"
       ns0:preamble=""
       transform="matrix(4.8305043,0,0,4.8305043,-72.322113,158.96572)"
       id="g77783">
      <defs
         id="defs77785">
        <g
           id="g77787">
          <symbol
             overflow="visible"
             id="textext-a8b03870-0"
             style="overflow:visible">
            <path
               style="stroke:none"
               d=""
               id="path77790" />
          </symbol>
          <symbol
             overflow="visible"
             id="textext-a8b03870-1"
             style="overflow:visible">
            <path
               style="stroke:none"
               d="m 2.828125,-6.234375 c 0,-0.203125 -0.140625,-0.359375 -0.359375,-0.359375 -0.28125,0 -0.546875,0.265625 -0.546875,0.53125 0,0.1875 0.140625,0.359375 0.375,0.359375 0.234375,0 0.53125,-0.234375 0.53125,-0.53125 z m -0.75,3.75 c 0.109375,-0.28125 0.109375,-0.3125 0.21875,-0.578125 0.078125,-0.203125 0.125,-0.34375 0.125,-0.53125 0,-0.4375 -0.3125,-0.8125 -0.8125,-0.8125 -0.9375,0 -1.3125,1.453125 -1.3125,1.53125 0,0.109375 0.09375,0.109375 0.109375,0.109375 0.109375,0 0.109375,-0.03125 0.15625,-0.1875 0.28125,-0.9375 0.671875,-1.234375 1.015625,-1.234375 0.078125,0 0.25,0 0.25,0.3125 0,0.21875 -0.078125,0.421875 -0.109375,0.53125 -0.078125,0.25 -0.53125,1.40625 -0.6875,1.84375 -0.109375,0.25 -0.234375,0.578125 -0.234375,0.796875 0,0.46875 0.34375,0.8125 0.8125,0.8125 0.9375,0 1.3125,-1.4375 1.3125,-1.53125 0,-0.109375 -0.09375,-0.109375 -0.125,-0.109375 -0.09375,0 -0.09375,0.03125 -0.140625,0.1875 -0.1875,0.625 -0.515625,1.234375 -1.015625,1.234375 -0.171875,0 -0.25,-0.09375 -0.25,-0.328125 0,-0.25 0.0625,-0.390625 0.296875,-1 l 0.390625,-1.046875 z m 0,0"
               id="path77793" />
          </symbol>
          <symbol
             overflow="visible"
             id="textext-a8b03870-2"
             style="overflow:visible">
            <path
               style="stroke:none"
               d=""
               id="path77796" />
          </symbol>
          <symbol
             overflow="visible"
             id="textext-a8b03870-3"
             style="overflow:visible">
            <path
               style="stroke:none"
               d="m 3.515625,-1.265625 -0.234375,0 c -0.015625,0.15625 -0.09375,0.5625 -0.1875,0.625 -0.046875,0.046875 -0.578125,0.046875 -0.6875,0.046875 l -1.28125,0 c 0.734375,-0.640625 0.984375,-0.84375 1.390625,-1.171875 0.515625,-0.40625 1,-0.84375 1,-1.5 0,-0.84375 -0.734375,-1.359375 -1.625,-1.359375 -0.859375,0 -1.453125,0.609375 -1.453125,1.25 0,0.34375 0.296875,0.390625 0.375,0.390625 0.15625,0 0.359375,-0.125 0.359375,-0.375 0,-0.125 -0.046875,-0.375 -0.40625,-0.375 C 0.984375,-4.21875 1.453125,-4.375 1.78125,-4.375 c 0.703125,0 1.0625,0.546875 1.0625,1.109375 0,0.609375 -0.4375,1.078125 -0.65625,1.328125 L 0.515625,-0.265625 C 0.4375,-0.203125 0.4375,-0.1875 0.4375,0 l 2.875,0 0.203125,-1.265625 z m 0,0"
               id="path77799" />
          </symbol>
          <symbol
             overflow="visible"
             id="textext-a8b03870-4"
             style="overflow:visible">
            <path
               style="stroke:none"
               d=""
               id="path77802" />
          </symbol>
          <symbol
             overflow="visible"
             id="textext-a8b03870-5"
             style="overflow:visible">
            <path
               style="stroke:none"
               d="M 1.96875,-4.625 C 1.96875,-4.640625 2,-4.734375 2,-4.734375 2,-4.78125 1.96875,-4.84375 1.875,-4.84375 c -0.140625,0 -0.71875,0.0625 -0.890625,0.078125 -0.046875,0 -0.140625,0.015625 -0.140625,0.15625 0,0.09375 0.09375,0.09375 0.171875,0.09375 0.34375,0 0.34375,0.0625 0.34375,0.109375 0,0.046875 -0.015625,0.09375 -0.03125,0.15625 l -0.875,3.4375 C 0.4375,-0.734375 0.4375,-0.65625 0.4375,-0.59375 c 0,0.453125 0.390625,0.65625 0.71875,0.65625 0.171875,0 0.390625,-0.046875 0.5625,-0.359375 C 1.875,-0.5625 1.96875,-0.96875 1.96875,-1 c 0,-0.09375 -0.09375,-0.09375 -0.109375,-0.09375 -0.109375,0 -0.125,0.046875 -0.140625,0.171875 C 1.625,-0.578125 1.484375,-0.125 1.1875,-0.125 1,-0.125 0.953125,-0.296875 0.953125,-0.46875 0.953125,-0.546875 0.96875,-0.671875 1,-0.75 l 0.96875,-3.875 z m 0,0"
               id="path77805" />
          </symbol>
        </g>
      </defs>
      <g
         id="textext-a8b03870-6">
        <g
           style="fill:#000000;fill-opacity:1"
           id="g77808">
          <use
             xlink:href="#textext-a8b03870-1"
             x="223.43201"
             y="134.765"
             id="use77810"
             width="654.78424"
             height="468.62686" />
        </g>
        <g
           style="fill:#000000;fill-opacity:1"
           id="g77812">
          <use
             xlink:href="#textext-a8b03870-3"
             x="226.864"
             y="131.14999"
             id="use77814"
             width="654.78424"
             height="468.62686" />
        </g>
        <g
           style="fill:#000000;fill-opacity:1"
           id="g77816">
          <use
             xlink:href="#textext-a8b03870-5"
             x="226.864"
             y="137.586"
             id="use77818"
             width="654.78424"
             height="468.62686" />
        </g>
      </g>
    </g>
    <g
       id="g78306"
       transform="matrix(4.8305043,0,0,4.8305043,173.29597,158.96572)"
       ns0:preamble=""
       ns0:text="$i_r^2$">
      <defs
         id="defs78308">
        <g
           id="g78310">
          <symbol
             id="textext-e5e0ae34-0"
             overflow="visible"
             style="overflow:visible">
            <path
               id="path78313"
               d=""
               style="stroke:none" />
          </symbol>
          <symbol
             id="textext-e5e0ae34-1"
             overflow="visible"
             style="overflow:visible">
            <path
               id="path78316"
               d="m 2.828125,-6.234375 c 0,-0.203125 -0.140625,-0.359375 -0.359375,-0.359375 -0.28125,0 -0.546875,0.265625 -0.546875,0.53125 0,0.1875 0.140625,0.359375 0.375,0.359375 0.234375,0 0.53125,-0.234375 0.53125,-0.53125 z m -0.75,3.75 c 0.109375,-0.28125 0.109375,-0.3125 0.21875,-0.578125 0.078125,-0.203125 0.125,-0.34375 0.125,-0.53125 0,-0.4375 -0.3125,-0.8125 -0.8125,-0.8125 -0.9375,0 -1.3125,1.453125 -1.3125,1.53125 0,0.109375 0.09375,0.109375 0.109375,0.109375 0.109375,0 0.109375,-0.03125 0.15625,-0.1875 0.28125,-0.9375 0.671875,-1.234375 1.015625,-1.234375 0.078125,0 0.25,0 0.25,0.3125 0,0.21875 -0.078125,0.421875 -0.109375,0.53125 -0.078125,0.25 -0.53125,1.40625 -0.6875,1.84375 -0.109375,0.25 -0.234375,0.578125 -0.234375,0.796875 0,0.46875 0.34375,0.8125 0.8125,0.8125 0.9375,0 1.3125,-1.4375 1.3125,-1.53125 0,-0.109375 -0.09375,-0.109375 -0.125,-0.109375 -0.09375,0 -0.09375,0.03125 -0.140625,0.1875 -0.1875,0.625 -0.515625,1.234375 -1.015625,1.234375 -0.171875,0 -0.25,-0.09375 -0.25,-0.328125 0,-0.25 0.0625,-0.390625 0.296875,-1 l 0.390625,-1.046875 z m 0,0"
               style="stroke:none" />
          </symbol>
          <symbol
             id="textext-e5e0ae34-2"
             overflow="visible"
             style="overflow:visible">
            <path
               id="path78319"
               d=""
               style="stroke:none" />
          </symbol>
          <symbol
             id="textext-e5e0ae34-3"
             overflow="visible"
             style="overflow:visible">
            <path
               id="path78322"
               d="m 3.515625,-1.265625 -0.234375,0 c -0.015625,0.15625 -0.09375,0.5625 -0.1875,0.625 -0.046875,0.046875 -0.578125,0.046875 -0.6875,0.046875 l -1.28125,0 c 0.734375,-0.640625 0.984375,-0.84375 1.390625,-1.171875 0.515625,-0.40625 1,-0.84375 1,-1.5 0,-0.84375 -0.734375,-1.359375 -1.625,-1.359375 -0.859375,0 -1.453125,0.609375 -1.453125,1.25 0,0.34375 0.296875,0.390625 0.375,0.390625 0.15625,0 0.359375,-0.125 0.359375,-0.375 0,-0.125 -0.046875,-0.375 -0.40625,-0.375 C 0.984375,-4.21875 1.453125,-4.375 1.78125,-4.375 c 0.703125,0 1.0625,0.546875 1.0625,1.109375 0,0.609375 -0.4375,1.078125 -0.65625,1.328125 L 0.515625,-0.265625 C 0.4375,-0.203125 0.4375,-0.1875 0.4375,0 l 2.875,0 0.203125,-1.265625 z m 0,0"
               style="stroke:none" />
          </symbol>
          <symbol
             id="textext-e5e0ae34-4"
             overflow="visible"
             style="overflow:visible">
            <path
               id="path78325"
               d=""
               style="stroke:none" />
          </symbol>
          <symbol
             id="textext-e5e0ae34-5"
             overflow="visible"
             style="overflow:visible">
            <path
               id="path78328"
               d="m 1.640625,-1.40625 c 0,-0.046875 0.171875,-0.671875 0.171875,-0.703125 0.015625,-0.0625 0.21875,-0.40625 0.453125,-0.578125 0.0625,-0.046875 0.25,-0.1875 0.5625,-0.1875 0.0625,0 0.234375,0 0.375,0.09375 -0.21875,0.0625 -0.296875,0.265625 -0.296875,0.390625 0,0.140625 0.109375,0.25 0.265625,0.25 0.171875,0 0.390625,-0.125 0.390625,-0.421875 0,-0.359375 -0.375,-0.515625 -0.734375,-0.515625 -0.359375,0 -0.671875,0.15625 -0.984375,0.5 -0.125,-0.421875 -0.546875,-0.5 -0.71875,-0.5 -0.25,0 -0.421875,0.171875 -0.546875,0.359375 -0.15625,0.265625 -0.25,0.671875 -0.25,0.71875 0,0.078125 0.09375,0.078125 0.125,0.078125 0.09375,0 0.09375,-0.015625 0.140625,-0.203125 0.109375,-0.421875 0.25,-0.75 0.515625,-0.75 0.1875,0 0.234375,0.15625 0.234375,0.34375 0,0.125 -0.0625,0.390625 -0.125,0.578125 -0.046875,0.1875 -0.109375,0.46875 -0.140625,0.625 L 0.84375,-0.4375 C 0.828125,-0.34375 0.78125,-0.171875 0.78125,-0.15625 0.78125,0 0.90625,0.0625 1.015625,0.0625 1.125,0.0625 1.265625,0 1.3125,-0.125 1.328125,-0.171875 1.40625,-0.484375 1.453125,-0.65625 l 0.1875,-0.75 z m 0,0"
               style="stroke:none" />
          </symbol>
        </g>
      </defs>
      <g
         id="textext-e5e0ae34-6">
        <g
           id="g78331"
           style="fill:#000000;fill-opacity:1">
          <use
             id="use78333"
             y="134.765"
             x="223.43201"
             xlink:href="#textext-e5e0ae34-1"
             width="654.78424"
             height="468.62686" />
        </g>
        <g
           id="g78335"
           style="fill:#000000;fill-opacity:1">
          <use
             id="use78337"
             y="131.14999"
             x="226.864"
             xlink:href="#textext-e5e0ae34-3"
             width="654.78424"
             height="468.62686" />
        </g>
        <g
           id="g78339"
           style="fill:#000000;fill-opacity:1">
          <use
             id="use78341"
             y="137.228"
             x="226.864"
             xlink:href="#textext-e5e0ae34-5"
             width="654.78424"
             height="468.62686" />
        </g>
      </g>
    </g>
    <g
       ns0:text="$\\omega_l^1$"
       ns0:preamble=""
       transform="matrix(4.8305043,0,0,4.8305043,-482.69076,-20.963802)"
       id="g79900">
      <defs
         id="defs79902">
        <g
           id="g79904">
          <symbol
             style="overflow:visible"
             overflow="visible"
             id="textext-f0060393-0">
            <path
               style="stroke:none"
               d=""
               id="path79907" />
          </symbol>
          <symbol
             style="overflow:visible"
             overflow="visible"
             id="textext-f0060393-1">
            <path
               style="stroke:none"
               d="m 6.03125,-3.703125 c 0,-0.453125 -0.171875,-0.703125 -0.40625,-0.703125 -0.25,0 -0.515625,0.234375 -0.515625,0.46875 0,0.09375 0.046875,0.203125 0.140625,0.296875 0.171875,0.15625 0.359375,0.421875 0.359375,0.84375 0,0.390625 -0.203125,0.96875 -0.5,1.421875 C 4.8125,-0.953125 4.4375,-0.609375 3.96875,-0.609375 3.40625,-0.609375 3.09375,-0.96875 3,-1.5 c 0.109375,-0.265625 0.34375,-0.90625 0.34375,-1.1875 0,-0.109375 -0.046875,-0.21875 -0.1875,-0.21875 -0.078125,0 -0.1875,0.03125 -0.265625,0.171875 C 2.78125,-2.53125 2.65625,-1.890625 2.65625,-1.53125 2.328125,-1.0625 1.9375,-0.609375 1.3125,-0.609375 c -0.671875,0 -0.875,-0.59375 -0.875,-1.140625 0,-1.25 1.015625,-2.296875 1.015625,-2.421875 0,-0.109375 -0.078125,-0.1875 -0.1875,-0.1875 -0.125,0 -0.203125,0.125 -0.265625,0.21875 -0.5,0.734375 -0.875,1.921875 -0.875,2.828125 0,0.6875 0.21875,1.421875 1.046875,1.421875 0.703125,0 1.171875,-0.5 1.53125,-1.046875 0.09375,0.578125 0.484375,1.046875 1.09375,1.046875 0.78125,0 1.25,-0.609375 1.609375,-1.359375 0.25,-0.484375 0.625,-1.84375 0.625,-2.453125 z m 0,0"
               id="path79910" />
          </symbol>
          <symbol
             style="overflow:visible"
             overflow="visible"
             id="textext-f0060393-2">
            <path
               style="stroke:none"
               d=""
               id="path79913" />
          </symbol>
          <symbol
             style="overflow:visible"
             overflow="visible"
             id="textext-f0060393-3">
            <path
               style="stroke:none"
               d="m 2.328125,-4.4375 c 0,-0.1875 0,-0.1875 -0.203125,-0.1875 -0.453125,0.4375 -1.078125,0.4375 -1.359375,0.4375 l 0,0.25 c 0.15625,0 0.625,0 1,-0.1875 l 0,3.546875 c 0,0.234375 0,0.328125 -0.6875,0.328125 l -0.265625,0 0,0.25 c 0.125,0 0.984375,-0.03125 1.234375,-0.03125 0.21875,0 1.09375,0.03125 1.25,0.03125 l 0,-0.25 -0.265625,0 c -0.703125,0 -0.703125,-0.09375 -0.703125,-0.328125 l 0,-3.859375 z m 0,0"
               id="path79916" />
          </symbol>
          <symbol
             style="overflow:visible"
             overflow="visible"
             id="textext-f0060393-4">
            <path
               style="stroke:none"
               d=""
               id="path79919" />
          </symbol>
          <symbol
             style="overflow:visible"
             overflow="visible"
             id="textext-f0060393-5">
            <path
               style="stroke:none"
               d="M 1.96875,-4.625 C 1.96875,-4.640625 2,-4.734375 2,-4.734375 2,-4.78125 1.96875,-4.84375 1.875,-4.84375 c -0.140625,0 -0.71875,0.0625 -0.890625,0.078125 -0.046875,0 -0.140625,0.015625 -0.140625,0.15625 0,0.09375 0.09375,0.09375 0.171875,0.09375 0.34375,0 0.34375,0.0625 0.34375,0.109375 0,0.046875 -0.015625,0.09375 -0.03125,0.15625 l -0.875,3.4375 C 0.4375,-0.734375 0.4375,-0.65625 0.4375,-0.59375 c 0,0.453125 0.390625,0.65625 0.71875,0.65625 0.171875,0 0.390625,-0.046875 0.5625,-0.359375 C 1.875,-0.5625 1.96875,-0.96875 1.96875,-1 c 0,-0.09375 -0.09375,-0.09375 -0.109375,-0.09375 -0.109375,0 -0.125,0.046875 -0.140625,0.171875 C 1.625,-0.578125 1.484375,-0.125 1.1875,-0.125 1,-0.125 0.953125,-0.296875 0.953125,-0.46875 0.953125,-0.546875 0.96875,-0.671875 1,-0.75 l 0.96875,-3.875 z m 0,0"
               id="path79922" />
          </symbol>
        </g>
      </defs>
      <g
         id="textext-f0060393-6">
        <g
           style="fill:#000000;fill-opacity:1"
           id="g79925">
          <use
             height="468.62686"
             width="654.78424"
             xlink:href="#textext-f0060393-1"
             x="223.43201"
             y="134.765"
             id="use79927" />
        </g>
        <g
           style="fill:#000000;fill-opacity:1"
           id="g79929">
          <use
             height="468.62686"
             width="654.78424"
             xlink:href="#textext-f0060393-3"
             x="229.991"
             y="131.14999"
             id="use79931" />
        </g>
        <g
           style="fill:#000000;fill-opacity:1"
           id="g79933">
          <use
             height="468.62686"
             width="654.78424"
             xlink:href="#textext-f0060393-5"
             x="229.633"
             y="137.586"
             id="use79935" />
        </g>
      </g>
    </g>
    <g
       id="g80501"
       transform="matrix(4.8305043,0,0,4.8305043,-482.69076,-203.74935)"
       ns0:preamble=""
       ns0:text="$\\omega_l^2$">
      <defs
         id="defs80503">
        <g
           id="g80505">
          <symbol
             id="textext-f9bd4c88-0"
             overflow="visible"
             style="overflow:visible">
            <path
               id="path80508"
               d=""
               style="stroke:none" />
          </symbol>
          <symbol
             id="textext-f9bd4c88-1"
             overflow="visible"
             style="overflow:visible">
            <path
               id="path80511"
               d="m 6.03125,-3.703125 c 0,-0.453125 -0.171875,-0.703125 -0.40625,-0.703125 -0.25,0 -0.515625,0.234375 -0.515625,0.46875 0,0.09375 0.046875,0.203125 0.140625,0.296875 0.171875,0.15625 0.359375,0.421875 0.359375,0.84375 0,0.390625 -0.203125,0.96875 -0.5,1.421875 C 4.8125,-0.953125 4.4375,-0.609375 3.96875,-0.609375 3.40625,-0.609375 3.09375,-0.96875 3,-1.5 c 0.109375,-0.265625 0.34375,-0.90625 0.34375,-1.1875 0,-0.109375 -0.046875,-0.21875 -0.1875,-0.21875 -0.078125,0 -0.1875,0.03125 -0.265625,0.171875 C 2.78125,-2.53125 2.65625,-1.890625 2.65625,-1.53125 2.328125,-1.0625 1.9375,-0.609375 1.3125,-0.609375 c -0.671875,0 -0.875,-0.59375 -0.875,-1.140625 0,-1.25 1.015625,-2.296875 1.015625,-2.421875 0,-0.109375 -0.078125,-0.1875 -0.1875,-0.1875 -0.125,0 -0.203125,0.125 -0.265625,0.21875 -0.5,0.734375 -0.875,1.921875 -0.875,2.828125 0,0.6875 0.21875,1.421875 1.046875,1.421875 0.703125,0 1.171875,-0.5 1.53125,-1.046875 0.09375,0.578125 0.484375,1.046875 1.09375,1.046875 0.78125,0 1.25,-0.609375 1.609375,-1.359375 0.25,-0.484375 0.625,-1.84375 0.625,-2.453125 z m 0,0"
               style="stroke:none" />
          </symbol>
          <symbol
             id="textext-f9bd4c88-2"
             overflow="visible"
             style="overflow:visible">
            <path
               id="path80514"
               d=""
               style="stroke:none" />
          </symbol>
          <symbol
             id="textext-f9bd4c88-3"
             overflow="visible"
             style="overflow:visible">
            <path
               id="path80517"
               d="m 3.515625,-1.265625 -0.234375,0 c -0.015625,0.15625 -0.09375,0.5625 -0.1875,0.625 -0.046875,0.046875 -0.578125,0.046875 -0.6875,0.046875 l -1.28125,0 c 0.734375,-0.640625 0.984375,-0.84375 1.390625,-1.171875 0.515625,-0.40625 1,-0.84375 1,-1.5 0,-0.84375 -0.734375,-1.359375 -1.625,-1.359375 -0.859375,0 -1.453125,0.609375 -1.453125,1.25 0,0.34375 0.296875,0.390625 0.375,0.390625 0.15625,0 0.359375,-0.125 0.359375,-0.375 0,-0.125 -0.046875,-0.375 -0.40625,-0.375 C 0.984375,-4.21875 1.453125,-4.375 1.78125,-4.375 c 0.703125,0 1.0625,0.546875 1.0625,1.109375 0,0.609375 -0.4375,1.078125 -0.65625,1.328125 L 0.515625,-0.265625 C 0.4375,-0.203125 0.4375,-0.1875 0.4375,0 l 2.875,0 0.203125,-1.265625 z m 0,0"
               style="stroke:none" />
          </symbol>
          <symbol
             id="textext-f9bd4c88-4"
             overflow="visible"
             style="overflow:visible">
            <path
               id="path80520"
               d=""
               style="stroke:none" />
          </symbol>
          <symbol
             id="textext-f9bd4c88-5"
             overflow="visible"
             style="overflow:visible">
            <path
               id="path80523"
               d="M 1.96875,-4.625 C 1.96875,-4.640625 2,-4.734375 2,-4.734375 2,-4.78125 1.96875,-4.84375 1.875,-4.84375 c -0.140625,0 -0.71875,0.0625 -0.890625,0.078125 -0.046875,0 -0.140625,0.015625 -0.140625,0.15625 0,0.09375 0.09375,0.09375 0.171875,0.09375 0.34375,0 0.34375,0.0625 0.34375,0.109375 0,0.046875 -0.015625,0.09375 -0.03125,0.15625 l -0.875,3.4375 C 0.4375,-0.734375 0.4375,-0.65625 0.4375,-0.59375 c 0,0.453125 0.390625,0.65625 0.71875,0.65625 0.171875,0 0.390625,-0.046875 0.5625,-0.359375 C 1.875,-0.5625 1.96875,-0.96875 1.96875,-1 c 0,-0.09375 -0.09375,-0.09375 -0.109375,-0.09375 -0.109375,0 -0.125,0.046875 -0.140625,0.171875 C 1.625,-0.578125 1.484375,-0.125 1.1875,-0.125 1,-0.125 0.953125,-0.296875 0.953125,-0.46875 0.953125,-0.546875 0.96875,-0.671875 1,-0.75 l 0.96875,-3.875 z m 0,0"
               style="stroke:none" />
          </symbol>
        </g>
      </defs>
      <g
         id="textext-f9bd4c88-6">
        <g
           id="g80526"
           style="fill:#000000;fill-opacity:1">
          <use
             id="use80528"
             y="134.765"
             x="223.43201"
             xlink:href="#textext-f9bd4c88-1"
             width="654.78424"
             height="468.62686" />
        </g>
        <g
           id="g80530"
           style="fill:#000000;fill-opacity:1">
          <use
             id="use80532"
             y="131.14999"
             x="229.991"
             xlink:href="#textext-f9bd4c88-3"
             width="654.78424"
             height="468.62686" />
        </g>
        <g
           id="g80534"
           style="fill:#000000;fill-opacity:1">
          <use
             id="use80536"
             y="137.586"
             x="229.633"
             xlink:href="#textext-f9bd4c88-5"
             width="654.78424"
             height="468.62686" />
        </g>
      </g>
    </g>
    <g
       ns0:text="$\\omega_r^1$"
       ns0:preamble=""
       transform="matrix(4.8305043,0,0,4.8305043,-482.69076,-145.20085)"
       id="g81146">
      <defs
         id="defs81148">
        <g
           id="g81150">
          <symbol
             overflow="visible"
             id="textext-83f6460a-0"
             style="overflow:visible">
            <path
               style="stroke:none"
               d=""
               id="path81153" />
          </symbol>
          <symbol
             overflow="visible"
             id="textext-83f6460a-1"
             style="overflow:visible">
            <path
               style="stroke:none"
               d="m 6.03125,-3.703125 c 0,-0.453125 -0.171875,-0.703125 -0.40625,-0.703125 -0.25,0 -0.515625,0.234375 -0.515625,0.46875 0,0.09375 0.046875,0.203125 0.140625,0.296875 0.171875,0.15625 0.359375,0.421875 0.359375,0.84375 0,0.390625 -0.203125,0.96875 -0.5,1.421875 C 4.8125,-0.953125 4.4375,-0.609375 3.96875,-0.609375 3.40625,-0.609375 3.09375,-0.96875 3,-1.5 c 0.109375,-0.265625 0.34375,-0.90625 0.34375,-1.1875 0,-0.109375 -0.046875,-0.21875 -0.1875,-0.21875 -0.078125,0 -0.1875,0.03125 -0.265625,0.171875 C 2.78125,-2.53125 2.65625,-1.890625 2.65625,-1.53125 2.328125,-1.0625 1.9375,-0.609375 1.3125,-0.609375 c -0.671875,0 -0.875,-0.59375 -0.875,-1.140625 0,-1.25 1.015625,-2.296875 1.015625,-2.421875 0,-0.109375 -0.078125,-0.1875 -0.1875,-0.1875 -0.125,0 -0.203125,0.125 -0.265625,0.21875 -0.5,0.734375 -0.875,1.921875 -0.875,2.828125 0,0.6875 0.21875,1.421875 1.046875,1.421875 0.703125,0 1.171875,-0.5 1.53125,-1.046875 0.09375,0.578125 0.484375,1.046875 1.09375,1.046875 0.78125,0 1.25,-0.609375 1.609375,-1.359375 0.25,-0.484375 0.625,-1.84375 0.625,-2.453125 z m 0,0"
               id="path81156" />
          </symbol>
          <symbol
             overflow="visible"
             id="textext-83f6460a-2"
             style="overflow:visible">
            <path
               style="stroke:none"
               d=""
               id="path81159" />
          </symbol>
          <symbol
             overflow="visible"
             id="textext-83f6460a-3"
             style="overflow:visible">
            <path
               style="stroke:none"
               d="m 2.328125,-4.4375 c 0,-0.1875 0,-0.1875 -0.203125,-0.1875 -0.453125,0.4375 -1.078125,0.4375 -1.359375,0.4375 l 0,0.25 c 0.15625,0 0.625,0 1,-0.1875 l 0,3.546875 c 0,0.234375 0,0.328125 -0.6875,0.328125 l -0.265625,0 0,0.25 c 0.125,0 0.984375,-0.03125 1.234375,-0.03125 0.21875,0 1.09375,0.03125 1.25,0.03125 l 0,-0.25 -0.265625,0 c -0.703125,0 -0.703125,-0.09375 -0.703125,-0.328125 l 0,-3.859375 z m 0,0"
               id="path81162" />
          </symbol>
          <symbol
             overflow="visible"
             id="textext-83f6460a-4"
             style="overflow:visible">
            <path
               style="stroke:none"
               d=""
               id="path81165" />
          </symbol>
          <symbol
             overflow="visible"
             id="textext-83f6460a-5"
             style="overflow:visible">
            <path
               style="stroke:none"
               d="m 1.640625,-1.40625 c 0,-0.046875 0.171875,-0.671875 0.171875,-0.703125 0.015625,-0.0625 0.21875,-0.40625 0.453125,-0.578125 0.0625,-0.046875 0.25,-0.1875 0.5625,-0.1875 0.0625,0 0.234375,0 0.375,0.09375 -0.21875,0.0625 -0.296875,0.265625 -0.296875,0.390625 0,0.140625 0.109375,0.25 0.265625,0.25 0.171875,0 0.390625,-0.125 0.390625,-0.421875 0,-0.359375 -0.375,-0.515625 -0.734375,-0.515625 -0.359375,0 -0.671875,0.15625 -0.984375,0.5 -0.125,-0.421875 -0.546875,-0.5 -0.71875,-0.5 -0.25,0 -0.421875,0.171875 -0.546875,0.359375 -0.15625,0.265625 -0.25,0.671875 -0.25,0.71875 0,0.078125 0.09375,0.078125 0.125,0.078125 0.09375,0 0.09375,-0.015625 0.140625,-0.203125 0.109375,-0.421875 0.25,-0.75 0.515625,-0.75 0.1875,0 0.234375,0.15625 0.234375,0.34375 0,0.125 -0.0625,0.390625 -0.125,0.578125 -0.046875,0.1875 -0.109375,0.46875 -0.140625,0.625 L 0.84375,-0.4375 C 0.828125,-0.34375 0.78125,-0.171875 0.78125,-0.15625 0.78125,0 0.90625,0.0625 1.015625,0.0625 1.125,0.0625 1.265625,0 1.3125,-0.125 1.328125,-0.171875 1.40625,-0.484375 1.453125,-0.65625 l 0.1875,-0.75 z m 0,0"
               id="path81168" />
          </symbol>
        </g>
      </defs>
      <g
         id="textext-83f6460a-6">
        <g
           style="fill:#000000;fill-opacity:1"
           id="g81171">
          <use
             xlink:href="#textext-83f6460a-1"
             x="223.43201"
             y="134.765"
             id="use81173"
             width="654.78424"
             height="468.62686" />
        </g>
        <g
           style="fill:#000000;fill-opacity:1"
           id="g81175">
          <use
             xlink:href="#textext-83f6460a-3"
             x="229.991"
             y="131.14999"
             id="use81177"
             width="654.78424"
             height="468.62686" />
        </g>
        <g
           style="fill:#000000;fill-opacity:1"
           id="g81179">
          <use
             xlink:href="#textext-83f6460a-5"
             x="229.633"
             y="137.228"
             id="use81181"
             width="654.78424"
             height="468.62686" />
        </g>
      </g>
    </g>
    <g
       id="g81835"
       transform="matrix(4.8305043,0,0,4.8305043,-482.69076,-286.57405)"
       ns0:preamble=""
       ns0:text="$\\omega_r^2$">
      <defs
         id="defs81837">
        <g
           id="g81839">
          <symbol
             id="textext-7450f4a1-0"
             overflow="visible"
             style="overflow:visible">
            <path
               id="path81842"
               d=""
               style="stroke:none" />
          </symbol>
          <symbol
             id="textext-7450f4a1-1"
             overflow="visible"
             style="overflow:visible">
            <path
               id="path81845"
               d="m 6.03125,-3.703125 c 0,-0.453125 -0.171875,-0.703125 -0.40625,-0.703125 -0.25,0 -0.515625,0.234375 -0.515625,0.46875 0,0.09375 0.046875,0.203125 0.140625,0.296875 0.171875,0.15625 0.359375,0.421875 0.359375,0.84375 0,0.390625 -0.203125,0.96875 -0.5,1.421875 C 4.8125,-0.953125 4.4375,-0.609375 3.96875,-0.609375 3.40625,-0.609375 3.09375,-0.96875 3,-1.5 c 0.109375,-0.265625 0.34375,-0.90625 0.34375,-1.1875 0,-0.109375 -0.046875,-0.21875 -0.1875,-0.21875 -0.078125,0 -0.1875,0.03125 -0.265625,0.171875 C 2.78125,-2.53125 2.65625,-1.890625 2.65625,-1.53125 2.328125,-1.0625 1.9375,-0.609375 1.3125,-0.609375 c -0.671875,0 -0.875,-0.59375 -0.875,-1.140625 0,-1.25 1.015625,-2.296875 1.015625,-2.421875 0,-0.109375 -0.078125,-0.1875 -0.1875,-0.1875 -0.125,0 -0.203125,0.125 -0.265625,0.21875 -0.5,0.734375 -0.875,1.921875 -0.875,2.828125 0,0.6875 0.21875,1.421875 1.046875,1.421875 0.703125,0 1.171875,-0.5 1.53125,-1.046875 0.09375,0.578125 0.484375,1.046875 1.09375,1.046875 0.78125,0 1.25,-0.609375 1.609375,-1.359375 0.25,-0.484375 0.625,-1.84375 0.625,-2.453125 z m 0,0"
               style="stroke:none" />
          </symbol>
          <symbol
             id="textext-7450f4a1-2"
             overflow="visible"
             style="overflow:visible">
            <path
               id="path81848"
               d=""
               style="stroke:none" />
          </symbol>
          <symbol
             id="textext-7450f4a1-3"
             overflow="visible"
             style="overflow:visible">
            <path
               id="path81851"
               d="m 3.515625,-1.265625 -0.234375,0 c -0.015625,0.15625 -0.09375,0.5625 -0.1875,0.625 -0.046875,0.046875 -0.578125,0.046875 -0.6875,0.046875 l -1.28125,0 c 0.734375,-0.640625 0.984375,-0.84375 1.390625,-1.171875 0.515625,-0.40625 1,-0.84375 1,-1.5 0,-0.84375 -0.734375,-1.359375 -1.625,-1.359375 -0.859375,0 -1.453125,0.609375 -1.453125,1.25 0,0.34375 0.296875,0.390625 0.375,0.390625 0.15625,0 0.359375,-0.125 0.359375,-0.375 0,-0.125 -0.046875,-0.375 -0.40625,-0.375 C 0.984375,-4.21875 1.453125,-4.375 1.78125,-4.375 c 0.703125,0 1.0625,0.546875 1.0625,1.109375 0,0.609375 -0.4375,1.078125 -0.65625,1.328125 L 0.515625,-0.265625 C 0.4375,-0.203125 0.4375,-0.1875 0.4375,0 l 2.875,0 0.203125,-1.265625 z m 0,0"
               style="stroke:none" />
          </symbol>
          <symbol
             id="textext-7450f4a1-4"
             overflow="visible"
             style="overflow:visible">
            <path
               id="path81854"
               d=""
               style="stroke:none" />
          </symbol>
          <symbol
             id="textext-7450f4a1-5"
             overflow="visible"
             style="overflow:visible">
            <path
               id="path81857"
               d="m 1.640625,-1.40625 c 0,-0.046875 0.171875,-0.671875 0.171875,-0.703125 0.015625,-0.0625 0.21875,-0.40625 0.453125,-0.578125 0.0625,-0.046875 0.25,-0.1875 0.5625,-0.1875 0.0625,0 0.234375,0 0.375,0.09375 -0.21875,0.0625 -0.296875,0.265625 -0.296875,0.390625 0,0.140625 0.109375,0.25 0.265625,0.25 0.171875,0 0.390625,-0.125 0.390625,-0.421875 0,-0.359375 -0.375,-0.515625 -0.734375,-0.515625 -0.359375,0 -0.671875,0.15625 -0.984375,0.5 -0.125,-0.421875 -0.546875,-0.5 -0.71875,-0.5 -0.25,0 -0.421875,0.171875 -0.546875,0.359375 -0.15625,0.265625 -0.25,0.671875 -0.25,0.71875 0,0.078125 0.09375,0.078125 0.125,0.078125 0.09375,0 0.09375,-0.015625 0.140625,-0.203125 0.109375,-0.421875 0.25,-0.75 0.515625,-0.75 0.1875,0 0.234375,0.15625 0.234375,0.34375 0,0.125 -0.0625,0.390625 -0.125,0.578125 -0.046875,0.1875 -0.109375,0.46875 -0.140625,0.625 L 0.84375,-0.4375 C 0.828125,-0.34375 0.78125,-0.171875 0.78125,-0.15625 0.78125,0 0.90625,0.0625 1.015625,0.0625 1.125,0.0625 1.265625,0 1.3125,-0.125 1.328125,-0.171875 1.40625,-0.484375 1.453125,-0.65625 l 0.1875,-0.75 z m 0,0"
               style="stroke:none" />
          </symbol>
        </g>
      </defs>
      <g
         id="textext-7450f4a1-6">
        <g
           id="g81860"
           style="fill:#000000;fill-opacity:1">
          <use
             id="use81862"
             y="134.765"
             x="223.43201"
             xlink:href="#textext-7450f4a1-1"
             width="654.78424"
             height="468.62686" />
        </g>
        <g
           id="g81864"
           style="fill:#000000;fill-opacity:1">
          <use
             id="use81866"
             y="131.14999"
             x="229.991"
             xlink:href="#textext-7450f4a1-3"
             width="654.78424"
             height="468.62686" />
        </g>
        <g
           id="g81868"
           style="fill:#000000;fill-opacity:1">
          <use
             id="use81870"
             y="137.228"
             x="229.633"
             xlink:href="#textext-7450f4a1-5"
             width="654.78424"
             height="468.62686" />
        </g>
      </g>
    </g>
  </g>
  <path
     d="m 71.262357,590.31194 2.5244,-5.355 2.6011,-5.355 2.5244,-5.355 2.5245,-5.355 2.6006,-5.355 2.525,-5.355 2.525,-5.355 2.6,-5.355 2.525,-5.355 2.525,-5.355 2.6013,-5.355 2.523703,-5.355 2.525,-5.355 2.6,-5.355 2.525,-5.355 2.525,-5.355 2.6,-5.355 2.525,-5.355 2.5237,-5.355 2.6013,-5.355 2.525,-5.355 2.525,-5.355 2.59995,-5.355 2.525,-5.355 2.525,-5.355 2.6013,-1.3 2.5237,-1.3775 2.525,-1.3 2.6,-1.3775 2.525,-1.3 2.525,-1.3775 2.6,-1.3 2.525,-1.3775 2.5238,-1.3 2.6012,-1.3775 2.525,-1.3775 2.525,-1.3 2.6,-1.3775 2.525,-1.3 2.525,-1.3775 2.6013,-1.3 2.5237,-1.3775 2.525,-1.3 2.59997,-1.3775 2.525,-1.3 2.525,-1.37625 2.6,-1.30125 2.525,-1.3775 2.5237,-1.3 2.6013,-1.37625 2.525,-1.30125 2.525,-1.3775 2.6,-1.3 2.525,-1.37625 2.525,-1.30125 2.6013,-1.3775 2.5237,-1.3 2.525,-1.3 2.59998,-1.3775 2.525,-1.3 2.525,-1.3775 2.6,-1.3 2.525,-1.3775 2.5237,-1.3 2.6013,-1.3775 2.525,-1.3 2.525,-1.3775 2.6,-1.3 2.525,-1.3775 2.525,-1.3 2.6013,-1.3775 2.5237,-1.3775 2.525,-1.3 2.6,-1.3775 2.525,-1.3 2.525,-1.3775 2.6,-1.3 2.525,-1.3775 2.5237,-1.3 2.6013,-1.3775 2.525,-1.3 2.525,-1.3775 2.6,-1.3 2.525,-1.3775 2.525,-1.3 2.6013,-1.3775 2.5237,-1.3 2.525,-1.3775 2.6,-1.3 2.525,-1.3775 2.525,-1.3 2.6,-1.30125 2.525,-1.37625 2.5237,-1.3 2.6013,-1.3775 2.525,-1.30125 2.525,-1.37625 2.6,-1.3 2.525,-1.3775 2.525,-1.30125 2.6012,-1.37625 2.5238,-1.3 2.525,-1.3775 2.6,-1.30125 2.525,-1.37625 2.525,-1.3 2.6,-1.3775 2.525,-1.37625 2.5237,-1.30125 2.6013,-1.3775 2.525,-1.3 2.525,-1.37625 2.6,-1.30125 2.525,-1.3775 2.525,-1.3 2.6012,-1.37625 2.5238,-1.30125 2.525,-1.3775 2.6,-1.3 2.525,-1.37625 2.525,-1.30125 2.6,-1.3775 2.525,-1.3 2.5237,-1.3775 2.6013,-1.3 2.525,-5.355 2.525,-5.355 2.6,-5.355 2.525,-5.355 2.525,-5.355 2.6012,-5.355 2.5238,-5.355 2.525,-5.355 2.6,-5.355 2.525,-5.355 2.525,-6.19625 2.6,-3.90125 2.525,-2.67875 2.5237,-1.98875 2.6013,-1.53 2.525,-1.1475 2.525,-0.9175 2.6,-0.84125 2.525,-0.6125 2.525,-0.61125 2.6012,-0.46 2.5238,-0.45875 2.525,-0.3825 2.6,-0.3825 2.525,-0.305 2.525,-0.23 2.6,-0.30625 2.525,-0.23 2.5237,-0.22875 2.6013,-0.1525 2.525,-0.23 2.525,-0.15375 2.6,-0.1525 2.525,-0.1525 2.525,-0.15375 2.6012,-0.1525 2.5238,-0.1525 2.525,-0.0775 2.6,-0.1525 2.525,-0.0763 2.525,-0.15375 2.6,-0.0763 2.525,-0.15375 2.5237,-0.0762 2.6013,-0.0763 2.525,-0.0763 2.525,-0.1525 2.6,-0.0775 2.525,-0.0763 2.525,-0.0763 2.6012,-0.0763 2.5238,-0.0762 2.525,-0.0775 2.6,-0.1525 2.525,-0.0763 2.525,-0.0775 2.6,-0.0763 2.525,-0.0762 2.5237,-0.0763 2.6013,-0.0763 2.525,-0.0763 2.525,-0.0775 2.6012,-0.0762 2.5238,-0.0763 2.525,-0.0763 2.6012,-0.0763 2.5238,-0.0775 2.525,-0.0763 2.6,-0.1525 2.525,-0.0775 2.525,-0.075 2.6,-0.0775 2.525,-0.0762 2.5237,-0.1525 2.6013,-0.0775 2.525,-0.0763 2.525,-0.1525 2.6,-0.0763 2.525,-0.15375 2.525,-0.0763 2.6012,-0.1525 2.5238,-0.0763 2.525,-0.15375 2.6,-0.1525 2.525,-0.15375 2.525,-0.1525 2.6,-0.15375 2.525,-0.22875 2.5237,-0.1525 2.6013,-0.23 2.525,-0.23 2.525,-0.22875 2.6,-0.30625 2.525,-0.30625 2.525,-0.30625 2.6012,-0.3825 2.5238,-0.45875 2.525,-0.45875 2.6,-0.53625 2.525,-0.61125 2.525,-0.765 2.6,-0.91875 2.525,-1.07 2.5237,-1.3775 2.6013,-1.76 2.525,-2.37125 2.525,-3.4425 2.6,-5.2025 2.525,-9.17875 2.525,-20.12 2.6012,-5.355 2.5238,-5.355 2.525,-5.355 2.6,-5.355 2.525,-5.355 2.525,-5.355 2.6,-5.355 2.525,-5.355 2.5237,-5.355 2.6013,-5.355 2.525,-5.355 2.525,-5.355 2.6,-5.355 2.525,-5.355 2.525,-5.355 2.6012,-5.355 2.5238,-5.354997 2.525,-5.355002 2.6,-5.355 2.525,-5.355 2.525,-5.355 2.6,-5.355 2.525,-5.355 2.5237,-5.355 2.6013,-5.355"
     style="fill:none;stroke:#000000;stroke-width:1;stroke-linecap:butt;stroke-linejoin:miter;stroke-miterlimit:10;stroke-opacity:1;stroke-dasharray:none;marker-end:none"
     id="path74455" />
  <path
     d="m 71.262357,54.811941 0,535.499999 764.999903,0"
     style="fill:none;stroke:#000000;stroke-width:1;stroke-linecap:butt;stroke-linejoin:miter;stroke-miterlimit:10;stroke-opacity:1;stroke-dasharray:none;marker-start:url(#Arrow1Lstart);marker-end:url(#Arrow1Lend)"
     id="path74457" />
</svg>
