<?xml version="1.0" encoding="UTF-8" standalone="no"?>
<!-- Created with Inkscape (http://www.inkscape.org/) -->

<svg
   xmlns:dc="http://purl.org/dc/elements/1.1/"
   xmlns:cc="http://creativecommons.org/ns#"
   xmlns:rdf="http://www.w3.org/1999/02/22-rdf-syntax-ns#"
   xmlns:svg="http://www.w3.org/2000/svg"
   xmlns="http://www.w3.org/2000/svg"
   xmlns:sodipodi="http://sodipodi.sourceforge.net/DTD/sodipodi-0.dtd"
   xmlns:inkscape="http://www.inkscape.org/namespaces/inkscape"
   sodipodi:docname="multigrid_00.svg"
   inkscape:version="0.47 r22583"
   version="1.1"
   id="svg2"
   height="428.73901"
   width="586.08423">
  <sodipodi:namedview
     id="base"
     pagecolor="#ffffff"
     bordercolor="#666666"
     borderopacity="1.0"
     inkscape:pageopacity="0.0"
     inkscape:pageshadow="2"
     inkscape:zoom="0.65133327"
     inkscape:cx="888.52453"
     inkscape:cy="382.21791"
     inkscape:document-units="px"
     inkscape:current-layer="layer1"
     showgrid="false"
     inkscape:window-width="1391"
     inkscape:window-height="878"
     inkscape:window-x="527"
     inkscape:window-y="52"
     inkscape:window-maximized="0"
     showguides="true"
     inkscape:guide-bbox="true" />
  <defs
     id="defs4">
    <inkscape:perspective
       id="perspective10"
       inkscape:persp3d-origin="372.04724 : 350.78739 : 1"
       inkscape:vp_z="744.09448 : 526.18109 : 1"
       inkscape:vp_y="0 : 1000 : 0"
       inkscape:vp_x="0 : 526.18109 : 1"
       sodipodi:type="inkscape:persp3d" />
    <inkscape:perspective
       sodipodi:type="inkscape:persp3d"
       inkscape:vp_x="0 : 0.5 : 1"
       inkscape:vp_y="0 : 1000 : 0"
       inkscape:vp_z="1 : 0.5 : 1"
       inkscape:persp3d-origin="0.5 : 0.33333333 : 1"
       id="perspective2866" />
    <inkscape:perspective
       sodipodi:type="inkscape:persp3d"
       inkscape:vp_x="0 : 0.5 : 1"
       inkscape:vp_y="0 : 1000 : 0"
       inkscape:vp_z="1 : 0.5 : 1"
       inkscape:persp3d-origin="0.5 : 0.33333333 : 1"
       id="perspective3235" />
    <inkscape:perspective
       sodipodi:type="inkscape:persp3d"
       inkscape:vp_x="0 : 0.5 : 1"
       inkscape:vp_y="0 : 1000 : 0"
       inkscape:vp_z="1 : 0.5 : 1"
       inkscape:persp3d-origin="0.5 : 0.33333333 : 1"
       id="perspective8647" />
    <inkscape:perspective
       sodipodi:type="inkscape:persp3d"
       inkscape:vp_x="0 : 0.5 : 1"
       inkscape:vp_y="0 : 1000 : 0"
       inkscape:vp_z="1 : 0.5 : 1"
       inkscape:persp3d-origin="0.5 : 0.33333333 : 1"
       id="perspective9362" />
    <inkscape:perspective
       sodipodi:type="inkscape:persp3d"
       inkscape:vp_x="0 : 0.5 : 1"
       inkscape:vp_y="0 : 1000 : 0"
       inkscape:vp_z="1 : 0.5 : 1"
       inkscape:persp3d-origin="0.5 : 0.33333333 : 1"
       id="perspective10087" />
    <inkscape:perspective
       sodipodi:type="inkscape:persp3d"
       inkscape:vp_x="0 : 0.5 : 1"
       inkscape:vp_y="0 : 1000 : 0"
       inkscape:vp_z="1 : 0.5 : 1"
       inkscape:persp3d-origin="0.5 : 0.33333333 : 1"
       id="perspective11272" />
    <inkscape:perspective
       sodipodi:type="inkscape:persp3d"
       inkscape:vp_x="0 : 0.5 : 1"
       inkscape:vp_y="0 : 1000 : 0"
       inkscape:vp_z="1 : 0.5 : 1"
       inkscape:persp3d-origin="0.5 : 0.33333333 : 1"
       id="perspective14950" />
    <inkscape:perspective
       sodipodi:type="inkscape:persp3d"
       inkscape:vp_x="0 : 0.5 : 1"
       inkscape:vp_y="0 : 1000 : 0"
       inkscape:vp_z="1 : 0.5 : 1"
       inkscape:persp3d-origin="0.5 : 0.33333333 : 1"
       id="perspective17116" />
    <inkscape:perspective
       sodipodi:type="inkscape:persp3d"
       inkscape:vp_x="0 : 0.5 : 1"
       inkscape:vp_y="0 : 1000 : 0"
       inkscape:vp_z="1 : 0.5 : 1"
       inkscape:persp3d-origin="0.5 : 0.33333333 : 1"
       id="perspective18904" />
    <defs
       id="defs7978">
      <g
         id="g7980">
        <symbol
           style="overflow:visible"
           id="textext-afba212c-0"
           overflow="visible">
          <path
             id="path7983"
             d=""
             style="stroke:none" />
        </symbol>
        <symbol
           style="overflow:visible"
           id="textext-afba212c-1"
           overflow="visible">
          <path
             id="path7986"
             d="M 2.25,-6.03125 C 2.25,-6.390625 2.265625,-6.5 3.0625,-6.5 l 0.25,0 0,-0.3125 c -0.34375,0.03125 -1.125,0.03125 -1.515625,0.03125 -0.375,0 -1.171875,0 -1.515625,-0.03125 l 0,0.3125 0.25,0 c 0.796875,0 0.828125,0.109375 0.828125,0.46875 l 0,5.25 c 0,0.359375 -0.03125,0.46875 -0.828125,0.46875 l -0.25,0 0,0.3125 c 0.34375,-0.03125 1.140625,-0.03125 1.515625,-0.03125 0.390625,0 1.171875,0 1.515625,0.03125 l 0,-0.3125 -0.25,0 C 2.265625,-0.3125 2.25,-0.421875 2.25,-0.78125 l 0,-5.25 z m 0,0"
             style="stroke:none" />
        </symbol>
        <symbol
           style="overflow:visible"
           id="textext-afba212c-2"
           overflow="visible">
          <path
             id="path7989"
             d="m 1.09375,-3.421875 0,2.671875 c 0,0.4375 -0.109375,0.4375 -0.78125,0.4375 l 0,0.3125 c 0.359375,-0.015625 0.859375,-0.03125 1.140625,-0.03125 0.25,0 0.765625,0.015625 1.109375,0.03125 l 0,-0.3125 c -0.671875,0 -0.78125,0 -0.78125,-0.4375 l 0,-1.84375 C 1.78125,-3.625 2.5,-4.1875 3.125,-4.1875 c 0.640625,0 0.75,0.53125 0.75,1.109375 l 0,2.328125 c 0,0.4375 -0.109375,0.4375 -0.78125,0.4375 l 0,0.3125 c 0.34375,-0.015625 0.859375,-0.03125 1.125,-0.03125 0.25,0 0.78125,0.015625 1.109375,0.03125 l 0,-0.3125 c -0.65625,0 -0.765625,0 -0.765625,-0.4375 l 0,-1.84375 c 0,-1.03125 0.703125,-1.59375 1.34375,-1.59375 0.625,0 0.734375,0.53125 0.734375,1.109375 l 0,2.328125 c 0,0.4375 -0.109375,0.4375 -0.78125,0.4375 l 0,0.3125 c 0.34375,-0.015625 0.859375,-0.03125 1.125,-0.03125 0.265625,0 0.78125,0.015625 1.125,0.03125 l 0,-0.3125 c -0.515625,0 -0.765625,0 -0.78125,-0.296875 l 0,-1.90625 c 0,-0.859375 0,-1.15625 -0.3125,-1.515625 -0.140625,-0.171875 -0.46875,-0.375 -1.046875,-0.375 -0.828125,0 -1.28125,0.59375 -1.4375,0.984375 C 4.390625,-4.296875 3.65625,-4.40625 3.203125,-4.40625 2.46875,-4.40625 2,-3.984375 1.71875,-3.359375 l 0,-1.046875 -1.40625,0.109375 0,0.3125 c 0.703125,0 0.78125,0.0625 0.78125,0.5625 z m 0,0"
             style="stroke:none" />
        </symbol>
        <symbol
           style="overflow:visible"
           id="textext-afba212c-3"
           overflow="visible">
          <path
             id="path7992"
             d="m 3.296875,2.390625 c 0,-0.03125 0,-0.046875 -0.171875,-0.21875 C 1.890625,0.921875 1.5625,-0.96875 1.5625,-2.5 c 0,-1.734375 0.375,-3.46875 1.609375,-4.703125 0.125,-0.125 0.125,-0.140625 0.125,-0.171875 0,-0.078125 -0.03125,-0.109375 -0.09375,-0.109375 -0.109375,0 -1,0.6875 -1.59375,1.953125 -0.5,1.09375 -0.625,2.203125 -0.625,3.03125 0,0.78125 0.109375,1.984375 0.65625,3.125 C 2.25,1.84375 3.09375,2.5 3.203125,2.5 c 0.0625,0 0.09375,-0.03125 0.09375,-0.109375 z m 0,0"
             style="stroke:none" />
        </symbol>
        <symbol
           style="overflow:visible"
           id="textext-afba212c-4"
           overflow="visible">
          <path
             id="path7995"
             d="m 2.875,-2.5 c 0,-0.765625 -0.109375,-1.96875 -0.65625,-3.109375 -0.59375,-1.21875 -1.453125,-1.875 -1.546875,-1.875 -0.0625,0 -0.109375,0.046875 -0.109375,0.109375 0,0.03125 0,0.046875 0.1875,0.234375 0.984375,0.984375 1.546875,2.5625 1.546875,4.640625 0,1.71875 -0.359375,3.46875 -1.59375,4.71875 C 0.5625,2.34375 0.5625,2.359375 0.5625,2.390625 0.5625,2.453125 0.609375,2.5 0.671875,2.5 0.765625,2.5 1.671875,1.8125 2.25,0.546875 2.765625,-0.546875 2.875,-1.65625 2.875,-2.5 z m 0,0"
             style="stroke:none" />
        </symbol>
        <symbol
           style="overflow:visible"
           id="textext-afba212c-5"
           overflow="visible">
          <path
             id="path7998"
             d=""
             style="stroke:none" />
        </symbol>
        <symbol
           style="overflow:visible"
           id="textext-afba212c-6"
           overflow="visible">
          <path
             id="path8001"
             d="m 7.578125,-6.921875 c 0,-0.03125 -0.015625,-0.109375 -0.109375,-0.109375 -0.03125,0 -0.046875,0.015625 -0.15625,0.125 L 6.625,-6.140625 C 6.53125,-6.28125 6.078125,-7.03125 4.96875,-7.03125 2.734375,-7.03125 0.5,-4.828125 0.5,-2.515625 c 0,1.59375 1.109375,2.734375 2.71875,2.734375 0.4375,0 0.890625,-0.09375 1.25,-0.234375 0.5,-0.203125 0.6875,-0.40625 0.859375,-0.609375 0.09375,0.25 0.359375,0.609375 0.453125,0.609375 0.046875,0 0.078125,-0.03125 0.078125,-0.03125 C 5.875,-0.0625 5.96875,-0.453125 6.015625,-0.65625 l 0.1875,-0.765625 C 6.25,-1.59375 6.296875,-1.765625 6.34375,-1.9375 c 0.109375,-0.4375 0.109375,-0.46875 0.6875,-0.46875 0.046875,0 0.15625,-0.015625 0.15625,-0.203125 0,-0.078125 -0.046875,-0.109375 -0.125,-0.109375 -0.234375,0 -0.828125,0.03125 -1.046875,0.03125 -0.3125,0 -1.09375,-0.03125 -1.40625,-0.03125 -0.078125,0 -0.203125,0 -0.203125,0.203125 0,0.109375 0.078125,0.109375 0.296875,0.109375 0.015625,0 0.296875,0 0.53125,0.015625 0.265625,0.03125 0.3125,0.0625 0.3125,0.1875 0,0.09375 -0.109375,0.53125 -0.21875,0.90625 -0.28125,1.09375 -1.5625,1.203125 -1.921875,1.203125 -0.953125,0 -2,-0.5625 -2,-2.09375 0,-0.3125 0.09375,-1.953125 1.140625,-3.25 0.546875,-0.671875 1.515625,-1.28125 2.5,-1.28125 1.015625,0 1.609375,0.765625 1.609375,1.921875 0,0.40625 -0.03125,0.40625 -0.03125,0.515625 0,0.09375 0.109375,0.09375 0.140625,0.09375 0.125,0 0.125,-0.015625 0.1875,-0.203125 l 0.625,-2.53125 z m 0,0"
             style="stroke:none" />
        </symbol>
        <symbol
           style="overflow:visible"
           id="textext-afba212c-7"
           overflow="visible">
          <path
             id="path8004"
             d="m 2.96875,-2.25 c 0.15625,0 0.34375,0 0.34375,-0.171875 0,-0.140625 -0.125,-0.140625 -0.296875,-0.140625 l -1.609375,0 c 0.234375,-0.84375 0.796875,-1.421875 1.703125,-1.421875 l 0.3125,0 c 0.171875,0 0.328125,0 0.328125,-0.171875 0,-0.140625 -0.125,-0.140625 -0.296875,-0.140625 l -0.359375,0 c -1.296875,0 -2.625,1 -2.625,2.515625 0,1.109375 0.75,1.890625 1.796875,1.890625 0.65625,0 1.296875,-0.40625 1.296875,-0.515625 0,-0.015625 0,-0.125 -0.09375,-0.125 -0.015625,0 -0.046875,0 -0.125,0.046875 -0.3125,0.203125 -0.6875,0.375 -1.046875,0.375 -0.578125,0 -1.078125,-0.421875 -1.078125,-1.296875 0,-0.34375 0.078125,-0.734375 0.109375,-0.84375 l 1.640625,0 z m 0,0"
             style="stroke:none" />
        </symbol>
        <symbol
           style="overflow:visible"
           id="textext-afba212c-8"
           overflow="visible">
          <path
             id="path8007"
             d="m 2.03125,-0.015625 c 0,-0.65625 -0.25,-1.046875 -0.640625,-1.046875 -0.328125,0 -0.53125,0.25 -0.53125,0.53125 C 0.859375,-0.265625 1.0625,0 1.390625,0 1.5,0 1.640625,-0.046875 1.734375,-0.125 1.765625,-0.15625 1.78125,-0.15625 1.78125,-0.15625 c 0.015625,0 0.015625,0 0.015625,0.140625 0,0.75 -0.34375,1.34375 -0.671875,1.671875 -0.109375,0.109375 -0.109375,0.125 -0.109375,0.15625 0,0.078125 0.046875,0.109375 0.09375,0.109375 0.109375,0 0.921875,-0.765625 0.921875,-1.9375 z m 0,0"
             style="stroke:none" />
        </symbol>
        <symbol
           style="overflow:visible"
           id="textext-afba212c-9"
           overflow="visible">
          <path
             id="path8010"
             d="m 6.03125,-3.703125 c 0,-0.453125 -0.171875,-0.703125 -0.40625,-0.703125 -0.25,0 -0.515625,0.234375 -0.515625,0.46875 0,0.09375 0.046875,0.203125 0.140625,0.296875 0.171875,0.15625 0.359375,0.421875 0.359375,0.84375 0,0.390625 -0.203125,0.96875 -0.5,1.421875 C 4.8125,-0.953125 4.4375,-0.609375 3.96875,-0.609375 3.40625,-0.609375 3.09375,-0.96875 3,-1.5 c 0.109375,-0.265625 0.34375,-0.90625 0.34375,-1.1875 0,-0.109375 -0.046875,-0.21875 -0.1875,-0.21875 -0.078125,0 -0.1875,0.03125 -0.265625,0.171875 C 2.78125,-2.53125 2.65625,-1.890625 2.65625,-1.53125 2.328125,-1.0625 1.9375,-0.609375 1.3125,-0.609375 c -0.671875,0 -0.875,-0.59375 -0.875,-1.140625 0,-1.25 1.015625,-2.296875 1.015625,-2.421875 0,-0.109375 -0.078125,-0.1875 -0.1875,-0.1875 -0.125,0 -0.203125,0.125 -0.265625,0.21875 -0.5,0.734375 -0.875,1.921875 -0.875,2.828125 0,0.6875 0.21875,1.421875 1.046875,1.421875 0.703125,0 1.171875,-0.5 1.53125,-1.046875 0.09375,0.578125 0.484375,1.046875 1.09375,1.046875 0.78125,0 1.25,-0.609375 1.609375,-1.359375 0.25,-0.484375 0.625,-1.84375 0.625,-2.453125 z m 0,0"
             style="stroke:none" />
        </symbol>
        <symbol
           style="overflow:visible"
           id="textext-afba212c-10"
           overflow="visible">
          <path
             id="path8013"
             d=""
             style="stroke:none" />
        </symbol>
        <symbol
           style="overflow:visible"
           id="textext-afba212c-11"
           overflow="visible">
          <path
             id="path8016"
             d="m 3.046875,-2.671875 c -0.25,0.046875 -0.34375,0.234375 -0.34375,0.390625 0,0.1875 0.140625,0.265625 0.265625,0.265625 0.15625,0 0.390625,-0.109375 0.390625,-0.453125 0,-0.46875 -0.53125,-0.609375 -0.90625,-0.609375 -1.046875,0 -2.015625,0.96875 -2.015625,1.9375 0,0.59375 0.40625,1.203125 1.28125,1.203125 1.1875,0 1.734375,-0.6875 1.734375,-0.78125 0,-0.046875 -0.0625,-0.125 -0.125,-0.125 -0.03125,0 -0.046875,0.015625 -0.109375,0.078125 C 2.671875,-0.125 1.859375,-0.125 1.734375,-0.125 c -0.5,0 -0.71875,-0.34375 -0.71875,-0.78125 0,-0.1875 0.09375,-0.953125 0.453125,-1.4375 0.265625,-0.34375 0.625,-0.53125 0.984375,-0.53125 0.09375,0 0.421875,0.015625 0.59375,0.203125 z m 0,0"
             style="stroke:none" />
        </symbol>
        <symbol
           style="overflow:visible"
           id="textext-afba212c-12"
           overflow="visible">
          <path
             id="path8019"
             d="m 4.078125,-2.53125 c 0.109375,0 0.1875,0 0.25,-0.046875 0.09375,-0.078125 0.125,-0.1875 0.125,-0.234375 C 4.453125,-3 4.265625,-3 4.140625,-3 l -1.78125,0 C 1.25,-3 0.40625,-1.90625 0.40625,-1.0625 c 0,0.640625 0.484375,1.125 1.203125,1.125 0.875,0 1.875,-0.78125 1.875,-1.859375 0,-0.109375 0,-0.421875 -0.203125,-0.734375 l 0.796875,0 z M 1.609375,-0.125 c -0.375,0 -0.6875,-0.25 -0.6875,-0.75 0,-0.203125 0.125,-1.65625 1.328125,-1.65625 0.34375,0 0.71875,0.140625 0.71875,0.65625 0,0.140625 -0.0625,0.765625 -0.40625,1.234375 C 2.265625,-0.265625 1.875,-0.125 1.609375,-0.125 z m 0,0"
             style="stroke:none" />
        </symbol>
      </g>
    </defs>
    <inkscape:perspective
       id="perspective25949"
       inkscape:persp3d-origin="0.5 : 0.33333333 : 1"
       inkscape:vp_z="1 : 0.5 : 1"
       inkscape:vp_y="0 : 1000 : 0"
       inkscape:vp_x="0 : 0.5 : 1"
       sodipodi:type="inkscape:persp3d" />
    <inkscape:perspective
       id="perspective26968"
       inkscape:persp3d-origin="0.5 : 0.33333333 : 1"
       inkscape:vp_z="1 : 0.5 : 1"
       inkscape:vp_y="0 : 1000 : 0"
       inkscape:vp_x="0 : 0.5 : 1"
       sodipodi:type="inkscape:persp3d" />
    <inkscape:perspective
       id="perspective29077"
       inkscape:persp3d-origin="0.5 : 0.33333333 : 1"
       inkscape:vp_z="1 : 0.5 : 1"
       inkscape:vp_y="0 : 1000 : 0"
       inkscape:vp_x="0 : 0.5 : 1"
       sodipodi:type="inkscape:persp3d" />
    <defs
       id="defs30773">
      <g
         id="g30775">
        <symbol
           overflow="visible"
           id="textext-22090811-0"
           style="overflow:visible">
          <path
             style="stroke:none"
             d=""
             id="path30778" />
        </symbol>
        <symbol
           overflow="visible"
           id="textext-22090811-1"
           style="overflow:visible">
          <path
             style="stroke:none"
             d="M 1.765625,-4.40625 0.375,-4.296875 l 0,0.3125 c 0.640625,0 0.734375,0.0625 0.734375,0.546875 l 0,2.6875 c 0,0.4375 -0.109375,0.4375 -0.78125,0.4375 l 0,0.3125 C 0.640625,-0.015625 1.1875,-0.03125 1.421875,-0.03125 1.78125,-0.03125 2.125,-0.015625 2.46875,0 l 0,-0.3125 c -0.671875,0 -0.703125,-0.046875 -0.703125,-0.4375 l 0,-3.65625 z m 0.03125,-1.734375 c 0,-0.3125 -0.234375,-0.53125 -0.515625,-0.53125 -0.3125,0 -0.53125,0.265625 -0.53125,0.53125 0,0.265625 0.21875,0.53125 0.53125,0.53125 0.28125,0 0.515625,-0.21875 0.515625,-0.53125 z m 0,0"
             id="path30781" />
        </symbol>
        <symbol
           overflow="visible"
           id="textext-22090811-2"
           style="overflow:visible">
          <path
             style="stroke:none"
             d="m 1.09375,-3.421875 0,2.671875 c 0,0.4375 -0.109375,0.4375 -0.78125,0.4375 l 0,0.3125 c 0.359375,-0.015625 0.859375,-0.03125 1.140625,-0.03125 0.25,0 0.765625,0.015625 1.109375,0.03125 l 0,-0.3125 c -0.671875,0 -0.78125,0 -0.78125,-0.4375 l 0,-1.84375 C 1.78125,-3.625 2.5,-4.1875 3.125,-4.1875 c 0.640625,0 0.75,0.53125 0.75,1.109375 l 0,2.328125 c 0,0.4375 -0.109375,0.4375 -0.78125,0.4375 l 0,0.3125 c 0.34375,-0.015625 0.859375,-0.03125 1.125,-0.03125 0.25,0 0.78125,0.015625 1.109375,0.03125 l 0,-0.3125 c -0.515625,0 -0.765625,0 -0.765625,-0.296875 l 0,-1.90625 c 0,-0.859375 0,-1.15625 -0.3125,-1.515625 -0.140625,-0.171875 -0.46875,-0.375 -1.046875,-0.375 C 2.46875,-4.40625 2,-3.984375 1.71875,-3.359375 l 0,-1.046875 -1.40625,0.109375 0,0.3125 c 0.703125,0 0.78125,0.0625 0.78125,0.5625 z m 0,0"
             id="path30784" />
        </symbol>
        <symbol
           overflow="visible"
           id="textext-22090811-3"
           style="overflow:visible">
          <path
             style="stroke:none"
             d="m 1.71875,-3.984375 1.4375,0 0,-0.3125 -1.4375,0 0,-1.828125 -0.25,0 c 0,0.8125 -0.296875,1.875 -1.28125,1.921875 l 0,0.21875 0.84375,0 0,2.75 c 0,1.21875 0.9375,1.34375 1.296875,1.34375 0.703125,0 0.984375,-0.703125 0.984375,-1.34375 l 0,-0.5625 -0.25,0 0,0.546875 c 0,0.734375 -0.296875,1.109375 -0.671875,1.109375 -0.671875,0 -0.671875,-0.90625 -0.671875,-1.078125 l 0,-2.765625 z m 0,0"
             id="path30787" />
        </symbol>
        <symbol
           overflow="visible"
           id="textext-22090811-4"
           style="overflow:visible">
          <path
             style="stroke:none"
             d="M 1.109375,-2.515625 C 1.171875,-4 2.015625,-4.25 2.359375,-4.25 c 1.015625,0 1.125,1.34375 1.125,1.734375 l -2.375,0 z m 0,0.21875 2.78125,0 c 0.21875,0 0.25,0 0.25,-0.21875 0,-0.984375 -0.546875,-1.953125 -1.78125,-1.953125 -1.15625,0 -2.078125,1.03125 -2.078125,2.28125 0,1.328125 1.046875,2.296875 2.1875,2.296875 C 3.6875,0.109375 4.140625,-1 4.140625,-1.1875 4.140625,-1.28125 4.0625,-1.3125 4,-1.3125 c -0.078125,0 -0.109375,0.0625 -0.125,0.140625 -0.34375,1.03125 -1.25,1.03125 -1.34375,1.03125 -0.5,0 -0.890625,-0.296875 -1.125,-0.671875 -0.296875,-0.46875 -0.296875,-1.125 -0.296875,-1.484375 z m 0,0"
             id="path30790" />
        </symbol>
        <symbol
           overflow="visible"
           id="textext-22090811-5"
           style="overflow:visible">
          <path
             style="stroke:none"
             d="m 2.21875,-1.71875 c -0.875,0 -0.875,-1 -0.875,-1.21875 0,-0.265625 0.015625,-0.59375 0.15625,-0.84375 0.078125,-0.109375 0.3125,-0.390625 0.71875,-0.390625 0.859375,0 0.859375,0.984375 0.859375,1.21875 0,0.265625 0,0.59375 -0.15625,0.84375 C 2.84375,-2 2.609375,-1.71875 2.21875,-1.71875 z M 1.0625,-1.328125 c 0,-0.03125 0,-0.265625 0.15625,-0.46875 0.390625,0.28125 0.8125,0.3125 1,0.3125 0.921875,0 1.609375,-0.6875 1.609375,-1.453125 0,-0.375 -0.15625,-0.734375 -0.40625,-0.96875 C 3.78125,-4.25 4.140625,-4.296875 4.3125,-4.296875 c 0.03125,0 0.078125,0 0.109375,0.015625 C 4.3125,-4.25 4.25,-4.140625 4.25,-4.015625 c 0,0.171875 0.140625,0.28125 0.296875,0.28125 0.09375,0 0.28125,-0.0625 0.28125,-0.296875 0,-0.171875 -0.109375,-0.484375 -0.5,-0.484375 -0.203125,0 -0.640625,0.0625 -1.0625,0.46875 C 2.84375,-4.375 2.4375,-4.40625 2.21875,-4.40625 c -0.9375,0 -1.625,0.6875 -1.625,1.453125 0,0.4375 0.21875,0.8125 0.46875,1.03125 -0.125,0.140625 -0.3125,0.46875 -0.3125,0.828125 0,0.3125 0.140625,0.6875 0.453125,0.890625 -0.609375,0.15625 -0.921875,0.59375 -0.921875,0.984375 0,0.71875 0.984375,1.265625 2.203125,1.265625 1.171875,0 2.203125,-0.5 2.203125,-1.28125 0,-0.34375 -0.125,-0.859375 -0.640625,-1.140625 -0.53125,-0.265625 -1.109375,-0.265625 -1.71875,-0.265625 -0.25,0 -0.671875,0 -0.75,-0.015625 C 1.265625,-0.703125 1.0625,-1 1.0625,-1.328125 z M 2.5,1.828125 c -1.015625,0 -1.703125,-0.515625 -1.703125,-1.046875 0,-0.453125 0.375,-0.828125 0.8125,-0.84375 l 0.59375,0 c 0.859375,0 1.96875,0 1.96875,0.84375 0,0.546875 -0.703125,1.046875 -1.671875,1.046875 z m 0,0"
             id="path30793" />
        </symbol>
        <symbol
           overflow="visible"
           id="textext-22090811-6"
           style="overflow:visible">
          <path
             style="stroke:none"
             d="m 1.671875,-3.3125 0,-1.09375 -1.390625,0.109375 0,0.3125 c 0.703125,0 0.78125,0.0625 0.78125,0.5625 l 0,2.671875 c 0,0.4375 -0.109375,0.4375 -0.78125,0.4375 l 0,0.3125 c 0.390625,-0.015625 0.859375,-0.03125 1.140625,-0.03125 0.390625,0 0.859375,0 1.265625,0.03125 l 0,-0.3125 -0.21875,0 c -0.734375,0 -0.75,-0.109375 -0.75,-0.46875 l 0,-1.53125 c 0,-0.984375 0.421875,-1.875 1.171875,-1.875 0.0625,0 0.09375,0 0.109375,0.015625 -0.03125,0 -0.234375,0.125 -0.234375,0.390625 0,0.265625 0.21875,0.421875 0.4375,0.421875 0.171875,0 0.421875,-0.125 0.421875,-0.4375 0,-0.3125 -0.3125,-0.609375 -0.734375,-0.609375 -0.734375,0 -1.09375,0.671875 -1.21875,1.09375 z m 0,0"
             id="path30796" />
        </symbol>
        <symbol
           overflow="visible"
           id="textext-22090811-7"
           style="overflow:visible">
          <path
             style="stroke:none"
             d="m 3.3125,-0.75 c 0.046875,0.390625 0.3125,0.8125 0.78125,0.8125 0.21875,0 0.828125,-0.140625 0.828125,-0.953125 l 0,-0.5625 -0.25,0 0,0.5625 c 0,0.578125 -0.25,0.640625 -0.359375,0.640625 -0.328125,0 -0.375,-0.453125 -0.375,-0.5 l 0,-1.984375 c 0,-0.421875 0,-0.8125 -0.359375,-1.1875 C 3.1875,-4.3125 2.6875,-4.46875 2.21875,-4.46875 c -0.828125,0 -1.515625,0.46875 -1.515625,1.125 0,0.296875 0.203125,0.46875 0.46875,0.46875 0.28125,0 0.453125,-0.203125 0.453125,-0.453125 0,-0.125 -0.046875,-0.453125 -0.515625,-0.453125 C 1.390625,-4.140625 1.875,-4.25 2.1875,-4.25 c 0.5,0 1.0625,0.390625 1.0625,1.28125 l 0,0.359375 c -0.515625,0.03125 -1.203125,0.0625 -1.828125,0.359375 -0.75,0.34375 -1,0.859375 -1,1.296875 0,0.8125 0.96875,1.0625 1.59375,1.0625 0.65625,0 1.109375,-0.40625 1.296875,-0.859375 z M 3.25,-2.390625 l 0,1 c 0,0.9375 -0.71875,1.28125 -1.171875,1.28125 -0.484375,0 -0.890625,-0.34375 -0.890625,-0.84375 0,-0.546875 0.421875,-1.375 2.0625,-1.4375 z m 0,0"
             id="path30799" />
        </symbol>
        <symbol
           overflow="visible"
           id="textext-22090811-8"
           style="overflow:visible">
          <path
             style="stroke:none"
             d="M 4.6875,-2.140625 C 4.6875,-3.40625 3.703125,-4.46875 2.5,-4.46875 c -1.25,0 -2.21875,1.09375 -2.21875,2.328125 0,1.296875 1.03125,2.25 2.203125,2.25 1.203125,0 2.203125,-0.984375 2.203125,-2.25 z m -2.1875,2 c -0.4375,0 -0.875,-0.203125 -1.140625,-0.671875 -0.25,-0.4375 -0.25,-1.046875 -0.25,-1.40625 0,-0.390625 0,-0.921875 0.234375,-1.359375 C 1.609375,-4.03125 2.078125,-4.25 2.484375,-4.25 c 0.4375,0 0.859375,0.21875 1.125,0.65625 0.265625,0.421875 0.265625,1 0.265625,1.375 0,0.359375 0,0.90625 -0.21875,1.34375 C 3.421875,-0.421875 2.984375,-0.140625 2.5,-0.140625 z m 0,0"
             id="path30802" />
        </symbol>
        <symbol
           overflow="visible"
           id="textext-22090811-9"
           style="overflow:visible">
          <path
             style="stroke:none"
             d="m 3.78125,-0.546875 0,0.65625 L 5.25,0 l 0,-0.3125 c -0.6875,0 -0.78125,-0.0625 -0.78125,-0.5625 l 0,-6.046875 -1.421875,0.109375 0,0.3125 c 0.6875,0 0.765625,0.0625 0.765625,0.5625 l 0,2.15625 c -0.28125,-0.359375 -0.71875,-0.625 -1.25,-0.625 -1.171875,0 -2.21875,0.984375 -2.21875,2.265625 0,1.265625 0.96875,2.25 2.109375,2.25 0.640625,0 1.078125,-0.34375 1.328125,-0.65625 z m 0,-2.671875 0,2.046875 c 0,0.171875 0,0.1875 -0.109375,0.359375 C 3.375,-0.328125 2.9375,-0.109375 2.5,-0.109375 2.046875,-0.109375 1.6875,-0.375 1.453125,-0.75 1.203125,-1.15625 1.171875,-1.71875 1.171875,-2.140625 1.171875,-2.5 1.1875,-3.09375 1.46875,-3.546875 1.6875,-3.859375 2.0625,-4.1875 2.609375,-4.1875 c 0.34375,0 0.765625,0.15625 1.0625,0.59375 0.109375,0.171875 0.109375,0.1875 0.109375,0.375 z m 0,0"
             id="path30805" />
        </symbol>
        <symbol
           overflow="visible"
           id="textext-22090811-10"
           style="overflow:visible">
          <path
             style="stroke:none"
             d=""
             id="path30808" />
        </symbol>
        <symbol
           overflow="visible"
           id="textext-22090811-11"
           style="overflow:visible">
          <path
             style="stroke:none"
             d="m 2.96875,-2.25 c 0.15625,0 0.34375,0 0.34375,-0.171875 0,-0.140625 -0.125,-0.140625 -0.296875,-0.140625 l -1.609375,0 c 0.234375,-0.84375 0.796875,-1.421875 1.703125,-1.421875 l 0.3125,0 c 0.171875,0 0.328125,0 0.328125,-0.171875 0,-0.140625 -0.125,-0.140625 -0.296875,-0.140625 l -0.359375,0 c -1.296875,0 -2.625,1 -2.625,2.515625 0,1.109375 0.75,1.890625 1.796875,1.890625 0.65625,0 1.296875,-0.40625 1.296875,-0.515625 0,-0.015625 0,-0.125 -0.09375,-0.125 -0.015625,0 -0.046875,0 -0.125,0.046875 -0.3125,0.203125 -0.6875,0.375 -1.046875,0.375 -0.578125,0 -1.078125,-0.421875 -1.078125,-1.296875 0,-0.34375 0.078125,-0.734375 0.109375,-0.84375 l 1.640625,0 z m 0,0"
             id="path30811" />
        </symbol>
        <symbol
           overflow="visible"
           id="textext-22090811-12"
           style="overflow:visible">
          <path
             style="stroke:none"
             d=""
             id="path30814" />
        </symbol>
        <symbol
           overflow="visible"
           id="textext-22090811-13"
           style="overflow:visible">
          <path
             style="stroke:none"
             d="m 2.265625,-4.359375 c 0,-0.109375 -0.09375,-0.265625 -0.28125,-0.265625 -0.1875,0 -0.390625,0.1875 -0.390625,0.390625 0,0.109375 0.078125,0.265625 0.28125,0.265625 0.1875,0 0.390625,-0.203125 0.390625,-0.390625 z M 0.84375,-0.8125 c -0.03125,0.09375 -0.0625,0.171875 -0.0625,0.296875 0,0.328125 0.265625,0.578125 0.65625,0.578125 0.6875,0 1,-0.953125 1,-1.0625 0,-0.09375 -0.09375,-0.09375 -0.109375,-0.09375 -0.09375,0 -0.109375,0.046875 -0.140625,0.125 -0.15625,0.5625 -0.453125,0.84375 -0.734375,0.84375 -0.140625,0 -0.171875,-0.09375 -0.171875,-0.25 0,-0.15625 0.046875,-0.28125 0.109375,-0.4375 C 1.46875,-1 1.546875,-1.1875 1.609375,-1.375 1.671875,-1.546875 1.9375,-2.171875 1.953125,-2.265625 1.984375,-2.328125 2,-2.40625 2,-2.484375 2,-2.8125 1.71875,-3.078125 1.34375,-3.078125 0.640625,-3.078125 0.328125,-2.125 0.328125,-2 c 0,0.078125 0.09375,0.078125 0.125,0.078125 0.09375,0 0.09375,-0.03125 0.125,-0.109375 C 0.75,-2.625 1.0625,-2.875 1.3125,-2.875 c 0.109375,0 0.171875,0.046875 0.171875,0.234375 0,0.171875 -0.03125,0.265625 -0.203125,0.703125 l -0.4375,1.125 z m 0,0"
             id="path30817" />
        </symbol>
      </g>
    </defs>
    <inkscape:perspective
       sodipodi:type="inkscape:persp3d"
       inkscape:vp_x="0 : 0.5 : 1"
       inkscape:vp_y="0 : 1000 : 0"
       inkscape:vp_z="1 : 0.5 : 1"
       inkscape:persp3d-origin="0.5 : 0.33333333 : 1"
       id="perspective33645" />
    <inkscape:perspective
       id="perspective3159"
       inkscape:persp3d-origin="0.5 : 0.33333333 : 1"
       inkscape:vp_z="1 : 0.5 : 1"
       inkscape:vp_y="0 : 1000 : 0"
       inkscape:vp_x="0 : 0.5 : 1"
       sodipodi:type="inkscape:persp3d" />
    <inkscape:perspective
       id="perspective3415"
       inkscape:persp3d-origin="0.5 : 0.33333333 : 1"
       inkscape:vp_z="1 : 0.5 : 1"
       inkscape:vp_y="0 : 1000 : 0"
       inkscape:vp_x="0 : 0.5 : 1"
       sodipodi:type="inkscape:persp3d" />
    <inkscape:perspective
       id="perspective4494"
       inkscape:persp3d-origin="0.5 : 0.33333333 : 1"
       inkscape:vp_z="1 : 0.5 : 1"
       inkscape:vp_y="0 : 1000 : 0"
       inkscape:vp_x="0 : 0.5 : 1"
       sodipodi:type="inkscape:persp3d" />
  </defs>
  <metadata
     id="metadata7">
    <rdf:RDF>
      <cc:Work
         rdf:about="">
        <dc:format>image/svg+xml</dc:format>
        <dc:type
           rdf:resource="http://purl.org/dc/dcmitype/StillImage" />
        <dc:title></dc:title>
      </cc:Work>
    </rdf:RDF>
  </metadata>
  <g
     transform="translate(363.16385,-1267.7367)"
     id="layer1"
     inkscape:groupmode="layer"
     inkscape:label="Ebene 1">
    <path
       id="path4502"
       style="fill:none;stroke:#000000;stroke-width:2.29500008;stroke-linecap:butt;stroke-linejoin:miter;stroke-miterlimit:10;stroke-opacity:1;stroke-dasharray:none"
       d="m -276.45362,1624.0251 0.3825,-0.4588 0.3825,-0.3825 0.45875,-0.4587 0.3825,-0.4588 0.3825,-0.3837 0.3825,-0.4588 0.3825,-0.3825 0.3825,-0.4587 0.3825,-0.4588 0.3825,-0.3825 0.3825,-0.46 0.3825,-0.4587 0.3825,-0.3825 0.3825,-0.4588 0.3825,-0.3825 0.3825,-0.4587 0.3825,-0.4588 0.3825,-0.3825 0.3825,-0.4587 0.3825,-0.46 0.3825,-0.3813 0.45875,-0.46 0.3825,-0.4587 0.3825,-0.3825 0.3825,-0.4588 0.3825,-0.3825 0.3825,-0.4587 0.3825,-0.46 0.3825,-0.3825 0.3825,-0.4588 0.3825,-0.4587 0.3825,-0.3825 0.3825,-0.4588 0.3825,-0.3825 0.3825,-0.4587 0.3825,-0.4588 0.3825,-0.3837 0.3825,-0.4588 0.3825,-0.4587 0.45875,-0.3825 0.3825,-0.4588 0.3825,-0.4587 0.38375,-0.3838 0.38125,-0.4587 0.3825,-0.3825 0.38375,-0.4588 0.38125,-0.4587 0.3825,-0.3825 0.38375,-0.4588 0.38125,-0.4587 0.3825,-0.3825 0.3825,-0.46 0.3825,-0.3825 0.38375,-0.4588 0.38125,-0.4587 0.3825,-0.3825 0.38375,-0.4588 0.38125,-0.4587 0.46,-0.3825 0.38125,-0.46 0.38375,-0.4588 0.3825,-0.3825 0.38125,-0.4587 0.38375,-0.3825 0.3825,-0.4588 0.3825,-0.4587 0.3825,-0.3825 0.3825,-0.4588 0.3825,-0.46 0.3825,-0.3825 0.38125,-0.4587 0.38375,-0.4588 0.3825,-0.3825 0.38125,-0.4587 0.38375,-0.3838 0.3825,-0.4587 0.45875,-0.4588 0.3825,-0.3825 0.3825,-0.4587 0.3825,-0.4588 0.3825,-0.3825 0.3825,-0.4587 0.3825,-0.3825 0.3825,-0.46 0.3825,-0.4588 0.3825,-0.3825 0.3825,-0.4587 0.3825,-0.4588 0.3825,-0.3825 0.3825,-0.46 0.3825,-0.4587 0.3825,-0.3825 0.3825,-0.4588 0.3825,-0.3825 0.3825,-0.4587 0.45875,-0.4588 0.3825,-0.3825 0.3825,-0.4587 0.3825,-0.46 0.3825,-0.3813 0.3825,-0.46 0.3825,-0.3825 0.3825,-0.4587 0.3825,-0.4588 0.3825,-0.3825 0.3825,-0.4587 0.3825,-0.46 0.3825,-0.3825 0.3825,-0.4588 0.3825,-0.4587 0.3825,-0.3825 0.3825,-0.4588 0.3825,-0.3825 0.45875,-0.4587 0.3825,-0.4588 0.3825,-0.3837 0.3825,-0.4588 0.3825,-0.4587 0.3825,-0.3825 0.3825,-0.4588 0.3825,-0.3825 0.3825,-0.46 0.3825,-0.4587 0.3825,-0.3825 0.3825,-0.4588 0.3825,-0.4587 0.3825,-0.3825 0.3825,-0.4588 0.3825,-0.46 0.3825,-0.3812 0.3825,-0.46 0.3825,-0.3813 0.45875,-0.46 0.38375,-0.4587 0.38125,-0.3825 0.3825,-0.4588 0.3825,-0.4587 0.3825,-0.3825 0.3825,-0.46 0.3825,-0.3825 0.3825,-0.4588 0.38375,-0.4587 0.38125,-0.3825 0.3825,-0.4588 0.38375,-0.4587 0.38125,-0.3825 0.3825,-0.4588 0.38375,-0.46 0.38125,-0.3825 0.3825,-0.4587 0.45875,-0.3825 0.38375,-0.4588 0.3825,-0.4587 0.3825,-0.3838 0.3825,-0.4587 0.3825,-0.4588 0.3825,-0.3825 0.3825,-0.4587 0.38125,-0.3825 0.38375,-0.4588 0.3825,-0.4587 0.38125,-0.3825 0.38375,-0.46 0.3825,-0.4588 0.3825,-0.3825 0.3825,-0.4587 0.3825,-0.4588 0.3825,-0.3825 0.3825,-0.4587 0.45875,-0.3825 0.3825,-0.46 0.3825,-0.4588 0.3825,-0.3825 0.3825,-0.4587 0.3825,-0.4588 0.3825,-0.3825 0.3825,-0.4587 0.3825,-0.46 0.3825,-0.3813 0.3825,-0.46 0.3825,-0.3825 0.3825,-0.4587 0.3825,-0.4588 0.3825,-0.3825 0.3825,-0.4587 0.3825,-0.46 0.3825,-0.3825 0.45875,-0.4588 0.3825,-0.3825 0.3825,-0.4587 0.3825,-0.4588 0.3825,-0.3825 0.3825,-0.4587 0.3825,-0.4588 0.3825,-0.3837 0.3825,-0.4588 0.3825,-0.4587 0.3825,-0.3825 0.3825,-0.4588 0.3825,-0.3825 0.3825,-0.46 0.3825,-0.4587 0.3825,-0.3825 0.3825,-0.4588 0.3825,-0.4587 0.45875,-0.3825 0.3825,-0.4588 0.3825,-0.3825 0.3825,-0.4587 0.3825,-0.46 0.3825,-0.3813 0.3825,-0.46 0.3825,-0.4587 0.3825,-0.3825 0.3825,-0.4588 0.3825,-0.4587 0.3825,-0.3825 0.3825,-0.46 0.3825,-0.3825 0.3825,-0.4588 0.3825,-0.4587 0.3825,-0.3825 0.3825,-0.4588 0.3825,-0.4587 0.45875,-0.3825 0.3825,-0.4588 0.38375,-0.3837 0.38125,-0.4588 0.3825,-0.4587 0.38375,-0.3825 0.38125,-0.4588 0.3825,-0.4587 0.38375,-0.3838 0.38125,-0.4587 0.3825,-0.4588 0.3825,-0.3825 0.3825,-0.4587 0.3825,-0.3825 0.3825,-0.4588 0.3825,-0.46 0.38375,-0.3812 0.38125,-0.46 0.46,-0.4588 0.38125,-0.3825 0.38375,-0.4587 0.3825,-0.3825 0.38125,-0.4588 0.38375,-0.4587 0.3825,-0.3825 0.38125,-0.46 0.38375,-0.4588 0.3825,-0.3825 0.3825,-0.4587 0.3825,-0.4588 0.3825,-0.3825 0.3825,-0.4587 0.3825,-0.3825 0.38125,-0.4588 0.38375,-0.46 0.3825,-0.3825 0.38125,-0.4587 0.46,-0.4588 0.3825,-0.3825 0.3825,-0.4587 0.3825,-0.3838 0.3825,-0.4587 0.3825,-0.4588 0.3825,-0.3825 0.3825,-0.4587 0.3825,-0.4588 0.3825,-0.3825 0.3825,-0.4587 0.3825,-0.4588 0.3825,-0.3837 0.3825,-0.4588 0.3825,-0.3825 0.3825,-0.4587 0.3825,-0.4588 0.3825,-0.3825 0.45875,-0.4587 0.3825,-0.46 0.3825,-0.3825 0.3825,-0.4588 0.3825,-0.3825 0.3825,-0.4587 0.3825,-0.4588 0.3825,-0.3825 0.3825,-0.4587 0.3825,-0.46 0.3825,-0.3813 0.3825,-0.46 0.3825,-0.4587 0.3825,-0.3825 0.3825,-0.4588 0.3825,-0.3825 0.3825,-0.4587 0.3825,-0.46 0.3825,-0.3825 0.45875,-0.4588 0.3825,-0.4587 0.3825,-0.3825 0.3825,-0.4588 0.3825,-0.4587 0.3825,-0.3825 0.3825,-0.4588 0.3825,-0.3837 0.3825,-0.4588 0.3825,-0.4587 0.3825,-0.3825 0.3825,-0.4588 0.3825,-0.4587 0.3825,-0.3838 0.3825,-0.4587 0.3825,-0.3825 0.3825,-0.4588 0.3825,-0.4587 0.45875,-0.3825 0.38375,-0.4588 0.38125,-0.46 0.3825,-0.3812 0.38375,-0.46 0.38125,-0.4588 0.3825,-0.3825 0.3825,-0.4587 0.3825,-0.3825 0.38375,-0.4588 0.38125,-0.4587 0.3825,-0.3825 0.38375,-0.46 0.38125,-0.4588 0.3825,-0.3825 0.38375,-0.4587 0.38125,-0.3825 0.3825,-0.4588 0.3825,-0.4587 0.46,-0.3825 0.3825,-0.4588 0.3825,-0.46 0.3825,-0.3825 0.3825,-0.4587 0.3825,-0.4588 0.3825,-0.3825 0.38125,-0.4587 0.38375,-0.3838 0.3825,-0.4587 0.38125,-0.4588 0.38375,-0.3825 0.3825,-0.4587 0.38125,-0.4588 0.38375,-0.3825 0.3825,-0.46 0.3825,-0.3812 0.3825,-0.46 0.45875,-0.4588 0.3825,-0.3825 0.3825,-0.4587 0.3825,-0.4588 0.3825,-0.3825 0.3825,-0.4587 0.3825,-0.46 0.3825,-0.3825 0.3825,-0.4588 0.3825,-0.3825 0.3825,-0.4587 0.3825,-0.4588 0.3825,-0.3825 0.3825,-0.4587 0.3825,-0.46 0.3825,-0.3813 0.3825,-0.46 0.3825,-0.3825 0.3825,-0.4587 0.45875,-0.4588 0.3825,-0.3825 0.3825,-0.4587 0.3825,-0.4588 0.3825,-0.3837 0.3825,-0.4588 0.3825,-0.4587 0.3825,-0.3825 0.3825,-0.4588 0.3825,-0.3825 0.3825,-0.4587 0.3825,-0.4588 0.3825,-0.3837 0.3825,-0.4588 0.3825,-0.4587 0.3825,-0.3825 0.3825,-0.4588 0.3825,-0.3825 0.45875,-0.4587 0.3825,-0.46 0.3825,-0.3825 0.3825,-0.4588 0.3825,-0.4587 0.3825,-0.3825 0.3825,-0.4588 0.3825,-0.46 0.3825,-0.3812 0.3825,-0.46 0.3825,-0.3813 0.3825,-0.46 0.3825,-0.4587 0.3825,-0.3825 0.3825,-0.4588 0.3825,-0.4587 0.3825,-0.3825 0.3825,-0.46 0.3825,-0.4588 0.45875,-0.3825 0.3825,-0.4587 0.3825,-0.3825 0.3825,-0.4588 0.38375,-0.4587 0.38125,-0.3825 0.3825,-0.4588 0.38375,-0.46 0.38125,-0.3825 0.3825,-0.4587 0.38375,-0.3825 0.38125,-0.4588 0.3825,-0.4587 0.3825,-0.3838 0.3825,-0.4587 0.38375,-0.4588 0.38125,-0.3825 0.3825,-0.4587 0.46,-0.4588 0.3825,-0.3825 0.3825,-0.46 0.38125,-0.3812 0.38375,-0.46 0.3825,-0.4588 0.38125,-0.3825 0.38375,-0.4587 0.3825,-0.4588 0.3825,-0.3825 0.3825,-0.4587 0.3825,-0.3825 0.3825,-0.46 0.3825,-0.4588 0.38125,-0.3825 0.38375,-0.4587 0.3825,-0.4588 0.38125,-0.3825 0.38375,-0.4587 0.45875,-0.46 0.3825,-0.3813 0.3825,-0.46 0.3825,-0.3825 0.3825,-0.4587 0.3825,-0.4588 0.3825,-0.3825 0.3825,-0.4587 0.3825,-0.4588 0.3825,-0.3837 0.3825,-0.4588 0.3825,-0.3825 0.3825,-0.4587 0.3825,-0.4588 0.3825,-0.3825 0.3825,-0.46 0.3825,-0.4587 0.3825,-0.3825 0.45875,-0.4588 0.3825,-0.4587 0.3825,-0.3825 0.3825,-0.4588 0.3825,-0.3825 0.3825,-0.4587 0.3825,-0.46 0.3825,-0.3825 0.3825,-0.4588 0.3825,-0.4587 0.3825,-0.3825 0.3825,-0.4588 0.3825,-0.3825 0.3825,-0.4587 0.3825,-0.46 0.3825,-0.3813 0.3825,-0.46 0.3825,-0.4587 0.3825,-0.3825 0.45875,-0.4588 0.3825,-0.4587 0.3825,-0.3825 0.3825,-0.4588 0.3825,-0.3837 0.3825,-0.4588 0.3825,-0.4587 0.3825,-0.3825 0.3825,-0.4588 0.3825,-0.4587 0.3825,-0.3825 0.3825,-0.4588 0.3825,-0.3837 0.3825,-0.4588 0.3825,-0.4587 0.3825,-0.3825 0.3825,-0.4588 0.3825,-0.4587 0.46,-0.3825 0.38125,-0.46 0.3825,-0.4588 0.38375,-0.3825 0.38125,-0.4587 0.3825,-0.3825 0.3825,-0.4588 0.3825,-0.46 0.38375,-0.3812 0.38125,-0.46 0.3825,-0.4588 0.38375,-0.3825 0.38125,-0.4587 0.3825,-0.4588 0.38375,-0.3825 0.38125,-0.4587 0.3825,-0.3825 0.38375,-0.46 0.45875,-0.4588 0.3825,-0.3825 0.38125,-0.4587 0.38375,-0.4588 0.3825,-0.3825 0.3825,-0.4587 0.3825,-0.3825 0.3825,-0.4588 0.3825,-0.46 0.3825,-0.3825 0.38125,-0.4587 0.38375,-0.4588 0.3825,-0.3825 0.38125,-0.4587 0.38375,-0.4588 0.3825,-0.3837 0.3825,-0.4588 0.3825,-0.3825 0.3825,-0.4587 0.45875,-0.4588 0.3825,-0.3825 0.3825,-0.46 0.3825,-0.4587 0.3825,-0.3825 0.3825,-0.4588 0.3825,-0.3825 0.3825,-0.4587 0.3825,-0.4588 0.3825,-0.3825 0.3825,-0.4587 0.3825,-0.46 0.3825,-0.3825 0.3825,-0.4588 0.3825,-0.4587 0.3825,-0.3825 0.3825,-0.4588 0.3825,-0.3825 0.45875,-0.4587 0.3825,-0.46 0.3825,-0.3813 0.3825,-0.46 0.3825,-0.4587 0.3825,-0.3825 0.3825,-0.4588 0.3825,-0.3825 0.3825,-0.4587 0.3825,-0.4588 0.3825,-0.3837 0.3825,-0.4588 0.3825,-0.4587 0.3825,-0.3825 0.3825,-0.4588 0.3825,-0.4587 0.3825,-0.3838 0.3825,-0.4587 0.3825,-0.3825 0.45875,-0.4588 0.3825,-0.4587 0.3825,-0.3825 0.3825,-0.4588 0.3825,-0.4587 0.3825,-0.3825 0.3825,-0.46 0.3825,-0.3825 0.3825,-0.4588 0.3825,-0.4587 0.3825,-0.3825 0.3825,-0.4588 0.3825,-0.46 0.3825,-0.3812 0.3825,-0.46 0.3825,-0.4588 0.3825,-0.3825 0.3825,-0.4587 0.45875,-0.3825 0.3825,-0.4588 0.3825,-0.4587 0.3825,-0.3825 0.38375,-0.4588 0.38125,-0.46 0.3825,-0.3825 0.38375,-0.4587 0.38125,-0.3825 0.3825,-0.4588 0.38375,-0.4587 0.38125,-0.3825 0.3825,-0.4588 0.3825,-0.46 0.3825,-0.3825 0.3825,-0.4587 0.3825,-0.4588 0.3825,-0.3825 0.38375,-0.4587 0.45875,-0.3825 0.3825,-0.46 0.38125,-0.4588 0.38375,-0.3825 0.3825,-0.4587 0.38125,-0.4588 0.38375,-0.3825 0.3825,-0.46 0.38125,-0.3812 0.38375,-0.46 0.3825,-0.4588 0.3825,-0.3825 0.3825,-0.4587 0.3825,-0.4588 0.3825,-0.3825 0.3825,-0.4587 0.38125,-0.46 0.38375,-0.3825 0.45875,-0.4588 0.3825,-0.3825 0.3825,-0.4587 0.3825,-0.4588 0.3825,-0.3825 0.3825,-0.4587 0.3825,-0.46 0.3825,-0.3813 0.3825,-0.46 0.3825,-0.4587 0.3825,-0.3825 0.3825,-0.4588 0.3825,-0.3825 0.3825,-0.4587 0.3825,-0.4588 0.3825,-0.3837 0.3825,-0.4588 0.3825,-0.4587 0.3825,-0.3825 0.45875,-0.4588 0.3825,-0.3825 0.3825,-0.46 0.3825,-0.4587 0.3825,-0.3825 0.3825,-0.4588 0.3825,-0.4587 0.3825,-0.3825 0.3825,-0.4588 0.3825,-0.4587 0.3825,-0.3825 0.3825,-0.46 0.3825,-0.3825 0.3825,-0.4588 0.3825,-0.4587 0.3825,-0.3825 0.3825,-0.4588 0.3825,-0.46 0.45875,-0.3812 0.3825,-0.46 0.3825,-0.3813 0.3825,-0.46 0.3825,-0.4587 0.3825,-0.3825 0.3825,-0.4588 0.3825,-0.4587 0.3825,-0.3825 0.3825,-0.4588 0.3825,-0.46 0.3825,-0.3825 0.3825,-0.4587 0.3825,-0.3825 0.3825,-0.4588 0.3825,-0.4587 0.3825,-0.3838 0.3825,-0.4587 0.3825,-0.4588 0.45875,-0.3825 0.3825,-0.4587 0.38375,-0.3825 0.38125,-0.4588 0.3825,-0.4587 0.38375,-0.3825 0.38125,-0.46 0.3825,-0.4588 0.3825,-0.3825 0.3825,-0.4587 0.38375,-0.4588 0.38125,-0.3825 0.3825,-0.46 0.38375,-0.3812 0.38125,-0.46 0.3825,-0.4588 0.38375,-0.3825 0.38125,-0.4587 0.46,-0.4588 0.38125,-0.3825 0.38375,-0.4587 0.3825,-0.3825 0.38125,-0.4588 0.38375,-0.46 0.3825,-0.3825 0.3825,-0.4587 0.3825,-0.4588 0.38125,-0.3825 0.38375,-0.4587 0.3825,-0.46 0.38125,-0.3813 0.38375,-0.46 0.3825,-0.3825 0.38125,-0.4587 0.38375,-0.4588 0.3825,-0.3825 0.3825,-0.4587 0.45875,-0.4588 0.3825,-0.3837 0.3825,-0.4588 0.3825,-0.3825 0.3825,-0.4587 0.3825,-0.4588 0.3825,-0.3825 0.3825,-0.46 0.3825,-0.4587 0.3825,-0.3825 0.3825,-0.4588 0.3825,-0.4587 0.3825,-0.3825 0.3825,-0.4588 0.3825,-0.3825 0.3825,-0.4587 0.3825,-0.46 0.3825,-0.3825 0.45875,-0.4588 0.3825,-0.4587 0.3825,-0.3825 0.3825,-0.4588 0.3825,-0.4587 0.3825,-0.3825 0.3825,-0.46 0.3825,-0.3813 0.3825,-0.46 0.3825,-0.4587 0.3825,-0.3825 0.3825,-0.4588 0.3825,-0.4587 0.3825,-0.3825 0.3825,-0.4588 0.3825,-0.3837 0.3825,-0.4588 0.3825,-0.4587 0.3825,-0.3825 0.45875,-0.4588 0.3825,-0.4587 0.3825,-0.3838 0.3825,-0.4587 0.3825,-0.4588 0.3825,-0.3825 0.3825,-0.4587 0.3825,-0.3825 0.3825,-0.4588 0.3825,-0.4587 0.3825,-0.3825 0.3825,-0.46 0.3825,-0.4588 0.3825,-0.3825 0.3825,-0.4587 0.3825,-0.3825 0.3825,-0.4588 0.3825,-0.46 0.45875,-0.3812 0.3825,-0.46 0.3825,-0.4588 0.38375,-0.3825 0.38125,-0.4587 0.3825,-0.4588 0.38375,-0.3825 0.38125,-0.4587 0.3825,-0.3825 0.38375,-0.4588 0.38125,-0.46 0.3825,-0.3825 0.38375,-0.4587 0.38125,-0.4588 0.3825,-0.3825 0.3825,-0.4587 0.3825,-0.3838 0.38375,-0.4587 0.38125,-0.4588 0.46,-0.3825 0.3825,-0.4587" />
    <path
       id="path4504"
       style="fill:none;stroke:#ff0000;stroke-width:2.29500008;stroke-linecap:butt;stroke-linejoin:miter;stroke-miterlimit:10;stroke-opacity:1;stroke-dasharray:none"
       d="m -276.45362,1624.0251 0.3825,-0.4588 0.3825,-0.3825 0.45875,-0.4587 0.3825,-0.4588 0.3825,-0.3837 0.3825,-0.4588 0.3825,-0.3825 0.3825,-0.4587 0.3825,-0.4588 0.3825,-0.3825 0.3825,-0.46 0.3825,-0.4587 0.3825,-0.3825 0.3825,-0.4588 0.3825,-0.3825 0.3825,-0.4587 0.3825,-0.4588 0.3825,-0.3825 0.3825,-0.4587 0.3825,-0.46 0.3825,-0.3813 0.45875,-0.46 0.3825,-0.4587 0.3825,-0.3825 0.3825,-0.4588 0.3825,-0.3825 0.3825,-0.4587 0.3825,-0.46 0.3825,-0.3825 0.3825,-0.4588 0.3825,-0.4587 0.3825,-0.3825 0.3825,-0.4588 0.3825,-0.3825 0.3825,-0.4587 0.3825,-0.4588 0.3825,-0.3837 0.3825,-0.4588 0.3825,-0.4587 0.45875,-0.3825 0.3825,-0.4588 0.3825,-0.4587 0.38375,-0.3838 0.38125,-0.4587 0.3825,-0.3825 0.38375,-0.4588 0.38125,-0.4587 0.3825,-0.3825 0.38375,-0.4588 0.38125,-0.4587 0.3825,-0.3825 0.3825,-0.46 0.3825,-0.3825 0.38375,-0.4588 0.38125,-0.4587 0.3825,-0.3825 0.38375,-0.4588 0.38125,-0.4587 0.46,-0.3825 0.38125,-0.46 0.38375,-0.4588 0.3825,-0.3825 0.38125,-0.4587 0.38375,-0.3825 0.3825,-0.4588 0.3825,-0.4587 0.3825,-0.3825 0.3825,-0.4588 0.3825,-0.46 0.3825,-0.3825 0.38125,-0.4587 0.38375,-0.4588 0.3825,-0.3825 0.38125,-0.4587 0.38375,-0.3838 0.3825,-0.4587 0.45875,-0.4588 0.3825,-0.3825 0.3825,-0.4587 0.3825,-0.4588 0.3825,-0.3825 0.3825,-0.4587 0.3825,-0.3825 0.3825,-0.46 0.3825,-0.4588 0.3825,-0.3825 0.3825,-0.4587 0.3825,-0.4588 0.3825,-0.3825 0.3825,-0.46 0.3825,-0.4587 0.3825,-0.3825 0.3825,-0.4588 0.3825,-0.3825 0.3825,-0.4587 0.45875,-0.4588 0.3825,-0.3825 0.3825,-0.4587 0.3825,-0.46 0.3825,-0.3813 0.3825,-0.46 0.3825,-0.3825 0.3825,-0.4587 0.3825,-0.4588 0.3825,-0.3825 0.3825,-0.4587 0.3825,-0.46 0.3825,-0.3825 0.3825,-0.4588 0.3825,-0.4587 0.3825,-0.3825 0.3825,-0.4588 0.3825,-0.3825 0.45875,-0.4587 0.3825,-0.4588 0.3825,-0.3837 0.3825,-0.4588 0.3825,-0.4587 0.3825,-0.3825 0.3825,-0.4588 0.3825,-0.3825 0.3825,-0.46 0.3825,-0.4587 0.3825,-0.3825 0.3825,-0.4588 0.3825,-0.4587 0.3825,-0.3825 0.3825,-0.4588 0.3825,-0.46 0.3825,-0.3812 0.3825,-0.46 0.3825,-0.3813 0.45875,-0.46 0.38375,-0.4587 0.38125,-0.3825 0.3825,-0.4588 0.3825,-0.4587 0.3825,-0.3825 0.3825,-0.46 0.3825,-0.3825 0.3825,-0.4588 0.38375,-0.4587 0.38125,-0.3825 0.3825,-0.4588 0.38375,-0.4587 0.38125,-0.3825 0.3825,-0.4588 0.38375,-0.46 0.38125,-0.3825 0.3825,-0.4587 0.45875,-0.3825 0.38375,-0.4588 0.3825,-0.4587 0.3825,-0.3838 0.3825,-0.4587 0.3825,-0.4588 0.3825,-0.3825 0.3825,-0.4587 0.38125,-0.3825 0.38375,-0.4588 0.3825,-0.4587 0.38125,-0.3825 0.38375,-0.46 0.3825,-0.4588 0.3825,-0.3825 0.3825,-0.4587 0.3825,-0.4588 0.3825,-0.3825 0.3825,-0.4587 0.45875,-0.3825 0.3825,-0.46 0.3825,-0.4588 0.3825,-0.3825 0.3825,-0.4587 0.3825,-0.4588 0.3825,-0.3825 0.3825,-0.4587 0.3825,-0.46 0.3825,-0.3813 0.3825,-0.46 0.3825,-0.3825 0.3825,-0.4587 0.3825,-0.4588 0.3825,-0.3825 0.3825,-0.4587 0.3825,-0.46 0.3825,-0.3825 0.45875,-0.4588 0.3825,-0.3825 0.3825,-0.4587 0.3825,-0.4588 0.3825,-0.3825 0.3825,-0.4587 0.3825,-0.4588 0.3825,-0.3837 0.3825,-0.4588 0.3825,-0.4587 0.3825,-0.3825 0.3825,-0.4588 0.3825,-0.3825 0.3825,-0.46 0.3825,-0.4587 0.3825,-0.3825 0.3825,-0.4588 0.3825,-0.4587 0.45875,-0.3825 0.3825,-0.4588 0.3825,-0.3825 0.3825,-0.4587 0.3825,-0.46 0.3825,-0.3813 0.3825,-0.46 0.3825,-0.4587 0.3825,-0.3825 0.3825,-0.4588 0.3825,-0.4587 0.3825,-0.3825 0.3825,-0.46 0.3825,-0.3825 0.3825,-0.4588 0.3825,-0.4587 0.3825,-0.3825 0.3825,-0.4588 0.3825,-0.4587 0.45875,-0.3825 0.3825,-0.4588 0.38375,-0.3837 0.38125,-0.4588 0.3825,-0.4587 0.38375,-0.3825 0.38125,-0.4588 0.3825,-0.4587 0.38375,-0.3838 0.38125,-0.4587 0.3825,-0.4588 0.3825,-0.3825 0.3825,-0.4587 0.3825,-0.3825 0.3825,-0.4588 0.3825,-0.46 0.38375,-0.3812 0.38125,-0.46 0.46,-0.4588 0.38125,-0.3825 0.38375,-0.4587 0.3825,-0.3825 0.38125,-0.4588 0.38375,-0.4587 0.3825,-0.3825 0.38125,-0.46 0.38375,-0.4588 0.3825,-0.3825 0.3825,-0.4587 0.3825,-0.4588 0.3825,-0.3825 0.3825,-0.4587 0.3825,-0.3825 0.38125,-0.4588 0.38375,-0.46 0.3825,-0.3825 0.38125,-0.4587 0.46,-0.4588 0.3825,-0.3825 0.3825,-0.4587 0.3825,-0.3838 0.3825,-0.4587 0.3825,-0.4588 0.3825,-0.3825 0.3825,-0.4587 0.3825,-0.4588 0.3825,-0.3825 0.3825,-0.4587 0.3825,-0.4588 0.3825,-0.3837 0.3825,-0.4588 0.3825,-0.3825 0.3825,-0.4587 0.3825,-0.4588 0.3825,-0.3825 0.45875,-0.4587 0.3825,-0.46 0.3825,-0.3825 0.3825,-0.4588 0.3825,-0.3825 0.3825,-0.4587 0.3825,-0.4588 0.3825,-0.3825 0.3825,-0.4587 0.3825,-0.46 0.3825,-0.3813 0.3825,-0.46 0.3825,-0.4587 0.3825,-0.3825 0.3825,-0.4588 0.3825,-0.3825 0.3825,-0.4587 0.3825,-0.46 0.3825,-0.3825 0.45875,-0.4588 0.3825,-0.4587 0.3825,-0.3825 0.3825,-0.4588 0.3825,-0.4587 0.3825,-0.3825 0.3825,-0.4588 0.3825,-0.3837 0.3825,-0.4588 0.3825,-0.4587 0.3825,-0.3825 0.3825,-0.4588 0.3825,-0.4587 0.3825,-0.3838 0.3825,-0.4587 0.3825,-0.3825 0.3825,-0.4588 0.3825,-0.4587 0.45875,-0.3825 0.38375,-0.4588 0.38125,-0.46 0.3825,-0.3812 0.38375,-0.46 0.38125,-0.4588 0.3825,-0.3825 0.3825,-0.4587 0.3825,-0.3825 0.38375,-0.4588 0.38125,-0.4587 0.3825,-0.3825 0.38375,-0.46 0.38125,-0.4588 0.3825,-0.3825 0.38375,-0.4587 0.38125,-0.3825 0.3825,-0.4588 0.3825,-0.4587 0.46,-0.3825 0.3825,-0.4588 0.3825,-0.46 0.3825,-0.3825 0.3825,-0.4587 0.3825,-0.4588 0.3825,-0.3825 0.38125,-0.4587 0.38375,-0.3838 0.3825,-0.4587 0.38125,-0.4588 0.38375,-0.3825 0.3825,-0.4587 0.38125,-0.4588 0.38375,-0.3825 0.3825,-0.46 0.3825,-0.3812 0.3825,-0.46 0.45875,-0.4588 0.3825,-0.3825 0.3825,-0.4587 0.3825,-0.4588 0.3825,-0.3825 0.3825,-0.4587 0.3825,-0.46 0.3825,-0.3825 0.3825,-0.4588 0.3825,-0.3825 0.3825,-0.4587 0.3825,-0.4588 0.3825,-0.3825 0.3825,-0.4587 0.3825,-0.46 0.3825,-0.3813 0.3825,-0.46 0.3825,-0.3825 0.3825,-0.4587 0.45875,-0.4588 0.3825,-0.3825 0.3825,-0.4587 0.3825,-0.4588 0.3825,-0.3837 0.3825,-0.4588 0.3825,-0.4587 0.3825,-0.23 0.3825,-0.3825 0.3825,-0.4588 0.3825,-0.3825 0.3825,-0.3825 0.3825,-0.4587 0.3825,-0.3825 0.3825,-0.3825 0.3825,-0.3063 0.3825,-0.3825 0.3825,-0.3825 0.45875,-0.3825 0.3825,-0.3062 0.3825,-0.305 0.3825,-0.3825 0.3825,-0.3063 0.3825,-0.3062 0.3825,-0.3063 0.3825,-0.3062 0.3825,-0.3063 0.3825,-0.305 0.3825,-0.3062 0.3825,-0.23 0.3825,-0.3063 0.3825,-0.305 0.3825,-0.23 0.3825,-0.2287 0.3825,-0.3063 0.3825,-0.23 0.3825,-0.2287 0.45875,-0.23 0.3825,-0.23 0.3825,-0.2288 0.3825,-0.23 0.38375,-0.2287 0.38125,-0.23 0.3825,-0.23 0.38375,-0.2288 0.38125,-0.1537 0.3825,-0.2288 0.38375,-0.1537 0.38125,-0.2288 0.3825,-0.1537 0.3825,-0.2288 0.3825,-0.1537 0.38375,-0.1525 0.38125,-0.23 0.3825,-0.1525 0.46,-0.1538 0.3825,-0.1525 0.3825,-0.1525 0.38125,-0.1537 0.38375,-0.1525 0.3825,-0.1525 0.38125,-0.1538 0.38375,-0.1525 0.3825,-0.1525 0.3825,-0.1537 0.3825,-0.1525 0.3825,-0.078 0.3825,-0.1525 0.3825,-0.1525 0.38125,-0.078 0.38375,-0.1525 0.3825,-0.1525 0.38125,-0.076 0.38375,-0.1537 0.45875,-0.076 0.3825,-0.1537 0.3825,-0.076 0.3825,-0.076 0.3825,-0.1538 0.3825,-0.076 0.3825,-0.076 0.3825,-0.1525 0.3825,-0.076 0.3825,-0.077 0.3825,-0.076 0.3825,-0.1525 0.3825,-0.076 0.3825,-0.077 0.3825,-0.076 0.3825,-0.076 0.3825,-0.076 0.3825,-0.078 0.45875,-0.075 0.3825,-0.078 0.3825,-0.076 0.3825,-0.076 0.3825,-0.076 0.3825,-0.078 0.3825,-0.076 0.3825,-0.076 0.3825,-0.076 0.3825,-0.076 0.3825,0 0.3825,-0.077 0.3825,-0.076 0.3825,-0.076 0.3825,-0.076 0.3825,0 0.3825,-0.077 0.3825,-0.075 0.3825,-0.078 0.45875,0 0.3825,-0.076 0.3825,-0.076 0.3825,0 0.3825,-0.076 0.3825,-0.078 0.3825,0 0.3825,-0.076 0.3825,0 0.3825,-0.076 0.3825,-0.076 0.3825,0 0.3825,-0.076 0.3825,0 0.3825,-0.078 0.3825,0 0.3825,-0.076 0.3825,-0.076 0.46,0 0.38125,-0.076 0.3825,0 0.38375,-0.076 0.38125,0 0.3825,-0.076 0.3825,-0.078 0.3825,0 0.38375,-0.076 0.38125,0 0.3825,-0.076 0.38375,0 0.38125,-0.076 0.3825,-0.078 0.38375,0 0.38125,-0.076 0.3825,0 0.38375,-0.076 0.45875,0 0.3825,-0.076 0.38125,-0.076 0.38375,0 0.3825,-0.078 0.3825,0 0.3825,-0.076 0.3825,0 0.3825,-0.076 0.3825,-0.076 0.38125,0 0.38375,-0.076 0.3825,0 0.38125,-0.076 0.38375,0 0.3825,-0.077 0.3825,0 0.3825,-0.076 0.3825,-0.076 0.45875,0 0.3825,-0.076 0.3825,0 0.3825,-0.077 0.3825,0 0.3825,-0.076 0.3825,-0.076 0.3825,0 0.3825,-0.076 0.3825,0 0.3825,-0.078 0.3825,0 0.3825,-0.076 0.3825,-0.076 0.3825,0 0.3825,-0.076 0.3825,0 0.3825,-0.076 0.45875,0 0.3825,-0.076 0.3825,-0.078 0.3825,0 0.3825,-0.076 0.3825,0 0.3825,-0.076 0.3825,0 0.3825,-0.076 0.3825,-0.076 0.3825,0 0.3825,-0.077 0.3825,0 0.3825,-0.076 0.3825,0 0.3825,-0.076 0.3825,-0.076 0.3825,0 0.3825,-0.077 0.45875,0 0.3825,-0.075 0.3825,0 0.3825,-0.078 0.3825,0 0.3825,-0.076 0.3825,-0.076 0.3825,0 0.3825,-0.076 0.3825,0 0.3825,-0.078 0.3825,0 0.3825,-0.076 0.3825,-0.076 0.3825,0 0.3825,-0.076 0.3825,0 0.3825,-0.076 0.45875,0 0.3825,-0.077 0.3825,-0.076 0.3825,0 0.38375,-0.076 0.38125,0 0.3825,-0.076 0.38375,-0.076 0.38125,0 0.3825,-0.076 0.38375,-0.078 0.38125,0 0.3825,-0.076 0.3825,-0.076 0.3825,-0.076 0.3825,0 0.3825,-0.078 0.3825,-0.076 0.38375,-0.076 0.45875,-0.076 0.3825,0 0.38125,-0.076 0.38375,-0.078 0.3825,-0.076 0.38125,-0.076 0.38375,-0.076 0.3825,-0.076 0.38125,-0.076 0.38375,-0.077 0.3825,-0.076 0.3825,-0.076 0.3825,-0.076 0.3825,-0.078 0.3825,-0.076 0.3825,-0.076 0.38125,-0.076 0.38375,-0.078 0.45875,-0.1525 0.3825,-0.076 0.3825,-0.076 0.3825,-0.076 0.3825,-0.077 0.3825,-0.1525 0.3825,-0.076 0.3825,-0.076 0.3825,-0.1538 0.3825,-0.076 0.3825,-0.1538 0.3825,-0.075 0.3825,-0.1537 0.3825,-0.076 0.3825,-0.1537 0.3825,-0.076 0.3825,-0.1525 0.3825,-0.1537 0.3825,-0.076 0.45875,-0.1525 0.3825,-0.1525 0.3825,-0.078 0.3825,-0.1525 0.3825,-0.1537 0.3825,-0.1525 0.3825,-0.1525 0.3825,-0.1538 0.3825,-0.1525 0.3825,-0.1525 0.3825,-0.1537 0.3825,-0.1525 0.3825,-0.1538 0.3825,-0.2287 0.3825,-0.1538 0.3825,-0.1525 0.3825,-0.23 0.3825,-0.1525 0.45875,-0.1537 0.3825,-0.2288 0.3825,-0.1537 0.3825,-0.2288 0.3825,-0.23 0.3825,-0.1525 0.3825,-0.23 0.3825,-0.23 0.3825,-0.2287 0.3825,-0.23 0.3825,-0.2288 0.3825,-0.23 0.3825,-0.2287 0.3825,-0.23 0.3825,-0.23 0.3825,-0.305 0.3825,-0.23 0.3825,-0.2288 0.3825,-0.3062 0.45875,-0.23 0.3825,-0.3063 0.38375,-0.3062 0.38125,-0.305 0.3825,-0.3063 0.38375,-0.23 0.38125,-0.3062 0.3825,-0.3825 0.3825,-0.3063 0.3825,-0.305 0.38375,-0.3062 0.38125,-0.3825 0.3825,-0.3063 0.38375,-0.3825 0.38125,-0.3825 0.3825,-0.3825 0.38375,-0.3062 0.38125,-0.3825 0.46,-0.4588 0.38125,-0.3825 0.38375,-0.3825 0.3825,-0.3825 0.38125,-0.4587 0.38375,-0.2288 0.3825,-0.46 0.3825,-0.4587 0.3825,-0.3825 0.38125,-0.4588 0.38375,-0.4587 0.3825,-0.3825 0.38125,-0.4588 0.38375,-0.3837 0.3825,-0.4588 0.38125,-0.4587 0.38375,-0.3825 0.3825,-0.4588 0.3825,-0.4587 0.45875,-0.3825 0.3825,-0.4588 0.3825,-0.3837 0.3825,-0.4588 0.3825,-0.4587 0.3825,-0.3825 0.3825,-0.4588 0.3825,-0.4587 0.3825,-0.3825 0.3825,-0.46 0.3825,-0.4588 0.3825,-0.3825 0.3825,-0.4587 0.3825,-0.3825 0.3825,-0.4588 0.3825,-0.46 0.3825,-0.3812 0.3825,-0.46 0.45875,-0.4588 0.3825,-0.3825 0.3825,-0.4587 0.3825,-0.4588 0.3825,-0.3825 0.3825,-0.4587 0.3825,-0.3825 0.3825,-0.46 0.3825,-0.4588 0.3825,-0.3825 0.3825,-0.4587 0.3825,-0.4588 0.3825,-0.3825 0.3825,-0.4587 0.3825,-0.3825 0.3825,-0.4588 0.3825,-0.46 0.3825,-0.3825 0.3825,-0.4587 0.45875,-0.4588 0.3825,-0.3825 0.3825,-0.4587 0.3825,-0.4588 0.3825,-0.3837 0.3825,-0.4588 0.3825,-0.3825 0.3825,-0.4587 0.3825,-0.4588 0.3825,-0.3825 0.3825,-0.46 0.3825,-0.4587 0.3825,-0.3825 0.3825,-0.4588 0.3825,-0.3825 0.3825,-0.4587 0.3825,-0.4588 0.3825,-0.3825 0.45875,-0.4587 0.3825,-0.46 0.3825,-0.3825 0.38375,-0.4588 0.38125,-0.4587 0.3825,-0.3825 0.38375,-0.4588 0.38125,-0.3825 0.3825,-0.4587 0.38375,-0.46 0.38125,-0.3813 0.3825,-0.46 0.38375,-0.4587 0.38125,-0.3825 0.3825,-0.4588 0.3825,-0.3825 0.3825,-0.4587 0.38375,-0.4588 0.38125,-0.3837 0.46,-0.4588 0.3825,-0.4587 0.3825,-0.3825 0.3825,-0.4588 0.38125,-0.4587 0.38375,-0.3838 0.3825,-0.4587 0.38125,-0.3825 0.38375,-0.4588 0.3825,-0.4587 0.3825,-0.3825 0.3825,-0.4588 0.3825,-0.4587 0.3825,-0.3825 0.3825,-0.46 0.38125,-0.3825 0.38375,-0.4588 0.3825,-0.4587 0.45875,-0.3825 0.3825,-0.4588 0.3825,-0.46 0.3825,-0.3812 0.3825,-0.46 0.3825,-0.4588 0.3825,-0.3825 0.3825,-0.4587 0.3825,-0.3825 0.3825,-0.4588 0.3825,-0.4587 0.3825,-0.3825 0.3825,-0.4588 0.3825,-0.46 0.3825,-0.3825 0.3825,-0.4587 0.3825,-0.3825 0.3825,-0.4588 0.3825,-0.4587 0.45875,-0.3825 0.3825,-0.4588 0.3825,-0.46 0.3825,-0.3825 0.3825,-0.4587 0.3825,-0.4588 0.3825,-0.3825 0.3825,-0.4587 0.3825,-0.3825 0.3825,-0.46 0.3825,-0.4588 0.3825,-0.3825 0.3825,-0.4587 0.3825,-0.4588 0.3825,-0.3825 0.3825,-0.46 0.3825,-0.3812 0.3825,-0.46 0.45875,-0.4588 0.3825,-0.3825 0.3825,-0.4587 0.3825,-0.4588 0.3825,-0.3825 0.3825,-0.4587 0.3825,-0.46 0.3825,-0.3825 0.3825,-0.4588 0.3825,-0.3825 0.3825,-0.4587 0.3825,-0.4588 0.3825,-0.3825 0.3825,-0.4587 0.3825,-0.46 0.3825,-0.3813 0.3825,-0.46 0.3825,-0.4587 0.45875,-0.3825 0.3825,-0.4588 0.38375,-0.3825 0.38125,-0.4587 0.3825,-0.4588 0.38375,-0.3837 0.38125,-0.4588 0.3825,-0.4587 0.3825,-0.3825 0.3825,-0.4588 0.3825,-0.3825 0.3825,-0.46 0.3825,-0.4587 0.38375,-0.3825 0.38125,-0.4588 0.3825,-0.4587 0.38375,-0.3825 0.38125,-0.4588 0.3825,-0.4587 0.45875,-0.3825 0.38375,-0.46 0.3825,-0.3825 0.38125,-0.4588 0.38375,-0.4587 0.3825,-0.3825 0.3825,-0.4588 0.3825,-0.46 0.3825,-0.3812 0.3825,-0.46 0.3825,-0.3813 0.38125,-0.46 0.38375,-0.4587 0.3825,-0.3825 0.38125,-0.4588 0.38375,-0.4587 0.3825,-0.3825 0.3825,-0.4588 0.45875,-0.46 0.3825,-0.3825 0.3825,-0.4587 0.3825,-0.3825 0.3825,-0.4588 0.3825,-0.4587 0.3825,-0.3838 0.3825,-0.4587 0.3825,-0.4588 0.3825,-0.3825 0.3825,-0.4587 0.3825,-0.3825 0.3825,-0.4588 0.3825,-0.4587 0.3825,-0.3825 0.3825,-0.46 0.3825,-0.4588 0.3825,-0.3825 0.3825,-0.4587 0.45875,-0.4588 0.3825,-0.3825 0.3825,-0.46 0.3825,-0.3812 0.3825,-0.46 0.3825,-0.4588 0.3825,-0.3825 0.3825,-0.4587 0.3825,-0.4588 0.3825,-0.3825 0.3825,-0.4587 0.3825,-0.3825 0.3825,-0.4588 0.3825,-0.46 0.3825,-0.3825 0.3825,-0.4587 0.3825,-0.4588 0.3825,-0.3825 0.45875,-0.4587 0.3825,-0.46 0.3825,-0.3813 0.3825,-0.46 0.3825,-0.3825 0.3825,-0.4587 0.3825,-0.4588 0.3825,-0.3825 0.3825,-0.4587 0.3825,-0.4588 0.3825,-0.3837 0.3825,-0.4588 0.3825,-0.3825 0.3825,-0.4587 0.3825,-0.4588 0.3825,-0.3825 0.3825,-0.46 0.3825,-0.4587 0.3825,-0.3825 0.46,-0.4588 0.38125,-0.4587 0.3825,-0.3825 0.3825,-0.4588 0.3825,-0.3825 0.3825,-0.4587 0.3825,-0.46 0.3825,-0.3825 0.38375,-0.4588 0.38125,-0.4587 0.3825,-0.3825 0.38375,-0.4588 0.38125,-0.4587 0.3825,-0.3825 0.3825,-0.46 0.3825,-0.3813 0.3825,-0.46 0.3825,-0.4587 0.46,-0.3825 0.3825,-0.4588 0.3825,-0.4587 0.3825,-0.3825 0.38125,-0.4588 0.38375,-0.3837 0.3825,-0.4588 0.38125,-0.4587 0.38375,-0.3825 0.3825,-0.4588 0.38125,-0.4587 0.38375,-0.3838 0.3825,-0.4587 0.3825,-0.4588 0.3825,-0.3825 0.3825,-0.4587 0.3825,-0.3825 0.3825,-0.4588 0.38125,-0.4587 0.46,-0.3825 0.3825,-0.46 0.3825,-0.4588 0.3825,-0.3825 0.3825,-0.4587 0.3825,-0.3825 0.3825,-0.4588 0.3825,-0.46 0.3825,-0.3812 0.3825,-0.46 0.3825,-0.4588 0.3825,-0.3825 0.3825,-0.4587 0.3825,-0.4588 0.3825,-0.3825 0.3825,-0.4587 0.3825,-0.3825 0.3825,-0.4588 0.45875,-0.46 0.3825,-0.3825 0.3825,-0.4587 0.3825,-0.4588 0.3825,-0.3825 0.3825,-0.4587 0.3825,-0.3838 0.3825,-0.4587 0.3825,-0.4588 0.3825,-0.3825 0.3825,-0.4587" />
    <path
       id="path4506"
       style="fill:none;stroke:#00ff00;stroke-width:2.29500008;stroke-linecap:butt;stroke-linejoin:miter;stroke-miterlimit:10;stroke-opacity:1;stroke-dasharray:none"
       d="m -276.45362,1624.0251 0.3825,-0.4588 0.3825,-0.3825 0.45875,-0.4587 0.3825,-0.4588 0.3825,-0.3837 0.3825,-0.4588 0.3825,-0.3825 0.3825,-0.4587 0.3825,-0.4588 0.3825,-0.3825 0.3825,-0.46 0.3825,-0.4587 0.3825,-0.3825 0.3825,-0.4588 0.3825,-0.3825 0.3825,-0.4587 0.3825,-0.4588 0.3825,-0.3825 0.3825,-0.4587 0.3825,-0.46 0.3825,-0.3813 0.45875,-0.46 0.3825,-0.4587 0.3825,-0.3825 0.3825,-0.4588 0.3825,-0.3825 0.3825,-0.4587 0.3825,-0.46 0.3825,-0.3825 0.3825,-0.4588 0.3825,-0.4587 0.3825,-0.3825 0.3825,-0.4588 0.3825,-0.3825 0.3825,-0.4587 0.3825,-0.4588 0.3825,-0.3837 0.3825,-0.4588 0.3825,-0.4587 0.45875,-0.3825 0.3825,-0.4588 0.3825,-0.4587 0.38375,-0.3838 0.38125,-0.4587 0.3825,-0.3825 0.38375,-0.4588 0.38125,-0.4587 0.3825,-0.3825 0.38375,-0.4588 0.38125,-0.4587 0.3825,-0.3825 0.3825,-0.46 0.3825,-0.3825 0.38375,-0.4588 0.38125,-0.4587 0.3825,-0.3825 0.38375,-0.4588 0.38125,-0.4587 0.46,-0.3825 0.38125,-0.46 0.38375,-0.4588 0.3825,-0.3825 0.38125,-0.4587 0.38375,-0.3825 0.3825,-0.4588 0.3825,-0.4587 0.3825,-0.3825 0.3825,-0.4588 0.3825,-0.46 0.3825,-0.3825 0.38125,-0.4587 0.38375,-0.4588 0.3825,-0.3825 0.38125,-0.4587 0.38375,-0.3838 0.3825,-0.4587 0.45875,-0.4588 0.3825,-0.3825 0.3825,-0.4587 0.3825,-0.4588 0.3825,-0.3825 0.3825,-0.4587 0.3825,-0.3825 0.3825,-0.46 0.3825,-0.4588 0.3825,-0.3825 0.3825,-0.4587 0.3825,-0.4588 0.3825,-0.3825 0.3825,-0.46 0.3825,-0.4587 0.3825,-0.3825 0.3825,-0.4588 0.3825,-0.3825 0.3825,-0.4587 0.45875,-0.4588 0.3825,-0.3825 0.3825,-0.4587 0.3825,-0.46 0.3825,-0.3813 0.3825,-0.46 0.3825,-0.3825 0.3825,-0.4587 0.3825,-0.4588 0.3825,-0.3825 0.3825,-0.4587 0.3825,-0.46 0.3825,-0.3825 0.3825,-0.4588 0.3825,-0.4587 0.3825,-0.3825 0.3825,-0.4588 0.3825,-0.3825 0.45875,-0.4587 0.3825,-0.4588 0.3825,-0.3837 0.3825,-0.4588 0.3825,-0.4587 0.3825,-0.3825 0.3825,-0.4588 0.3825,-0.3825 0.3825,-0.46 0.3825,-0.4587 0.3825,-0.3825 0.3825,-0.4588 0.3825,-0.4587 0.3825,-0.3825 0.3825,-0.4588 0.3825,-0.46 0.3825,-0.3812 0.3825,-0.46 0.3825,-0.3813 0.45875,-0.46 0.38375,-0.4587 0.38125,-0.3825 0.3825,-0.4588 0.3825,-0.4587 0.3825,-0.3825 0.3825,-0.46 0.3825,-0.3825 0.3825,-0.4588 0.38375,-0.4587 0.38125,-0.3825 0.3825,-0.4588 0.38375,-0.4587 0.38125,-0.3825 0.3825,-0.4588 0.38375,-0.46 0.38125,-0.3825 0.3825,-0.4587 0.45875,-0.3825 0.38375,-0.4588 0.3825,-0.4587 0.3825,-0.3838 0.3825,-0.4587 0.3825,-0.4588 0.3825,-0.3825 0.3825,-0.4587 0.38125,-0.3825 0.38375,-0.4588 0.3825,-0.4587 0.38125,-0.3825 0.38375,-0.46 0.3825,-0.4588 0.3825,-0.3825 0.3825,-0.4587 0.3825,-0.4588 0.3825,-0.3825 0.3825,-0.4587 0.45875,-0.3825 0.3825,-0.46 0.3825,-0.4588 0.3825,-0.3825 0.3825,-0.4587 0.3825,-0.4588 0.3825,-0.3825 0.3825,-0.4587 0.3825,-0.46 0.3825,-0.3813 0.3825,-0.46 0.3825,-0.3825 0.3825,-0.4587 0.3825,-0.4588 0.3825,-0.3825 0.3825,-0.4587 0.3825,-0.46 0.3825,-0.3825 0.45875,-0.4588 0.3825,-0.3825 0.3825,-0.4587 0.3825,-0.4588 0.3825,-0.3825 0.3825,-0.4587 0.3825,-0.4588 0.3825,-0.3837 0.3825,-0.4588 0.3825,-0.4587 0.3825,-0.3825 0.3825,-0.4588 0.3825,-0.3825 0.3825,-0.46 0.3825,-0.4587 0.3825,-0.3825 0.3825,-0.4588 0.3825,-0.4587 0.45875,-0.3825 0.3825,-0.4588 0.3825,-0.3825 0.3825,-0.4587 0.3825,-0.46 0.3825,-0.3813 0.3825,-0.46 0.3825,-0.4587 0.3825,-0.3825 0.3825,-0.4588 0.3825,-0.4587 0.3825,-0.3825 0.3825,-0.46 0.3825,-0.3825 0.3825,-0.4588 0.3825,-0.4587 0.3825,-0.3825 0.3825,-0.4588 0.3825,-0.4587 0.45875,-0.3825 0.3825,-0.4588 0.38375,-0.3837 0.38125,-0.4588 0.3825,-0.4587 0.38375,-0.3825 0.38125,-0.4588 0.3825,-0.4587 0.38375,-0.3838 0.38125,-0.4587 0.3825,-0.4588 0.3825,-0.3825 0.3825,-0.4587 0.3825,-0.3825 0.3825,-0.4588 0.3825,-0.46 0.38375,-0.3812 0.38125,-0.46 0.46,-0.4588 0.38125,-0.3825 0.38375,-0.4587 0.3825,-0.3825 0.38125,-0.4588 0.38375,-0.4587 0.3825,-0.3825 0.38125,-0.46 0.38375,-0.4588 0.3825,-0.3825 0.3825,-0.4587 0.3825,-0.4588 0.3825,-0.3825 0.3825,-0.4587 0.3825,-0.3825 0.38125,-0.4588 0.38375,-0.46 0.3825,-0.3825 0.38125,-0.4587 0.46,-0.4588 0.3825,-0.3825 0.3825,-0.4587 0.3825,-0.3838 0.3825,-0.4587 0.3825,-0.4588 0.3825,-0.3825 0.3825,-0.4587 0.3825,-0.4588 0.3825,-0.3825 0.3825,-0.4587 0.3825,-0.4588 0.3825,-0.3837 0.3825,-0.4588 0.3825,-0.3825 0.3825,-0.4587 0.3825,-0.4588 0.3825,-0.3825 0.45875,-0.4587 0.3825,-0.46 0.3825,-0.3825 0.3825,-0.4588 0.3825,-0.3825 0.3825,-0.4587 0.3825,-0.4588 0.3825,-0.3825 0.3825,-0.4587 0.3825,-0.46 0.3825,-0.3813 0.3825,-0.46 0.3825,-0.4587 0.3825,-0.3825 0.3825,-0.4588 0.3825,-0.3825 0.3825,-0.4587 0.3825,-0.46 0.3825,-0.3825 0.45875,-0.4588 0.3825,-0.4587 0.3825,-0.3825 0.3825,-0.4588 0.3825,-0.4587 0.3825,-0.3825 0.3825,-0.4588 0.3825,-0.3837 0.3825,-0.4588 0.3825,-0.4587 0.3825,-0.3825 0.3825,-0.4588 0.3825,-0.4587 0.3825,-0.3838 0.3825,-0.4587 0.3825,-0.3825 0.3825,-0.4588 0.3825,-0.4587 0.45875,-0.3825 0.38375,-0.4588 0.38125,-0.46 0.3825,-0.3812 0.38375,-0.46 0.38125,-0.4588 0.3825,-0.3825 0.3825,-0.4587 0.3825,-0.3825 0.38375,-0.4588 0.38125,-0.4587 0.3825,-0.3825 0.38375,-0.46 0.38125,-0.4588 0.3825,-0.3825 0.38375,-0.4587 0.38125,-0.3825 0.3825,-0.4588 0.3825,-0.4587 0.46,-0.3825 0.3825,-0.4588 0.3825,-0.46 0.3825,-0.3825 0.3825,-0.4587 0.3825,-0.4588 0.3825,-0.3825 0.38125,-0.4587 0.38375,-0.3838 0.3825,-0.4587 0.38125,-0.4588 0.38375,-0.3825 0.3825,-0.4587 0.38125,-0.4588 0.38375,-0.3825 0.3825,-0.46 0.3825,-0.3812 0.3825,-0.46 0.45875,-0.4588 0.3825,-0.3825 0.3825,-0.4587 0.3825,-0.4588 0.3825,-0.3825 0.3825,-0.4587 0.3825,-0.46 0.3825,-0.3825 0.3825,-0.4588 0.3825,-0.3825 0.3825,-0.4587 0.3825,-0.4588 0.3825,-0.3825 0.3825,-0.4587 0.3825,-0.46 0.3825,-0.3813 0.3825,-0.46 0.3825,-0.3825 0.3825,-0.4587 0.45875,-0.4588 0.3825,-0.3825 0.3825,-0.4587 0.3825,-0.4588 0.3825,-0.3837 0.3825,-0.4588 0.3825,-0.4587 0.3825,-0.23 0.3825,-0.3825 0.3825,-0.4588 0.3825,-0.3825 0.3825,-0.3825 0.3825,-0.4587 0.3825,-0.3825 0.3825,-0.3825 0.3825,-0.3063 0.3825,-0.3825 0.3825,-0.3825 0.45875,-0.3825 0.3825,-0.3062 0.3825,-0.305 0.3825,-0.3825 0.3825,-0.3063 0.3825,-0.3062 0.3825,-0.3063 0.3825,-0.3062 0.3825,-0.3063 0.3825,-0.305 0.3825,-0.3062 0.3825,-0.23 0.3825,-0.3063 0.3825,-0.305 0.3825,-0.23 0.3825,-0.2287 0.3825,-0.3063 0.3825,-0.23 0.3825,-0.2287 0.45875,-0.23 0.3825,-0.23 0.3825,-0.2288 0.3825,-0.23 0.38375,-0.2287 0.38125,-0.23 0.3825,-0.23 0.38375,-0.2288 0.38125,-0.1537 0.3825,-0.2288 0.38375,-0.1537 0.38125,-0.2288 0.3825,-0.1537 0.3825,-0.2288 0.3825,-0.1537 0.38375,-0.1525 0.38125,-0.23 0.3825,-0.1525 0.46,-0.1538 0.3825,-0.1525 0.3825,-0.1525 0.38125,-0.1537 0.38375,-0.1525 0.3825,-0.1525 0.38125,-0.1538 0.38375,-0.1525 0.3825,-0.1525 0.3825,-0.1537 0.3825,-0.1525 0.3825,-0.078 0.3825,-0.1525 0.3825,-0.1525 0.38125,-0.078 0.38375,-0.1525 0.3825,-0.1525 0.38125,-0.076 0.38375,-0.1537 0.45875,-0.076 0.3825,-0.1537 0.3825,-0.076 0.3825,-0.076 0.3825,-0.1538 0.3825,-0.076 0.3825,-0.076 0.3825,-0.1525 0.3825,-0.076 0.3825,-0.077 0.3825,-0.076 0.3825,-0.1525 0.3825,-0.076 0.3825,-0.077 0.3825,-0.076 0.3825,-0.076 0.3825,-0.076 0.3825,-0.078 0.45875,-0.075 0.3825,-0.078 0.3825,-0.076 0.3825,-0.076 0.3825,-0.076 0.3825,-0.078 0.3825,-0.076 0.3825,-0.076 0.3825,-0.076 0.3825,-0.076 0.3825,0 0.3825,-0.077 0.3825,-0.076 0.3825,-0.076 0.3825,-0.076 0.3825,0 0.3825,-0.077 0.3825,-0.075 0.3825,-0.078 0.45875,0 0.3825,-0.076 0.3825,-0.076 0.3825,0 0.3825,-0.076 0.3825,-0.078 0.3825,0 0.3825,-0.076 0.3825,0 0.3825,-0.076 0.3825,-0.076 0.3825,0 0.3825,-0.076 0.3825,0 0.3825,-0.078 0.3825,0 0.3825,-0.076 0.3825,-0.076 0.46,0 0.38125,-0.076 0.3825,0 0.38375,-0.076 0.38125,0 0.3825,-0.076 0.3825,0 0.3825,-0.078 0.38375,-0.076 0.38125,0 0.3825,-0.076 0.38375,0 0.38125,-0.076 0.3825,0 0.38375,-0.078 0.38125,-0.076 0.3825,0 0.38375,-0.076 0.45875,0 0.3825,-0.076 0.38125,0 0.38375,-0.076 0.3825,0 0.3825,-0.078 0.3825,-0.076 0.3825,0 0.3825,-0.076 0.3825,0 0.38125,-0.076 0.38375,0 0.3825,-0.076 0.38125,-0.076 0.38375,0 0.3825,-0.077 0.3825,0 0.3825,-0.076 0.3825,0 0.45875,-0.076 0.3825,0 0.3825,-0.076 0.3825,-0.077 0.3825,0 0.3825,-0.076 0.3825,0 0.3825,-0.076 0.3825,0 0.3825,-0.076 0.3825,-0.078 0.3825,0 0.3825,-0.076 0.3825,0 0.3825,-0.076 0.3825,0 0.3825,-0.076 0.3825,-0.076 0.45875,0 0.3825,-0.076 0.3825,0 0.3825,-0.078 0.3825,0 0.3825,-0.076 0.3825,0 0.3825,-0.076 0.3825,-0.076 0.3825,0 0.3825,-0.076 0.3825,0 0.3825,-0.077 0.3825,0 0.3825,-0.076 0.3825,-0.076 0.3825,0 0.3825,-0.076 0.3825,0 0.45875,-0.077 0.3825,0 0.3825,-0.075 0.3825,0 0.3825,-0.078 0.3825,-0.076 0.3825,0 0.3825,-0.076 0.3825,0 0.3825,-0.076 0.3825,0 0.3825,-0.078 0.3825,0 0.3825,-0.076 0.3825,-0.076 0.3825,0 0.3825,-0.076 0.3825,0 0.45875,-0.076 0.3825,0 0.3825,-0.077 0.3825,-0.076 0.38375,0 0.38125,-0.076 0.3825,0 0.38375,-0.076 0.38125,-0.076 0.3825,0 0.38375,-0.076 0.38125,-0.078 0.3825,0 0.3825,-0.076 0.3825,-0.076 0.3825,-0.076 0.3825,0 0.3825,-0.078 0.38375,-0.076 0.45875,-0.076 0.3825,-0.076 0.38125,0 0.38375,-0.076 0.3825,-0.078 0.38125,-0.076 0.38375,-0.076 0.3825,-0.076 0.38125,-0.076 0.38375,-0.076 0.3825,-0.077 0.3825,-0.076 0.3825,-0.076 0.3825,-0.076 0.3825,-0.078 0.3825,-0.076 0.38125,-0.076 0.38375,-0.076 0.45875,-0.078 0.3825,-0.076 0.3825,-0.1525 0.3825,-0.076 0.3825,-0.076 0.3825,-0.077 0.3825,-0.1525 0.3825,-0.076 0.3825,-0.076 0.3825,-0.1538 0.3825,-0.076 0.3825,-0.076 0.3825,-0.1525 0.3825,-0.078 0.3825,-0.1525 0.3825,-0.076 0.3825,-0.1538 0.3825,-0.1525 0.3825,-0.076 0.45875,-0.1538 0.3825,-0.1525 0.3825,-0.077 0.3825,-0.1525 0.3825,-0.076 0.3825,-0.1525 0.3825,-0.078 0.3825,-0.1525 0.3825,-0.076 0.3825,-0.1537 0.3825,-0.076 0.3825,-0.1525 0.3825,-0.076 0.3825,-0.076 0.3825,-0.078 0.3825,-0.1525 0.3825,-0.076 0.3825,-0.078 0.45875,-0.076 0.3825,-0.076 0.3825,-0.1525 0.3825,-0.078 0.3825,-0.076 0.3825,-0.076 0.3825,-0.076 0.3825,-0.076 0.3825,-0.077 0.3825,-0.076 0.3825,-0.076 0.3825,-0.076 0.3825,-0.076 0.3825,-0.077 0.3825,-0.076 0.3825,-0.076 0.3825,0 0.3825,-0.076 0.3825,-0.078 0.45875,-0.076 0.3825,-0.076 0.38375,0 0.38125,-0.076 0.3825,-0.076 0.38375,-0.076 0.38125,0 0.3825,-0.078 0.3825,-0.076 0.3825,0 0.38375,-0.076 0.38125,-0.076 0.3825,0 0.38375,-0.076 0.38125,-0.077 0.3825,0 0.38375,-0.076 0.38125,0 0.46,-0.076 0.38125,-0.076 0.38375,0 0.3825,-0.077 0.38125,0 0.38375,-0.075 0.3825,0 0.3825,-0.078 0.3825,0 0.38125,-0.076 0.38375,-0.076 0.3825,0 0.38125,-0.076 0.38375,0 0.3825,-0.078 0.38125,0 0.38375,-0.076 0.3825,-0.076 0.3825,0 0.45875,-0.076 0.3825,0 0.3825,-0.076 0.3825,0 0.3825,-0.077 0.3825,-0.076 0.3825,0 0.3825,-0.076 0.3825,0 0.3825,-0.076 0.3825,0 0.3825,-0.076 0.3825,-0.076 0.3825,0 0.3825,-0.078 0.3825,0 0.3825,-0.076 0.3825,0 0.45875,-0.076 0.3825,-0.076 0.3825,0 0.3825,-0.078 0.3825,0 0.3825,-0.076 0.3825,0 0.3825,-0.076 0.3825,-0.076 0.3825,0 0.3825,-0.076 0.3825,0 0.3825,-0.078 0.3825,0 0.3825,-0.076 0.3825,0 0.3825,-0.076 0.3825,-0.076 0.3825,0 0.45875,-0.076 0.3825,0 0.3825,-0.076 0.3825,0 0.3825,-0.077 0.3825,-0.076 0.3825,0 0.3825,-0.076 0.3825,0 0.3825,-0.076 0.3825,0 0.3825,-0.078 0.3825,-0.076 0.3825,0 0.3825,-0.076 0.3825,0 0.3825,-0.076 0.3825,0 0.45875,-0.078 0.3825,-0.076 0.3825,0 0.38375,-0.076 0.38125,0 0.3825,-0.076 0.38375,0 0.38125,-0.076 0.3825,-0.076 0.38375,0 0.38125,-0.077 0.3825,0 0.38375,-0.076 0.38125,0 0.3825,-0.076 0.3825,-0.076 0.3825,0 0.38375,-0.076 0.38125,0 0.46,-0.077 0.3825,0 0.3825,-0.076 0.3825,0 0.38125,-0.076 0.38375,-0.076 0.3825,0 0.38125,-0.078 0.38375,0 0.3825,-0.075 0.3825,-0.078 0.3825,0 0.3825,-0.076 0.3825,0 0.3825,-0.076 0.38125,-0.076 0.38375,0 0.3825,-0.078 0.45875,-0.076 0.3825,-0.076 0.3825,0 0.3825,-0.076 0.3825,-0.076 0.3825,-0.077 0.3825,-0.076 0.3825,0 0.3825,-0.076 0.3825,-0.076 0.3825,-0.077 0.3825,-0.075 0.3825,-0.078 0.3825,-0.076 0.3825,-0.076 0.3825,-0.076 0.3825,-0.078 0.3825,-0.076 0.3825,-0.076 0.45875,-0.076 0.3825,-0.076 0.3825,-0.078 0.3825,-0.076 0.3825,-0.076 0.3825,-0.076 0.3825,-0.076 0.3825,-0.076 0.3825,-0.1537 0.3825,-0.076 0.3825,-0.076 0.3825,-0.1538 0.3825,-0.076 0.3825,-0.076 0.3825,-0.1537 0.3825,-0.076 0.3825,-0.076 0.3825,-0.1525 0.45875,-0.077 0.3825,-0.1525 0.3825,-0.076 0.3825,-0.1537 0.3825,-0.1525 0.3825,-0.076 0.3825,-0.1537 0.3825,-0.1525 0.3825,-0.076 0.3825,-0.1537 0.3825,-0.1525 0.3825,-0.1525 0.3825,-0.1538 0.3825,-0.1525 0.3825,-0.1525 0.3825,-0.1537 0.3825,-0.1525 0.3825,-0.1538 0.45875,-0.1525 0.3825,-0.1537 0.38375,-0.1525 0.38125,-0.2288 0.3825,-0.1537 0.38375,-0.1525 0.38125,-0.23 0.3825,-0.1525 0.3825,-0.23 0.3825,-0.1525 0.3825,-0.23 0.3825,-0.1525 0.3825,-0.23 0.38375,-0.23 0.38125,-0.2288 0.3825,-0.23 0.38375,-0.2287 0.38125,-0.23 0.3825,-0.2288 0.45875,-0.23 0.38375,-0.23 0.3825,-0.2287 0.38125,-0.23 0.38375,-0.3063 0.3825,-0.2287 0.3825,-0.3063 0.3825,-0.23 0.3825,-0.305 0.3825,-0.3062 0.3825,-0.23 0.38125,-0.3063 0.38375,-0.305 0.3825,-0.3062 0.38125,-0.3063 0.38375,-0.3825 0.3825,-0.3062 0.3825,-0.3063 0.45875,-0.3825 0.3825,-0.3062 0.3825,-0.3825 0.3825,-0.305 0.3825,-0.3825 0.3825,-0.3825 0.3825,-0.3825 0.3825,-0.3825 0.3825,-0.3838 0.3825,-0.4587 0.3825,-0.3825 0.3825,-0.4588 0.3825,-0.2287 0.3825,-0.46 0.3825,-0.4588 0.3825,-0.3825 0.3825,-0.4587 0.3825,-0.4588 0.3825,-0.3825 0.45875,-0.4587 0.3825,-0.3825 0.3825,-0.46 0.3825,-0.4588 0.3825,-0.3825 0.3825,-0.4587 0.3825,-0.4588 0.3825,-0.3825 0.3825,-0.4587 0.3825,-0.3825 0.3825,-0.4588 0.3825,-0.46 0.3825,-0.3825 0.3825,-0.4587 0.3825,-0.4588 0.3825,-0.3825 0.3825,-0.4587 0.3825,-0.4588 0.45875,-0.3837 0.3825,-0.4588 0.3825,-0.3825 0.3825,-0.4587 0.3825,-0.4588 0.3825,-0.3825 0.3825,-0.46 0.3825,-0.4587 0.3825,-0.3825 0.3825,-0.4588 0.3825,-0.3825 0.3825,-0.4587 0.3825,-0.4588 0.3825,-0.3825 0.3825,-0.4587 0.3825,-0.46 0.3825,-0.3825 0.3825,-0.4588 0.3825,-0.4587 0.46,-0.3825 0.38125,-0.4588 0.3825,-0.3825 0.3825,-0.4587 0.3825,-0.46 0.3825,-0.3813 0.3825,-0.46 0.3825,-0.4587 0.38375,-0.3825 0.38125,-0.4588 0.3825,-0.3825 0.38375,-0.4587 0.38125,-0.4588 0.3825,-0.3837 0.3825,-0.4588 0.3825,-0.4587 0.3825,-0.3825 0.3825,-0.4588 0.46,-0.4587 0.3825,-0.3838 0.3825,-0.4587 0.3825,-0.3825 0.38125,-0.4588 0.38375,-0.4587 0.3825,-0.3825 0.38125,-0.4588 0.38375,-0.4587 0.3825,-0.3825 0.38125,-0.46 0.38375,-0.3825 0.3825,-0.4588 0.3825,-0.4587 0.3825,-0.3825 0.3825,-0.4588 0.3825,-0.46 0.3825,-0.3812 0.38125,-0.46 0.46,-0.4588 0.3825,-0.3825 0.3825,-0.4587 0.3825,-0.3825 0.3825,-0.4588 0.3825,-0.4587 0.3825,-0.3825 0.3825,-0.4588 0.3825,-0.46 0.3825,-0.3825 0.3825,-0.4587 0.3825,-0.3825 0.3825,-0.4588 0.3825,-0.4587 0.3825,-0.3825 0.3825,-0.4588 0.3825,-0.46 0.3825,-0.3825 0.45875,-0.4587 0.3825,-0.4588 0.3825,-0.3825 0.3825,-0.4587 0.3825,-0.3825 0.3825,-0.46 0.3825,-0.4588 0.3825,-0.3825 0.3825,-0.4587 0.3825,-0.4588 0.3825,-0.3825 0.3825,-0.46 0.3825,-0.3812 0.3825,-0.46 0.3825,-0.4588 0.3825,-0.3825 0.3825,-0.4587 0.3825,-0.4588 0.3825,-0.3825 0.45875,-0.4587 0.3825,-0.46 0.3825,-0.3825 0.3825,-0.4588 0.3825,-0.3825 0.3825,-0.4587 0.3825,-0.4588 0.3825,-0.3825 0.3825,-0.4587 0.3825,-0.46 0.3825,-0.3813 0.3825,-0.46 0.3825,-0.4587 0.3825,-0.3825 0.3825,-0.4588 0.3825,-0.3825 0.3825,-0.4587 0.3825,-0.4588 0.45875,-0.3837 0.38375,-0.4588 0.38125,-0.4587 0.3825,-0.3825 0.38375,-0.4588 0.38125,-0.3825 0.3825,-0.46 0.38375,-0.4587 0.38125,-0.3825 0.3825,-0.4588 0.3825,-0.4587 0.3825,-0.3825 0.38375,-0.4588 0.38125,-0.4587 0.3825,-0.3825 0.38375,-0.46 0.38125,-0.3825 0.3825,-0.4588 0.38375,-0.4587 0.45875,-0.3825 0.3825,-0.4588 0.38125,-0.46 0.38375,-0.3812 0.3825,-0.46 0.3825,-0.3813 0.3825,-0.46 0.3825,-0.4587 0.3825,-0.3825 0.3825,-0.4588 0.38125,-0.4587 0.38375,-0.3825 0.3825,-0.4588 0.38125,-0.46 0.38375,-0.3825 0.3825,-0.4587 0.3825,-0.3825 0.3825,-0.4588 0.45875,-0.4587 0.3825,-0.3838 0.3825,-0.4587 0.3825,-0.4588 0.3825,-0.3825 0.3825,-0.4587 0.3825,-0.3825 0.3825,-0.4588 0.3825,-0.4587 0.3825,-0.3825 0.3825,-0.46 0.3825,-0.4588 0.3825,-0.3825 0.3825,-0.4587 0.3825,-0.4588 0.3825,-0.3825 0.3825,-0.46 0.3825,-0.3812 0.3825,-0.46 0.45875,-0.4588 0.3825,-0.3825 0.3825,-0.4587 0.3825,-0.4588 0.3825,-0.3825 0.3825,-0.4587 0.3825,-0.3825 0.3825,-0.4588 0.3825,-0.46 0.3825,-0.3825 0.3825,-0.4587 0.3825,-0.4588 0.3825,-0.3825 0.3825,-0.4587 0.3825,-0.46 0.3825,-0.3813 0.3825,-0.46 0.3825,-0.3825 0.45875,-0.4587 0.3825,-0.4588 0.3825,-0.3825 0.3825,-0.4587 0.3825,-0.4588 0.3825,-0.3837 0.3825,-0.4588 0.3825,-0.3825 0.3825,-0.4587 0.3825,-0.4588 0.3825,-0.3825 0.3825,-0.46 0.3825,-0.4587 0.3825,-0.3825 0.3825,-0.4588 0.3825,-0.4587 0.3825,-0.3825 0.3825,-0.4588 0.3825,-0.3825 0.45875,-0.4587 0.3825,-0.46 0.3825,-0.3825 0.3825,-0.4588 0.38375,-0.4587 0.38125,-0.3825 0.3825,-0.4588 0.38375,-0.4587 0.38125,-0.3825 0.3825,-0.46 0.38375,-0.3813 0.38125,-0.46 0.3825,-0.4587 0.38375,-0.3825 0.38125,-0.4588 0.3825,-0.4587 0.3825,-0.3825 0.3825,-0.4588 0.46,-0.3837 0.3825,-0.4588 0.3825,-0.4587 0.3825,-0.3825 0.3825,-0.4588 0.3825,-0.4587 0.38125,-0.3838 0.38375,-0.4587 0.3825,-0.4588 0.38125,-0.3825 0.38375,-0.4587 0.3825,-0.3825 0.3825,-0.4588 0.3825,-0.4587 0.3825,-0.3825 0.3825,-0.46 0.3825,-0.4588 0.38125,-0.3825 0.38375,-0.4587 0.45875,-0.3825 0.3825,-0.4588 0.3825,-0.46 0.3825,-0.3812 0.3825,-0.46 0.3825,-0.4588 0.3825,-0.3825 0.3825,-0.4587 0.3825,-0.4588 0.3825,-0.3825 0.3825,-0.4587 0.3825,-0.3825 0.3825,-0.4588 0.3825,-0.46 0.3825,-0.3825 0.3825,-0.4587 0.3825,-0.4588 0.3825,-0.3825 0.45875,-0.4587 0.3825,-0.3838 0.3825,-0.4587 0.3825,-0.4588 0.3825,-0.3825 0.3825,-0.4587" />
    <path
       id="path4508"
       style="fill:none;stroke:#000000;stroke-width:1.14750004;stroke-linecap:butt;stroke-linejoin:miter;stroke-miterlimit:10;stroke-opacity:1;stroke-dasharray:none"
       d="m -286.70487,1624.0251 497.25,0" />
    <path
       id="path4510"
       style="fill:none;stroke:#000000;stroke-width:1.14750004;stroke-linecap:butt;stroke-linejoin:miter;stroke-miterlimit:10;stroke-opacity:1;stroke-dasharray:none"
       d="m -286.70487,1279.7751 497.25,0" />
    <path
       id="path4512"
       style="fill:none;stroke:#000000;stroke-width:1.14750004;stroke-linecap:butt;stroke-linejoin:miter;stroke-miterlimit:10;stroke-opacity:1;stroke-dasharray:none"
       d="m -237.74487,1624.0251 0,-7.65" />
    <path
       id="path4514"
       style="fill:none;stroke:#000000;stroke-width:1.14750004;stroke-linecap:butt;stroke-linejoin:miter;stroke-miterlimit:10;stroke-opacity:1;stroke-dasharray:none"
       d="m -237.74487,1279.7751 0,7.65" />
    <path
       id="path4516"
       style="fill:none;stroke:#000000;stroke-width:1.14750004;stroke-linecap:butt;stroke-linejoin:miter;stroke-miterlimit:10;stroke-opacity:1;stroke-dasharray:none"
       d="m -160.40362,1624.0251 0,-7.65" />
    <path
       id="path4518"
       style="fill:none;stroke:#000000;stroke-width:1.14750004;stroke-linecap:butt;stroke-linejoin:miter;stroke-miterlimit:10;stroke-opacity:1;stroke-dasharray:none"
       d="m -160.40362,1279.7751 0,7.65" />
    <path
       id="path4520"
       style="fill:none;stroke:#000000;stroke-width:1.14750004;stroke-linecap:butt;stroke-linejoin:miter;stroke-miterlimit:10;stroke-opacity:1;stroke-dasharray:none"
       d="m -83.13862,1624.0251 0,-7.65" />
    <path
       id="path4522"
       style="fill:none;stroke:#000000;stroke-width:1.14750004;stroke-linecap:butt;stroke-linejoin:miter;stroke-miterlimit:10;stroke-opacity:1;stroke-dasharray:none"
       d="m -83.13862,1279.7751 0,7.65" />
    <path
       id="path4524"
       style="fill:none;stroke:#000000;stroke-width:1.14750004;stroke-linecap:butt;stroke-linejoin:miter;stroke-miterlimit:10;stroke-opacity:1;stroke-dasharray:none"
       d="m -5.79612,1624.0251 0,-7.65" />
    <path
       id="path4526"
       style="fill:none;stroke:#000000;stroke-width:1.14750004;stroke-linecap:butt;stroke-linejoin:miter;stroke-miterlimit:10;stroke-opacity:1;stroke-dasharray:none"
       d="m -5.79612,1279.7751 0,7.65" />
    <path
       id="path4528"
       style="fill:none;stroke:#000000;stroke-width:1.14750004;stroke-linecap:butt;stroke-linejoin:miter;stroke-miterlimit:10;stroke-opacity:1;stroke-dasharray:none"
       d="m 71.54513,1624.0251 0,-7.65" />
    <path
       id="path4530"
       style="fill:none;stroke:#000000;stroke-width:1.14750004;stroke-linecap:butt;stroke-linejoin:miter;stroke-miterlimit:10;stroke-opacity:1;stroke-dasharray:none"
       d="m 71.54513,1279.7751 0,7.65" />
    <path
       id="path4532"
       style="fill:none;stroke:#000000;stroke-width:1.14750004;stroke-linecap:butt;stroke-linejoin:miter;stroke-miterlimit:10;stroke-opacity:1;stroke-dasharray:none"
       d="m 148.88638,1624.0251 0,-7.65" />
    <path
       id="path4534"
       style="fill:none;stroke:#000000;stroke-width:1.14750004;stroke-linecap:butt;stroke-linejoin:miter;stroke-miterlimit:10;stroke-opacity:1;stroke-dasharray:none"
       d="m 148.88638,1279.7751 0,7.65" />
    <path
       id="path4536"
       style="fill:none;stroke:#000000;stroke-width:1.14750004;stroke-linecap:butt;stroke-linejoin:miter;stroke-miterlimit:10;stroke-opacity:1;stroke-dasharray:none"
       d="m -276.45362,1624.0251 0,-15.3" />
    <path
       id="path4538"
       style="fill:none;stroke:#000000;stroke-width:1.14750004;stroke-linecap:butt;stroke-linejoin:miter;stroke-miterlimit:10;stroke-opacity:1;stroke-dasharray:none"
       d="m -276.45362,1279.7751 0,15.3" />
    <path
       id="path4540"
       style="fill:none;stroke:#000000;stroke-width:1.14750004;stroke-linecap:butt;stroke-linejoin:miter;stroke-miterlimit:10;stroke-opacity:1;stroke-dasharray:none"
       d="m -199.11237,1624.0251 0,-15.3" />
    <path
       id="path4542"
       style="fill:none;stroke:#000000;stroke-width:1.14750004;stroke-linecap:butt;stroke-linejoin:miter;stroke-miterlimit:10;stroke-opacity:1;stroke-dasharray:none"
       d="m -199.11237,1279.7751 0,15.3" />
    <path
       id="path4544"
       style="fill:none;stroke:#000000;stroke-width:1.14750004;stroke-linecap:butt;stroke-linejoin:miter;stroke-miterlimit:10;stroke-opacity:1;stroke-dasharray:none"
       d="m -121.77112,1624.0251 0,-15.3" />
    <path
       id="path4546"
       style="fill:none;stroke:#000000;stroke-width:1.14750004;stroke-linecap:butt;stroke-linejoin:miter;stroke-miterlimit:10;stroke-opacity:1;stroke-dasharray:none"
       d="m -121.77112,1279.7751 0,15.3" />
    <path
       id="path4548"
       style="fill:none;stroke:#000000;stroke-width:1.14750004;stroke-linecap:butt;stroke-linejoin:miter;stroke-miterlimit:10;stroke-opacity:1;stroke-dasharray:none"
       d="m -44.42987,1624.0251 0,-15.3" />
    <path
       id="path4550"
       style="fill:none;stroke:#000000;stroke-width:1.14750004;stroke-linecap:butt;stroke-linejoin:miter;stroke-miterlimit:10;stroke-opacity:1;stroke-dasharray:none"
       d="m -44.42987,1279.7751 0,15.3" />
    <path
       id="path4552"
       style="fill:none;stroke:#000000;stroke-width:1.14750004;stroke-linecap:butt;stroke-linejoin:miter;stroke-miterlimit:10;stroke-opacity:1;stroke-dasharray:none"
       d="m 32.91263,1624.0251 0,-15.3" />
    <path
       id="path4554"
       style="fill:none;stroke:#000000;stroke-width:1.14750004;stroke-linecap:butt;stroke-linejoin:miter;stroke-miterlimit:10;stroke-opacity:1;stroke-dasharray:none"
       d="m 32.91263,1279.7751 0,15.3" />
    <path
       id="path4556"
       style="fill:none;stroke:#000000;stroke-width:1.14750004;stroke-linecap:butt;stroke-linejoin:miter;stroke-miterlimit:10;stroke-opacity:1;stroke-dasharray:none"
       d="m 110.17638,1624.0251 0,-15.3" />
    <path
       id="path4558"
       style="fill:none;stroke:#000000;stroke-width:1.14750004;stroke-linecap:butt;stroke-linejoin:miter;stroke-miterlimit:10;stroke-opacity:1;stroke-dasharray:none"
       d="m 110.17638,1279.7751 0,15.3" />
    <path
       id="path4560"
       style="fill:none;stroke:#000000;stroke-width:1.14750004;stroke-linecap:butt;stroke-linejoin:miter;stroke-miterlimit:10;stroke-opacity:1;stroke-dasharray:none"
       d="m 187.51888,1624.0251 0,-15.3" />
    <path
       id="path4562"
       style="fill:none;stroke:#000000;stroke-width:1.14750004;stroke-linecap:butt;stroke-linejoin:miter;stroke-miterlimit:10;stroke-opacity:1;stroke-dasharray:none"
       d="m 187.51888,1279.7751 0,15.3" />
    <g
       transform="matrix(0,1.25,1.25,0,-401.45487,973.77506)"
       id="g4564">
      <text
         id="text4566"
         transform="matrix(0,1,1,0,545.782,93.2074)">
        <tspan
           id="tspan4568"
           sodipodi:role="line"
           y="0"
           x="0 47.552788 61.873589 76.194389 109.42583 123.74664 138.06743"
           style="font-size:28.64159966px;font-variant:normal;font-weight:normal;writing-mode:lr-tb;fill:#000000;fill-opacity:1;fill-rule:nonzero;stroke:none;font-family:Times;-inkscape-font-specification:Times-Roman">0200400</tspan>
        <tspan
           id="tspan4570"
           sodipodi:role="line"
           y="0.244922"
           x="171.299 185.6198 199.9406"
           style="font-size:28.64159966px;font-variant:normal;font-weight:normal;writing-mode:lr-tb;fill:#000000;fill-opacity:1;fill-rule:nonzero;stroke:none;font-family:Times;-inkscape-font-specification:Times-Roman">600</tspan>
        <tspan
           id="tspan4572"
           sodipodi:role="line"
           y="0"
           x="233.17239 247.49319 261.814 287.82394 302.14474 316.46555 330.78635 349.69699 364.01779 378.33859 392.65939"
           style="font-size:28.64159966px;font-variant:normal;font-weight:normal;writing-mode:lr-tb;fill:#000000;fill-opacity:1;fill-rule:nonzero;stroke:none;font-family:Times;-inkscape-font-specification:Times-Roman">80010001200</tspan>
      </text>
      <text
         id="text4574"
         transform="matrix(0,1,1,0,572.0367,226.2568)">
        <tspan
           id="tspan4576"
           sodipodi:role="line"
           y="0"
           x="0 14.0454 23.399637 31.208879 45.25428 52.276978 60.08622 74.131622 88.177025 100.64934 114.69473 121.71744"
           style="font-size:28.09079933px;font-variant:normal;font-weight:normal;writing-mode:lr-tb;fill:#000000;fill-opacity:1;fill-rule:nonzero;stroke:none;font-family:Times;-inkscape-font-specification:Times-Roman">grid index i</tspan>
      </text>
    </g>
    <path
       id="path4578"
       style="fill:none;stroke:#000000;stroke-width:1.14750004;stroke-linecap:butt;stroke-linejoin:miter;stroke-miterlimit:10;stroke-opacity:1;stroke-dasharray:none"
       d="m -286.70487,1624.0251 0,-344.25" />
    <path
       id="path4580"
       style="fill:none;stroke:#000000;stroke-width:1.14750004;stroke-linecap:butt;stroke-linejoin:miter;stroke-miterlimit:10;stroke-opacity:1;stroke-dasharray:none"
       d="m 210.54513,1624.0251 0,-344.25" />
    <path
       id="path4582"
       style="fill:none;stroke:#000000;stroke-width:1.14750004;stroke-linecap:butt;stroke-linejoin:miter;stroke-miterlimit:10;stroke-opacity:1;stroke-dasharray:none"
       d="m -286.70487,1580.9563 7.64987,0" />
    <path
       id="path4584"
       style="fill:none;stroke:#000000;stroke-width:1.14750004;stroke-linecap:butt;stroke-linejoin:miter;stroke-miterlimit:10;stroke-opacity:1;stroke-dasharray:none"
       d="m 210.54513,1580.9563 -7.65,0" />
    <path
       id="path4586"
       style="fill:none;stroke:#000000;stroke-width:1.14750004;stroke-linecap:butt;stroke-linejoin:miter;stroke-miterlimit:10;stroke-opacity:1;stroke-dasharray:none"
       d="m -286.70487,1494.9688 7.64987,0" />
    <path
       id="path4588"
       style="fill:none;stroke:#000000;stroke-width:1.14750004;stroke-linecap:butt;stroke-linejoin:miter;stroke-miterlimit:10;stroke-opacity:1;stroke-dasharray:none"
       d="m 210.54513,1494.9688 -7.65,0" />
    <path
       id="path4590"
       style="fill:none;stroke:#000000;stroke-width:1.14750004;stroke-linecap:butt;stroke-linejoin:miter;stroke-miterlimit:10;stroke-opacity:1;stroke-dasharray:none"
       d="m -286.70487,1408.8313 7.64987,0" />
    <path
       id="path4592"
       style="fill:none;stroke:#000000;stroke-width:1.14750004;stroke-linecap:butt;stroke-linejoin:miter;stroke-miterlimit:10;stroke-opacity:1;stroke-dasharray:none"
       d="m 210.54513,1408.8313 -7.65,0" />
    <path
       id="path4594"
       style="fill:none;stroke:#000000;stroke-width:1.14750004;stroke-linecap:butt;stroke-linejoin:miter;stroke-miterlimit:10;stroke-opacity:1;stroke-dasharray:none"
       d="m -286.70487,1322.8438 7.64987,0" />
    <path
       id="path4596"
       style="fill:none;stroke:#000000;stroke-width:1.14750004;stroke-linecap:butt;stroke-linejoin:miter;stroke-miterlimit:10;stroke-opacity:1;stroke-dasharray:none"
       d="m 210.54513,1322.8438 -7.65,0" />
    <path
       id="path4598"
       style="fill:none;stroke:#000000;stroke-width:1.14750004;stroke-linecap:butt;stroke-linejoin:miter;stroke-miterlimit:10;stroke-opacity:1;stroke-dasharray:none"
       d="m -286.70487,1624.0251 15.3,0" />
    <path
       id="path4600"
       style="fill:none;stroke:#000000;stroke-width:1.14750004;stroke-linecap:butt;stroke-linejoin:miter;stroke-miterlimit:10;stroke-opacity:1;stroke-dasharray:none"
       d="m 210.54513,1624.0251 -15.3,0" />
    <path
       id="path4602"
       style="fill:none;stroke:#000000;stroke-width:1.14750004;stroke-linecap:butt;stroke-linejoin:miter;stroke-miterlimit:10;stroke-opacity:1;stroke-dasharray:none"
       d="m -286.70487,1537.9626 15.3,0" />
    <path
       id="path4604"
       style="fill:none;stroke:#000000;stroke-width:1.14750004;stroke-linecap:butt;stroke-linejoin:miter;stroke-miterlimit:10;stroke-opacity:1;stroke-dasharray:none"
       d="m 210.54513,1537.9626 -15.3,0" />
    <path
       id="path4606"
       style="fill:none;stroke:#000000;stroke-width:1.14750004;stroke-linecap:butt;stroke-linejoin:miter;stroke-miterlimit:10;stroke-opacity:1;stroke-dasharray:none"
       d="m -286.70487,1451.9001 15.3,0" />
    <path
       id="path4608"
       style="fill:none;stroke:#000000;stroke-width:1.14750004;stroke-linecap:butt;stroke-linejoin:miter;stroke-miterlimit:10;stroke-opacity:1;stroke-dasharray:none"
       d="m 210.54513,1451.9001 -15.3,0" />
    <path
       id="path4610"
       style="fill:none;stroke:#000000;stroke-width:1.14750004;stroke-linecap:butt;stroke-linejoin:miter;stroke-miterlimit:10;stroke-opacity:1;stroke-dasharray:none"
       d="m -286.70487,1365.8376 15.3,0" />
    <path
       id="path4612"
       style="fill:none;stroke:#000000;stroke-width:1.14750004;stroke-linecap:butt;stroke-linejoin:miter;stroke-miterlimit:10;stroke-opacity:1;stroke-dasharray:none"
       d="m 210.54513,1365.8376 -15.3,0" />
    <path
       id="path4614"
       style="fill:none;stroke:#000000;stroke-width:1.14750004;stroke-linecap:butt;stroke-linejoin:miter;stroke-miterlimit:10;stroke-opacity:1;stroke-dasharray:none"
       d="m -286.70487,1279.7751 15.3,0" />
    <path
       id="path4616"
       style="fill:none;stroke:#000000;stroke-width:1.14750004;stroke-linecap:butt;stroke-linejoin:miter;stroke-miterlimit:10;stroke-opacity:1;stroke-dasharray:none"
       d="m 210.54513,1279.7751 -15.3,0" />
    <g
       transform="matrix(0,1.25,1.25,0,-401.45487,973.77506)"
       id="g4618">
      <text
         id="text4620"
         transform="matrix(0,1,1,0,529.931,62.6688)">
        <tspan
           id="tspan4622"
           sodipodi:role="line"
           y="0"
           x="0 9.537653"
           style="font-size:28.64159966px;font-variant:normal;font-weight:normal;writing-mode:lr-tb;fill:#000000;fill-opacity:1;fill-rule:nonzero;stroke:none;font-family:Times;-inkscape-font-specification:Times-Roman">-4</tspan>
        <tspan
           id="tspan4624"
           sodipodi:role="line"
           y="-68.849998"
           x="-0.244922 9.2927303"
           style="font-size:28.64159966px;font-variant:normal;font-weight:normal;writing-mode:lr-tb;fill:#000000;fill-opacity:1;fill-rule:nonzero;stroke:none;font-family:Times;-inkscape-font-specification:Times-Roman">-2</tspan>
        <tspan
           id="tspan4626"
           y="-137.9449"
           x="9.3023481"
           style="font-size:28.64159966px;font-variant:normal;font-weight:normal;writing-mode:lr-tb;fill:#000000;fill-opacity:1;fill-rule:nonzero;stroke:none;font-family:Times;-inkscape-font-specification:Times-Roman">0</tspan>
        <tspan
           id="tspan4628"
           y="-206.55"
           x="9.3023481"
           style="font-size:28.64159966px;font-variant:normal;font-weight:normal;writing-mode:lr-tb;fill:#000000;fill-opacity:1;fill-rule:nonzero;stroke:none;font-family:Times;-inkscape-font-specification:Times-Roman">2</tspan>
        <tspan
           id="tspan4630"
           y="-275.39999"
           x="9.5472698"
           style="font-size:28.64159966px;font-variant:normal;font-weight:normal;writing-mode:lr-tb;fill:#000000;fill-opacity:1;fill-rule:nonzero;stroke:none;font-family:Times;-inkscape-font-specification:Times-Roman">4</tspan>
      </text>
      <text
         id="text4632"
         transform="matrix(-1,0,0,1,394.618,45.0434)">
        <tspan
           id="tspan4634"
           y="0"
           x="0"
           style="font-size:28.09079933px;font-variant:normal;font-weight:normal;writing-mode:lr-tb;fill:#000000;fill-opacity:1;fill-rule:nonzero;stroke:none;font-family:Symbol;-inkscape-font-specification:Symbol"></tspan>
      </text>
      <text
         id="text4636"
         transform="matrix(-1,0,0,1,375.4012,56.3039)">
        <tspan
           id="tspan4638"
           y="0"
           x="0"
           style="font-size:19.88999939px;font-variant:normal;font-weight:normal;writing-mode:lr-tb;fill:#000000;fill-opacity:1;fill-rule:nonzero;stroke:none;font-family:Times;-inkscape-font-specification:Times-Roman">i</tspan>
      </text>
    </g>
    <path
       id="path4640"
       style="fill:none;stroke:#000000;stroke-width:1.14750004;stroke-linecap:butt;stroke-linejoin:miter;stroke-miterlimit:10;stroke-opacity:1;stroke-dasharray:none"
       d="m -286.70487,1279.7751 0,344.25 497.25,0 0,-344.25 -497.25,0 z" />
  </g>
</svg>
