<?xml version="1.0" encoding="UTF-8" standalone="no"?>
<!-- Created with Inkscape (http://www.inkscape.org/) -->

<svg
   xmlns:ns0="http://www.iki.fi/pav/software/textext/"
   xmlns:dc="http://purl.org/dc/elements/1.1/"
   xmlns:cc="http://creativecommons.org/ns#"
   xmlns:rdf="http://www.w3.org/1999/02/22-rdf-syntax-ns#"
   xmlns:svg="http://www.w3.org/2000/svg"
   xmlns="http://www.w3.org/2000/svg"
   xmlns:xlink="http://www.w3.org/1999/xlink"
   xmlns:sodipodi="http://sodipodi.sourceforge.net/DTD/sodipodi-0.dtd"
   xmlns:inkscape="http://www.inkscape.org/namespaces/inkscape"
   sodipodi:docname="subgrid_inserting.svg"
   inkscape:version="0.47 r22583"
   version="1.1"
   id="svg2"
   height="468.62686"
   width="654.78424">
  <sodipodi:namedview
     id="base"
     pagecolor="#ffffff"
     bordercolor="#666666"
     borderopacity="1.0"
     inkscape:pageopacity="0.0"
     inkscape:pageshadow="2"
     inkscape:zoom="1.1413076"
     inkscape:cx="352.1088"
     inkscape:cy="175.36148"
     inkscape:document-units="px"
     inkscape:current-layer="svg2"
     showgrid="false"
     inkscape:window-width="1920"
     inkscape:window-height="1005"
     inkscape:window-x="0"
     inkscape:window-y="24"
     inkscape:window-maximized="1" />
  <defs
     id="defs4">
    <marker
       style="overflow:visible"
       id="Arrow1Lend"
       refX="0"
       refY="0"
       orient="auto"
       inkscape:stockid="Arrow1Lend">
      <path
         transform="matrix(-0.8,0,0,-0.8,-10,0)"
         style="fill-rule:evenodd;stroke:#000000;stroke-width:1pt;marker-start:none"
         d="M 0,0 5,-5 -12.5,0 5,5 0,0 z"
         id="path3759" />
    </marker>
    <marker
       style="overflow:visible"
       id="Arrow1Lstart"
       refX="0"
       refY="0"
       orient="auto"
       inkscape:stockid="Arrow1Lstart">
      <path
         transform="matrix(0.8,0,0,0.8,10,0)"
         style="fill-rule:evenodd;stroke:#000000;stroke-width:1pt;marker-start:none"
         d="M 0,0 5,-5 -12.5,0 5,5 0,0 z"
         id="path3756" />
    </marker>
    <marker
       style="overflow:visible"
       id="Arrow1Mstart"
       refX="0"
       refY="0"
       orient="auto"
       inkscape:stockid="Arrow1Mstart">
      <path
         transform="matrix(0.4,0,0,0.4,4,0)"
         style="fill-rule:evenodd;stroke:#000000;stroke-width:1pt;marker-start:none"
         d="M 0,0 5,-5 -12.5,0 5,5 0,0 z"
         id="path3762" />
    </marker>
    <inkscape:perspective
       id="perspective10"
       inkscape:persp3d-origin="372.04724 : 350.78739 : 1"
       inkscape:vp_z="744.09448 : 526.18109 : 1"
       inkscape:vp_y="0 : 1000 : 0"
       inkscape:vp_x="0 : 526.18109 : 1"
       sodipodi:type="inkscape:persp3d" />
    <inkscape:perspective
       sodipodi:type="inkscape:persp3d"
       inkscape:vp_x="0 : 0.5 : 1"
       inkscape:vp_y="0 : 1000 : 0"
       inkscape:vp_z="1 : 0.5 : 1"
       inkscape:persp3d-origin="0.5 : 0.33333333 : 1"
       id="perspective2866" />
    <inkscape:perspective
       sodipodi:type="inkscape:persp3d"
       inkscape:vp_x="0 : 0.5 : 1"
       inkscape:vp_y="0 : 1000 : 0"
       inkscape:vp_z="1 : 0.5 : 1"
       inkscape:persp3d-origin="0.5 : 0.33333333 : 1"
       id="perspective4608" />
    <inkscape:perspective
       sodipodi:type="inkscape:persp3d"
       inkscape:vp_x="0 : 0.5 : 1"
       inkscape:vp_y="0 : 1000 : 0"
       inkscape:vp_z="1 : 0.5 : 1"
       inkscape:persp3d-origin="0.5 : 0.33333333 : 1"
       id="perspective22366" />
    <inkscape:perspective
       sodipodi:type="inkscape:persp3d"
       inkscape:vp_x="0 : 0.5 : 1"
       inkscape:vp_y="0 : 1000 : 0"
       inkscape:vp_z="1 : 0.5 : 1"
       inkscape:persp3d-origin="0.5 : 0.33333333 : 1"
       id="perspective22465" />
  </defs>
  <metadata
     id="metadata7">
    <rdf:RDF>
      <cc:Work
         rdf:about="">
        <dc:format>image/svg+xml</dc:format>
        <dc:type
           rdf:resource="http://purl.org/dc/dcmitype/StillImage" />
        <dc:title />
      </cc:Work>
    </rdf:RDF>
  </metadata>
  <g
     transform="translate(182.82312,-291.71999)"
     id="layer1"
     inkscape:groupmode="layer"
     inkscape:label="Ebene 1">
    <path
       d="m 23.507501,699.94664 0,-70.01375"
       style="fill:none;stroke:#000000;stroke-width:0.75015002;stroke-linecap:butt;stroke-linejoin:miter;stroke-miterlimit:10;stroke-opacity:1;stroke-dasharray:none"
       id="path4618" />
    <path
       d="m 23.01253,349.84653 0,350.12983 422.64436,0"
       style="fill:none;stroke:#000000;stroke-width:1;stroke-linecap:butt;stroke-linejoin:miter;stroke-miterlimit:10;stroke-opacity:1;stroke-dasharray:none;marker-start:url(#Arrow1Lstart);marker-end:url(#Arrow1Lend)"
       id="path4636" />
    <path
       id="path21197"
       style="fill:none;stroke:#000000;stroke-width:0.75015002;stroke-linecap:butt;stroke-linejoin:miter;stroke-miterlimit:10;stroke-opacity:1;stroke-dasharray:none"
       d="m 23.507501,699.94664 0,-70.01375" />
    <path
       d="m 183.31722,710.71564 0,-162.76326"
       style="fill:none;stroke:#000000;stroke-width:1;stroke-linecap:butt;stroke-linejoin:miter;stroke-miterlimit:10;stroke-opacity:1;stroke-dasharray:none"
       id="path22477" />
    <path
       d="m 256.04237,711.25966 0,-247.81283"
       style="fill:none;stroke:#000000;stroke-width:1;stroke-linecap:butt;stroke-linejoin:miter;stroke-miterlimit:10;stroke-opacity:1;stroke-dasharray:none"
       id="path22479" />
    <g
       ns0:text="$\\omega(i)$"
       ns0:preamble=""
       transform="matrix(4.8305043,0,0,4.8305043,-1094.1523,-323.10961)"
       id="g70015">
      <defs
         id="defs70017">
        <g
           id="g70019">
          <symbol
             style="overflow:visible"
             overflow="visible"
             id="textext-87781183-0">
            <path
               style="stroke:none"
               d=""
               id="path70022" />
          </symbol>
          <symbol
             style="overflow:visible"
             overflow="visible"
             id="textext-87781183-1">
            <path
               style="stroke:none"
               d="m 6.03125,-3.703125 c 0,-0.453125 -0.171875,-0.703125 -0.40625,-0.703125 -0.25,0 -0.515625,0.234375 -0.515625,0.46875 0,0.09375 0.046875,0.203125 0.140625,0.296875 0.171875,0.15625 0.359375,0.421875 0.359375,0.84375 0,0.390625 -0.203125,0.96875 -0.5,1.421875 C 4.8125,-0.953125 4.4375,-0.609375 3.96875,-0.609375 3.40625,-0.609375 3.09375,-0.96875 3,-1.5 c 0.109375,-0.265625 0.34375,-0.90625 0.34375,-1.1875 0,-0.109375 -0.046875,-0.21875 -0.1875,-0.21875 -0.078125,0 -0.1875,0.03125 -0.265625,0.171875 C 2.78125,-2.53125 2.65625,-1.890625 2.65625,-1.53125 2.328125,-1.0625 1.9375,-0.609375 1.3125,-0.609375 c -0.671875,0 -0.875,-0.59375 -0.875,-1.140625 0,-1.25 1.015625,-2.296875 1.015625,-2.421875 0,-0.109375 -0.078125,-0.1875 -0.1875,-0.1875 -0.125,0 -0.203125,0.125 -0.265625,0.21875 -0.5,0.734375 -0.875,1.921875 -0.875,2.828125 0,0.6875 0.21875,1.421875 1.046875,1.421875 0.703125,0 1.171875,-0.5 1.53125,-1.046875 0.09375,0.578125 0.484375,1.046875 1.09375,1.046875 0.78125,0 1.25,-0.609375 1.609375,-1.359375 0.25,-0.484375 0.625,-1.84375 0.625,-2.453125 z m 0,0"
               id="path70025" />
          </symbol>
          <symbol
             style="overflow:visible"
             overflow="visible"
             id="textext-87781183-2">
            <path
               style="stroke:none"
               d="m 2.828125,-6.234375 c 0,-0.203125 -0.140625,-0.359375 -0.359375,-0.359375 -0.28125,0 -0.546875,0.265625 -0.546875,0.53125 0,0.1875 0.140625,0.359375 0.375,0.359375 0.234375,0 0.53125,-0.234375 0.53125,-0.53125 z m -0.75,3.75 c 0.109375,-0.28125 0.109375,-0.3125 0.21875,-0.578125 0.078125,-0.203125 0.125,-0.34375 0.125,-0.53125 0,-0.4375 -0.3125,-0.8125 -0.8125,-0.8125 -0.9375,0 -1.3125,1.453125 -1.3125,1.53125 0,0.109375 0.09375,0.109375 0.109375,0.109375 0.109375,0 0.109375,-0.03125 0.15625,-0.1875 0.28125,-0.9375 0.671875,-1.234375 1.015625,-1.234375 0.078125,0 0.25,0 0.25,0.3125 0,0.21875 -0.078125,0.421875 -0.109375,0.53125 -0.078125,0.25 -0.53125,1.40625 -0.6875,1.84375 -0.109375,0.25 -0.234375,0.578125 -0.234375,0.796875 0,0.46875 0.34375,0.8125 0.8125,0.8125 0.9375,0 1.3125,-1.4375 1.3125,-1.53125 0,-0.109375 -0.09375,-0.109375 -0.125,-0.109375 -0.09375,0 -0.09375,0.03125 -0.140625,0.1875 -0.1875,0.625 -0.515625,1.234375 -1.015625,1.234375 -0.171875,0 -0.25,-0.09375 -0.25,-0.328125 0,-0.25 0.0625,-0.390625 0.296875,-1 l 0.390625,-1.046875 z m 0,0"
               id="path70028" />
          </symbol>
          <symbol
             style="overflow:visible"
             overflow="visible"
             id="textext-87781183-3">
            <path
               style="stroke:none"
               d=""
               id="path70031" />
          </symbol>
          <symbol
             style="overflow:visible"
             overflow="visible"
             id="textext-87781183-4">
            <path
               style="stroke:none"
               d="m 3.296875,2.390625 c 0,-0.03125 0,-0.046875 -0.171875,-0.21875 C 1.890625,0.921875 1.5625,-0.96875 1.5625,-2.5 c 0,-1.734375 0.375,-3.46875 1.609375,-4.703125 0.125,-0.125 0.125,-0.140625 0.125,-0.171875 0,-0.078125 -0.03125,-0.109375 -0.09375,-0.109375 -0.109375,0 -1,0.6875 -1.59375,1.953125 -0.5,1.09375 -0.625,2.203125 -0.625,3.03125 0,0.78125 0.109375,1.984375 0.65625,3.125 C 2.25,1.84375 3.09375,2.5 3.203125,2.5 c 0.0625,0 0.09375,-0.03125 0.09375,-0.109375 z m 0,0"
               id="path70034" />
          </symbol>
          <symbol
             style="overflow:visible"
             overflow="visible"
             id="textext-87781183-5">
            <path
               style="stroke:none"
               d="m 2.875,-2.5 c 0,-0.765625 -0.109375,-1.96875 -0.65625,-3.109375 -0.59375,-1.21875 -1.453125,-1.875 -1.546875,-1.875 -0.0625,0 -0.109375,0.046875 -0.109375,0.109375 0,0.03125 0,0.046875 0.1875,0.234375 0.984375,0.984375 1.546875,2.5625 1.546875,4.640625 0,1.71875 -0.359375,3.46875 -1.59375,4.71875 C 0.5625,2.34375 0.5625,2.359375 0.5625,2.390625 0.5625,2.453125 0.609375,2.5 0.671875,2.5 0.765625,2.5 1.671875,1.8125 2.25,0.546875 2.765625,-0.546875 2.875,-1.65625 2.875,-2.5 z m 0,0"
               id="path70037" />
          </symbol>
        </g>
      </defs>
      <g
         id="textext-87781183-6">
        <g
           style="fill:#000000;fill-opacity:1"
           id="g70040">
          <use
             height="415.69595"
             width="716.82086"
             xlink:href="#textext-87781183-1"
             x="223.43201"
             y="134.765"
             id="use70042" />
        </g>
        <g
           style="fill:#000000;fill-opacity:1"
           id="g70044">
          <use
             height="415.69595"
             width="716.82086"
             xlink:href="#textext-87781183-4"
             x="229.991"
             y="134.765"
             id="use70046" />
        </g>
        <g
           style="fill:#000000;fill-opacity:1"
           id="g70048">
          <use
             height="415.69595"
             width="716.82086"
             xlink:href="#textext-87781183-2"
             x="233.86501"
             y="134.765"
             id="use70050" />
        </g>
        <g
           style="fill:#000000;fill-opacity:1"
           id="g70052">
          <use
             height="415.69595"
             width="716.82086"
             xlink:href="#textext-87781183-5"
             x="237.297"
             y="134.765"
             id="use70054" />
        </g>
      </g>
    </g>
    <g
       id="g70441"
       transform="matrix(4.8305043,0,0,4.8305043,-621.44228,62.819241)"
       ns0:preamble=""
       ns0:text="$i$">
      <defs
         id="defs70443">
        <g
           id="g70445">
          <symbol
             id="textext-eae389a3-0"
             overflow="visible"
             style="overflow:visible">
            <path
               id="path70448"
               d=""
               style="stroke:none" />
          </symbol>
          <symbol
             id="textext-eae389a3-1"
             overflow="visible"
             style="overflow:visible">
            <path
               id="path70451"
               d="m 2.828125,-6.234375 c 0,-0.203125 -0.140625,-0.359375 -0.359375,-0.359375 -0.28125,0 -0.546875,0.265625 -0.546875,0.53125 0,0.1875 0.140625,0.359375 0.375,0.359375 0.234375,0 0.53125,-0.234375 0.53125,-0.53125 z m -0.75,3.75 c 0.109375,-0.28125 0.109375,-0.3125 0.21875,-0.578125 0.078125,-0.203125 0.125,-0.34375 0.125,-0.53125 0,-0.4375 -0.3125,-0.8125 -0.8125,-0.8125 -0.9375,0 -1.3125,1.453125 -1.3125,1.53125 0,0.109375 0.09375,0.109375 0.109375,0.109375 0.109375,0 0.109375,-0.03125 0.15625,-0.1875 0.28125,-0.9375 0.671875,-1.234375 1.015625,-1.234375 0.078125,0 0.25,0 0.25,0.3125 0,0.21875 -0.078125,0.421875 -0.109375,0.53125 -0.078125,0.25 -0.53125,1.40625 -0.6875,1.84375 -0.109375,0.25 -0.234375,0.578125 -0.234375,0.796875 0,0.46875 0.34375,0.8125 0.8125,0.8125 0.9375,0 1.3125,-1.4375 1.3125,-1.53125 0,-0.109375 -0.09375,-0.109375 -0.125,-0.109375 -0.09375,0 -0.09375,0.03125 -0.140625,0.1875 -0.1875,0.625 -0.515625,1.234375 -1.015625,1.234375 -0.171875,0 -0.25,-0.09375 -0.25,-0.328125 0,-0.25 0.0625,-0.390625 0.296875,-1 l 0.390625,-1.046875 z m 0,0"
               style="stroke:none" />
          </symbol>
        </g>
      </defs>
      <g
         id="textext-eae389a3-2">
        <g
           id="g70454"
           style="fill:#000000;fill-opacity:1">
          <use
             id="use70456"
             y="134.765"
             x="223.43201"
             xlink:href="#textext-eae389a3-1"
             width="716.82086"
             height="415.69595" />
        </g>
      </g>
    </g>
    <path
       transform="matrix(1.2780721,0,0,1.2780721,81.868449,452.19039)"
       d="m -20.192315,176.31592 c 0,2.23038 -1.808081,4.03846 -4.038463,4.03846 -2.230381,0 -4.038462,-1.80808 -4.038462,-4.03846 0,-2.23038 1.808081,-4.03846 4.038462,-4.03846 2.230382,0 4.038463,1.80808 4.038463,4.03846 z"
       sodipodi:ry="4.0384626"
       sodipodi:rx="4.0384626"
       sodipodi:cy="176.31592"
       sodipodi:cx="-24.230778"
       id="path70644"
       style="fill:#000000;fill-opacity:1;stroke:#000000;stroke-width:1;stroke-miterlimit:4;stroke-opacity:1;stroke-dasharray:none;stroke-dashoffset:0"
       sodipodi:type="arc" />
    <path
       sodipodi:type="arc"
       style="fill:#000000;fill-opacity:1;stroke:#000000;stroke-width:1;stroke-miterlimit:4;stroke-opacity:1;stroke-dasharray:none;stroke-dashoffset:0"
       id="path70646"
       sodipodi:cx="-24.230778"
       sodipodi:cy="176.31592"
       sodipodi:rx="4.0384626"
       sodipodi:ry="4.0384626"
       d="m -20.192315,176.31592 c 0,2.23038 -1.808081,4.03846 -4.038463,4.03846 -2.230381,0 -4.038462,-1.80808 -4.038462,-4.03846 0,-2.23038 1.808081,-4.03846 4.038462,-4.03846 2.230382,0 4.038463,1.80808 4.038463,4.03846 z"
       transform="matrix(1.2780721,0,0,1.2780721,127.94517,408.07438)" />
    <path
       transform="matrix(1.2780721,0,0,1.2780721,170.10047,366.89943)"
       d="m -20.192315,176.31592 c 0,2.23038 -1.808081,4.03846 -4.038463,4.03846 -2.230381,0 -4.038462,-1.80808 -4.038462,-4.03846 0,-2.23038 1.808081,-4.03846 4.038462,-4.03846 2.230382,0 4.038463,1.80808 4.038463,4.03846 z"
       sodipodi:ry="4.0384626"
       sodipodi:rx="4.0384626"
       sodipodi:cy="176.31592"
       sodipodi:cx="-24.230778"
       id="path70648"
       style="fill:#000000;fill-opacity:1;stroke:#000000;stroke-width:1;stroke-miterlimit:4;stroke-opacity:1;stroke-dasharray:none;stroke-dashoffset:0"
       sodipodi:type="arc" />
    <path
       transform="matrix(1.2780721,0,0,1.2780721,214.21649,319.84235)"
       d="m -20.192315,176.31592 c 0,2.23038 -1.808081,4.03846 -4.038463,4.03846 -2.230381,0 -4.038462,-1.80808 -4.038462,-4.03846 0,-2.23038 1.808081,-4.03846 4.038462,-4.03846 2.230382,0 4.038463,1.80808 4.038463,4.03846 z"
       sodipodi:ry="4.0384626"
       sodipodi:rx="4.0384626"
       sodipodi:cy="176.31592"
       sodipodi:cx="-24.230778"
       id="path70650"
       style="fill:#000000;fill-opacity:1;stroke:#000000;stroke-width:1;stroke-miterlimit:4;stroke-opacity:1;stroke-dasharray:none;stroke-dashoffset:0"
       sodipodi:type="arc" />
    <path
       sodipodi:type="arc"
       style="fill:#000000;fill-opacity:1;stroke:#000000;stroke-width:1;stroke-miterlimit:4;stroke-opacity:1;stroke-dasharray:none;stroke-dashoffset:0"
       id="path70652"
       sodipodi:cx="-24.230778"
       sodipodi:cy="176.31592"
       sodipodi:rx="4.0384626"
       sodipodi:ry="4.0384626"
       d="m -20.192315,176.31592 c 0,2.23038 -1.808081,4.03846 -4.038463,4.03846 -2.230381,0 -4.038462,-1.80808 -4.038462,-4.03846 0,-2.23038 1.808081,-4.03846 4.038462,-4.03846 2.230382,0 4.038463,1.80808 4.038463,4.03846 z"
       transform="matrix(1.2780721,0,0,1.2780721,250.48966,278.6674)" />
    <path
       transform="matrix(1.2780721,0,0,1.2780721,286.76283,235.53174)"
       d="m -20.192315,176.31592 c 0,2.23038 -1.808081,4.03846 -4.038463,4.03846 -2.230381,0 -4.038462,-1.80808 -4.038462,-4.03846 0,-2.23038 1.808081,-4.03846 4.038462,-4.03846 2.230382,0 4.038463,1.80808 4.038463,4.03846 z"
       sodipodi:ry="4.0384626"
       sodipodi:rx="4.0384626"
       sodipodi:cy="176.31592"
       sodipodi:cx="-24.230778"
       id="path70654"
       style="fill:#000000;fill-opacity:1;stroke:#000000;stroke-width:1;stroke-miterlimit:4;stroke-opacity:1;stroke-dasharray:none;stroke-dashoffset:0"
       sodipodi:type="arc" />
    <path
       sodipodi:type="arc"
       style="fill:#000000;fill-opacity:1;stroke:#000000;stroke-width:1;stroke-miterlimit:4;stroke-opacity:1;stroke-dasharray:none;stroke-dashoffset:0"
       id="path70656"
       sodipodi:cx="-24.230778"
       sodipodi:cy="176.31592"
       sodipodi:rx="4.0384626"
       sodipodi:ry="4.0384626"
       d="m -20.192315,176.31592 c 0,2.23038 -1.808081,4.03846 -4.038463,4.03846 -2.230381,0 -4.038462,-1.80808 -4.038462,-4.03846 0,-2.23038 1.808081,-4.03846 4.038462,-4.03846 2.230382,0 4.038463,1.80808 4.038463,4.03846 z"
       transform="matrix(1.2780721,0,0,1.2780721,322.05564,187.4943)" />
    <path
       transform="matrix(1.2780721,0,0,1.2780721,357.34845,140.43722)"
       d="m -20.192315,176.31592 c 0,2.23038 -1.808081,4.03846 -4.038463,4.03846 -2.230381,0 -4.038462,-1.80808 -4.038462,-4.03846 0,-2.23038 1.808081,-4.03846 4.038462,-4.03846 2.230382,0 4.038463,1.80808 4.038463,4.03846 z"
       sodipodi:ry="4.0384626"
       sodipodi:rx="4.0384626"
       sodipodi:cy="176.31592"
       sodipodi:cx="-24.230778"
       id="path70658"
       style="fill:#000000;fill-opacity:1;stroke:#000000;stroke-width:1;stroke-miterlimit:4;stroke-opacity:1;stroke-dasharray:none;stroke-dashoffset:0"
       sodipodi:type="arc" />
    <path
       id="path71188"
       style="fill:none;stroke:#000000;stroke-width:1;stroke-linecap:butt;stroke-linejoin:miter;stroke-miterlimit:10;stroke-opacity:1;stroke-dasharray:none"
       d="m 13.202806,560.20302 20.583557,0" />
    <path
       d="m 13.202806,436.99928 20.583557,0"
       style="fill:none;stroke:#000000;stroke-width:1;stroke-linecap:butt;stroke-linejoin:miter;stroke-miterlimit:10;stroke-opacity:1;stroke-dasharray:none"
       id="path71190" />
    <path
       id="path71192"
       style="fill:none;stroke:#000000;stroke-width:1;stroke-linecap:butt;stroke-linejoin:miter;stroke-miterlimit:10;stroke-opacity:1;stroke-dasharray:4, 4;stroke-dashoffset:0"
       d="m 19.957536,436.99928 298.656294,0" />
    <path
       d="m 19.957536,560.20302 298.656294,0"
       style="fill:none;stroke:#000000;stroke-width:1;stroke-linecap:butt;stroke-linejoin:miter;stroke-miterlimit:10;stroke-opacity:1;stroke-dasharray:4, 4;stroke-dashoffset:0"
       id="path71194" />
    <g
       ns0:text="$i_l$"
       ns0:preamble=""
       transform="matrix(4.8305043,0,0,4.8305043,-907.7092,101.84524)"
       id="g72428">
      <defs
         id="defs72430">
        <g
           id="g72432">
          <symbol
             style="overflow:visible"
             overflow="visible"
             id="textext-25a8d8b4-0">
            <path
               style="stroke:none"
               d=""
               id="path72435" />
          </symbol>
          <symbol
             style="overflow:visible"
             overflow="visible"
             id="textext-25a8d8b4-1">
            <path
               style="stroke:none"
               d="m 2.828125,-6.234375 c 0,-0.203125 -0.140625,-0.359375 -0.359375,-0.359375 -0.28125,0 -0.546875,0.265625 -0.546875,0.53125 0,0.1875 0.140625,0.359375 0.375,0.359375 0.234375,0 0.53125,-0.234375 0.53125,-0.53125 z m -0.75,3.75 c 0.109375,-0.28125 0.109375,-0.3125 0.21875,-0.578125 0.078125,-0.203125 0.125,-0.34375 0.125,-0.53125 0,-0.4375 -0.3125,-0.8125 -0.8125,-0.8125 -0.9375,0 -1.3125,1.453125 -1.3125,1.53125 0,0.109375 0.09375,0.109375 0.109375,0.109375 0.109375,0 0.109375,-0.03125 0.15625,-0.1875 0.28125,-0.9375 0.671875,-1.234375 1.015625,-1.234375 0.078125,0 0.25,0 0.25,0.3125 0,0.21875 -0.078125,0.421875 -0.109375,0.53125 -0.078125,0.25 -0.53125,1.40625 -0.6875,1.84375 -0.109375,0.25 -0.234375,0.578125 -0.234375,0.796875 0,0.46875 0.34375,0.8125 0.8125,0.8125 0.9375,0 1.3125,-1.4375 1.3125,-1.53125 0,-0.109375 -0.09375,-0.109375 -0.125,-0.109375 -0.09375,0 -0.09375,0.03125 -0.140625,0.1875 -0.1875,0.625 -0.515625,1.234375 -1.015625,1.234375 -0.171875,0 -0.25,-0.09375 -0.25,-0.328125 0,-0.25 0.0625,-0.390625 0.296875,-1 l 0.390625,-1.046875 z m 0,0"
               id="path72438" />
          </symbol>
          <symbol
             style="overflow:visible"
             overflow="visible"
             id="textext-25a8d8b4-2">
            <path
               style="stroke:none"
               d=""
               id="path72441" />
          </symbol>
          <symbol
             style="overflow:visible"
             overflow="visible"
             id="textext-25a8d8b4-3">
            <path
               style="stroke:none"
               d="M 1.96875,-4.625 C 1.96875,-4.640625 2,-4.734375 2,-4.734375 2,-4.78125 1.96875,-4.84375 1.875,-4.84375 c -0.140625,0 -0.71875,0.0625 -0.890625,0.078125 -0.046875,0 -0.140625,0.015625 -0.140625,0.15625 0,0.09375 0.09375,0.09375 0.171875,0.09375 0.34375,0 0.34375,0.0625 0.34375,0.109375 0,0.046875 -0.015625,0.09375 -0.03125,0.15625 l -0.875,3.4375 C 0.4375,-0.734375 0.4375,-0.65625 0.4375,-0.59375 c 0,0.453125 0.390625,0.65625 0.71875,0.65625 0.171875,0 0.390625,-0.046875 0.5625,-0.359375 C 1.875,-0.5625 1.96875,-0.96875 1.96875,-1 c 0,-0.09375 -0.09375,-0.09375 -0.109375,-0.09375 -0.109375,0 -0.125,0.046875 -0.140625,0.171875 C 1.625,-0.578125 1.484375,-0.125 1.1875,-0.125 1,-0.125 0.953125,-0.296875 0.953125,-0.46875 0.953125,-0.546875 0.96875,-0.671875 1,-0.75 l 0.96875,-3.875 z m 0,0"
               id="path72444" />
          </symbol>
        </g>
      </defs>
      <g
         id="textext-25a8d8b4-4">
        <g
           style="fill:#000000;fill-opacity:1"
           id="g72447">
          <use
             height="415.69595"
             width="716.82086"
             xlink:href="#textext-25a8d8b4-1"
             x="223.43201"
             y="134.765"
             id="use72449" />
        </g>
        <g
           style="fill:#000000;fill-opacity:1"
           id="g72451">
          <use
             height="415.69595"
             width="716.82086"
             xlink:href="#textext-25a8d8b4-3"
             x="226.864"
             y="136.259"
             id="use72453" />
        </g>
      </g>
    </g>
    <g
       id="g72773"
       transform="matrix(4.8305043,0,0,4.8305043,-833.98174,101.84524)"
       ns0:preamble=""
       ns0:text="$i_r$">
      <defs
         id="defs72775">
        <g
           id="g72777">
          <symbol
             id="textext-29c1aace-0"
             overflow="visible"
             style="overflow:visible">
            <path
               id="path72780"
               d=""
               style="stroke:none" />
          </symbol>
          <symbol
             id="textext-29c1aace-1"
             overflow="visible"
             style="overflow:visible">
            <path
               id="path72783"
               d="m 2.828125,-6.234375 c 0,-0.203125 -0.140625,-0.359375 -0.359375,-0.359375 -0.28125,0 -0.546875,0.265625 -0.546875,0.53125 0,0.1875 0.140625,0.359375 0.375,0.359375 0.234375,0 0.53125,-0.234375 0.53125,-0.53125 z m -0.75,3.75 c 0.109375,-0.28125 0.109375,-0.3125 0.21875,-0.578125 0.078125,-0.203125 0.125,-0.34375 0.125,-0.53125 0,-0.4375 -0.3125,-0.8125 -0.8125,-0.8125 -0.9375,0 -1.3125,1.453125 -1.3125,1.53125 0,0.109375 0.09375,0.109375 0.109375,0.109375 0.109375,0 0.109375,-0.03125 0.15625,-0.1875 0.28125,-0.9375 0.671875,-1.234375 1.015625,-1.234375 0.078125,0 0.25,0 0.25,0.3125 0,0.21875 -0.078125,0.421875 -0.109375,0.53125 -0.078125,0.25 -0.53125,1.40625 -0.6875,1.84375 -0.109375,0.25 -0.234375,0.578125 -0.234375,0.796875 0,0.46875 0.34375,0.8125 0.8125,0.8125 0.9375,0 1.3125,-1.4375 1.3125,-1.53125 0,-0.109375 -0.09375,-0.109375 -0.125,-0.109375 -0.09375,0 -0.09375,0.03125 -0.140625,0.1875 -0.1875,0.625 -0.515625,1.234375 -1.015625,1.234375 -0.171875,0 -0.25,-0.09375 -0.25,-0.328125 0,-0.25 0.0625,-0.390625 0.296875,-1 l 0.390625,-1.046875 z m 0,0"
               style="stroke:none" />
          </symbol>
          <symbol
             id="textext-29c1aace-2"
             overflow="visible"
             style="overflow:visible">
            <path
               id="path72786"
               d=""
               style="stroke:none" />
          </symbol>
          <symbol
             id="textext-29c1aace-3"
             overflow="visible"
             style="overflow:visible">
            <path
               id="path72789"
               d="m 1.640625,-1.40625 c 0,-0.046875 0.171875,-0.671875 0.171875,-0.703125 0.015625,-0.0625 0.21875,-0.40625 0.453125,-0.578125 0.0625,-0.046875 0.25,-0.1875 0.5625,-0.1875 0.0625,0 0.234375,0 0.375,0.09375 -0.21875,0.0625 -0.296875,0.265625 -0.296875,0.390625 0,0.140625 0.109375,0.25 0.265625,0.25 0.171875,0 0.390625,-0.125 0.390625,-0.421875 0,-0.359375 -0.375,-0.515625 -0.734375,-0.515625 -0.359375,0 -0.671875,0.15625 -0.984375,0.5 -0.125,-0.421875 -0.546875,-0.5 -0.71875,-0.5 -0.25,0 -0.421875,0.171875 -0.546875,0.359375 -0.15625,0.265625 -0.25,0.671875 -0.25,0.71875 0,0.078125 0.09375,0.078125 0.125,0.078125 0.09375,0 0.09375,-0.015625 0.140625,-0.203125 0.109375,-0.421875 0.25,-0.75 0.515625,-0.75 0.1875,0 0.234375,0.15625 0.234375,0.34375 0,0.125 -0.0625,0.390625 -0.125,0.578125 -0.046875,0.1875 -0.109375,0.46875 -0.140625,0.625 L 0.84375,-0.4375 C 0.828125,-0.34375 0.78125,-0.171875 0.78125,-0.15625 0.78125,0 0.90625,0.0625 1.015625,0.0625 1.125,0.0625 1.265625,0 1.3125,-0.125 1.328125,-0.171875 1.40625,-0.484375 1.453125,-0.65625 l 0.1875,-0.75 z m 0,0"
               style="stroke:none" />
          </symbol>
        </g>
      </defs>
      <g
         id="textext-29c1aace-4">
        <g
           id="g72792"
           style="fill:#000000;fill-opacity:1">
          <use
             id="use72794"
             y="134.765"
             x="223.43201"
             xlink:href="#textext-29c1aace-1"
             width="716.82086"
             height="415.69595" />
        </g>
        <g
           id="g72796"
           style="fill:#000000;fill-opacity:1">
          <use
             id="use72798"
             y="136.259"
             x="226.864"
             xlink:href="#textext-29c1aace-3"
             width="716.82086"
             height="415.69595" />
        </g>
      </g>
    </g>
    <g
       ns0:text="$\\epsilon_r + \\delta \\epsilon_r$"
       ns0:preamble=""
       transform="matrix(4.8305043,0,0,4.8305043,-1262.7162,-207.934)"
       id="g73107">
      <defs
         id="defs73109">
        <g
           id="g73111">
          <symbol
             overflow="visible"
             id="textext-872d9d1a-0">
            <path
               style="stroke:none;"
               d=""
               id="path73114" />
          </symbol>
          <symbol
             overflow="visible"
             id="textext-872d9d1a-1">
            <path
               style="stroke:none;"
               d="M 2.96875 -2.25 C 3.125 -2.25 3.3125 -2.25 3.3125 -2.421875 C 3.3125 -2.5625 3.1875 -2.5625 3.015625 -2.5625 L 1.40625 -2.5625 C 1.640625 -3.40625 2.203125 -3.984375 3.109375 -3.984375 L 3.421875 -3.984375 C 3.59375 -3.984375 3.75 -3.984375 3.75 -4.15625 C 3.75 -4.296875 3.625 -4.296875 3.453125 -4.296875 L 3.09375 -4.296875 C 1.796875 -4.296875 0.46875 -3.296875 0.46875 -1.78125 C 0.46875 -0.671875 1.21875 0.109375 2.265625 0.109375 C 2.921875 0.109375 3.5625 -0.296875 3.5625 -0.40625 C 3.5625 -0.421875 3.5625 -0.53125 3.46875 -0.53125 C 3.453125 -0.53125 3.421875 -0.53125 3.34375 -0.484375 C 3.03125 -0.28125 2.65625 -0.109375 2.296875 -0.109375 C 1.71875 -0.109375 1.21875 -0.53125 1.21875 -1.40625 C 1.21875 -1.75 1.296875 -2.140625 1.328125 -2.25 L 2.96875 -2.25 Z M 2.96875 -2.25 "
               id="path73117" />
          </symbol>
          <symbol
             overflow="visible"
             id="textext-872d9d1a-2">
            <path
               style="stroke:none;"
               d="M 2.625 -4.359375 C 1.390625 -4.0625 0.421875 -2.765625 0.421875 -1.5625 C 0.421875 -0.59375 1.0625 0.125 2 0.125 C 3.15625 0.125 3.984375 -1.453125 3.984375 -2.828125 C 3.984375 -3.734375 3.59375 -4.234375 3.25 -4.671875 C 2.890625 -5.125 2.296875 -5.875 2.296875 -6.3125 C 2.296875 -6.53125 2.5 -6.765625 2.84375 -6.765625 C 3.15625 -6.765625 3.34375 -6.640625 3.5625 -6.5 C 3.765625 -6.375 3.953125 -6.25 4.109375 -6.25 C 4.359375 -6.25 4.5 -6.484375 4.5 -6.65625 C 4.5 -6.875 4.34375 -6.890625 3.984375 -6.984375 C 3.46875 -7.09375 3.328125 -7.09375 3.171875 -7.09375 C 2.390625 -7.09375 2.03125 -6.65625 2.03125 -6.0625 C 2.03125 -5.515625 2.328125 -4.96875 2.625 -4.359375 Z M 2.75 -4.140625 C 3 -3.671875 3.296875 -3.140625 3.296875 -2.421875 C 3.296875 -1.765625 2.921875 -0.09375 2 -0.09375 C 1.453125 -0.09375 1.03125 -0.515625 1.03125 -1.28125 C 1.03125 -1.90625 1.40625 -3.78125 2.75 -4.140625 Z M 2.75 -4.140625 "
               id="path73120" />
          </symbol>
          <symbol
             overflow="visible"
             id="textext-872d9d1a-3">
            <path
               style="stroke:none;"
               d=""
               id="path73123" />
          </symbol>
          <symbol
             overflow="visible"
             id="textext-872d9d1a-4">
            <path
               style="stroke:none;"
               d="M 1.640625 -1.40625 C 1.640625 -1.453125 1.8125 -2.078125 1.8125 -2.109375 C 1.828125 -2.171875 2.03125 -2.515625 2.265625 -2.6875 C 2.328125 -2.734375 2.515625 -2.875 2.828125 -2.875 C 2.890625 -2.875 3.0625 -2.875 3.203125 -2.78125 C 2.984375 -2.71875 2.90625 -2.515625 2.90625 -2.390625 C 2.90625 -2.25 3.015625 -2.140625 3.171875 -2.140625 C 3.34375 -2.140625 3.5625 -2.265625 3.5625 -2.5625 C 3.5625 -2.921875 3.1875 -3.078125 2.828125 -3.078125 C 2.46875 -3.078125 2.15625 -2.921875 1.84375 -2.578125 C 1.71875 -3 1.296875 -3.078125 1.125 -3.078125 C 0.875 -3.078125 0.703125 -2.90625 0.578125 -2.71875 C 0.421875 -2.453125 0.328125 -2.046875 0.328125 -2 C 0.328125 -1.921875 0.421875 -1.921875 0.453125 -1.921875 C 0.546875 -1.921875 0.546875 -1.9375 0.59375 -2.125 C 0.703125 -2.546875 0.84375 -2.875 1.109375 -2.875 C 1.296875 -2.875 1.34375 -2.71875 1.34375 -2.53125 C 1.34375 -2.40625 1.28125 -2.140625 1.21875 -1.953125 C 1.171875 -1.765625 1.109375 -1.484375 1.078125 -1.328125 L 0.84375 -0.4375 C 0.828125 -0.34375 0.78125 -0.171875 0.78125 -0.15625 C 0.78125 0 0.90625 0.0625 1.015625 0.0625 C 1.125 0.0625 1.265625 0 1.3125 -0.125 C 1.328125 -0.171875 1.40625 -0.484375 1.453125 -0.65625 L 1.640625 -1.40625 Z M 1.640625 -1.40625 "
               id="path73126" />
          </symbol>
          <symbol
             overflow="visible"
             id="textext-872d9d1a-5">
            <path
               style="stroke:none;"
               d=""
               id="path73129" />
          </symbol>
          <symbol
             overflow="visible"
             id="textext-872d9d1a-6">
            <path
               style="stroke:none;"
               d="M 4.078125 -2.296875 L 6.859375 -2.296875 C 7 -2.296875 7.1875 -2.296875 7.1875 -2.5 C 7.1875 -2.6875 7 -2.6875 6.859375 -2.6875 L 4.078125 -2.6875 L 4.078125 -5.484375 C 4.078125 -5.625 4.078125 -5.8125 3.875 -5.8125 C 3.671875 -5.8125 3.671875 -5.625 3.671875 -5.484375 L 3.671875 -2.6875 L 0.890625 -2.6875 C 0.75 -2.6875 0.5625 -2.6875 0.5625 -2.5 C 0.5625 -2.296875 0.75 -2.296875 0.890625 -2.296875 L 3.671875 -2.296875 L 3.671875 0.5 C 3.671875 0.640625 3.671875 0.828125 3.875 0.828125 C 4.078125 0.828125 4.078125 0.640625 4.078125 0.5 L 4.078125 -2.296875 Z M 4.078125 -2.296875 "
               id="path73132" />
          </symbol>
        </g>
      </defs>
      <g
         id="textext-872d9d1a-7">
        <g
           style="fill:rgb(0%,0%,0%);fill-opacity:1;"
           id="g73135">
          <use
             xlink:href="#textext-872d9d1a-1"
             x="223.432"
             y="134.765"
             id="use73137" />
        </g>
        <g
           style="fill:rgb(0%,0%,0%);fill-opacity:1;"
           id="g73139">
          <use
             xlink:href="#textext-872d9d1a-4"
             x="227.476"
             y="136.259"
             id="use73141" />
        </g>
        <g
           style="fill:rgb(0%,0%,0%);fill-opacity:1;"
           id="g73143">
          <use
             xlink:href="#textext-872d9d1a-6"
             x="234.102"
             y="134.765"
             id="use73145" />
        </g>
        <g
           style="fill:rgb(0%,0%,0%);fill-opacity:1;"
           id="g73147">
          <use
             xlink:href="#textext-872d9d1a-2"
             x="244.064"
             y="134.765"
             id="use73149" />
        </g>
        <g
           style="fill:rgb(0%,0%,0%);fill-opacity:1;"
           id="g73151">
          <use
             xlink:href="#textext-872d9d1a-1"
             x="248.869958"
             y="134.765"
             id="use73153" />
        </g>
        <g
           style="fill:rgb(0%,0%,0%);fill-opacity:1;"
           id="g73155">
          <use
             xlink:href="#textext-872d9d1a-4"
             x="252.913"
             y="136.259"
             id="use73157" />
        </g>
      </g>
    </g>
    <g
       id="g73444"
       transform="matrix(4.8305043,0,0,4.8305043,-1262.7162,-82.783189)"
       ns0:preamble=""
       ns0:text="$\\epsilon_l - \\delta \\epsilon_l$">
      <defs
         id="defs73446">
        <g
           id="g73448">
          <symbol
             id="textext-79c56682-0"
             overflow="visible">
            <path
               id="path73451"
               d=""
               style="stroke:none;" />
          </symbol>
          <symbol
             id="textext-79c56682-1"
             overflow="visible">
            <path
               id="path73454"
               d="M 2.96875 -2.25 C 3.125 -2.25 3.3125 -2.25 3.3125 -2.421875 C 3.3125 -2.5625 3.1875 -2.5625 3.015625 -2.5625 L 1.40625 -2.5625 C 1.640625 -3.40625 2.203125 -3.984375 3.109375 -3.984375 L 3.421875 -3.984375 C 3.59375 -3.984375 3.75 -3.984375 3.75 -4.15625 C 3.75 -4.296875 3.625 -4.296875 3.453125 -4.296875 L 3.09375 -4.296875 C 1.796875 -4.296875 0.46875 -3.296875 0.46875 -1.78125 C 0.46875 -0.671875 1.21875 0.109375 2.265625 0.109375 C 2.921875 0.109375 3.5625 -0.296875 3.5625 -0.40625 C 3.5625 -0.421875 3.5625 -0.53125 3.46875 -0.53125 C 3.453125 -0.53125 3.421875 -0.53125 3.34375 -0.484375 C 3.03125 -0.28125 2.65625 -0.109375 2.296875 -0.109375 C 1.71875 -0.109375 1.21875 -0.53125 1.21875 -1.40625 C 1.21875 -1.75 1.296875 -2.140625 1.328125 -2.25 L 2.96875 -2.25 Z M 2.96875 -2.25 "
               style="stroke:none;" />
          </symbol>
          <symbol
             id="textext-79c56682-2"
             overflow="visible">
            <path
               id="path73457"
               d="M 2.625 -4.359375 C 1.390625 -4.0625 0.421875 -2.765625 0.421875 -1.5625 C 0.421875 -0.59375 1.0625 0.125 2 0.125 C 3.15625 0.125 3.984375 -1.453125 3.984375 -2.828125 C 3.984375 -3.734375 3.59375 -4.234375 3.25 -4.671875 C 2.890625 -5.125 2.296875 -5.875 2.296875 -6.3125 C 2.296875 -6.53125 2.5 -6.765625 2.84375 -6.765625 C 3.15625 -6.765625 3.34375 -6.640625 3.5625 -6.5 C 3.765625 -6.375 3.953125 -6.25 4.109375 -6.25 C 4.359375 -6.25 4.5 -6.484375 4.5 -6.65625 C 4.5 -6.875 4.34375 -6.890625 3.984375 -6.984375 C 3.46875 -7.09375 3.328125 -7.09375 3.171875 -7.09375 C 2.390625 -7.09375 2.03125 -6.65625 2.03125 -6.0625 C 2.03125 -5.515625 2.328125 -4.96875 2.625 -4.359375 Z M 2.75 -4.140625 C 3 -3.671875 3.296875 -3.140625 3.296875 -2.421875 C 3.296875 -1.765625 2.921875 -0.09375 2 -0.09375 C 1.453125 -0.09375 1.03125 -0.515625 1.03125 -1.28125 C 1.03125 -1.90625 1.40625 -3.78125 2.75 -4.140625 Z M 2.75 -4.140625 "
               style="stroke:none;" />
          </symbol>
          <symbol
             id="textext-79c56682-3"
             overflow="visible">
            <path
               id="path73460"
               d=""
               style="stroke:none;" />
          </symbol>
          <symbol
             id="textext-79c56682-4"
             overflow="visible">
            <path
               id="path73463"
               d="M 1.96875 -4.625 C 1.96875 -4.640625 2 -4.734375 2 -4.734375 C 2 -4.78125 1.96875 -4.84375 1.875 -4.84375 C 1.734375 -4.84375 1.15625 -4.78125 0.984375 -4.765625 C 0.9375 -4.765625 0.84375 -4.75 0.84375 -4.609375 C 0.84375 -4.515625 0.9375 -4.515625 1.015625 -4.515625 C 1.359375 -4.515625 1.359375 -4.453125 1.359375 -4.40625 C 1.359375 -4.359375 1.34375 -4.3125 1.328125 -4.25 L 0.453125 -0.8125 C 0.4375 -0.734375 0.4375 -0.65625 0.4375 -0.59375 C 0.4375 -0.140625 0.828125 0.0625 1.15625 0.0625 C 1.328125 0.0625 1.546875 0.015625 1.71875 -0.296875 C 1.875 -0.5625 1.96875 -0.96875 1.96875 -1 C 1.96875 -1.09375 1.875 -1.09375 1.859375 -1.09375 C 1.75 -1.09375 1.734375 -1.046875 1.71875 -0.921875 C 1.625 -0.578125 1.484375 -0.125 1.1875 -0.125 C 1 -0.125 0.953125 -0.296875 0.953125 -0.46875 C 0.953125 -0.546875 0.96875 -0.671875 1 -0.75 L 1.96875 -4.625 Z M 1.96875 -4.625 "
               style="stroke:none;" />
          </symbol>
          <symbol
             id="textext-79c56682-5"
             overflow="visible">
            <path
               id="path73466"
               d=""
               style="stroke:none;" />
          </symbol>
          <symbol
             id="textext-79c56682-6"
             overflow="visible">
            <path
               id="path73469"
               d="M 6.5625 -2.296875 C 6.734375 -2.296875 6.921875 -2.296875 6.921875 -2.5 C 6.921875 -2.6875 6.734375 -2.6875 6.5625 -2.6875 L 1.171875 -2.6875 C 1 -2.6875 0.828125 -2.6875 0.828125 -2.5 C 0.828125 -2.296875 1 -2.296875 1.171875 -2.296875 L 6.5625 -2.296875 Z M 6.5625 -2.296875 "
               style="stroke:none;" />
          </symbol>
        </g>
      </defs>
      <g
         id="textext-79c56682-7">
        <g
           id="g73472"
           style="fill:rgb(0%,0%,0%);fill-opacity:1;">
          <use
             id="use73474"
             y="134.765"
             x="223.432"
             xlink:href="#textext-79c56682-1" />
        </g>
        <g
           id="g73476"
           style="fill:rgb(0%,0%,0%);fill-opacity:1;">
          <use
             id="use73478"
             y="136.259"
             x="227.476"
             xlink:href="#textext-79c56682-4" />
        </g>
        <g
           id="g73480"
           style="fill:rgb(0%,0%,0%);fill-opacity:1;">
          <use
             id="use73482"
             y="134.765"
             x="232.748"
             xlink:href="#textext-79c56682-6" />
        </g>
        <g
           id="g73484"
           style="fill:rgb(0%,0%,0%);fill-opacity:1;">
          <use
             id="use73486"
             y="134.765"
             x="242.71"
             xlink:href="#textext-79c56682-2" />
        </g>
        <g
           id="g73488"
           style="fill:rgb(0%,0%,0%);fill-opacity:1;">
          <use
             id="use73490"
             y="134.765"
             x="247.515958"
             xlink:href="#textext-79c56682-1" />
        </g>
        <g
           id="g73492"
           style="fill:rgb(0%,0%,0%);fill-opacity:1;">
          <use
             id="use73494"
             y="136.259"
             x="251.559"
             xlink:href="#textext-79c56682-4" />
        </g>
      </g>
    </g>
  </g>
</svg>
