<?xml version="1.0" encoding="UTF-8" standalone="no"?>
<!-- Created with Inkscape (http://www.inkscape.org/) -->

<svg
   xmlns:ns0="http://www.iki.fi/pav/software/textext/"
   xmlns:dc="http://purl.org/dc/elements/1.1/"
   xmlns:cc="http://creativecommons.org/ns#"
   xmlns:rdf="http://www.w3.org/1999/02/22-rdf-syntax-ns#"
   xmlns:svg="http://www.w3.org/2000/svg"
   xmlns="http://www.w3.org/2000/svg"
   xmlns:xlink="http://www.w3.org/1999/xlink"
   xmlns:sodipodi="http://sodipodi.sourceforge.net/DTD/sodipodi-0.dtd"
   xmlns:inkscape="http://www.inkscape.org/namespaces/inkscape"
   width="980.2616"
   height="560.47473"
   id="svg2"
   version="1.1"
   inkscape:version="0.47 r22583"
   sodipodi:docname="tangrid.svg">
  <sodipodi:namedview
     id="base"
     pagecolor="#ffffff"
     bordercolor="#666666"
     borderopacity="1.0"
     inkscape:pageopacity="0.0"
     inkscape:pageshadow="2"
     inkscape:zoom="0.68923859"
     inkscape:cx="236.4936"
     inkscape:cy="282.18798"
     inkscape:document-units="px"
     inkscape:current-layer="layer1"
     showgrid="false"
     inkscape:window-width="1672"
     inkscape:window-height="848"
     inkscape:window-x="178"
     inkscape:window-y="43"
     inkscape:window-maximized="0" />
  <defs
     id="defs4">
    <marker
       style="overflow:visible"
       id="Arrow2Lstart"
       refX="0.0"
       refY="0.0"
       orient="auto"
       inkscape:stockid="Arrow2Lstart">
      <path
         transform="scale(1.1) translate(1,0)"
         d="M 8.7185878,4.0337352 L -2.2072895,0.016013256 L 8.7185884,-4.0017078 C 6.9730900,-1.6296469 6.9831476,1.6157441 8.7185878,4.0337352 z "
         style="font-size:12.0;fill-rule:evenodd;stroke-width:0.62500000;stroke-linejoin:round"
         id="path10035" />
    </marker>
    <inkscape:perspective
       sodipodi:type="inkscape:persp3d"
       inkscape:vp_x="0 : 526.18109 : 1"
       inkscape:vp_y="0 : 1000 : 0"
       inkscape:vp_z="744.09448 : 526.18109 : 1"
       inkscape:persp3d-origin="372.04724 : 350.78739 : 1"
       id="perspective10" />
    <inkscape:perspective
       id="perspective2845"
       inkscape:persp3d-origin="0.5 : 0.33333333 : 1"
       inkscape:vp_z="1 : 0.5 : 1"
       inkscape:vp_y="0 : 1000 : 0"
       inkscape:vp_x="0 : 0.5 : 1"
       sodipodi:type="inkscape:persp3d" />
    <inkscape:perspective
       id="perspective37871"
       inkscape:persp3d-origin="0.5 : 0.33333333 : 1"
       inkscape:vp_z="1 : 0.5 : 1"
       inkscape:vp_y="0 : 1000 : 0"
       inkscape:vp_x="0 : 0.5 : 1"
       sodipodi:type="inkscape:persp3d" />
    <inkscape:perspective
       id="perspective35939"
       inkscape:persp3d-origin="0.5 : 0.33333333 : 1"
       inkscape:vp_z="1 : 0.5 : 1"
       inkscape:vp_y="0 : 1000 : 0"
       inkscape:vp_x="0 : 0.5 : 1"
       sodipodi:type="inkscape:persp3d" />
    <inkscape:perspective
       id="perspective35328"
       inkscape:persp3d-origin="0.5 : 0.33333333 : 1"
       inkscape:vp_z="1 : 0.5 : 1"
       inkscape:vp_y="0 : 1000 : 0"
       inkscape:vp_x="0 : 0.5 : 1"
       sodipodi:type="inkscape:persp3d" />
    <defs
       id="defs30773">
      <g
         id="g30775">
        <symbol
           style="overflow:visible"
           id="textext-22090811-0"
           overflow="visible">
          <path
             id="path30778"
             d=""
             style="stroke:none" />
        </symbol>
        <symbol
           style="overflow:visible"
           id="textext-22090811-1"
           overflow="visible">
          <path
             id="path30781"
             d="M 1.765625,-4.40625 0.375,-4.296875 l 0,0.3125 c 0.640625,0 0.734375,0.0625 0.734375,0.546875 l 0,2.6875 c 0,0.4375 -0.109375,0.4375 -0.78125,0.4375 l 0,0.3125 C 0.640625,-0.015625 1.1875,-0.03125 1.421875,-0.03125 1.78125,-0.03125 2.125,-0.015625 2.46875,0 l 0,-0.3125 c -0.671875,0 -0.703125,-0.046875 -0.703125,-0.4375 l 0,-3.65625 z m 0.03125,-1.734375 c 0,-0.3125 -0.234375,-0.53125 -0.515625,-0.53125 -0.3125,0 -0.53125,0.265625 -0.53125,0.53125 0,0.265625 0.21875,0.53125 0.53125,0.53125 0.28125,0 0.515625,-0.21875 0.515625,-0.53125 z m 0,0"
             style="stroke:none" />
        </symbol>
        <symbol
           style="overflow:visible"
           id="textext-22090811-2"
           overflow="visible">
          <path
             id="path30784"
             d="m 1.09375,-3.421875 0,2.671875 c 0,0.4375 -0.109375,0.4375 -0.78125,0.4375 l 0,0.3125 c 0.359375,-0.015625 0.859375,-0.03125 1.140625,-0.03125 0.25,0 0.765625,0.015625 1.109375,0.03125 l 0,-0.3125 c -0.671875,0 -0.78125,0 -0.78125,-0.4375 l 0,-1.84375 C 1.78125,-3.625 2.5,-4.1875 3.125,-4.1875 c 0.640625,0 0.75,0.53125 0.75,1.109375 l 0,2.328125 c 0,0.4375 -0.109375,0.4375 -0.78125,0.4375 l 0,0.3125 c 0.34375,-0.015625 0.859375,-0.03125 1.125,-0.03125 0.25,0 0.78125,0.015625 1.109375,0.03125 l 0,-0.3125 c -0.515625,0 -0.765625,0 -0.765625,-0.296875 l 0,-1.90625 c 0,-0.859375 0,-1.15625 -0.3125,-1.515625 -0.140625,-0.171875 -0.46875,-0.375 -1.046875,-0.375 C 2.46875,-4.40625 2,-3.984375 1.71875,-3.359375 l 0,-1.046875 -1.40625,0.109375 0,0.3125 c 0.703125,0 0.78125,0.0625 0.78125,0.5625 z m 0,0"
             style="stroke:none" />
        </symbol>
        <symbol
           style="overflow:visible"
           id="textext-22090811-3"
           overflow="visible">
          <path
             id="path30787"
             d="m 1.71875,-3.984375 1.4375,0 0,-0.3125 -1.4375,0 0,-1.828125 -0.25,0 c 0,0.8125 -0.296875,1.875 -1.28125,1.921875 l 0,0.21875 0.84375,0 0,2.75 c 0,1.21875 0.9375,1.34375 1.296875,1.34375 0.703125,0 0.984375,-0.703125 0.984375,-1.34375 l 0,-0.5625 -0.25,0 0,0.546875 c 0,0.734375 -0.296875,1.109375 -0.671875,1.109375 -0.671875,0 -0.671875,-0.90625 -0.671875,-1.078125 l 0,-2.765625 z m 0,0"
             style="stroke:none" />
        </symbol>
        <symbol
           style="overflow:visible"
           id="textext-22090811-4"
           overflow="visible">
          <path
             id="path30790"
             d="M 1.109375,-2.515625 C 1.171875,-4 2.015625,-4.25 2.359375,-4.25 c 1.015625,0 1.125,1.34375 1.125,1.734375 l -2.375,0 z m 0,0.21875 2.78125,0 c 0.21875,0 0.25,0 0.25,-0.21875 0,-0.984375 -0.546875,-1.953125 -1.78125,-1.953125 -1.15625,0 -2.078125,1.03125 -2.078125,2.28125 0,1.328125 1.046875,2.296875 2.1875,2.296875 C 3.6875,0.109375 4.140625,-1 4.140625,-1.1875 4.140625,-1.28125 4.0625,-1.3125 4,-1.3125 c -0.078125,0 -0.109375,0.0625 -0.125,0.140625 -0.34375,1.03125 -1.25,1.03125 -1.34375,1.03125 -0.5,0 -0.890625,-0.296875 -1.125,-0.671875 -0.296875,-0.46875 -0.296875,-1.125 -0.296875,-1.484375 z m 0,0"
             style="stroke:none" />
        </symbol>
        <symbol
           style="overflow:visible"
           id="textext-22090811-5"
           overflow="visible">
          <path
             id="path30793"
             d="m 2.21875,-1.71875 c -0.875,0 -0.875,-1 -0.875,-1.21875 0,-0.265625 0.015625,-0.59375 0.15625,-0.84375 0.078125,-0.109375 0.3125,-0.390625 0.71875,-0.390625 0.859375,0 0.859375,0.984375 0.859375,1.21875 0,0.265625 0,0.59375 -0.15625,0.84375 C 2.84375,-2 2.609375,-1.71875 2.21875,-1.71875 z M 1.0625,-1.328125 c 0,-0.03125 0,-0.265625 0.15625,-0.46875 0.390625,0.28125 0.8125,0.3125 1,0.3125 0.921875,0 1.609375,-0.6875 1.609375,-1.453125 0,-0.375 -0.15625,-0.734375 -0.40625,-0.96875 C 3.78125,-4.25 4.140625,-4.296875 4.3125,-4.296875 c 0.03125,0 0.078125,0 0.109375,0.015625 C 4.3125,-4.25 4.25,-4.140625 4.25,-4.015625 c 0,0.171875 0.140625,0.28125 0.296875,0.28125 0.09375,0 0.28125,-0.0625 0.28125,-0.296875 0,-0.171875 -0.109375,-0.484375 -0.5,-0.484375 -0.203125,0 -0.640625,0.0625 -1.0625,0.46875 C 2.84375,-4.375 2.4375,-4.40625 2.21875,-4.40625 c -0.9375,0 -1.625,0.6875 -1.625,1.453125 0,0.4375 0.21875,0.8125 0.46875,1.03125 -0.125,0.140625 -0.3125,0.46875 -0.3125,0.828125 0,0.3125 0.140625,0.6875 0.453125,0.890625 -0.609375,0.15625 -0.921875,0.59375 -0.921875,0.984375 0,0.71875 0.984375,1.265625 2.203125,1.265625 1.171875,0 2.203125,-0.5 2.203125,-1.28125 0,-0.34375 -0.125,-0.859375 -0.640625,-1.140625 -0.53125,-0.265625 -1.109375,-0.265625 -1.71875,-0.265625 -0.25,0 -0.671875,0 -0.75,-0.015625 C 1.265625,-0.703125 1.0625,-1 1.0625,-1.328125 z M 2.5,1.828125 c -1.015625,0 -1.703125,-0.515625 -1.703125,-1.046875 0,-0.453125 0.375,-0.828125 0.8125,-0.84375 l 0.59375,0 c 0.859375,0 1.96875,0 1.96875,0.84375 0,0.546875 -0.703125,1.046875 -1.671875,1.046875 z m 0,0"
             style="stroke:none" />
        </symbol>
        <symbol
           style="overflow:visible"
           id="textext-22090811-6"
           overflow="visible">
          <path
             id="path30796"
             d="m 1.671875,-3.3125 0,-1.09375 -1.390625,0.109375 0,0.3125 c 0.703125,0 0.78125,0.0625 0.78125,0.5625 l 0,2.671875 c 0,0.4375 -0.109375,0.4375 -0.78125,0.4375 l 0,0.3125 c 0.390625,-0.015625 0.859375,-0.03125 1.140625,-0.03125 0.390625,0 0.859375,0 1.265625,0.03125 l 0,-0.3125 -0.21875,0 c -0.734375,0 -0.75,-0.109375 -0.75,-0.46875 l 0,-1.53125 c 0,-0.984375 0.421875,-1.875 1.171875,-1.875 0.0625,0 0.09375,0 0.109375,0.015625 -0.03125,0 -0.234375,0.125 -0.234375,0.390625 0,0.265625 0.21875,0.421875 0.4375,0.421875 0.171875,0 0.421875,-0.125 0.421875,-0.4375 0,-0.3125 -0.3125,-0.609375 -0.734375,-0.609375 -0.734375,0 -1.09375,0.671875 -1.21875,1.09375 z m 0,0"
             style="stroke:none" />
        </symbol>
        <symbol
           style="overflow:visible"
           id="textext-22090811-7"
           overflow="visible">
          <path
             id="path30799"
             d="m 3.3125,-0.75 c 0.046875,0.390625 0.3125,0.8125 0.78125,0.8125 0.21875,0 0.828125,-0.140625 0.828125,-0.953125 l 0,-0.5625 -0.25,0 0,0.5625 c 0,0.578125 -0.25,0.640625 -0.359375,0.640625 -0.328125,0 -0.375,-0.453125 -0.375,-0.5 l 0,-1.984375 c 0,-0.421875 0,-0.8125 -0.359375,-1.1875 C 3.1875,-4.3125 2.6875,-4.46875 2.21875,-4.46875 c -0.828125,0 -1.515625,0.46875 -1.515625,1.125 0,0.296875 0.203125,0.46875 0.46875,0.46875 0.28125,0 0.453125,-0.203125 0.453125,-0.453125 0,-0.125 -0.046875,-0.453125 -0.515625,-0.453125 C 1.390625,-4.140625 1.875,-4.25 2.1875,-4.25 c 0.5,0 1.0625,0.390625 1.0625,1.28125 l 0,0.359375 c -0.515625,0.03125 -1.203125,0.0625 -1.828125,0.359375 -0.75,0.34375 -1,0.859375 -1,1.296875 0,0.8125 0.96875,1.0625 1.59375,1.0625 0.65625,0 1.109375,-0.40625 1.296875,-0.859375 z M 3.25,-2.390625 l 0,1 c 0,0.9375 -0.71875,1.28125 -1.171875,1.28125 -0.484375,0 -0.890625,-0.34375 -0.890625,-0.84375 0,-0.546875 0.421875,-1.375 2.0625,-1.4375 z m 0,0"
             style="stroke:none" />
        </symbol>
        <symbol
           style="overflow:visible"
           id="textext-22090811-8"
           overflow="visible">
          <path
             id="path30802"
             d="M 4.6875,-2.140625 C 4.6875,-3.40625 3.703125,-4.46875 2.5,-4.46875 c -1.25,0 -2.21875,1.09375 -2.21875,2.328125 0,1.296875 1.03125,2.25 2.203125,2.25 1.203125,0 2.203125,-0.984375 2.203125,-2.25 z m -2.1875,2 c -0.4375,0 -0.875,-0.203125 -1.140625,-0.671875 -0.25,-0.4375 -0.25,-1.046875 -0.25,-1.40625 0,-0.390625 0,-0.921875 0.234375,-1.359375 C 1.609375,-4.03125 2.078125,-4.25 2.484375,-4.25 c 0.4375,0 0.859375,0.21875 1.125,0.65625 0.265625,0.421875 0.265625,1 0.265625,1.375 0,0.359375 0,0.90625 -0.21875,1.34375 C 3.421875,-0.421875 2.984375,-0.140625 2.5,-0.140625 z m 0,0"
             style="stroke:none" />
        </symbol>
        <symbol
           style="overflow:visible"
           id="textext-22090811-9"
           overflow="visible">
          <path
             id="path30805"
             d="m 3.78125,-0.546875 0,0.65625 L 5.25,0 l 0,-0.3125 c -0.6875,0 -0.78125,-0.0625 -0.78125,-0.5625 l 0,-6.046875 -1.421875,0.109375 0,0.3125 c 0.6875,0 0.765625,0.0625 0.765625,0.5625 l 0,2.15625 c -0.28125,-0.359375 -0.71875,-0.625 -1.25,-0.625 -1.171875,0 -2.21875,0.984375 -2.21875,2.265625 0,1.265625 0.96875,2.25 2.109375,2.25 0.640625,0 1.078125,-0.34375 1.328125,-0.65625 z m 0,-2.671875 0,2.046875 c 0,0.171875 0,0.1875 -0.109375,0.359375 C 3.375,-0.328125 2.9375,-0.109375 2.5,-0.109375 2.046875,-0.109375 1.6875,-0.375 1.453125,-0.75 1.203125,-1.15625 1.171875,-1.71875 1.171875,-2.140625 1.171875,-2.5 1.1875,-3.09375 1.46875,-3.546875 1.6875,-3.859375 2.0625,-4.1875 2.609375,-4.1875 c 0.34375,0 0.765625,0.15625 1.0625,0.59375 0.109375,0.171875 0.109375,0.1875 0.109375,0.375 z m 0,0"
             style="stroke:none" />
        </symbol>
        <symbol
           style="overflow:visible"
           id="textext-22090811-10"
           overflow="visible">
          <path
             id="path30808"
             d=""
             style="stroke:none" />
        </symbol>
        <symbol
           style="overflow:visible"
           id="textext-22090811-11"
           overflow="visible">
          <path
             id="path30811"
             d="m 2.96875,-2.25 c 0.15625,0 0.34375,0 0.34375,-0.171875 0,-0.140625 -0.125,-0.140625 -0.296875,-0.140625 l -1.609375,0 c 0.234375,-0.84375 0.796875,-1.421875 1.703125,-1.421875 l 0.3125,0 c 0.171875,0 0.328125,0 0.328125,-0.171875 0,-0.140625 -0.125,-0.140625 -0.296875,-0.140625 l -0.359375,0 c -1.296875,0 -2.625,1 -2.625,2.515625 0,1.109375 0.75,1.890625 1.796875,1.890625 0.65625,0 1.296875,-0.40625 1.296875,-0.515625 0,-0.015625 0,-0.125 -0.09375,-0.125 -0.015625,0 -0.046875,0 -0.125,0.046875 -0.3125,0.203125 -0.6875,0.375 -1.046875,0.375 -0.578125,0 -1.078125,-0.421875 -1.078125,-1.296875 0,-0.34375 0.078125,-0.734375 0.109375,-0.84375 l 1.640625,0 z m 0,0"
             style="stroke:none" />
        </symbol>
        <symbol
           style="overflow:visible"
           id="textext-22090811-12"
           overflow="visible">
          <path
             id="path30814"
             d=""
             style="stroke:none" />
        </symbol>
        <symbol
           style="overflow:visible"
           id="textext-22090811-13"
           overflow="visible">
          <path
             id="path30817"
             d="m 2.265625,-4.359375 c 0,-0.109375 -0.09375,-0.265625 -0.28125,-0.265625 -0.1875,0 -0.390625,0.1875 -0.390625,0.390625 0,0.109375 0.078125,0.265625 0.28125,0.265625 0.1875,0 0.390625,-0.203125 0.390625,-0.390625 z M 0.84375,-0.8125 c -0.03125,0.09375 -0.0625,0.171875 -0.0625,0.296875 0,0.328125 0.265625,0.578125 0.65625,0.578125 0.6875,0 1,-0.953125 1,-1.0625 0,-0.09375 -0.09375,-0.09375 -0.109375,-0.09375 -0.09375,0 -0.109375,0.046875 -0.140625,0.125 -0.15625,0.5625 -0.453125,0.84375 -0.734375,0.84375 -0.140625,0 -0.171875,-0.09375 -0.171875,-0.25 0,-0.15625 0.046875,-0.28125 0.109375,-0.4375 C 1.46875,-1 1.546875,-1.1875 1.609375,-1.375 1.671875,-1.546875 1.9375,-2.171875 1.953125,-2.265625 1.984375,-2.328125 2,-2.40625 2,-2.484375 2,-2.8125 1.71875,-3.078125 1.34375,-3.078125 0.640625,-3.078125 0.328125,-2.125 0.328125,-2 c 0,0.078125 0.09375,0.078125 0.125,0.078125 0.09375,0 0.09375,-0.03125 0.125,-0.109375 C 0.75,-2.625 1.0625,-2.875 1.3125,-2.875 c 0.109375,0 0.171875,0.046875 0.171875,0.234375 0,0.171875 -0.03125,0.265625 -0.203125,0.703125 l -0.4375,1.125 z m 0,0"
             style="stroke:none" />
        </symbol>
      </g>
    </defs>
    <inkscape:perspective
       sodipodi:type="inkscape:persp3d"
       inkscape:vp_x="0 : 0.5 : 1"
       inkscape:vp_y="0 : 1000 : 0"
       inkscape:vp_z="1 : 0.5 : 1"
       inkscape:persp3d-origin="0.5 : 0.33333333 : 1"
       id="perspective29077" />
    <inkscape:perspective
       sodipodi:type="inkscape:persp3d"
       inkscape:vp_x="0 : 0.5 : 1"
       inkscape:vp_y="0 : 1000 : 0"
       inkscape:vp_z="1 : 0.5 : 1"
       inkscape:persp3d-origin="0.5 : 0.33333333 : 1"
       id="perspective26968" />
    <inkscape:perspective
       sodipodi:type="inkscape:persp3d"
       inkscape:vp_x="0 : 0.5 : 1"
       inkscape:vp_y="0 : 1000 : 0"
       inkscape:vp_z="1 : 0.5 : 1"
       inkscape:persp3d-origin="0.5 : 0.33333333 : 1"
       id="perspective25949" />
    <defs
       id="defs7978">
      <g
         id="g7980">
        <symbol
           overflow="visible"
           id="textext-afba212c-0"
           style="overflow:visible">
          <path
             style="stroke:none"
             d=""
             id="path7983" />
        </symbol>
        <symbol
           overflow="visible"
           id="textext-afba212c-1"
           style="overflow:visible">
          <path
             style="stroke:none"
             d="M 2.25,-6.03125 C 2.25,-6.390625 2.265625,-6.5 3.0625,-6.5 l 0.25,0 0,-0.3125 c -0.34375,0.03125 -1.125,0.03125 -1.515625,0.03125 -0.375,0 -1.171875,0 -1.515625,-0.03125 l 0,0.3125 0.25,0 c 0.796875,0 0.828125,0.109375 0.828125,0.46875 l 0,5.25 c 0,0.359375 -0.03125,0.46875 -0.828125,0.46875 l -0.25,0 0,0.3125 c 0.34375,-0.03125 1.140625,-0.03125 1.515625,-0.03125 0.390625,0 1.171875,0 1.515625,0.03125 l 0,-0.3125 -0.25,0 C 2.265625,-0.3125 2.25,-0.421875 2.25,-0.78125 l 0,-5.25 z m 0,0"
             id="path7986" />
        </symbol>
        <symbol
           overflow="visible"
           id="textext-afba212c-2"
           style="overflow:visible">
          <path
             style="stroke:none"
             d="m 1.09375,-3.421875 0,2.671875 c 0,0.4375 -0.109375,0.4375 -0.78125,0.4375 l 0,0.3125 c 0.359375,-0.015625 0.859375,-0.03125 1.140625,-0.03125 0.25,0 0.765625,0.015625 1.109375,0.03125 l 0,-0.3125 c -0.671875,0 -0.78125,0 -0.78125,-0.4375 l 0,-1.84375 C 1.78125,-3.625 2.5,-4.1875 3.125,-4.1875 c 0.640625,0 0.75,0.53125 0.75,1.109375 l 0,2.328125 c 0,0.4375 -0.109375,0.4375 -0.78125,0.4375 l 0,0.3125 c 0.34375,-0.015625 0.859375,-0.03125 1.125,-0.03125 0.25,0 0.78125,0.015625 1.109375,0.03125 l 0,-0.3125 c -0.65625,0 -0.765625,0 -0.765625,-0.4375 l 0,-1.84375 c 0,-1.03125 0.703125,-1.59375 1.34375,-1.59375 0.625,0 0.734375,0.53125 0.734375,1.109375 l 0,2.328125 c 0,0.4375 -0.109375,0.4375 -0.78125,0.4375 l 0,0.3125 c 0.34375,-0.015625 0.859375,-0.03125 1.125,-0.03125 0.265625,0 0.78125,0.015625 1.125,0.03125 l 0,-0.3125 c -0.515625,0 -0.765625,0 -0.78125,-0.296875 l 0,-1.90625 c 0,-0.859375 0,-1.15625 -0.3125,-1.515625 -0.140625,-0.171875 -0.46875,-0.375 -1.046875,-0.375 -0.828125,0 -1.28125,0.59375 -1.4375,0.984375 C 4.390625,-4.296875 3.65625,-4.40625 3.203125,-4.40625 2.46875,-4.40625 2,-3.984375 1.71875,-3.359375 l 0,-1.046875 -1.40625,0.109375 0,0.3125 c 0.703125,0 0.78125,0.0625 0.78125,0.5625 z m 0,0"
             id="path7989" />
        </symbol>
        <symbol
           overflow="visible"
           id="textext-afba212c-3"
           style="overflow:visible">
          <path
             style="stroke:none"
             d="m 3.296875,2.390625 c 0,-0.03125 0,-0.046875 -0.171875,-0.21875 C 1.890625,0.921875 1.5625,-0.96875 1.5625,-2.5 c 0,-1.734375 0.375,-3.46875 1.609375,-4.703125 0.125,-0.125 0.125,-0.140625 0.125,-0.171875 0,-0.078125 -0.03125,-0.109375 -0.09375,-0.109375 -0.109375,0 -1,0.6875 -1.59375,1.953125 -0.5,1.09375 -0.625,2.203125 -0.625,3.03125 0,0.78125 0.109375,1.984375 0.65625,3.125 C 2.25,1.84375 3.09375,2.5 3.203125,2.5 c 0.0625,0 0.09375,-0.03125 0.09375,-0.109375 z m 0,0"
             id="path7992" />
        </symbol>
        <symbol
           overflow="visible"
           id="textext-afba212c-4"
           style="overflow:visible">
          <path
             style="stroke:none"
             d="m 2.875,-2.5 c 0,-0.765625 -0.109375,-1.96875 -0.65625,-3.109375 -0.59375,-1.21875 -1.453125,-1.875 -1.546875,-1.875 -0.0625,0 -0.109375,0.046875 -0.109375,0.109375 0,0.03125 0,0.046875 0.1875,0.234375 0.984375,0.984375 1.546875,2.5625 1.546875,4.640625 0,1.71875 -0.359375,3.46875 -1.59375,4.71875 C 0.5625,2.34375 0.5625,2.359375 0.5625,2.390625 0.5625,2.453125 0.609375,2.5 0.671875,2.5 0.765625,2.5 1.671875,1.8125 2.25,0.546875 2.765625,-0.546875 2.875,-1.65625 2.875,-2.5 z m 0,0"
             id="path7995" />
        </symbol>
        <symbol
           overflow="visible"
           id="textext-afba212c-5"
           style="overflow:visible">
          <path
             style="stroke:none"
             d=""
             id="path7998" />
        </symbol>
        <symbol
           overflow="visible"
           id="textext-afba212c-6"
           style="overflow:visible">
          <path
             style="stroke:none"
             d="m 7.578125,-6.921875 c 0,-0.03125 -0.015625,-0.109375 -0.109375,-0.109375 -0.03125,0 -0.046875,0.015625 -0.15625,0.125 L 6.625,-6.140625 C 6.53125,-6.28125 6.078125,-7.03125 4.96875,-7.03125 2.734375,-7.03125 0.5,-4.828125 0.5,-2.515625 c 0,1.59375 1.109375,2.734375 2.71875,2.734375 0.4375,0 0.890625,-0.09375 1.25,-0.234375 0.5,-0.203125 0.6875,-0.40625 0.859375,-0.609375 0.09375,0.25 0.359375,0.609375 0.453125,0.609375 0.046875,0 0.078125,-0.03125 0.078125,-0.03125 C 5.875,-0.0625 5.96875,-0.453125 6.015625,-0.65625 l 0.1875,-0.765625 C 6.25,-1.59375 6.296875,-1.765625 6.34375,-1.9375 c 0.109375,-0.4375 0.109375,-0.46875 0.6875,-0.46875 0.046875,0 0.15625,-0.015625 0.15625,-0.203125 0,-0.078125 -0.046875,-0.109375 -0.125,-0.109375 -0.234375,0 -0.828125,0.03125 -1.046875,0.03125 -0.3125,0 -1.09375,-0.03125 -1.40625,-0.03125 -0.078125,0 -0.203125,0 -0.203125,0.203125 0,0.109375 0.078125,0.109375 0.296875,0.109375 0.015625,0 0.296875,0 0.53125,0.015625 0.265625,0.03125 0.3125,0.0625 0.3125,0.1875 0,0.09375 -0.109375,0.53125 -0.21875,0.90625 -0.28125,1.09375 -1.5625,1.203125 -1.921875,1.203125 -0.953125,0 -2,-0.5625 -2,-2.09375 0,-0.3125 0.09375,-1.953125 1.140625,-3.25 0.546875,-0.671875 1.515625,-1.28125 2.5,-1.28125 1.015625,0 1.609375,0.765625 1.609375,1.921875 0,0.40625 -0.03125,0.40625 -0.03125,0.515625 0,0.09375 0.109375,0.09375 0.140625,0.09375 0.125,0 0.125,-0.015625 0.1875,-0.203125 l 0.625,-2.53125 z m 0,0"
             id="path8001" />
        </symbol>
        <symbol
           overflow="visible"
           id="textext-afba212c-7"
           style="overflow:visible">
          <path
             style="stroke:none"
             d="m 2.96875,-2.25 c 0.15625,0 0.34375,0 0.34375,-0.171875 0,-0.140625 -0.125,-0.140625 -0.296875,-0.140625 l -1.609375,0 c 0.234375,-0.84375 0.796875,-1.421875 1.703125,-1.421875 l 0.3125,0 c 0.171875,0 0.328125,0 0.328125,-0.171875 0,-0.140625 -0.125,-0.140625 -0.296875,-0.140625 l -0.359375,0 c -1.296875,0 -2.625,1 -2.625,2.515625 0,1.109375 0.75,1.890625 1.796875,1.890625 0.65625,0 1.296875,-0.40625 1.296875,-0.515625 0,-0.015625 0,-0.125 -0.09375,-0.125 -0.015625,0 -0.046875,0 -0.125,0.046875 -0.3125,0.203125 -0.6875,0.375 -1.046875,0.375 -0.578125,0 -1.078125,-0.421875 -1.078125,-1.296875 0,-0.34375 0.078125,-0.734375 0.109375,-0.84375 l 1.640625,0 z m 0,0"
             id="path8004" />
        </symbol>
        <symbol
           overflow="visible"
           id="textext-afba212c-8"
           style="overflow:visible">
          <path
             style="stroke:none"
             d="m 2.03125,-0.015625 c 0,-0.65625 -0.25,-1.046875 -0.640625,-1.046875 -0.328125,0 -0.53125,0.25 -0.53125,0.53125 C 0.859375,-0.265625 1.0625,0 1.390625,0 1.5,0 1.640625,-0.046875 1.734375,-0.125 1.765625,-0.15625 1.78125,-0.15625 1.78125,-0.15625 c 0.015625,0 0.015625,0 0.015625,0.140625 0,0.75 -0.34375,1.34375 -0.671875,1.671875 -0.109375,0.109375 -0.109375,0.125 -0.109375,0.15625 0,0.078125 0.046875,0.109375 0.09375,0.109375 0.109375,0 0.921875,-0.765625 0.921875,-1.9375 z m 0,0"
             id="path8007" />
        </symbol>
        <symbol
           overflow="visible"
           id="textext-afba212c-9"
           style="overflow:visible">
          <path
             style="stroke:none"
             d="m 6.03125,-3.703125 c 0,-0.453125 -0.171875,-0.703125 -0.40625,-0.703125 -0.25,0 -0.515625,0.234375 -0.515625,0.46875 0,0.09375 0.046875,0.203125 0.140625,0.296875 0.171875,0.15625 0.359375,0.421875 0.359375,0.84375 0,0.390625 -0.203125,0.96875 -0.5,1.421875 C 4.8125,-0.953125 4.4375,-0.609375 3.96875,-0.609375 3.40625,-0.609375 3.09375,-0.96875 3,-1.5 c 0.109375,-0.265625 0.34375,-0.90625 0.34375,-1.1875 0,-0.109375 -0.046875,-0.21875 -0.1875,-0.21875 -0.078125,0 -0.1875,0.03125 -0.265625,0.171875 C 2.78125,-2.53125 2.65625,-1.890625 2.65625,-1.53125 2.328125,-1.0625 1.9375,-0.609375 1.3125,-0.609375 c -0.671875,0 -0.875,-0.59375 -0.875,-1.140625 0,-1.25 1.015625,-2.296875 1.015625,-2.421875 0,-0.109375 -0.078125,-0.1875 -0.1875,-0.1875 -0.125,0 -0.203125,0.125 -0.265625,0.21875 -0.5,0.734375 -0.875,1.921875 -0.875,2.828125 0,0.6875 0.21875,1.421875 1.046875,1.421875 0.703125,0 1.171875,-0.5 1.53125,-1.046875 0.09375,0.578125 0.484375,1.046875 1.09375,1.046875 0.78125,0 1.25,-0.609375 1.609375,-1.359375 0.25,-0.484375 0.625,-1.84375 0.625,-2.453125 z m 0,0"
             id="path8010" />
        </symbol>
        <symbol
           overflow="visible"
           id="textext-afba212c-10"
           style="overflow:visible">
          <path
             style="stroke:none"
             d=""
             id="path8013" />
        </symbol>
        <symbol
           overflow="visible"
           id="textext-afba212c-11"
           style="overflow:visible">
          <path
             style="stroke:none"
             d="m 3.046875,-2.671875 c -0.25,0.046875 -0.34375,0.234375 -0.34375,0.390625 0,0.1875 0.140625,0.265625 0.265625,0.265625 0.15625,0 0.390625,-0.109375 0.390625,-0.453125 0,-0.46875 -0.53125,-0.609375 -0.90625,-0.609375 -1.046875,0 -2.015625,0.96875 -2.015625,1.9375 0,0.59375 0.40625,1.203125 1.28125,1.203125 1.1875,0 1.734375,-0.6875 1.734375,-0.78125 0,-0.046875 -0.0625,-0.125 -0.125,-0.125 -0.03125,0 -0.046875,0.015625 -0.109375,0.078125 C 2.671875,-0.125 1.859375,-0.125 1.734375,-0.125 c -0.5,0 -0.71875,-0.34375 -0.71875,-0.78125 0,-0.1875 0.09375,-0.953125 0.453125,-1.4375 0.265625,-0.34375 0.625,-0.53125 0.984375,-0.53125 0.09375,0 0.421875,0.015625 0.59375,0.203125 z m 0,0"
             id="path8016" />
        </symbol>
        <symbol
           overflow="visible"
           id="textext-afba212c-12"
           style="overflow:visible">
          <path
             style="stroke:none"
             d="m 4.078125,-2.53125 c 0.109375,0 0.1875,0 0.25,-0.046875 0.09375,-0.078125 0.125,-0.1875 0.125,-0.234375 C 4.453125,-3 4.265625,-3 4.140625,-3 l -1.78125,0 C 1.25,-3 0.40625,-1.90625 0.40625,-1.0625 c 0,0.640625 0.484375,1.125 1.203125,1.125 0.875,0 1.875,-0.78125 1.875,-1.859375 0,-0.109375 0,-0.421875 -0.203125,-0.734375 l 0.796875,0 z M 1.609375,-0.125 c -0.375,0 -0.6875,-0.25 -0.6875,-0.75 0,-0.203125 0.125,-1.65625 1.328125,-1.65625 0.34375,0 0.71875,0.140625 0.71875,0.65625 0,0.140625 -0.0625,0.765625 -0.40625,1.234375 C 2.265625,-0.265625 1.875,-0.125 1.609375,-0.125 z m 0,0"
             id="path8019" />
        </symbol>
      </g>
    </defs>
    <inkscape:perspective
       id="perspective18904"
       inkscape:persp3d-origin="0.5 : 0.33333333 : 1"
       inkscape:vp_z="1 : 0.5 : 1"
       inkscape:vp_y="0 : 1000 : 0"
       inkscape:vp_x="0 : 0.5 : 1"
       sodipodi:type="inkscape:persp3d" />
    <inkscape:perspective
       id="perspective17116"
       inkscape:persp3d-origin="0.5 : 0.33333333 : 1"
       inkscape:vp_z="1 : 0.5 : 1"
       inkscape:vp_y="0 : 1000 : 0"
       inkscape:vp_x="0 : 0.5 : 1"
       sodipodi:type="inkscape:persp3d" />
    <inkscape:perspective
       id="perspective14950"
       inkscape:persp3d-origin="0.5 : 0.33333333 : 1"
       inkscape:vp_z="1 : 0.5 : 1"
       inkscape:vp_y="0 : 1000 : 0"
       inkscape:vp_x="0 : 0.5 : 1"
       sodipodi:type="inkscape:persp3d" />
    <inkscape:perspective
       id="perspective11272"
       inkscape:persp3d-origin="0.5 : 0.33333333 : 1"
       inkscape:vp_z="1 : 0.5 : 1"
       inkscape:vp_y="0 : 1000 : 0"
       inkscape:vp_x="0 : 0.5 : 1"
       sodipodi:type="inkscape:persp3d" />
    <inkscape:perspective
       id="perspective10087"
       inkscape:persp3d-origin="0.5 : 0.33333333 : 1"
       inkscape:vp_z="1 : 0.5 : 1"
       inkscape:vp_y="0 : 1000 : 0"
       inkscape:vp_x="0 : 0.5 : 1"
       sodipodi:type="inkscape:persp3d" />
    <inkscape:perspective
       id="perspective9362"
       inkscape:persp3d-origin="0.5 : 0.33333333 : 1"
       inkscape:vp_z="1 : 0.5 : 1"
       inkscape:vp_y="0 : 1000 : 0"
       inkscape:vp_x="0 : 0.5 : 1"
       sodipodi:type="inkscape:persp3d" />
    <inkscape:perspective
       id="perspective8647"
       inkscape:persp3d-origin="0.5 : 0.33333333 : 1"
       inkscape:vp_z="1 : 0.5 : 1"
       inkscape:vp_y="0 : 1000 : 0"
       inkscape:vp_x="0 : 0.5 : 1"
       sodipodi:type="inkscape:persp3d" />
    <inkscape:perspective
       id="perspective3235"
       inkscape:persp3d-origin="0.5 : 0.33333333 : 1"
       inkscape:vp_z="1 : 0.5 : 1"
       inkscape:vp_y="0 : 1000 : 0"
       inkscape:vp_x="0 : 0.5 : 1"
       sodipodi:type="inkscape:persp3d" />
    <inkscape:perspective
       id="perspective2866"
       inkscape:persp3d-origin="0.5 : 0.33333333 : 1"
       inkscape:vp_z="1 : 0.5 : 1"
       inkscape:vp_y="0 : 1000 : 0"
       inkscape:vp_x="0 : 0.5 : 1"
       sodipodi:type="inkscape:persp3d" />
    <inkscape:perspective
       sodipodi:type="inkscape:persp3d"
       inkscape:vp_x="0 : 526.18109 : 1"
       inkscape:vp_y="0 : 1000 : 0"
       inkscape:vp_z="744.09448 : 526.18109 : 1"
       inkscape:persp3d-origin="372.04724 : 350.78739 : 1"
       id="perspective10-9" />
    <marker
       inkscape:stockid="Arrow1Lend"
       orient="auto"
       refY="0"
       refX="0"
       id="Arrow1Lend"
       style="overflow:visible">
      <path
         id="path40056"
         d="M 0,0 5,-5 -12.5,0 5,5 0,0 z"
         style="fill-rule:evenodd;stroke:#000000;stroke-width:1pt;marker-start:none"
         transform="matrix(-0.8,0,0,-0.8,-10,0)" />
    </marker>
    <marker
       inkscape:stockid="Arrow1Mend"
       orient="auto"
       refY="0"
       refX="0"
       id="Arrow1Mend"
       style="overflow:visible">
      <path
         id="path40062"
         d="M 0,0 5,-5 -12.5,0 5,5 0,0 z"
         style="fill-rule:evenodd;stroke:#000000;stroke-width:1pt;marker-start:none"
         transform="matrix(-0.4,0,0,-0.4,-4,0)" />
    </marker>
    <marker
       inkscape:stockid="Arrow2Lend"
       orient="auto"
       refY="0"
       refX="0"
       id="Arrow2Lend"
       style="overflow:visible">
      <path
         id="path40074"
         style="font-size:12px;fill-rule:evenodd;stroke-width:0.625;stroke-linejoin:round"
         d="M 8.7185878,4.0337352 -2.2072895,0.01601326 8.7185884,-4.0017078 c -1.7454984,2.3720609 -1.7354408,5.6174519 -6e-7,8.035443 z"
         transform="matrix(-1.1,0,0,-1.1,-1.1,0)" />
    </marker>
    <inkscape:perspective
       sodipodi:type="inkscape:persp3d"
       inkscape:vp_x="0 : 0.5 : 1"
       inkscape:vp_y="0 : 1000 : 0"
       inkscape:vp_z="1 : 0.5 : 1"
       inkscape:persp3d-origin="0.5 : 0.33333333 : 1"
       id="perspective4422" />
  </defs>
  <metadata
     id="metadata7">
    <rdf:RDF>
      <cc:Work
         rdf:about="">
        <dc:format>image/svg+xml</dc:format>
        <dc:type
           rdf:resource="http://purl.org/dc/dcmitype/StillImage" />
        <dc:title />
      </cc:Work>
    </rdf:RDF>
  </metadata>
  <g
     transform="translate(202.17124,89.907623)"
     inkscape:label="Ebene 1"
     inkscape:groupmode="layer"
     id="layer1">
    <g
       transform="matrix(7.9297517,0,0,7.9297517,-1961.8649,-610.42858)"
       ns0:text="$\\omega_{min}$"
       ns0:preamble=""
       id="g2879">
      <defs
         id="defs2881">
        <g
           id="g2883">
          <symbol
             style="overflow:visible"
             overflow="visible"
             id="textext-f68d9646-0">
            <path
               style="stroke:none"
               d=""
               id="path2886" />
          </symbol>
          <symbol
             style="overflow:visible"
             overflow="visible"
             id="textext-f68d9646-1">
            <path
               style="stroke:none"
               d="m 6.03125,-3.703125 c 0,-0.453125 -0.171875,-0.703125 -0.40625,-0.703125 -0.25,0 -0.515625,0.234375 -0.515625,0.46875 0,0.09375 0.046875,0.203125 0.140625,0.296875 0.171875,0.15625 0.359375,0.421875 0.359375,0.84375 0,0.390625 -0.203125,0.96875 -0.5,1.421875 C 4.8125,-0.953125 4.4375,-0.609375 3.96875,-0.609375 3.40625,-0.609375 3.09375,-0.96875 3,-1.5 c 0.109375,-0.265625 0.34375,-0.90625 0.34375,-1.1875 0,-0.109375 -0.046875,-0.21875 -0.1875,-0.21875 -0.078125,0 -0.1875,0.03125 -0.265625,0.171875 C 2.78125,-2.53125 2.65625,-1.890625 2.65625,-1.53125 2.328125,-1.0625 1.9375,-0.609375 1.3125,-0.609375 c -0.671875,0 -0.875,-0.59375 -0.875,-1.140625 0,-1.25 1.015625,-2.296875 1.015625,-2.421875 0,-0.109375 -0.078125,-0.1875 -0.1875,-0.1875 -0.125,0 -0.203125,0.125 -0.265625,0.21875 -0.5,0.734375 -0.875,1.921875 -0.875,2.828125 0,0.6875 0.21875,1.421875 1.046875,1.421875 0.703125,0 1.171875,-0.5 1.53125,-1.046875 0.09375,0.578125 0.484375,1.046875 1.09375,1.046875 0.78125,0 1.25,-0.609375 1.609375,-1.359375 0.25,-0.484375 0.625,-1.84375 0.625,-2.453125 z m 0,0"
               id="path2889" />
          </symbol>
          <symbol
             style="overflow:visible"
             overflow="visible"
             id="textext-f68d9646-2">
            <path
               style="stroke:none"
               d=""
               id="path2892" />
          </symbol>
          <symbol
             style="overflow:visible"
             overflow="visible"
             id="textext-f68d9646-3">
            <path
               style="stroke:none"
               d="m 3.03125,-0.5625 c -0.046875,0.140625 -0.109375,0.375 -0.109375,0.40625 0,0.15625 0.125,0.21875 0.234375,0.21875 0.140625,0 0.25,-0.078125 0.28125,-0.140625 0.03125,-0.0625 0.09375,-0.296875 0.125,-0.4375 0.03125,-0.125 0.109375,-0.453125 0.15625,-0.625 0.03125,-0.15625 0.078125,-0.3125 0.109375,-0.46875 0.078125,-0.296875 0.078125,-0.3125 0.21875,-0.53125 C 4.265625,-2.484375 4.625,-2.875 5.15625,-2.875 c 0.390625,0 0.421875,0.3125 0.421875,0.484375 0,0.421875 -0.296875,1.1875 -0.421875,1.484375 -0.0625,0.203125 -0.09375,0.265625 -0.09375,0.375 0,0.375 0.296875,0.59375 0.65625,0.59375 0.703125,0 1,-0.953125 1,-1.0625 0,-0.09375 -0.078125,-0.09375 -0.109375,-0.09375 -0.09375,0 -0.09375,0.046875 -0.125,0.125 C 6.328125,-0.40625 6.015625,-0.125 5.75,-0.125 c -0.15625,0 -0.1875,-0.09375 -0.1875,-0.25 0,-0.15625 0.046875,-0.25 0.171875,-0.5625 0.078125,-0.21875 0.359375,-0.953125 0.359375,-1.34375 0,-0.109375 0,-0.40625 -0.25,-0.609375 -0.125,-0.078125 -0.328125,-0.1875 -0.65625,-0.1875 -0.625,0 -1,0.421875 -1.234375,0.703125 C 3.90625,-2.96875 3.40625,-3.078125 3.046875,-3.078125 2.46875,-3.078125 2.078125,-2.71875 1.875,-2.4375 1.828125,-2.921875 1.421875,-3.078125 1.125,-3.078125 c -0.296875,0 -0.453125,0.21875 -0.546875,0.375 -0.15625,0.265625 -0.25,0.65625 -0.25,0.703125 0,0.078125 0.09375,0.078125 0.125,0.078125 0.09375,0 0.09375,-0.015625 0.140625,-0.203125 0.109375,-0.40625 0.25,-0.75 0.515625,-0.75 0.1875,0 0.234375,0.15625 0.234375,0.34375 0,0.125 -0.0625,0.390625 -0.125,0.578125 -0.046875,0.1875 -0.109375,0.46875 -0.140625,0.625 L 0.84375,-0.4375 c -0.015625,0.09375 -0.0625,0.265625 -0.0625,0.28125 0,0.15625 0.125,0.21875 0.234375,0.21875 0.125,0 0.234375,-0.078125 0.28125,-0.140625 0.03125,-0.0625 0.078125,-0.296875 0.125,-0.4375 0.03125,-0.125 0.109375,-0.453125 0.140625,-0.625 0.046875,-0.15625 0.09375,-0.3125 0.125,-0.46875 0.078125,-0.28125 0.09375,-0.34375 0.296875,-0.625 C 2.171875,-2.515625 2.5,-2.875 3.03125,-2.875 c 0.390625,0 0.40625,0.359375 0.40625,0.484375 0,0.171875 -0.015625,0.265625 -0.125,0.65625 L 3.03125,-0.5625 z m 0,0"
               id="path2895" />
          </symbol>
          <symbol
             style="overflow:visible"
             overflow="visible"
             id="textext-f68d9646-4">
            <path
               style="stroke:none"
               d="m 2.265625,-4.359375 c 0,-0.109375 -0.09375,-0.265625 -0.28125,-0.265625 -0.1875,0 -0.390625,0.1875 -0.390625,0.390625 0,0.109375 0.078125,0.265625 0.28125,0.265625 0.1875,0 0.390625,-0.203125 0.390625,-0.390625 z M 0.84375,-0.8125 c -0.03125,0.09375 -0.0625,0.171875 -0.0625,0.296875 0,0.328125 0.265625,0.578125 0.65625,0.578125 0.6875,0 1,-0.953125 1,-1.0625 0,-0.09375 -0.09375,-0.09375 -0.109375,-0.09375 -0.09375,0 -0.109375,0.046875 -0.140625,0.125 -0.15625,0.5625 -0.453125,0.84375 -0.734375,0.84375 -0.140625,0 -0.171875,-0.09375 -0.171875,-0.25 0,-0.15625 0.046875,-0.28125 0.109375,-0.4375 C 1.46875,-1 1.546875,-1.1875 1.609375,-1.375 1.671875,-1.546875 1.9375,-2.171875 1.953125,-2.265625 1.984375,-2.328125 2,-2.40625 2,-2.484375 2,-2.8125 1.71875,-3.078125 1.34375,-3.078125 0.640625,-3.078125 0.328125,-2.125 0.328125,-2 c 0,0.078125 0.09375,0.078125 0.125,0.078125 0.09375,0 0.09375,-0.03125 0.125,-0.109375 C 0.75,-2.625 1.0625,-2.875 1.3125,-2.875 c 0.109375,0 0.171875,0.046875 0.171875,0.234375 0,0.171875 -0.03125,0.265625 -0.203125,0.703125 l -0.4375,1.125 z m 0,0"
               id="path2898" />
          </symbol>
          <symbol
             style="overflow:visible"
             overflow="visible"
             id="textext-f68d9646-5">
            <path
               style="stroke:none"
               d="m 0.84375,-0.4375 c -0.015625,0.09375 -0.0625,0.265625 -0.0625,0.28125 0,0.15625 0.125,0.21875 0.234375,0.21875 0.125,0 0.234375,-0.078125 0.28125,-0.140625 0.03125,-0.0625 0.078125,-0.296875 0.125,-0.4375 0.03125,-0.125 0.109375,-0.453125 0.140625,-0.625 0.046875,-0.15625 0.09375,-0.3125 0.125,-0.46875 0.078125,-0.28125 0.09375,-0.34375 0.296875,-0.625 C 2.171875,-2.515625 2.5,-2.875 3.03125,-2.875 c 0.390625,0 0.40625,0.359375 0.40625,0.484375 0,0.421875 -0.296875,1.1875 -0.40625,1.484375 -0.078125,0.203125 -0.109375,0.265625 -0.109375,0.375 0,0.375 0.296875,0.59375 0.65625,0.59375 0.703125,0 1,-0.953125 1,-1.0625 0,-0.09375 -0.078125,-0.09375 -0.109375,-0.09375 -0.09375,0 -0.09375,0.046875 -0.125,0.125 C 4.1875,-0.40625 3.875,-0.125 3.609375,-0.125 c -0.15625,0 -0.1875,-0.09375 -0.1875,-0.25 0,-0.15625 0.046875,-0.25 0.171875,-0.5625 0.078125,-0.21875 0.359375,-0.953125 0.359375,-1.34375 0,-0.671875 -0.53125,-0.796875 -0.90625,-0.796875 -0.578125,0 -0.96875,0.359375 -1.171875,0.640625 -0.046875,-0.484375 -0.453125,-0.640625 -0.75,-0.640625 -0.296875,0 -0.453125,0.21875 -0.546875,0.375 -0.15625,0.265625 -0.25,0.65625 -0.25,0.703125 0,0.078125 0.09375,0.078125 0.125,0.078125 0.09375,0 0.09375,-0.015625 0.140625,-0.203125 0.109375,-0.40625 0.25,-0.75 0.515625,-0.75 0.1875,0 0.234375,0.15625 0.234375,0.34375 0,0.125 -0.0625,0.390625 -0.125,0.578125 -0.046875,0.1875 -0.109375,0.46875 -0.140625,0.625 L 0.84375,-0.4375 z m 0,0"
               id="path2901" />
          </symbol>
        </g>
      </defs>
      <g
         id="textext-f68d9646-6">
        <g
           style="fill:#000000;fill-opacity:1"
           id="g2904">
          <use
             height="1052.3622"
             width="744.09448"
             xlink:href="#textext-f68d9646-1"
             x="223.43201"
             y="134.765"
             id="use2906" />
        </g>
        <g
           style="fill:#000000;fill-opacity:1"
           id="g2908">
          <use
             height="1052.3622"
             width="744.09448"
             xlink:href="#textext-f68d9646-3"
             x="229.633"
             y="136.259"
             id="use2910" />
          <use
             height="1052.3622"
             width="744.09448"
             xlink:href="#textext-f68d9646-4"
             x="236.70235"
             y="136.259"
             id="use2912" />
          <use
             height="1052.3622"
             width="744.09448"
             xlink:href="#textext-f68d9646-5"
             x="239.52115"
             y="136.259"
             id="use2914" />
        </g>
      </g>
    </g>
    <path
       d="m 4.8666,456.12905 7.6499,-75.505 7.6501,-48.0425 7.65,-33.2775 7.65,-24.40375 7.65,-18.7425 7.65,-14.84125 7.65,-12.08625 7.65,-10.02125 7.65,-8.4925 7.65,-7.2675 7.65,-6.2725 7.65,-5.5075 7.65,-4.89625 7.65,-4.4375 7.65,-3.90125 7.65,-3.595 7.65,-3.29 7.65,-2.98375 7.65,-2.75375 7.65,-2.52375 7.65,-2.44875 7.65,-2.21875 7.65,-2.065 7.65,-1.98875 7.65,-1.83625 7.65,-1.76 7.65,-1.6825 7.65,-1.53 7.65,-1.53 7.65,-1.45375 7.65,-1.45375 7.65,-1.3 7.65,-1.30125 7.65,-1.3 7.65,-1.22375 7.65,-1.1475 7.65,-1.225 7.65,-1.07 7.65,-1.1475 7.65,-1.07125 7.65,-1.07125 7.65,-0.995 7.65,-1.07 7.65,-0.995 7.65,-0.995 7.65,-0.99375 7.65,-0.995 7.65,-0.9175 7.65,-0.995 7.65,-0.99375 7.65,-0.91875 7.65,-0.99375 7.65,-0.9175 7.65,-0.995 7.65,-0.995 7.65,-0.995 7.65,-0.9175 7.65,-1.07125 7.65,-0.99375 7.65,-0.995 7.65,-1.07125 7.65,-0.99375 7.65,-1.07125 7.65,-1.1475 7.65,-1.07125 7.65,-1.1475 7.65,-1.22375 7.65,-1.22375 7.65,-1.22375 7.65,-1.30125 7.65,-1.3 7.65,-1.3775 7.65,-1.45375 7.65,-1.53 7.65,-1.53 7.65,-1.6825 7.65,-1.76 7.65,-1.835 7.65,-1.9125 7.65,-2.06625 7.65,-2.1425 7.65,-2.37125 7.65,-2.52375 7.65,-2.6775 7.65,-2.9075 7.65,-3.2125 7.65,-3.4425 7.65,-3.825 7.65,-4.28375 7.65,-4.74375 7.65,-5.355 7.65,-6.12 7.65,-6.96125 7.65,-8.10875 7.65,-9.5625 7.65,-11.39875 7.65,-13.99875 7.65,-17.51875 7.65,-22.645 7.65,-30.37"
       style="fill:none;stroke:#000000;stroke-width:1.14750004;stroke-linecap:butt;stroke-linejoin:miter;stroke-miterlimit:10;stroke-opacity:1;stroke-dasharray:none"
       id="path4430" />
    <path
       d="m 12.5165,456.12905 c 0,-4.225 -3.4253,-7.65 -7.6499,-7.65 -4.2246,0 -7.6499,3.425 -7.6499,7.65 0,4.225 3.4253,7.65 7.6499,7.65 4.2246,0 7.6499,-3.425 7.6499,-7.65"
       style="fill:none;stroke:#000000;stroke-width:1.14750004;stroke-linecap:butt;stroke-linejoin:miter;stroke-miterlimit:10;stroke-opacity:1;stroke-dasharray:none"
       id="path4432" />
    <path
       d="m 20.1666,380.62405 c 0,-4.225 -3.425,-7.65 -7.6501,-7.65 -4.2247,0 -7.6499,3.425 -7.6499,7.65 0,4.22375 3.4252,7.65 7.6499,7.65 4.2251,0 7.6501,-3.42625 7.6501,-7.65"
       style="fill:none;stroke:#000000;stroke-width:1.14750004;stroke-linecap:butt;stroke-linejoin:miter;stroke-miterlimit:10;stroke-opacity:1;stroke-dasharray:none"
       id="path4434" />
    <path
       d="m 27.8166,332.58155 c 0,-4.225 -3.425,-7.65 -7.65,-7.65 -4.225,0 -7.6501,3.425 -7.6501,7.65 0,4.225 3.4251,7.65 7.6501,7.65 4.225,0 7.65,-3.425 7.65,-7.65"
       style="fill:none;stroke:#000000;stroke-width:1.14750004;stroke-linecap:butt;stroke-linejoin:miter;stroke-miterlimit:10;stroke-opacity:1;stroke-dasharray:none"
       id="path4436" />
    <path
       d="m 35.4666,299.30405 c 0,-4.225 -3.425,-7.65 -7.65,-7.65 -4.225,0 -7.65,3.425 -7.65,7.65 0,4.225 3.425,7.65 7.65,7.65 4.225,0 7.65,-3.425 7.65,-7.65"
       style="fill:none;stroke:#000000;stroke-width:1.14750004;stroke-linecap:butt;stroke-linejoin:miter;stroke-miterlimit:10;stroke-opacity:1;stroke-dasharray:none"
       id="path4438" />
    <path
       d="m 43.1166,274.9003 c 0,-4.22375 -3.425,-7.65 -7.65,-7.65 -4.225,0 -7.65,3.42625 -7.65,7.65 0,4.225 3.425,7.65 7.65,7.65 4.225,0 7.65,-3.425 7.65,-7.65"
       style="fill:none;stroke:#000000;stroke-width:1.14750004;stroke-linecap:butt;stroke-linejoin:miter;stroke-miterlimit:10;stroke-opacity:1;stroke-dasharray:none"
       id="path4440" />
    <path
       d="m 50.7666,256.1578 c 0,-4.225 -3.425,-7.65 -7.65,-7.65 -4.225,0 -7.65,3.425 -7.65,7.65 0,4.225 3.425,7.65 7.65,7.65 4.225,0 7.65,-3.425 7.65,-7.65"
       style="fill:none;stroke:#000000;stroke-width:1.14750004;stroke-linecap:butt;stroke-linejoin:miter;stroke-miterlimit:10;stroke-opacity:1;stroke-dasharray:none"
       id="path4442-8" />
    <path
       d="m 58.4166,241.31655 c 0,-4.22375 -3.425,-7.65 -7.65,-7.65 -4.225,0 -7.65,3.42625 -7.65,7.65 0,4.225 3.425,7.65 7.65,7.65 4.225,0 7.65,-3.425 7.65,-7.65"
       style="fill:none;stroke:#000000;stroke-width:1.14750004;stroke-linecap:butt;stroke-linejoin:miter;stroke-miterlimit:10;stroke-opacity:1;stroke-dasharray:none"
       id="path4444" />
    <path
       d="m 66.0666,229.2303 c 0,-4.225 -3.425,-7.65 -7.65,-7.65 -4.225,0 -7.65,3.425 -7.65,7.65 0,4.225 3.425,7.65 7.65,7.65 4.225,0 7.65,-3.425 7.65,-7.65"
       style="fill:none;stroke:#000000;stroke-width:1.14750004;stroke-linecap:butt;stroke-linejoin:miter;stroke-miterlimit:10;stroke-opacity:1;stroke-dasharray:none"
       id="path4446" />
    <path
       d="m 73.7166,219.20905 c 0,-4.225 -3.425,-7.65 -7.65,-7.65 -4.225,0 -7.65,3.425 -7.65,7.65 0,4.22375 3.425,7.65 7.65,7.65 4.225,0 7.65,-3.42625 7.65,-7.65"
       style="fill:none;stroke:#000000;stroke-width:1.14750004;stroke-linecap:butt;stroke-linejoin:miter;stroke-miterlimit:10;stroke-opacity:1;stroke-dasharray:none"
       id="path4448-1" />
    <path
       d="m 81.3666,210.71655 c 0,-4.22375 -3.425,-7.65 -7.65,-7.65 -4.225,0 -7.65,3.42625 -7.65,7.65 0,4.225 3.425,7.65 7.65,7.65 4.225,0 7.65,-3.425 7.65,-7.65"
       style="fill:none;stroke:#000000;stroke-width:1.14750004;stroke-linecap:butt;stroke-linejoin:miter;stroke-miterlimit:10;stroke-opacity:1;stroke-dasharray:none"
       id="path4450" />
    <path
       d="m 89.0166,203.44905 c 0,-4.22375 -3.425,-7.65 -7.65,-7.65 -4.225,0 -7.65,3.42625 -7.65,7.65 0,4.225 3.425,7.65125 7.65,7.65125 4.225,0 7.65,-3.42625 7.65,-7.65125"
       style="fill:none;stroke:#000000;stroke-width:1.14750004;stroke-linecap:butt;stroke-linejoin:miter;stroke-miterlimit:10;stroke-opacity:1;stroke-dasharray:none"
       id="path4452" />
    <path
       d="m 96.6666,197.17655 c 0,-4.225 -3.425,-7.65 -7.65,-7.65 -4.225,0 -7.65,3.425 -7.65,7.65 0,4.225 3.425,7.65 7.65,7.65 4.225,0 7.65,-3.425 7.65,-7.65"
       style="fill:none;stroke:#000000;stroke-width:1.14750004;stroke-linecap:butt;stroke-linejoin:miter;stroke-miterlimit:10;stroke-opacity:1;stroke-dasharray:none"
       id="path4454-2" />
    <path
       d="m 104.3166,191.66905 c 0,-4.225 -3.425,-7.65 -7.65,-7.65 -4.225,0 -7.65,3.425 -7.65,7.65 0,4.22375 3.425,7.65 7.65,7.65 4.225,0 7.65,-3.42625 7.65,-7.65"
       style="fill:none;stroke:#000000;stroke-width:1.14750004;stroke-linecap:butt;stroke-linejoin:miter;stroke-miterlimit:10;stroke-opacity:1;stroke-dasharray:none"
       id="path4456" />
    <path
       d="m 111.9666,186.7728 c 0,-4.225 -3.425,-7.65 -7.65,-7.65 -4.225,0 -7.65,3.425 -7.65,7.65 0,4.225 3.425,7.65 7.65,7.65 4.225,0 7.65,-3.425 7.65,-7.65"
       style="fill:none;stroke:#000000;stroke-width:1.14750004;stroke-linecap:butt;stroke-linejoin:miter;stroke-miterlimit:10;stroke-opacity:1;stroke-dasharray:none"
       id="path4458" />
    <path
       d="m 119.6166,182.3353 c 0,-4.22375 -3.425,-7.65 -7.65,-7.65 -4.225,0 -7.65,3.42625 -7.65,7.65 0,4.225 3.425,7.65 7.65,7.65 4.225,0 7.65,-3.425 7.65,-7.65"
       style="fill:none;stroke:#000000;stroke-width:1.14750004;stroke-linecap:butt;stroke-linejoin:miter;stroke-miterlimit:10;stroke-opacity:1;stroke-dasharray:none"
       id="path4460-2" />
    <path
       d="m 127.2666,178.43405 c 0,-4.225 -3.425,-7.65 -7.65,-7.65 -4.225,0 -7.65,3.425 -7.65,7.65 0,4.225 3.425,7.65 7.65,7.65 4.225,0 7.65,-3.425 7.65,-7.65"
       style="fill:none;stroke:#000000;stroke-width:1.14750004;stroke-linecap:butt;stroke-linejoin:miter;stroke-miterlimit:10;stroke-opacity:1;stroke-dasharray:none"
       id="path4462" />
    <path
       d="m 134.9166,174.83905 c 0,-4.225 -3.425,-7.65 -7.65,-7.65 -4.225,0 -7.65,3.425 -7.65,7.65 0,4.22375 3.425,7.65 7.65,7.65 4.225,0 7.65,-3.42625 7.65,-7.65"
       style="fill:none;stroke:#000000;stroke-width:1.14750004;stroke-linecap:butt;stroke-linejoin:miter;stroke-miterlimit:10;stroke-opacity:1;stroke-dasharray:none"
       id="path4464" />
    <path
       d="m 142.5666,171.54905 c 0,-4.225 -3.425,-7.65 -7.65,-7.65 -4.225,0 -7.65,3.425 -7.65,7.65 0,4.225 3.425,7.65 7.65,7.65 4.225,0 7.65,-3.425 7.65,-7.65"
       style="fill:none;stroke:#000000;stroke-width:1.14750004;stroke-linecap:butt;stroke-linejoin:miter;stroke-miterlimit:10;stroke-opacity:1;stroke-dasharray:none"
       id="path4466" />
    <path
       d="m 150.2166,168.5653 c 0,-4.22375 -3.425,-7.65 -7.65,-7.65 -4.225,0 -7.65,3.42625 -7.65,7.65 0,4.225 3.425,7.65 7.65,7.65 4.225,0 7.65,-3.425 7.65,-7.65"
       style="fill:none;stroke:#000000;stroke-width:1.14750004;stroke-linecap:butt;stroke-linejoin:miter;stroke-miterlimit:10;stroke-opacity:1;stroke-dasharray:none"
       id="path4468" />
    <path
       d="m 157.8666,165.81155 c 0,-4.225 -3.425,-7.65 -7.65,-7.65 -4.225,0 -7.65,3.425 -7.65,7.65 0,4.225 3.425,7.65 7.65,7.65 4.225,0 7.65,-3.425 7.65,-7.65"
       style="fill:none;stroke:#000000;stroke-width:1.14750004;stroke-linecap:butt;stroke-linejoin:miter;stroke-miterlimit:10;stroke-opacity:1;stroke-dasharray:none"
       id="path4470" />
    <path
       d="m 165.5166,163.2878 c 0,-4.225 -3.425,-7.65125 -7.65,-7.65125 -4.225,0 -7.65,3.42625 -7.65,7.65125 0,4.22375 3.425,7.64875 7.65,7.64875 4.225,0 7.65,-3.425 7.65,-7.64875"
       style="fill:none;stroke:#000000;stroke-width:1.14750004;stroke-linecap:butt;stroke-linejoin:miter;stroke-miterlimit:10;stroke-opacity:1;stroke-dasharray:none"
       id="path4472" />
    <path
       d="m 173.1666,160.83905 c 0,-4.225 -3.425,-7.65 -7.65,-7.65 -4.225,0 -7.65,3.425 -7.65,7.65 0,4.225 3.425,7.65 7.65,7.65 4.225,0 7.65,-3.425 7.65,-7.65"
       style="fill:none;stroke:#000000;stroke-width:1.14750004;stroke-linecap:butt;stroke-linejoin:miter;stroke-miterlimit:10;stroke-opacity:1;stroke-dasharray:none"
       id="path4474" />
    <path
       d="m 180.8166,158.6203 c 0,-4.22375 -3.425,-7.65 -7.65,-7.65 -4.225,0 -7.65,3.42625 -7.65,7.65 0,4.225 3.425,7.65 7.65,7.65 4.225,0 7.65,-3.425 7.65,-7.65"
       style="fill:none;stroke:#000000;stroke-width:1.14750004;stroke-linecap:butt;stroke-linejoin:miter;stroke-miterlimit:10;stroke-opacity:1;stroke-dasharray:none"
       id="path4476" />
    <path
       d="m 188.4666,156.5553 c 0,-4.225 -3.425,-7.65 -7.65,-7.65 -4.225,0 -7.65,3.425 -7.65,7.65 0,4.22375 3.425,7.65 7.65,7.65 4.225,0 7.65,-3.42625 7.65,-7.65"
       style="fill:none;stroke:#000000;stroke-width:1.14750004;stroke-linecap:butt;stroke-linejoin:miter;stroke-miterlimit:10;stroke-opacity:1;stroke-dasharray:none"
       id="path4478" />
    <path
       d="m 196.1166,154.56655 c 0,-4.225 -3.425,-7.65 -7.65,-7.65 -4.225,0 -7.65,3.425 -7.65,7.65 0,4.22375 3.425,7.65 7.65,7.65 4.225,0 7.65,-3.42625 7.65,-7.65"
       style="fill:none;stroke:#000000;stroke-width:1.14750004;stroke-linecap:butt;stroke-linejoin:miter;stroke-miterlimit:10;stroke-opacity:1;stroke-dasharray:none"
       id="path4480" />
    <path
       d="m 203.7666,152.7303 c 0,-4.225 -3.425,-7.65 -7.65,-7.65 -4.225,0 -7.65,3.425 -7.65,7.65 0,4.225 3.425,7.65 7.65,7.65 4.225,0 7.65,-3.425 7.65,-7.65"
       style="fill:none;stroke:#000000;stroke-width:1.14750004;stroke-linecap:butt;stroke-linejoin:miter;stroke-miterlimit:10;stroke-opacity:1;stroke-dasharray:none"
       id="path4482" />
    <path
       d="m 211.4166,150.9703 c 0,-4.225 -3.425,-7.65 -7.65,-7.65 -4.225,0 -7.65,3.425 -7.65,7.65 0,4.225 3.425,7.65 7.65,7.65 4.225,0 7.65,-3.425 7.65,-7.65"
       style="fill:none;stroke:#000000;stroke-width:1.14750004;stroke-linecap:butt;stroke-linejoin:miter;stroke-miterlimit:10;stroke-opacity:1;stroke-dasharray:none"
       id="path4484" />
    <path
       d="m 219.0666,149.2878 c 0,-4.225 -3.425,-7.65 -7.65,-7.65 -4.225,0 -7.65,3.425 -7.65,7.65 0,4.225 3.425,7.65 7.65,7.65 4.225,0 7.65,-3.425 7.65,-7.65"
       style="fill:none;stroke:#000000;stroke-width:1.14750004;stroke-linecap:butt;stroke-linejoin:miter;stroke-miterlimit:10;stroke-opacity:1;stroke-dasharray:none"
       id="path4486" />
    <path
       d="m 226.7166,147.7578 c 0,-4.225 -3.425,-7.65 -7.65,-7.65 -4.225,0 -7.65,3.425 -7.65,7.65 0,4.22375 3.425,7.65 7.65,7.65 4.225,0 7.65,-3.42625 7.65,-7.65"
       style="fill:none;stroke:#000000;stroke-width:1.14750004;stroke-linecap:butt;stroke-linejoin:miter;stroke-miterlimit:10;stroke-opacity:1;stroke-dasharray:none"
       id="path4488" />
    <path
       d="m 234.3666,146.2278 c 0,-4.225 -3.425,-7.65 -7.65,-7.65 -4.225,0 -7.65,3.425 -7.65,7.65 0,4.225 3.425,7.65 7.65,7.65 4.225,0 7.65,-3.425 7.65,-7.65"
       style="fill:none;stroke:#000000;stroke-width:1.14750004;stroke-linecap:butt;stroke-linejoin:miter;stroke-miterlimit:10;stroke-opacity:1;stroke-dasharray:none"
       id="path4490" />
    <path
       d="m 242.0166,144.77405 c 0,-4.225 -3.425,-7.65 -7.65,-7.65 -4.225,0 -7.65,3.425 -7.65,7.65 0,4.225 3.425,7.65 7.65,7.65 4.225,0 7.65,-3.425 7.65,-7.65"
       style="fill:none;stroke:#000000;stroke-width:1.14750004;stroke-linecap:butt;stroke-linejoin:miter;stroke-miterlimit:10;stroke-opacity:1;stroke-dasharray:none"
       id="path4492" />
    <path
       d="m 249.6666,143.3203 c 0,-4.225 -3.425,-7.65 -7.65,-7.65 -4.225,0 -7.65,3.425 -7.65,7.65 0,4.225 3.425,7.65 7.65,7.65 4.225,0 7.65,-3.425 7.65,-7.65"
       style="fill:none;stroke:#000000;stroke-width:1.14750004;stroke-linecap:butt;stroke-linejoin:miter;stroke-miterlimit:10;stroke-opacity:1;stroke-dasharray:none"
       id="path4494" />
    <path
       d="m 257.3166,142.0203 c 0,-4.225 -3.425,-7.65 -7.65,-7.65 -4.225,0 -7.65,3.425 -7.65,7.65 0,4.225 3.425,7.65 7.65,7.65 4.225,0 7.65,-3.425 7.65,-7.65"
       style="fill:none;stroke:#000000;stroke-width:1.14750004;stroke-linecap:butt;stroke-linejoin:miter;stroke-miterlimit:10;stroke-opacity:1;stroke-dasharray:none"
       id="path4496" />
    <path
       d="m 264.9666,140.71905 c 0,-4.22375 -3.425,-7.65 -7.65,-7.65 -4.225,0 -7.65,3.42625 -7.65,7.65 0,4.225 3.425,7.65125 7.65,7.65125 4.225,0 7.65,-3.42625 7.65,-7.65125"
       style="fill:none;stroke:#000000;stroke-width:1.14750004;stroke-linecap:butt;stroke-linejoin:miter;stroke-miterlimit:10;stroke-opacity:1;stroke-dasharray:none"
       id="path4498" />
    <path
       d="m 272.6166,139.41905 c 0,-4.225 -3.425,-7.65 -7.65,-7.65 -4.225,0 -7.65,3.425 -7.65,7.65 0,4.225 3.425,7.65 7.65,7.65 4.225,0 7.65,-3.425 7.65,-7.65"
       style="fill:none;stroke:#000000;stroke-width:1.14750004;stroke-linecap:butt;stroke-linejoin:miter;stroke-miterlimit:10;stroke-opacity:1;stroke-dasharray:none"
       id="path4500" />
    <path
       d="m 280.2666,138.1953 c 0,-4.225 -3.425,-7.65 -7.65,-7.65 -4.225,0 -7.65,3.425 -7.65,7.65 0,4.22375 3.425,7.65 7.65,7.65 4.225,0 7.65,-3.42625 7.65,-7.65"
       style="fill:none;stroke:#000000;stroke-width:1.14750004;stroke-linecap:butt;stroke-linejoin:miter;stroke-miterlimit:10;stroke-opacity:1;stroke-dasharray:none"
       id="path4502" />
    <path
       d="m 287.9166,137.0478 c 0,-4.225 -3.425,-7.65 -7.65,-7.65 -4.225,0 -7.65,3.425 -7.65,7.65 0,4.22375 3.425,7.65 7.65,7.65 4.225,0 7.65,-3.42625 7.65,-7.65"
       style="fill:none;stroke:#000000;stroke-width:1.14750004;stroke-linecap:butt;stroke-linejoin:miter;stroke-miterlimit:10;stroke-opacity:1;stroke-dasharray:none"
       id="path4504" />
    <path
       d="m 295.5666,135.8228 c 0,-4.22375 -3.425,-7.64875 -7.65,-7.64875 -4.225,0 -7.65,3.425 -7.65,7.64875 0,4.225 3.425,7.65125 7.65,7.65125 4.225,0 7.65,-3.42625 7.65,-7.65125"
       style="fill:none;stroke:#000000;stroke-width:1.14750004;stroke-linecap:butt;stroke-linejoin:miter;stroke-miterlimit:10;stroke-opacity:1;stroke-dasharray:none"
       id="path4506" />
    <path
       d="m 303.2166,134.7528 c 0,-4.225 -3.425,-7.65 -7.65,-7.65 -4.225,0 -7.65,3.425 -7.65,7.65 0,4.225 3.425,7.65 7.65,7.65 4.225,0 7.65,-3.425 7.65,-7.65"
       style="fill:none;stroke:#000000;stroke-width:1.14750004;stroke-linecap:butt;stroke-linejoin:miter;stroke-miterlimit:10;stroke-opacity:1;stroke-dasharray:none"
       id="path4508" />
    <path
       d="m 310.8666,133.6053 c 0,-4.225 -3.425,-7.65 -7.65,-7.65 -4.225,0 -7.65,3.425 -7.65,7.65 0,4.225 3.425,7.65 7.65,7.65 4.225,0 7.65,-3.425 7.65,-7.65"
       style="fill:none;stroke:#000000;stroke-width:1.14750004;stroke-linecap:butt;stroke-linejoin:miter;stroke-miterlimit:10;stroke-opacity:1;stroke-dasharray:none"
       id="path4510" />
    <path
       d="m 318.5166,132.53405 c 0,-4.225 -3.425,-7.65 -7.65,-7.65 -4.225,0 -7.65,3.425 -7.65,7.65 0,4.225 3.425,7.65 7.65,7.65 4.225,0 7.65,-3.425 7.65,-7.65"
       style="fill:none;stroke:#000000;stroke-width:1.14750004;stroke-linecap:butt;stroke-linejoin:miter;stroke-miterlimit:10;stroke-opacity:1;stroke-dasharray:none"
       id="path4512" />
    <path
       d="m 326.1666,131.4628 c 0,-4.22375 -3.425,-7.65 -7.65,-7.65 -4.225,0 -7.65,3.42625 -7.65,7.65 0,4.225 3.425,7.65 7.65,7.65 4.225,0 7.65,-3.425 7.65,-7.65"
       style="fill:none;stroke:#000000;stroke-width:1.14750004;stroke-linecap:butt;stroke-linejoin:miter;stroke-miterlimit:10;stroke-opacity:1;stroke-dasharray:none"
       id="path4514" />
    <path
       d="m 333.8166,130.4678 c 0,-4.22375 -3.425,-7.64875 -7.65,-7.64875 -4.225,0 -7.65,3.425 -7.65,7.64875 0,4.225 3.425,7.65125 7.65,7.65125 4.225,0 7.65,-3.42625 7.65,-7.65125"
       style="fill:none;stroke:#000000;stroke-width:1.14750004;stroke-linecap:butt;stroke-linejoin:miter;stroke-miterlimit:10;stroke-opacity:1;stroke-dasharray:none"
       id="path4516" />
    <path
       d="m 341.4666,129.3978 c 0,-4.225 -3.425,-7.65 -7.65,-7.65 -4.225,0 -7.65,3.425 -7.65,7.65 0,4.225 3.425,7.65 7.65,7.65 4.225,0 7.65,-3.425 7.65,-7.65"
       style="fill:none;stroke:#000000;stroke-width:1.14750004;stroke-linecap:butt;stroke-linejoin:miter;stroke-miterlimit:10;stroke-opacity:1;stroke-dasharray:none"
       id="path4518" />
    <path
       d="m 349.1166,128.4028 c 0,-4.225 -3.425,-7.65 -7.65,-7.65 -4.225,0 -7.65,3.425 -7.65,7.65 0,4.225 3.425,7.65 7.65,7.65 4.225,0 7.65,-3.425 7.65,-7.65"
       style="fill:none;stroke:#000000;stroke-width:1.14750004;stroke-linecap:butt;stroke-linejoin:miter;stroke-miterlimit:10;stroke-opacity:1;stroke-dasharray:none"
       id="path4520" />
    <path
       d="m 356.7666,127.4078 c 0,-4.22375 -3.425,-7.64875 -7.65,-7.64875 -4.225,0 -7.65,3.425 -7.65,7.64875 0,4.225 3.425,7.65125 7.65,7.65125 4.225,0 7.65,-3.42625 7.65,-7.65125"
       style="fill:none;stroke:#000000;stroke-width:1.14750004;stroke-linecap:butt;stroke-linejoin:miter;stroke-miterlimit:10;stroke-opacity:1;stroke-dasharray:none"
       id="path4522" />
    <path
       d="m 364.4166,126.41405 c 0,-4.225 -3.425,-7.65 -7.65,-7.65 -4.225,0 -7.65,3.425 -7.65,7.65 0,4.225 3.425,7.65 7.65,7.65 4.225,0 7.65,-3.425 7.65,-7.65"
       style="fill:none;stroke:#000000;stroke-width:1.14750004;stroke-linecap:butt;stroke-linejoin:miter;stroke-miterlimit:10;stroke-opacity:1;stroke-dasharray:none"
       id="path4524" />
    <path
       d="m 372.0666,125.41905 c 0,-4.22375 -3.425,-7.65 -7.65,-7.65 -4.225,0 -7.65,3.42625 -7.65,7.65 0,4.225 3.425,7.65 7.65,7.65 4.225,0 7.65,-3.425 7.65,-7.65"
       style="fill:none;stroke:#000000;stroke-width:1.14750004;stroke-linecap:butt;stroke-linejoin:miter;stroke-miterlimit:10;stroke-opacity:1;stroke-dasharray:none"
       id="path4526" />
    <path
       d="m 379.7166,124.50155 c 0,-4.225 -3.425,-7.65 -7.65,-7.65 -4.225,0 -7.65,3.425 -7.65,7.65 0,4.225 3.425,7.65 7.65,7.65 4.225,0 7.65,-3.425 7.65,-7.65"
       style="fill:none;stroke:#000000;stroke-width:1.14750004;stroke-linecap:butt;stroke-linejoin:miter;stroke-miterlimit:10;stroke-opacity:1;stroke-dasharray:none"
       id="path4528" />
    <path
       d="m 387.3666,123.50655 c 0,-4.22375 -3.425,-7.65 -7.65,-7.65 -4.225,0 -7.65,3.42625 -7.65,7.65 0,4.225 3.425,7.65 7.65,7.65 4.225,0 7.65,-3.425 7.65,-7.65"
       style="fill:none;stroke:#000000;stroke-width:1.14750004;stroke-linecap:butt;stroke-linejoin:miter;stroke-miterlimit:10;stroke-opacity:1;stroke-dasharray:none"
       id="path4530" />
    <path
       d="m 395.0166,122.5128 c 0,-4.225 -3.425,-7.65 -7.65,-7.65 -4.225,0 -7.65,3.425 -7.65,7.65 0,4.22375 3.425,7.65 7.65,7.65 4.225,0 7.65,-3.42625 7.65,-7.65"
       style="fill:none;stroke:#000000;stroke-width:1.14750004;stroke-linecap:butt;stroke-linejoin:miter;stroke-miterlimit:10;stroke-opacity:1;stroke-dasharray:none"
       id="path4532" />
    <path
       d="m 402.6666,121.59405 c 0,-4.22375 -3.425,-7.65 -7.65,-7.65 -4.225,0 -7.65,3.42625 -7.65,7.65 0,4.225 3.425,7.65125 7.65,7.65125 4.225,0 7.65,-3.42625 7.65,-7.65125"
       style="fill:none;stroke:#000000;stroke-width:1.14750004;stroke-linecap:butt;stroke-linejoin:miter;stroke-miterlimit:10;stroke-opacity:1;stroke-dasharray:none"
       id="path4534" />
    <path
       d="m 410.3166,120.6003 c 0,-4.225 -3.425,-7.65 -7.65,-7.65 -4.225,0 -7.65,3.425 -7.65,7.65 0,4.225 3.425,7.65 7.65,7.65 4.225,0 7.65,-3.425 7.65,-7.65"
       style="fill:none;stroke:#000000;stroke-width:1.14750004;stroke-linecap:butt;stroke-linejoin:miter;stroke-miterlimit:10;stroke-opacity:1;stroke-dasharray:none"
       id="path4536" />
    <path
       d="m 417.9666,119.6828 c 0,-4.225 -3.425,-7.65125 -7.65,-7.65125 -4.225,0 -7.65,3.42625 -7.65,7.65125 0,4.22375 3.425,7.64875 7.65,7.64875 4.225,0 7.65,-3.425 7.65,-7.64875"
       style="fill:none;stroke:#000000;stroke-width:1.14750004;stroke-linecap:butt;stroke-linejoin:miter;stroke-miterlimit:10;stroke-opacity:1;stroke-dasharray:none"
       id="path4538" />
    <path
       d="m 425.6166,118.6878 c 0,-4.225 -3.425,-7.65 -7.65,-7.65 -4.225,0 -7.65,3.425 -7.65,7.65 0,4.225 3.425,7.65 7.65,7.65 4.225,0 7.65,-3.425 7.65,-7.65"
       style="fill:none;stroke:#000000;stroke-width:1.14750004;stroke-linecap:butt;stroke-linejoin:miter;stroke-miterlimit:10;stroke-opacity:1;stroke-dasharray:none"
       id="path4540" />
    <path
       d="m 433.2666,117.6928 c 0,-4.225 -3.425,-7.65 -7.65,-7.65 -4.225,0 -7.65,3.425 -7.65,7.65 0,4.225 3.425,7.65 7.65,7.65 4.225,0 7.65,-3.425 7.65,-7.65"
       style="fill:none;stroke:#000000;stroke-width:1.14750004;stroke-linecap:butt;stroke-linejoin:miter;stroke-miterlimit:10;stroke-opacity:1;stroke-dasharray:none"
       id="path4542" />
    <path
       d="m 440.9166,116.6978 c 0,-4.22375 -3.425,-7.64875 -7.65,-7.64875 -4.225,0 -7.65,3.425 -7.65,7.64875 0,4.225 3.425,7.65125 7.65,7.65125 4.225,0 7.65,-3.42625 7.65,-7.65125"
       style="fill:none;stroke:#000000;stroke-width:1.14750004;stroke-linecap:butt;stroke-linejoin:miter;stroke-miterlimit:10;stroke-opacity:1;stroke-dasharray:none"
       id="path4544" />
    <path
       d="m 448.5666,115.7803 c 0,-4.225 -3.425,-7.65 -7.65,-7.65 -4.22375,0 -7.65,3.425 -7.65,7.65 0,4.225 3.42625,7.65 7.65,7.65 4.225,0 7.65,-3.425 7.65,-7.65"
       style="fill:none;stroke:#000000;stroke-width:1.14750004;stroke-linecap:butt;stroke-linejoin:miter;stroke-miterlimit:10;stroke-opacity:1;stroke-dasharray:none"
       id="path4546" />
    <path
       d="m 456.2166,114.70905 c 0,-4.22375 -3.425,-7.64875 -7.65,-7.64875 -4.225,0 -7.65,3.425 -7.65,7.64875 0,4.225 3.425,7.65 7.65,7.65 4.225,0 7.65,-3.425 7.65,-7.65"
       style="fill:none;stroke:#000000;stroke-width:1.14750004;stroke-linecap:butt;stroke-linejoin:miter;stroke-miterlimit:10;stroke-opacity:1;stroke-dasharray:none"
       id="path4548" />
    <path
       d="m 463.8666,113.7153 c 0,-4.225 -3.425,-7.65 -7.65,-7.65 -4.225,0 -7.65,3.425 -7.65,7.65 0,4.22375 3.425,7.65 7.65,7.65 4.225,0 7.65,-3.42625 7.65,-7.65"
       style="fill:none;stroke:#000000;stroke-width:1.14750004;stroke-linecap:butt;stroke-linejoin:miter;stroke-miterlimit:10;stroke-opacity:1;stroke-dasharray:none"
       id="path4550" />
    <path
       d="m 471.5166,112.7203 c 0,-4.225 -3.425,-7.65 -7.65,-7.65 -4.225,0 -7.65,3.425 -7.65,7.65 0,4.225 3.425,7.65 7.65,7.65 4.225,0 7.65,-3.425 7.65,-7.65"
       style="fill:none;stroke:#000000;stroke-width:1.14750004;stroke-linecap:butt;stroke-linejoin:miter;stroke-miterlimit:10;stroke-opacity:1;stroke-dasharray:none"
       id="path4552" />
    <path
       d="m 479.1666,111.64905 c 0,-4.22375 -3.425,-7.65 -7.65,-7.65 -4.225,0 -7.65,3.42625 -7.65,7.65 0,4.225 3.425,7.65 7.65,7.65 4.225,0 7.65,-3.425 7.65,-7.65"
       style="fill:none;stroke:#000000;stroke-width:1.14750004;stroke-linecap:butt;stroke-linejoin:miter;stroke-miterlimit:10;stroke-opacity:1;stroke-dasharray:none"
       id="path4554" />
    <path
       d="m 486.8166,110.6553 c 0,-4.225 -3.425,-7.65 -7.65,-7.65 -4.225,0 -7.65,3.425 -7.65,7.65 0,4.22375 3.425,7.65 7.65,7.65 4.225,0 7.65,-3.42625 7.65,-7.65"
       style="fill:none;stroke:#000000;stroke-width:1.14750004;stroke-linecap:butt;stroke-linejoin:miter;stroke-miterlimit:10;stroke-opacity:1;stroke-dasharray:none"
       id="path4556" />
    <path
       d="m 494.4666,109.58405 c 0,-4.225 -3.425,-7.65 -7.65,-7.65 -4.225,0 -7.65,3.425 -7.65,7.65 0,4.225 3.425,7.65 7.65,7.65 4.225,0 7.65,-3.425 7.65,-7.65"
       style="fill:none;stroke:#000000;stroke-width:1.14750004;stroke-linecap:butt;stroke-linejoin:miter;stroke-miterlimit:10;stroke-opacity:1;stroke-dasharray:none"
       id="path4558" />
    <path
       d="m 502.1166,108.43655 c 0,-4.225 -3.425,-7.65 -7.65,-7.65 -4.225,0 -7.65,3.425 -7.65,7.65 0,4.225 3.425,7.65 7.65,7.65 4.225,0 7.65,-3.425 7.65,-7.65"
       style="fill:none;stroke:#000000;stroke-width:1.14750004;stroke-linecap:butt;stroke-linejoin:miter;stroke-miterlimit:10;stroke-opacity:1;stroke-dasharray:none"
       id="path4560" />
    <path
       d="m 509.7666,107.3653 c 0,-4.225 -3.425,-7.65 -7.65,-7.65 -4.225,0 -7.65,3.425 -7.65,7.65 0,4.225 3.425,7.65 7.65,7.65 4.225,0 7.65,-3.425 7.65,-7.65"
       style="fill:none;stroke:#000000;stroke-width:1.14750004;stroke-linecap:butt;stroke-linejoin:miter;stroke-miterlimit:10;stroke-opacity:1;stroke-dasharray:none"
       id="path4562" />
    <path
       d="m 517.4166,106.2178 c 0,-4.225 -3.425,-7.65 -7.65,-7.65 -4.225,0 -7.65,3.425 -7.65,7.65 0,4.225 3.425,7.65 7.65,7.65 4.225,0 7.65,-3.425 7.65,-7.65"
       style="fill:none;stroke:#000000;stroke-width:1.14750004;stroke-linecap:butt;stroke-linejoin:miter;stroke-miterlimit:10;stroke-opacity:1;stroke-dasharray:none"
       id="path4564" />
    <path
       d="m 525.0666,104.99405 c 0,-4.225 -3.425,-7.65 -7.65,-7.65 -4.225,0 -7.65,3.425 -7.65,7.65 0,4.225 3.425,7.65 7.65,7.65 4.225,0 7.65,-3.425 7.65,-7.65"
       style="fill:none;stroke:#000000;stroke-width:1.14750004;stroke-linecap:butt;stroke-linejoin:miter;stroke-miterlimit:10;stroke-opacity:1;stroke-dasharray:none"
       id="path4566" />
    <path
       d="m 532.7166,103.7703 c 0,-4.225 -3.425,-7.65 -7.65,-7.65 -4.225,0 -7.65,3.425 -7.65,7.65 0,4.225 3.425,7.65 7.65,7.65 4.225,0 7.65,-3.425 7.65,-7.65"
       style="fill:none;stroke:#000000;stroke-width:1.14750004;stroke-linecap:butt;stroke-linejoin:miter;stroke-miterlimit:10;stroke-opacity:1;stroke-dasharray:none"
       id="path4568" />
    <path
       d="m 540.3666,102.54655 c 0,-4.225 -3.425,-7.65 -7.65,-7.65 -4.225,0 -7.65,3.425 -7.65,7.65 0,4.22375 3.425,7.65 7.65,7.65 4.225,0 7.65,-3.42625 7.65,-7.65"
       style="fill:none;stroke:#000000;stroke-width:1.14750004;stroke-linecap:butt;stroke-linejoin:miter;stroke-miterlimit:10;stroke-opacity:1;stroke-dasharray:none"
       id="path4570" />
    <path
       d="m 548.0166,101.2453 c 0,-4.22375 -3.425,-7.65 -7.65,-7.65 -4.225,0 -7.65,3.42625 -7.65,7.65 0,4.225 3.425,7.65 7.65,7.65 4.225,0 7.65,-3.425 7.65,-7.65"
       style="fill:none;stroke:#000000;stroke-width:1.14750004;stroke-linecap:butt;stroke-linejoin:miter;stroke-miterlimit:10;stroke-opacity:1;stroke-dasharray:none"
       id="path4572" />
    <path
       d="m 555.6666,99.9453 c 0,-4.225 -3.425,-7.65 -7.65,-7.65 -4.225,0 -7.65,3.425 -7.65,7.65 0,4.22375 3.425,7.65 7.65,7.65 4.225,0 7.65,-3.42625 7.65,-7.65"
       style="fill:none;stroke:#000000;stroke-width:1.14750004;stroke-linecap:butt;stroke-linejoin:miter;stroke-miterlimit:10;stroke-opacity:1;stroke-dasharray:none"
       id="path4574" />
    <path
       d="m 563.3166,98.5678 c 0,-4.225 -3.425,-7.65 -7.65,-7.65 -4.225,0 -7.65,3.425 -7.65,7.65 0,4.225 3.425,7.65 7.65,7.65 4.225,0 7.65,-3.425 7.65,-7.65"
       style="fill:none;stroke:#000000;stroke-width:1.14750004;stroke-linecap:butt;stroke-linejoin:miter;stroke-miterlimit:10;stroke-opacity:1;stroke-dasharray:none"
       id="path4576" />
    <path
       d="m 570.9666,97.11405 c 0,-4.22375 -3.425,-7.65 -7.65,-7.65 -4.225,0 -7.65,3.42625 -7.65,7.65 0,4.225 3.425,7.65125 7.65,7.65125 4.225,0 7.65,-3.42625 7.65,-7.65125"
       style="fill:none;stroke:#000000;stroke-width:1.14750004;stroke-linecap:butt;stroke-linejoin:miter;stroke-miterlimit:10;stroke-opacity:1;stroke-dasharray:none"
       id="path4578" />
    <path
       d="m 578.6166,95.58405 c 0,-4.22375 -3.425,-7.64875 -7.65,-7.64875 -4.225,0 -7.65,3.425 -7.65,7.64875 0,4.225 3.425,7.65 7.65,7.65 4.225,0 7.65,-3.425 7.65,-7.65"
       style="fill:none;stroke:#000000;stroke-width:1.14750004;stroke-linecap:butt;stroke-linejoin:miter;stroke-miterlimit:10;stroke-opacity:1;stroke-dasharray:none"
       id="path4580" />
    <path
       d="m 586.2666,94.05405 c 0,-4.22375 -3.425,-7.65 -7.65,-7.65 -4.225,0 -7.65,3.42625 -7.65,7.65 0,4.225 3.425,7.65125 7.65,7.65125 4.225,0 7.65,-3.42625 7.65,-7.65125"
       style="fill:none;stroke:#000000;stroke-width:1.14750004;stroke-linecap:butt;stroke-linejoin:miter;stroke-miterlimit:10;stroke-opacity:1;stroke-dasharray:none"
       id="path4582" />
    <path
       d="m 593.9166,92.37155 c 0,-4.225 -3.425,-7.65 -7.65,-7.65 -4.225,0 -7.65,3.425 -7.65,7.65 0,4.225 3.425,7.65 7.65,7.65 4.225,0 7.65,-3.425 7.65,-7.65"
       style="fill:none;stroke:#000000;stroke-width:1.14750004;stroke-linecap:butt;stroke-linejoin:miter;stroke-miterlimit:10;stroke-opacity:1;stroke-dasharray:none"
       id="path4584" />
    <path
       d="m 601.5666,90.61155 c 0,-4.22375 -3.425,-7.65 -7.65,-7.65 -4.225,0 -7.65,3.42625 -7.65,7.65 0,4.225 3.425,7.65 7.65,7.65 4.225,0 7.65,-3.425 7.65,-7.65"
       style="fill:none;stroke:#000000;stroke-width:1.14750004;stroke-linecap:butt;stroke-linejoin:miter;stroke-miterlimit:10;stroke-opacity:1;stroke-dasharray:none"
       id="path4586" />
    <path
       d="m 609.2166,88.77655 c 0,-4.225 -3.425,-7.65 -7.65,-7.65 -4.225,0 -7.65,3.425 -7.65,7.65 0,4.22375 3.425,7.65 7.65,7.65 4.225,0 7.65,-3.42625 7.65,-7.65"
       style="fill:none;stroke:#000000;stroke-width:1.14750004;stroke-linecap:butt;stroke-linejoin:miter;stroke-miterlimit:10;stroke-opacity:1;stroke-dasharray:none"
       id="path4588" />
    <path
       d="m 616.8666,86.86405 c 0,-4.225 -3.425,-7.65 -7.65,-7.65 -4.225,0 -7.65,3.425 -7.65,7.65 0,4.22375 3.425,7.64875 7.65,7.64875 4.225,0 7.65,-3.425 7.65,-7.64875"
       style="fill:none;stroke:#000000;stroke-width:1.14750004;stroke-linecap:butt;stroke-linejoin:miter;stroke-miterlimit:10;stroke-opacity:1;stroke-dasharray:none"
       id="path4590" />
    <path
       d="m 624.5166,84.7978 c 0,-4.225 -3.425,-7.65 -7.65,-7.65 -4.225,0 -7.65,3.425 -7.65,7.65 0,4.225 3.425,7.65 7.65,7.65 4.225,0 7.65,-3.425 7.65,-7.65"
       style="fill:none;stroke:#000000;stroke-width:1.14750004;stroke-linecap:butt;stroke-linejoin:miter;stroke-miterlimit:10;stroke-opacity:1;stroke-dasharray:none"
       id="path4592" />
    <path
       d="m 632.1666,82.6553 c 0,-4.22375 -3.425,-7.64875 -7.65,-7.64875 -4.225,0 -7.65,3.425 -7.65,7.64875 0,4.225 3.425,7.65125 7.65,7.65125 4.225,0 7.65,-3.42625 7.65,-7.65125"
       style="fill:none;stroke:#000000;stroke-width:1.14750004;stroke-linecap:butt;stroke-linejoin:miter;stroke-miterlimit:10;stroke-opacity:1;stroke-dasharray:none"
       id="path4594" />
    <path
       d="m 639.8166,80.28405 c 0,-4.22375 -3.425,-7.65 -7.65,-7.65 -4.22375,0 -7.65,3.42625 -7.65,7.65 0,4.225 3.42625,7.65125 7.65,7.65125 4.225,0 7.65,-3.42625 7.65,-7.65125"
       style="fill:none;stroke:#000000;stroke-width:1.14750004;stroke-linecap:butt;stroke-linejoin:miter;stroke-miterlimit:10;stroke-opacity:1;stroke-dasharray:none"
       id="path4596" />
    <path
       d="m 647.4666,77.7603 c 0,-4.225 -3.425,-7.65 -7.65,-7.65 -4.225,0 -7.65,3.425 -7.65,7.65 0,4.22375 3.425,7.65 7.65,7.65 4.225,0 7.65,-3.42625 7.65,-7.65"
       style="fill:none;stroke:#000000;stroke-width:1.14750004;stroke-linecap:butt;stroke-linejoin:miter;stroke-miterlimit:10;stroke-opacity:1;stroke-dasharray:none"
       id="path4598" />
    <path
       d="m 655.1166,75.0828 c 0,-4.225 -3.425,-7.65 -7.65,-7.65 -4.225,0 -7.65,3.425 -7.65,7.65 0,4.225 3.425,7.65 7.65,7.65 4.225,0 7.65,-3.425 7.65,-7.65"
       style="fill:none;stroke:#000000;stroke-width:1.14750004;stroke-linecap:butt;stroke-linejoin:miter;stroke-miterlimit:10;stroke-opacity:1;stroke-dasharray:none"
       id="path4600" />
    <path
       d="m 662.7666,72.1753 c 0,-4.225 -3.425,-7.65 -7.65,-7.65 -4.225,0 -7.65,3.425 -7.65,7.65 0,4.225 3.425,7.65 7.65,7.65 4.225,0 7.65,-3.425 7.65,-7.65"
       style="fill:none;stroke:#000000;stroke-width:1.14750004;stroke-linecap:butt;stroke-linejoin:miter;stroke-miterlimit:10;stroke-opacity:1;stroke-dasharray:none"
       id="path4602" />
    <path
       d="m 670.4166,68.9628 c 0,-4.225 -3.425,-7.65 -7.65,-7.65 -4.225,0 -7.65,3.425 -7.65,7.65 0,4.22375 3.425,7.65 7.65,7.65 4.225,0 7.65,-3.42625 7.65,-7.65"
       style="fill:none;stroke:#000000;stroke-width:1.14750004;stroke-linecap:butt;stroke-linejoin:miter;stroke-miterlimit:10;stroke-opacity:1;stroke-dasharray:none"
       id="path4604" />
    <path
       d="m 678.0666,65.5203 c 0,-4.225 -3.425,-7.65 -7.65,-7.65 -4.225,0 -7.65,3.425 -7.65,7.65 0,4.225 3.425,7.65 7.65,7.65 4.225,0 7.65,-3.425 7.65,-7.65"
       style="fill:none;stroke:#000000;stroke-width:1.14750004;stroke-linecap:butt;stroke-linejoin:miter;stroke-miterlimit:10;stroke-opacity:1;stroke-dasharray:none"
       id="path4606" />
    <path
       d="m 685.7166,61.6953 c 0,-4.225 -3.425,-7.65 -7.65,-7.65 -4.225,0 -7.65,3.425 -7.65,7.65 0,4.22375 3.425,7.65 7.65,7.65 4.225,0 7.65,-3.42625 7.65,-7.65"
       style="fill:none;stroke:#000000;stroke-width:1.14750004;stroke-linecap:butt;stroke-linejoin:miter;stroke-miterlimit:10;stroke-opacity:1;stroke-dasharray:none"
       id="path4608" />
    <path
       d="m 693.3666,57.41155 c 0,-4.225 -3.425,-7.65125 -7.65,-7.65125 -4.225,0 -7.65,3.42625 -7.65,7.65125 0,4.22375 3.425,7.65 7.65,7.65 4.225,0 7.65,-3.42625 7.65,-7.65"
       style="fill:none;stroke:#000000;stroke-width:1.14750004;stroke-linecap:butt;stroke-linejoin:miter;stroke-miterlimit:10;stroke-opacity:1;stroke-dasharray:none"
       id="path4610" />
    <path
       d="m 701.0166,52.6678 c 0,-4.22375 -3.425,-7.65 -7.65,-7.65 -4.225,0 -7.65,3.42625 -7.65,7.65 0,4.225 3.425,7.65 7.65,7.65 4.225,0 7.65,-3.425 7.65,-7.65"
       style="fill:none;stroke:#000000;stroke-width:1.14750004;stroke-linecap:butt;stroke-linejoin:miter;stroke-miterlimit:10;stroke-opacity:1;stroke-dasharray:none"
       id="path4612" />
    <path
       d="m 708.6666,47.3128 c 0,-4.22375 -3.425,-7.65 -7.65,-7.65 -4.225,0 -7.65,3.42625 -7.65,7.65 0,4.225 3.425,7.65 7.65,7.65 4.225,0 7.65,-3.425 7.65,-7.65"
       style="fill:none;stroke:#000000;stroke-width:1.14750004;stroke-linecap:butt;stroke-linejoin:miter;stroke-miterlimit:10;stroke-opacity:1;stroke-dasharray:none"
       id="path4614" />
    <path
       d="m 716.3166,41.1928 c 0,-4.225 -3.425,-7.65 -7.65,-7.65 -4.22375,0 -7.65,3.425 -7.65,7.65 0,4.225 3.42625,7.65 7.65,7.65 4.225,0 7.65,-3.425 7.65,-7.65"
       style="fill:none;stroke:#000000;stroke-width:1.14750004;stroke-linecap:butt;stroke-linejoin:miter;stroke-miterlimit:10;stroke-opacity:1;stroke-dasharray:none"
       id="path4616" />
    <path
       d="m 723.9666,34.23155 c 0,-4.225 -3.425,-7.65 -7.65,-7.65 -4.225,0 -7.65,3.425 -7.65,7.65 0,4.225 3.425,7.65 7.65,7.65 4.225,0 7.65,-3.425 7.65,-7.65"
       style="fill:none;stroke:#000000;stroke-width:1.14750004;stroke-linecap:butt;stroke-linejoin:miter;stroke-miterlimit:10;stroke-opacity:1;stroke-dasharray:none"
       id="path4618" />
    <path
       d="m 731.6166,26.1228 c 0,-4.225 -3.425,-7.65 -7.65,-7.65 -4.225,0 -7.65,3.425 -7.65,7.65 0,4.225 3.425,7.65 7.65,7.65 4.225,0 7.65,-3.425 7.65,-7.65"
       style="fill:none;stroke:#000000;stroke-width:1.14750004;stroke-linecap:butt;stroke-linejoin:miter;stroke-miterlimit:10;stroke-opacity:1;stroke-dasharray:none"
       id="path4620" />
    <path
       d="m 739.2666,16.5603 c 0,-4.225 -3.425,-7.65 -7.65,-7.65 -4.225,0 -7.65,3.425 -7.65,7.65 0,4.225 3.425,7.65 7.65,7.65 4.225,0 7.65,-3.425 7.65,-7.65"
       style="fill:none;stroke:#000000;stroke-width:1.14750004;stroke-linecap:butt;stroke-linejoin:miter;stroke-miterlimit:10;stroke-opacity:1;stroke-dasharray:none"
       id="path4622" />
    <path
       d="m 746.9166,5.16155 c 0,-4.225 -3.425,-7.65 -7.65,-7.65 -4.225,0 -7.65,3.425 -7.65,7.65 0,4.225 3.425,7.65 7.65,7.65 4.225,0 7.65,-3.425 7.65,-7.65"
       style="fill:none;stroke:#000000;stroke-width:1.14750004;stroke-linecap:butt;stroke-linejoin:miter;stroke-miterlimit:10;stroke-opacity:1;stroke-dasharray:none"
       id="path4624" />
    <path
       d="m 754.5666,-8.8372 c 0,-4.225 -3.425,-7.65125 -7.65,-7.65125 -4.225,0 -7.65,3.42625 -7.65,7.65125 0,4.22375 3.425,7.64875 7.65,7.64875 4.225,0 7.65,-3.425 7.65,-7.64875"
       style="fill:none;stroke:#000000;stroke-width:1.14750004;stroke-linecap:butt;stroke-linejoin:miter;stroke-miterlimit:10;stroke-opacity:1;stroke-dasharray:none"
       id="path4626" />
    <path
       d="m 762.2166,-26.35595 c 0,-4.225 -3.425,-7.65125 -7.65,-7.65125 -4.225,0 -7.65,3.42625 -7.65,7.65125 0,4.22375 3.425,7.65 7.65,7.65 4.225,0 7.65,-3.42625 7.65,-7.65"
       style="fill:none;stroke:#000000;stroke-width:1.14750004;stroke-linecap:butt;stroke-linejoin:miter;stroke-miterlimit:10;stroke-opacity:1;stroke-dasharray:none"
       id="path4628" />
    <path
       d="m 769.8666,-49.00095 c 0,-4.22375 -3.425,-7.64875 -7.65,-7.64875 -4.225,0 -7.65,3.425 -7.65,7.64875 0,4.225 3.425,7.65 7.65,7.65 4.225,0 7.65,-3.425 7.65,-7.65"
       style="fill:none;stroke:#000000;stroke-width:1.14750004;stroke-linecap:butt;stroke-linejoin:miter;stroke-miterlimit:10;stroke-opacity:1;stroke-dasharray:none"
       id="path4630" />
    <path
       d="m 777.5166,-79.37095 c 0,-4.2246 -3.425,-7.6499 -7.65,-7.6499 -4.225,0 -7.65,3.4253 -7.65,7.6499 0,4.2246 3.425,7.64987 7.65,7.64987 4.225,0 7.65,-3.42527 7.65,-7.64987"
       style="fill:none;stroke:#000000;stroke-width:1.14750004;stroke-linecap:butt;stroke-linejoin:miter;stroke-miterlimit:10;stroke-opacity:1;stroke-dasharray:none"
       id="path4632" />
    <path
       d="m 4.8666,-79.37095 0,535.5 765,0"
       style="fill:none;stroke:#000000;stroke-width:2;stroke-linecap:butt;stroke-linejoin:miter;stroke-miterlimit:10;stroke-opacity:1;stroke-dasharray:none;marker-end:url(#Arrow2Lend);marker-start:url(#Arrow2Lstart)"
       id="path4634" />
    <g
       id="g5702"
       transform="matrix(8.7695769,0,0,8.7695769,-2162.6716,-1233.0987)"
       ns0:preamble=""
       ns0:text="$\\omega_{max}$">
      <defs
         id="defs5704">
        <g
           id="g5706">
          <symbol
             style="overflow:visible"
             id="textext-92bd78a2-0"
             overflow="visible">
            <path
               id="path5709"
               d=""
               style="stroke:none" />
          </symbol>
          <symbol
             style="overflow:visible"
             id="textext-92bd78a2-1"
             overflow="visible">
            <path
               id="path5712"
               d="m 6.03125,-3.703125 c 0,-0.453125 -0.171875,-0.703125 -0.40625,-0.703125 -0.25,0 -0.515625,0.234375 -0.515625,0.46875 0,0.09375 0.046875,0.203125 0.140625,0.296875 0.171875,0.15625 0.359375,0.421875 0.359375,0.84375 0,0.390625 -0.203125,0.96875 -0.5,1.421875 C 4.8125,-0.953125 4.4375,-0.609375 3.96875,-0.609375 3.40625,-0.609375 3.09375,-0.96875 3,-1.5 c 0.109375,-0.265625 0.34375,-0.90625 0.34375,-1.1875 0,-0.109375 -0.046875,-0.21875 -0.1875,-0.21875 -0.078125,0 -0.1875,0.03125 -0.265625,0.171875 C 2.78125,-2.53125 2.65625,-1.890625 2.65625,-1.53125 2.328125,-1.0625 1.9375,-0.609375 1.3125,-0.609375 c -0.671875,0 -0.875,-0.59375 -0.875,-1.140625 0,-1.25 1.015625,-2.296875 1.015625,-2.421875 0,-0.109375 -0.078125,-0.1875 -0.1875,-0.1875 -0.125,0 -0.203125,0.125 -0.265625,0.21875 -0.5,0.734375 -0.875,1.921875 -0.875,2.828125 0,0.6875 0.21875,1.421875 1.046875,1.421875 0.703125,0 1.171875,-0.5 1.53125,-1.046875 0.09375,0.578125 0.484375,1.046875 1.09375,1.046875 0.78125,0 1.25,-0.609375 1.609375,-1.359375 0.25,-0.484375 0.625,-1.84375 0.625,-2.453125 z m 0,0"
               style="stroke:none" />
          </symbol>
          <symbol
             style="overflow:visible"
             id="textext-92bd78a2-2"
             overflow="visible">
            <path
               id="path5715"
               d=""
               style="stroke:none" />
          </symbol>
          <symbol
             style="overflow:visible"
             id="textext-92bd78a2-3"
             overflow="visible">
            <path
               id="path5718"
               d="m 3.03125,-0.5625 c -0.046875,0.140625 -0.109375,0.375 -0.109375,0.40625 0,0.15625 0.125,0.21875 0.234375,0.21875 0.140625,0 0.25,-0.078125 0.28125,-0.140625 0.03125,-0.0625 0.09375,-0.296875 0.125,-0.4375 0.03125,-0.125 0.109375,-0.453125 0.15625,-0.625 0.03125,-0.15625 0.078125,-0.3125 0.109375,-0.46875 0.078125,-0.296875 0.078125,-0.3125 0.21875,-0.53125 C 4.265625,-2.484375 4.625,-2.875 5.15625,-2.875 c 0.390625,0 0.421875,0.3125 0.421875,0.484375 0,0.421875 -0.296875,1.1875 -0.421875,1.484375 -0.0625,0.203125 -0.09375,0.265625 -0.09375,0.375 0,0.375 0.296875,0.59375 0.65625,0.59375 0.703125,0 1,-0.953125 1,-1.0625 0,-0.09375 -0.078125,-0.09375 -0.109375,-0.09375 -0.09375,0 -0.09375,0.046875 -0.125,0.125 C 6.328125,-0.40625 6.015625,-0.125 5.75,-0.125 c -0.15625,0 -0.1875,-0.09375 -0.1875,-0.25 0,-0.15625 0.046875,-0.25 0.171875,-0.5625 0.078125,-0.21875 0.359375,-0.953125 0.359375,-1.34375 0,-0.109375 0,-0.40625 -0.25,-0.609375 -0.125,-0.078125 -0.328125,-0.1875 -0.65625,-0.1875 -0.625,0 -1,0.421875 -1.234375,0.703125 C 3.90625,-2.96875 3.40625,-3.078125 3.046875,-3.078125 2.46875,-3.078125 2.078125,-2.71875 1.875,-2.4375 1.828125,-2.921875 1.421875,-3.078125 1.125,-3.078125 c -0.296875,0 -0.453125,0.21875 -0.546875,0.375 -0.15625,0.265625 -0.25,0.65625 -0.25,0.703125 0,0.078125 0.09375,0.078125 0.125,0.078125 0.09375,0 0.09375,-0.015625 0.140625,-0.203125 0.109375,-0.40625 0.25,-0.75 0.515625,-0.75 0.1875,0 0.234375,0.15625 0.234375,0.34375 0,0.125 -0.0625,0.390625 -0.125,0.578125 -0.046875,0.1875 -0.109375,0.46875 -0.140625,0.625 L 0.84375,-0.4375 c -0.015625,0.09375 -0.0625,0.265625 -0.0625,0.28125 0,0.15625 0.125,0.21875 0.234375,0.21875 0.125,0 0.234375,-0.078125 0.28125,-0.140625 0.03125,-0.0625 0.078125,-0.296875 0.125,-0.4375 0.03125,-0.125 0.109375,-0.453125 0.140625,-0.625 0.046875,-0.15625 0.09375,-0.3125 0.125,-0.46875 0.078125,-0.28125 0.09375,-0.34375 0.296875,-0.625 C 2.171875,-2.515625 2.5,-2.875 3.03125,-2.875 c 0.390625,0 0.40625,0.359375 0.40625,0.484375 0,0.171875 -0.015625,0.265625 -0.125,0.65625 L 3.03125,-0.5625 z m 0,0"
               style="stroke:none" />
          </symbol>
          <symbol
             style="overflow:visible"
             id="textext-92bd78a2-4"
             overflow="visible">
            <path
               id="path5721"
               d="m 2.9375,-2.65625 c -0.140625,-0.234375 -0.375,-0.421875 -0.71875,-0.421875 -0.890625,0 -1.796875,0.984375 -1.796875,1.984375 0,0.6875 0.453125,1.15625 1.0625,1.15625 0.375,0 0.703125,-0.203125 0.984375,-0.484375 C 2.59375,0 3,0.0625 3.1875,0.0625 c 0.25,0 0.421875,-0.140625 0.546875,-0.359375 0.15625,-0.28125 0.25,-0.671875 0.25,-0.703125 0,-0.09375 -0.09375,-0.09375 -0.109375,-0.09375 -0.109375,0 -0.109375,0.03125 -0.15625,0.21875 C 3.625,-0.53125 3.5,-0.125 3.203125,-0.125 3.03125,-0.125 2.96875,-0.28125 2.96875,-0.46875 c 0,-0.109375 0.0625,-0.375 0.109375,-0.546875 0.046875,-0.1875 0.125,-0.46875 0.15625,-0.625 L 3.375,-2.171875 C 3.421875,-2.359375 3.5,-2.6875 3.5,-2.71875 3.5,-2.875 3.375,-2.9375 3.265625,-2.9375 c -0.125,0 -0.28125,0.078125 -0.328125,0.28125 z M 2.5,-0.875 C 2.453125,-0.671875 2.296875,-0.53125 2.140625,-0.40625 2.078125,-0.34375 1.796875,-0.125 1.5,-0.125 c -0.265625,0 -0.515625,-0.1875 -0.515625,-0.671875 0,-0.375 0.203125,-1.140625 0.375,-1.421875 0.3125,-0.5625 0.671875,-0.65625 0.859375,-0.65625 0.484375,0 0.625,0.53125 0.625,0.609375 0,0.015625 -0.015625,0.078125 -0.015625,0.09375 L 2.5,-0.875 z m 0,0"
               style="stroke:none" />
          </symbol>
          <symbol
             style="overflow:visible"
             id="textext-92bd78a2-5"
             overflow="visible">
            <path
               id="path5724"
               d="M 1.734375,-0.734375 C 1.671875,-0.5 1.4375,-0.125 1.078125,-0.125 c -0.015625,0 -0.234375,0 -0.375,-0.09375 0.28125,-0.09375 0.3125,-0.34375 0.3125,-0.390625 0,-0.15625 -0.125,-0.25 -0.28125,-0.25 -0.203125,0 -0.40625,0.15625 -0.40625,0.421875 0,0.34375 0.390625,0.5 0.734375,0.5 0.328125,0 0.609375,-0.1875 0.78125,-0.484375 C 2.015625,-0.0625 2.390625,0.0625 2.671875,0.0625 c 0.8125,0 1.234375,-0.859375 1.234375,-1.0625 0,-0.09375 -0.09375,-0.09375 -0.109375,-0.09375 -0.109375,0 -0.109375,0.046875 -0.140625,0.125 -0.140625,0.484375 -0.5625,0.84375 -0.953125,0.84375 -0.28125,0 -0.421875,-0.1875 -0.421875,-0.453125 0,-0.1875 0.171875,-0.8125 0.359375,-1.59375 C 2.78125,-2.703125 3.09375,-2.875 3.328125,-2.875 c 0.015625,0 0.21875,0 0.375,0.09375 -0.21875,0.0625 -0.3125,0.265625 -0.3125,0.390625 0,0.140625 0.125,0.25 0.28125,0.25 0.15625,0 0.390625,-0.125 0.390625,-0.421875 0,-0.390625 -0.453125,-0.515625 -0.71875,-0.515625 -0.359375,0 -0.640625,0.234375 -0.78125,0.5 -0.125,-0.28125 -0.453125,-0.5 -0.84375,-0.5 C 0.9375,-3.078125 0.5,-2.21875 0.5,-2 c 0,0.078125 0.09375,0.078125 0.109375,0.078125 0.09375,0 0.09375,-0.015625 0.140625,-0.109375 C 0.921875,-2.578125 1.359375,-2.875 1.703125,-2.875 1.9375,-2.875 2.125,-2.75 2.125,-2.421875 2.125,-2.28125 2.03125,-1.9375 1.96875,-1.6875 l -0.234375,0.953125 z m 0,0"
               style="stroke:none" />
          </symbol>
        </g>
      </defs>
      <g
         id="textext-92bd78a2-6">
        <g
           id="g5727"
           style="fill:#000000;fill-opacity:1">
          <use
             height="1052.3622"
             width="744.09448"
             id="use5729"
             y="134.765"
             x="223.43201"
             xlink:href="#textext-92bd78a2-1" />
        </g>
        <g
           id="g5731"
           style="fill:#000000;fill-opacity:1">
          <use
             height="1052.3622"
             width="744.09448"
             id="use5733"
             y="136.259"
             x="229.633"
             xlink:href="#textext-92bd78a2-3" />
          <use
             height="1052.3622"
             width="744.09448"
             id="use5735"
             y="136.259"
             x="236.70235"
             xlink:href="#textext-92bd78a2-4" />
          <use
             height="1052.3622"
             width="744.09448"
             id="use5737"
             y="136.259"
             x="241.024"
             xlink:href="#textext-92bd78a2-5" />
        </g>
      </g>
    </g>
    <g
       ns0:text="$\\omega_{c}$"
       ns0:preamble=""
       transform="matrix(9.1715452,0,0,9.1715452,-2164.0309,-1100.3554)"
       id="g7027">
      <defs
         id="defs7029">
        <g
           id="g7031">
          <symbol
             style="overflow:visible"
             overflow="visible"
             id="textext-fd920185-0">
            <path
               style="stroke:none"
               d=""
               id="path7034" />
          </symbol>
          <symbol
             style="overflow:visible"
             overflow="visible"
             id="textext-fd920185-1">
            <path
               style="stroke:none"
               d="m 6.03125,-3.703125 c 0,-0.453125 -0.171875,-0.703125 -0.40625,-0.703125 -0.25,0 -0.515625,0.234375 -0.515625,0.46875 0,0.09375 0.046875,0.203125 0.140625,0.296875 0.171875,0.15625 0.359375,0.421875 0.359375,0.84375 0,0.390625 -0.203125,0.96875 -0.5,1.421875 C 4.8125,-0.953125 4.4375,-0.609375 3.96875,-0.609375 3.40625,-0.609375 3.09375,-0.96875 3,-1.5 c 0.109375,-0.265625 0.34375,-0.90625 0.34375,-1.1875 0,-0.109375 -0.046875,-0.21875 -0.1875,-0.21875 -0.078125,0 -0.1875,0.03125 -0.265625,0.171875 C 2.78125,-2.53125 2.65625,-1.890625 2.65625,-1.53125 2.328125,-1.0625 1.9375,-0.609375 1.3125,-0.609375 c -0.671875,0 -0.875,-0.59375 -0.875,-1.140625 0,-1.25 1.015625,-2.296875 1.015625,-2.421875 0,-0.109375 -0.078125,-0.1875 -0.1875,-0.1875 -0.125,0 -0.203125,0.125 -0.265625,0.21875 -0.5,0.734375 -0.875,1.921875 -0.875,2.828125 0,0.6875 0.21875,1.421875 1.046875,1.421875 0.703125,0 1.171875,-0.5 1.53125,-1.046875 0.09375,0.578125 0.484375,1.046875 1.09375,1.046875 0.78125,0 1.25,-0.609375 1.609375,-1.359375 0.25,-0.484375 0.625,-1.84375 0.625,-2.453125 z m 0,0"
               id="path7037" />
          </symbol>
          <symbol
             style="overflow:visible"
             overflow="visible"
             id="textext-fd920185-2">
            <path
               style="stroke:none"
               d=""
               id="path7040" />
          </symbol>
          <symbol
             style="overflow:visible"
             overflow="visible"
             id="textext-fd920185-3">
            <path
               style="stroke:none"
               d="m 3.046875,-2.671875 c -0.25,0.046875 -0.34375,0.234375 -0.34375,0.390625 0,0.1875 0.140625,0.265625 0.265625,0.265625 0.15625,0 0.390625,-0.109375 0.390625,-0.453125 0,-0.46875 -0.53125,-0.609375 -0.90625,-0.609375 -1.046875,0 -2.015625,0.96875 -2.015625,1.9375 0,0.59375 0.40625,1.203125 1.28125,1.203125 1.1875,0 1.734375,-0.6875 1.734375,-0.78125 0,-0.046875 -0.0625,-0.125 -0.125,-0.125 -0.03125,0 -0.046875,0.015625 -0.109375,0.078125 C 2.671875,-0.125 1.859375,-0.125 1.734375,-0.125 c -0.5,0 -0.71875,-0.34375 -0.71875,-0.78125 0,-0.1875 0.09375,-0.953125 0.453125,-1.4375 0.265625,-0.34375 0.625,-0.53125 0.984375,-0.53125 0.09375,0 0.421875,0.015625 0.59375,0.203125 z m 0,0"
               id="path7043" />
          </symbol>
        </g>
      </defs>
      <g
         id="textext-fd920185-4">
        <g
           style="fill:#000000;fill-opacity:1"
           id="g7046">
          <use
             height="1052.3622"
             width="744.09448"
             xlink:href="#textext-fd920185-1"
             x="223.43201"
             y="134.765"
             id="use7048" />
        </g>
        <g
           style="fill:#000000;fill-opacity:1"
           id="g7050">
          <use
             height="1052.3622"
             width="744.09448"
             xlink:href="#textext-fd920185-3"
             x="229.633"
             y="136.259"
             id="use7052" />
        </g>
      </g>
    </g>
    <path
       id="path8680"
       d="m 19.8251,121.87636 -30.492919,0"
       style="fill:none;stroke:#000000;stroke-width:2;stroke-linecap:butt;stroke-linejoin:miter;stroke-miterlimit:4;stroke-opacity:1;stroke-dasharray:none" />
    <g
       id="g10754"
       transform="matrix(9.1715452,0,0,9.1715452,-1331.2278,-802.92574)"
       ns0:preamble=""
       ns0:text="$i$">
      <defs
         id="defs10756">
        <g
           id="g10758">
          <symbol
             id="textext-eae389a3-0"
             overflow="visible"
             style="overflow:visible">
            <path
               id="path10761"
               d=""
               style="stroke:none" />
          </symbol>
          <symbol
             id="textext-eae389a3-1"
             overflow="visible"
             style="overflow:visible">
            <path
               id="path10764"
               d="m 2.828125,-6.234375 c 0,-0.203125 -0.140625,-0.359375 -0.359375,-0.359375 -0.28125,0 -0.546875,0.265625 -0.546875,0.53125 0,0.1875 0.140625,0.359375 0.375,0.359375 0.234375,0 0.53125,-0.234375 0.53125,-0.53125 z m -0.75,3.75 c 0.109375,-0.28125 0.109375,-0.3125 0.21875,-0.578125 0.078125,-0.203125 0.125,-0.34375 0.125,-0.53125 0,-0.4375 -0.3125,-0.8125 -0.8125,-0.8125 -0.9375,0 -1.3125,1.453125 -1.3125,1.53125 0,0.109375 0.09375,0.109375 0.109375,0.109375 0.109375,0 0.109375,-0.03125 0.15625,-0.1875 0.28125,-0.9375 0.671875,-1.234375 1.015625,-1.234375 0.078125,0 0.25,0 0.25,0.3125 0,0.21875 -0.078125,0.421875 -0.109375,0.53125 -0.078125,0.25 -0.53125,1.40625 -0.6875,1.84375 -0.109375,0.25 -0.234375,0.578125 -0.234375,0.796875 0,0.46875 0.34375,0.8125 0.8125,0.8125 0.9375,0 1.3125,-1.4375 1.3125,-1.53125 0,-0.109375 -0.09375,-0.109375 -0.125,-0.109375 -0.09375,0 -0.09375,0.03125 -0.140625,0.1875 -0.1875,0.625 -0.515625,1.234375 -1.015625,1.234375 -0.171875,0 -0.25,-0.09375 -0.25,-0.328125 0,-0.25 0.0625,-0.390625 0.296875,-1 l 0.390625,-1.046875 z m 0,0"
               style="stroke:none" />
          </symbol>
        </g>
      </defs>
      <g
         id="textext-eae389a3-2">
        <g
           id="g10767"
           style="fill:#000000;fill-opacity:1">
          <use
             id="use10769"
             y="134.765"
             x="223.43201"
             xlink:href="#textext-eae389a3-1"
             width="980.2616"
             height="560.47473" />
        </g>
      </g>
    </g>
    <g
       id="g11898"
       transform="matrix(9.1715452,0,0,9.1715452,-1503.8822,-1239.6395)"
       ns0:preamble=""
       ns0:text="$\\omega(i)$">
      <defs
         id="defs11900">
        <g
           id="g11902">
          <symbol
             id="textext-87781183-0"
             overflow="visible"
             style="overflow:visible">
            <path
               id="path11905"
               d=""
               style="stroke:none" />
          </symbol>
          <symbol
             id="textext-87781183-1"
             overflow="visible"
             style="overflow:visible">
            <path
               id="path11908"
               d="m 6.03125,-3.703125 c 0,-0.453125 -0.171875,-0.703125 -0.40625,-0.703125 -0.25,0 -0.515625,0.234375 -0.515625,0.46875 0,0.09375 0.046875,0.203125 0.140625,0.296875 0.171875,0.15625 0.359375,0.421875 0.359375,0.84375 0,0.390625 -0.203125,0.96875 -0.5,1.421875 C 4.8125,-0.953125 4.4375,-0.609375 3.96875,-0.609375 3.40625,-0.609375 3.09375,-0.96875 3,-1.5 c 0.109375,-0.265625 0.34375,-0.90625 0.34375,-1.1875 0,-0.109375 -0.046875,-0.21875 -0.1875,-0.21875 -0.078125,0 -0.1875,0.03125 -0.265625,0.171875 C 2.78125,-2.53125 2.65625,-1.890625 2.65625,-1.53125 2.328125,-1.0625 1.9375,-0.609375 1.3125,-0.609375 c -0.671875,0 -0.875,-0.59375 -0.875,-1.140625 0,-1.25 1.015625,-2.296875 1.015625,-2.421875 0,-0.109375 -0.078125,-0.1875 -0.1875,-0.1875 -0.125,0 -0.203125,0.125 -0.265625,0.21875 -0.5,0.734375 -0.875,1.921875 -0.875,2.828125 0,0.6875 0.21875,1.421875 1.046875,1.421875 0.703125,0 1.171875,-0.5 1.53125,-1.046875 0.09375,0.578125 0.484375,1.046875 1.09375,1.046875 0.78125,0 1.25,-0.609375 1.609375,-1.359375 0.25,-0.484375 0.625,-1.84375 0.625,-2.453125 z m 0,0"
               style="stroke:none" />
          </symbol>
          <symbol
             id="textext-87781183-2"
             overflow="visible"
             style="overflow:visible">
            <path
               id="path11911"
               d="m 2.828125,-6.234375 c 0,-0.203125 -0.140625,-0.359375 -0.359375,-0.359375 -0.28125,0 -0.546875,0.265625 -0.546875,0.53125 0,0.1875 0.140625,0.359375 0.375,0.359375 0.234375,0 0.53125,-0.234375 0.53125,-0.53125 z m -0.75,3.75 c 0.109375,-0.28125 0.109375,-0.3125 0.21875,-0.578125 0.078125,-0.203125 0.125,-0.34375 0.125,-0.53125 0,-0.4375 -0.3125,-0.8125 -0.8125,-0.8125 -0.9375,0 -1.3125,1.453125 -1.3125,1.53125 0,0.109375 0.09375,0.109375 0.109375,0.109375 0.109375,0 0.109375,-0.03125 0.15625,-0.1875 0.28125,-0.9375 0.671875,-1.234375 1.015625,-1.234375 0.078125,0 0.25,0 0.25,0.3125 0,0.21875 -0.078125,0.421875 -0.109375,0.53125 -0.078125,0.25 -0.53125,1.40625 -0.6875,1.84375 -0.109375,0.25 -0.234375,0.578125 -0.234375,0.796875 0,0.46875 0.34375,0.8125 0.8125,0.8125 0.9375,0 1.3125,-1.4375 1.3125,-1.53125 0,-0.109375 -0.09375,-0.109375 -0.125,-0.109375 -0.09375,0 -0.09375,0.03125 -0.140625,0.1875 -0.1875,0.625 -0.515625,1.234375 -1.015625,1.234375 -0.171875,0 -0.25,-0.09375 -0.25,-0.328125 0,-0.25 0.0625,-0.390625 0.296875,-1 l 0.390625,-1.046875 z m 0,0"
               style="stroke:none" />
          </symbol>
          <symbol
             id="textext-87781183-3"
             overflow="visible"
             style="overflow:visible">
            <path
               id="path11914"
               d=""
               style="stroke:none" />
          </symbol>
          <symbol
             id="textext-87781183-4"
             overflow="visible"
             style="overflow:visible">
            <path
               id="path11917"
               d="m 3.296875,2.390625 c 0,-0.03125 0,-0.046875 -0.171875,-0.21875 C 1.890625,0.921875 1.5625,-0.96875 1.5625,-2.5 c 0,-1.734375 0.375,-3.46875 1.609375,-4.703125 0.125,-0.125 0.125,-0.140625 0.125,-0.171875 0,-0.078125 -0.03125,-0.109375 -0.09375,-0.109375 -0.109375,0 -1,0.6875 -1.59375,1.953125 -0.5,1.09375 -0.625,2.203125 -0.625,3.03125 0,0.78125 0.109375,1.984375 0.65625,3.125 C 2.25,1.84375 3.09375,2.5 3.203125,2.5 c 0.0625,0 0.09375,-0.03125 0.09375,-0.109375 z m 0,0"
               style="stroke:none" />
          </symbol>
          <symbol
             id="textext-87781183-5"
             overflow="visible"
             style="overflow:visible">
            <path
               id="path11920"
               d="m 2.875,-2.5 c 0,-0.765625 -0.109375,-1.96875 -0.65625,-3.109375 -0.59375,-1.21875 -1.453125,-1.875 -1.546875,-1.875 -0.0625,0 -0.109375,0.046875 -0.109375,0.109375 0,0.03125 0,0.046875 0.1875,0.234375 0.984375,0.984375 1.546875,2.5625 1.546875,4.640625 0,1.71875 -0.359375,3.46875 -1.59375,4.71875 C 0.5625,2.34375 0.5625,2.359375 0.5625,2.390625 0.5625,2.453125 0.609375,2.5 0.671875,2.5 0.765625,2.5 1.671875,1.8125 2.25,0.546875 2.765625,-0.546875 2.875,-1.65625 2.875,-2.5 z m 0,0"
               style="stroke:none" />
          </symbol>
        </g>
      </defs>
      <g
         id="textext-87781183-6">
        <g
           id="g11923"
           style="fill:#000000;fill-opacity:1">
          <use
             id="use11925"
             y="134.765"
             x="223.43201"
             xlink:href="#textext-87781183-1"
             width="980.2616"
             height="560.47473" />
        </g>
        <g
           id="g11927"
           style="fill:#000000;fill-opacity:1">
          <use
             id="use11929"
             y="134.765"
             x="229.991"
             xlink:href="#textext-87781183-4"
             width="980.2616"
             height="560.47473" />
        </g>
        <g
           id="g11931"
           style="fill:#000000;fill-opacity:1">
          <use
             id="use11933"
             y="134.765"
             x="233.86501"
             xlink:href="#textext-87781183-2"
             width="980.2616"
             height="560.47473" />
        </g>
        <g
           id="g11935"
           style="fill:#000000;fill-opacity:1">
          <use
             id="use11937"
             y="134.765"
             x="237.297"
             xlink:href="#textext-87781183-5"
             width="980.2616"
             height="560.47473" />
        </g>
      </g>
    </g>
  </g>
</svg>
