<?xml version="1.0" encoding="UTF-8" standalone="no"?>
<!-- Created with Inkscape (http://www.inkscape.org/) -->

<svg
   xmlns:ns0="http://www.iki.fi/pav/software/textext/"
   xmlns:dc="http://purl.org/dc/elements/1.1/"
   xmlns:cc="http://creativecommons.org/ns#"
   xmlns:rdf="http://www.w3.org/1999/02/22-rdf-syntax-ns#"
   xmlns:svg="http://www.w3.org/2000/svg"
   xmlns="http://www.w3.org/2000/svg"
   xmlns:xlink="http://www.w3.org/1999/xlink"
   xmlns:sodipodi="http://sodipodi.sourceforge.net/DTD/sodipodi-0.dtd"
   xmlns:inkscape="http://www.inkscape.org/namespaces/inkscape"
   width="638.18933"
   height="405.49869"
   id="svg2"
   version="1.1"
   inkscape:version="0.47 r22583"
   sodipodi:docname="trapez.svg">
  <sodipodi:namedview
     id="base"
     pagecolor="#ffffff"
     bordercolor="#666666"
     borderopacity="1.0"
     inkscape:pageopacity="0.0"
     inkscape:pageshadow="2"
     inkscape:zoom="1.8175152"
     inkscape:cx="319.09466"
     inkscape:cy="202.74934"
     inkscape:document-units="px"
     inkscape:current-layer="layer1"
     showgrid="false"
     inkscape:window-width="1920"
     inkscape:window-height="1005"
     inkscape:window-x="0"
     inkscape:window-y="24"
     inkscape:window-maximized="1" />
  <defs
     id="defs4">
    <marker
       inkscape:stockid="Arrow1Lend"
       orient="auto"
       refY="0"
       refX="0"
       id="Arrow1Lend"
       style="overflow:visible">
      <path
         id="path3759"
         d="M 0,0 5,-5 -12.5,0 5,5 0,0 z"
         style="fill-rule:evenodd;stroke:#000000;stroke-width:1pt;marker-start:none"
         transform="matrix(-0.8,0,0,-0.8,-10,0)" />
    </marker>
    <marker
       inkscape:stockid="Arrow1Lstart"
       orient="auto"
       refY="0"
       refX="0"
       id="Arrow1Lstart"
       style="overflow:visible">
      <path
         id="path3756"
         d="M 0,0 5,-5 -12.5,0 5,5 0,0 z"
         style="fill-rule:evenodd;stroke:#000000;stroke-width:1pt;marker-start:none"
         transform="matrix(0.8,0,0,0.8,10,0)" />
    </marker>
    <marker
       inkscape:stockid="Arrow1Mstart"
       orient="auto"
       refY="0"
       refX="0"
       id="Arrow1Mstart"
       style="overflow:visible">
      <path
         id="path3762"
         d="M 0,0 5,-5 -12.5,0 5,5 0,0 z"
         style="fill-rule:evenodd;stroke:#000000;stroke-width:1pt;marker-start:none"
         transform="matrix(0.4,0,0,0.4,4,0)" />
    </marker>
    <inkscape:perspective
       sodipodi:type="inkscape:persp3d"
       inkscape:vp_x="0 : 526.18109 : 1"
       inkscape:vp_y="0 : 1000 : 0"
       inkscape:vp_z="744.09448 : 526.18109 : 1"
       inkscape:persp3d-origin="372.04724 : 350.78739 : 1"
       id="perspective10" />
    <inkscape:perspective
       id="perspective2866"
       inkscape:persp3d-origin="0.5 : 0.33333333 : 1"
       inkscape:vp_z="1 : 0.5 : 1"
       inkscape:vp_y="0 : 1000 : 0"
       inkscape:vp_x="0 : 0.5 : 1"
       sodipodi:type="inkscape:persp3d" />
    <inkscape:perspective
       id="perspective4608"
       inkscape:persp3d-origin="0.5 : 0.33333333 : 1"
       inkscape:vp_z="1 : 0.5 : 1"
       inkscape:vp_y="0 : 1000 : 0"
       inkscape:vp_x="0 : 0.5 : 1"
       sodipodi:type="inkscape:persp3d" />
    <inkscape:perspective
       id="perspective22366"
       inkscape:persp3d-origin="0.5 : 0.33333333 : 1"
       inkscape:vp_z="1 : 0.5 : 1"
       inkscape:vp_y="0 : 1000 : 0"
       inkscape:vp_x="0 : 0.5 : 1"
       sodipodi:type="inkscape:persp3d" />
    <inkscape:perspective
       id="perspective22465"
       inkscape:persp3d-origin="0.5 : 0.33333333 : 1"
       inkscape:vp_z="1 : 0.5 : 1"
       inkscape:vp_y="0 : 1000 : 0"
       inkscape:vp_x="0 : 0.5 : 1"
       sodipodi:type="inkscape:persp3d" />
  </defs>
  <metadata
     id="metadata7">
    <rdf:RDF>
      <cc:Work
         rdf:about="">
        <dc:format>image/svg+xml</dc:format>
        <dc:type
           rdf:resource="http://purl.org/dc/dcmitype/StillImage" />
        <dc:title></dc:title>
      </cc:Work>
    </rdf:RDF>
  </metadata>
  <g
     inkscape:label="Ebene 1"
     inkscape:groupmode="layer"
     id="layer1"
     transform="translate(68.846674,-349.50169)">
    <path
       id="path4618"
       style="fill:none;stroke:#000000;stroke-width:0.75015002;stroke-linecap:butt;stroke-linejoin:miter;stroke-miterlimit:10;stroke-opacity:1;stroke-dasharray:none"
       d="m 23.507501,699.94664 0,-70.01375" />
    <path
       id="path4634"
       style="fill:none;stroke:#000000;stroke-width:0.75015002;stroke-linecap:butt;stroke-linejoin:miter;stroke-miterlimit:10;stroke-opacity:1;stroke-dasharray:none"
       d="m 23.507501,699.94664 500.099879,0" />
    <path
       id="path4636"
       style="fill:none;stroke:#000000;stroke-width:0.75015002;stroke-linecap:butt;stroke-linejoin:miter;stroke-miterlimit:10;stroke-opacity:1;stroke-dasharray:none;marker-start:url(#Arrow1Lstart);marker-end:url(#Arrow1Lend)"
       d="m 23.507501,349.87677 0,350.06987 500.099879,0" />
    <g
       transform="matrix(4.8305043,0,0,4.8305043,28.852133,400.48822)"
       ns0:text="$f(\\omega(i))$"
       ns0:preamble="/home/tobias/Uni/talksAndPoster/120401_karlsruhe/header.tex"
       id="g5079">
      <defs
         id="defs5081">
        <g
           id="g5083">
          <symbol
             style="overflow:visible"
             overflow="visible"
             id="textext-8bf2e918-0">
            <path
               style="stroke:none"
               d=""
               id="path5086" />
          </symbol>
          <symbol
             style="overflow:visible"
             overflow="visible"
             id="textext-8bf2e918-1">
            <path
               style="stroke:none"
               d="m 3.65625,-3.984375 0.859375,0 c 0.203125,0 0.296875,0 0.296875,-0.203125 0,-0.109375 -0.09375,-0.109375 -0.265625,-0.109375 l -0.828125,0 0.203125,-1.140625 c 0.046875,-0.203125 0.1875,-0.90625 0.25,-1.03125 0.078125,-0.1875 0.25,-0.34375 0.46875,-0.34375 0.03125,0 0.296875,0 0.484375,0.1875 -0.4375,0.03125 -0.546875,0.390625 -0.546875,0.53125 0,0.234375 0.1875,0.359375 0.375,0.359375 C 5.21875,-5.734375 5.5,-5.96875 5.5,-6.34375 c 0,-0.453125 -0.453125,-0.6875 -0.859375,-0.6875 -0.34375,0 -0.96875,0.1875 -1.265625,1.171875 -0.0625,0.203125 -0.09375,0.3125 -0.328125,1.5625 l -0.6875,0 c -0.203125,0 -0.3125,0 -0.3125,0.1875 0,0.125 0.09375,0.125 0.28125,0.125 l 0.65625,0 -0.734375,3.9375 c -0.1875,0.96875 -0.359375,1.875 -0.875,1.875 -0.046875,0 -0.28125,0 -0.484375,-0.1875 C 1.359375,1.609375 1.453125,1.25 1.453125,1.109375 1.453125,0.875 1.265625,0.75 1.078125,0.75 0.8125,0.75 0.53125,0.984375 0.53125,1.359375 c 0,0.4375 0.4375,0.6875 0.84375,0.6875 0.546875,0 0.953125,-0.59375 1.125,-0.96875 0.328125,-0.625 0.546875,-1.828125 0.5625,-1.90625 l 0.59375,-3.15625 z m 0,0"
               id="path5089" />
          </symbol>
          <symbol
             style="overflow:visible"
             overflow="visible"
             id="textext-8bf2e918-2">
            <path
               style="stroke:none"
               d="m 6.03125,-3.703125 c 0,-0.453125 -0.171875,-0.703125 -0.40625,-0.703125 -0.25,0 -0.515625,0.234375 -0.515625,0.46875 0,0.09375 0.046875,0.203125 0.140625,0.296875 0.171875,0.15625 0.359375,0.421875 0.359375,0.84375 0,0.390625 -0.203125,0.96875 -0.5,1.421875 C 4.8125,-0.953125 4.4375,-0.609375 3.96875,-0.609375 3.40625,-0.609375 3.09375,-0.96875 3,-1.5 c 0.109375,-0.265625 0.34375,-0.90625 0.34375,-1.1875 0,-0.109375 -0.046875,-0.21875 -0.1875,-0.21875 -0.078125,0 -0.1875,0.03125 -0.265625,0.171875 C 2.78125,-2.53125 2.65625,-1.890625 2.65625,-1.53125 2.328125,-1.0625 1.9375,-0.609375 1.3125,-0.609375 c -0.671875,0 -0.875,-0.59375 -0.875,-1.140625 0,-1.25 1.015625,-2.296875 1.015625,-2.421875 0,-0.109375 -0.078125,-0.1875 -0.1875,-0.1875 -0.125,0 -0.203125,0.125 -0.265625,0.21875 -0.5,0.734375 -0.875,1.921875 -0.875,2.828125 0,0.6875 0.21875,1.421875 1.046875,1.421875 0.703125,0 1.171875,-0.5 1.53125,-1.046875 0.09375,0.578125 0.484375,1.046875 1.09375,1.046875 0.78125,0 1.25,-0.609375 1.609375,-1.359375 0.25,-0.484375 0.625,-1.84375 0.625,-2.453125 z m 0,0"
               id="path5092" />
          </symbol>
          <symbol
             style="overflow:visible"
             overflow="visible"
             id="textext-8bf2e918-3">
            <path
               style="stroke:none"
               d="m 2.828125,-6.234375 c 0,-0.203125 -0.140625,-0.359375 -0.359375,-0.359375 -0.28125,0 -0.546875,0.265625 -0.546875,0.53125 0,0.1875 0.140625,0.359375 0.375,0.359375 0.234375,0 0.53125,-0.234375 0.53125,-0.53125 z m -0.75,3.75 c 0.109375,-0.28125 0.109375,-0.3125 0.21875,-0.578125 0.078125,-0.203125 0.125,-0.34375 0.125,-0.53125 0,-0.4375 -0.3125,-0.8125 -0.8125,-0.8125 -0.9375,0 -1.3125,1.453125 -1.3125,1.53125 0,0.109375 0.09375,0.109375 0.109375,0.109375 0.109375,0 0.109375,-0.03125 0.15625,-0.1875 0.28125,-0.9375 0.671875,-1.234375 1.015625,-1.234375 0.078125,0 0.25,0 0.25,0.3125 0,0.21875 -0.078125,0.421875 -0.109375,0.53125 -0.078125,0.25 -0.53125,1.40625 -0.6875,1.84375 -0.109375,0.25 -0.234375,0.578125 -0.234375,0.796875 0,0.46875 0.34375,0.8125 0.8125,0.8125 0.9375,0 1.3125,-1.4375 1.3125,-1.53125 0,-0.109375 -0.09375,-0.109375 -0.125,-0.109375 -0.09375,0 -0.09375,0.03125 -0.140625,0.1875 -0.1875,0.625 -0.515625,1.234375 -1.015625,1.234375 -0.171875,0 -0.25,-0.09375 -0.25,-0.328125 0,-0.25 0.0625,-0.390625 0.296875,-1 l 0.390625,-1.046875 z m 0,0"
               id="path5095" />
          </symbol>
          <symbol
             style="overflow:visible"
             overflow="visible"
             id="textext-8bf2e918-4">
            <path
               style="stroke:none"
               d=""
               id="path5098" />
          </symbol>
          <symbol
             style="overflow:visible"
             overflow="visible"
             id="textext-8bf2e918-5">
            <path
               style="stroke:none"
               d="m 3.296875,2.390625 c 0,-0.03125 0,-0.046875 -0.171875,-0.21875 C 1.890625,0.921875 1.5625,-0.96875 1.5625,-2.5 c 0,-1.734375 0.375,-3.46875 1.609375,-4.703125 0.125,-0.125 0.125,-0.140625 0.125,-0.171875 0,-0.078125 -0.03125,-0.109375 -0.09375,-0.109375 -0.109375,0 -1,0.6875 -1.59375,1.953125 -0.5,1.09375 -0.625,2.203125 -0.625,3.03125 0,0.78125 0.109375,1.984375 0.65625,3.125 C 2.25,1.84375 3.09375,2.5 3.203125,2.5 c 0.0625,0 0.09375,-0.03125 0.09375,-0.109375 z m 0,0"
               id="path5101" />
          </symbol>
          <symbol
             style="overflow:visible"
             overflow="visible"
             id="textext-8bf2e918-6">
            <path
               style="stroke:none"
               d="m 2.875,-2.5 c 0,-0.765625 -0.109375,-1.96875 -0.65625,-3.109375 -0.59375,-1.21875 -1.453125,-1.875 -1.546875,-1.875 -0.0625,0 -0.109375,0.046875 -0.109375,0.109375 0,0.03125 0,0.046875 0.1875,0.234375 0.984375,0.984375 1.546875,2.5625 1.546875,4.640625 0,1.71875 -0.359375,3.46875 -1.59375,4.71875 C 0.5625,2.34375 0.5625,2.359375 0.5625,2.390625 0.5625,2.453125 0.609375,2.5 0.671875,2.5 0.765625,2.5 1.671875,1.8125 2.25,0.546875 2.765625,-0.546875 2.875,-1.65625 2.875,-2.5 z m 0,0"
               id="path5104" />
          </symbol>
        </g>
      </defs>
      <g
         id="textext-8bf2e918-7">
        <g
           style="fill:#000000;fill-opacity:1"
           id="g5107">
          <use
             height="1052.3622"
             width="744.09448"
             xlink:href="#textext-8bf2e918-1"
             x="1.1339999"
             y="-0.80900002"
             id="use5109" />
        </g>
        <g
           style="fill:#000000;fill-opacity:1"
           id="g5111">
          <use
             height="1052.3622"
             width="744.09448"
             xlink:href="#textext-8bf2e918-5"
             x="7.0840001"
             y="-0.80900002"
             id="use5113" />
        </g>
        <g
           style="fill:#000000;fill-opacity:1"
           id="g5115">
          <use
             height="1052.3622"
             width="744.09448"
             xlink:href="#textext-8bf2e918-2"
             x="10.958"
             y="-0.80900002"
             id="use5117" />
        </g>
        <g
           style="fill:#000000;fill-opacity:1"
           id="g5119">
          <use
             height="1052.3622"
             width="744.09448"
             xlink:href="#textext-8bf2e918-5"
             x="17.517"
             y="-0.80900002"
             id="use5121" />
        </g>
        <g
           style="fill:#000000;fill-opacity:1"
           id="g5123">
          <use
             height="1052.3622"
             width="744.09448"
             xlink:href="#textext-8bf2e918-3"
             x="21.391001"
             y="-0.80900002"
             id="use5125" />
        </g>
        <g
           style="fill:#000000;fill-opacity:1"
           id="g5127">
          <use
             height="1052.3622"
             width="744.09448"
             xlink:href="#textext-8bf2e918-6"
             x="24.823999"
             y="-0.80900002"
             id="use5129" />
          <use
             height="1052.3622"
             width="744.09448"
             xlink:href="#textext-8bf2e918-6"
             x="28.698456"
             y="-0.80900002"
             id="use5131" />
        </g>
      </g>
    </g>
    <g
       ns0:text="$i=0\\;\\;\\;1\\;\\;\\; 2\\;\\dots$"
       ns0:preamble=""
       transform="matrix(4.8305043,0,0,4.8305043,-1149.57,102.96079)"
       id="g20823">
      <defs
         id="defs20825">
        <g
           id="g20827">
          <symbol
             overflow="visible"
             id="textext-b8d676fd-0"
             style="overflow:visible">
            <path
               style="stroke:none"
               d=""
               id="path20830" />
          </symbol>
          <symbol
             overflow="visible"
             id="textext-b8d676fd-1"
             style="overflow:visible">
            <path
               style="stroke:none"
               d="m 2.828125,-6.234375 c 0,-0.203125 -0.140625,-0.359375 -0.359375,-0.359375 -0.28125,0 -0.546875,0.265625 -0.546875,0.53125 0,0.1875 0.140625,0.359375 0.375,0.359375 0.234375,0 0.53125,-0.234375 0.53125,-0.53125 z m -0.75,3.75 c 0.109375,-0.28125 0.109375,-0.3125 0.21875,-0.578125 0.078125,-0.203125 0.125,-0.34375 0.125,-0.53125 0,-0.4375 -0.3125,-0.8125 -0.8125,-0.8125 -0.9375,0 -1.3125,1.453125 -1.3125,1.53125 0,0.109375 0.09375,0.109375 0.109375,0.109375 0.109375,0 0.109375,-0.03125 0.15625,-0.1875 0.28125,-0.9375 0.671875,-1.234375 1.015625,-1.234375 0.078125,0 0.25,0 0.25,0.3125 0,0.21875 -0.078125,0.421875 -0.109375,0.53125 -0.078125,0.25 -0.53125,1.40625 -0.6875,1.84375 -0.109375,0.25 -0.234375,0.578125 -0.234375,0.796875 0,0.46875 0.34375,0.8125 0.8125,0.8125 0.9375,0 1.3125,-1.4375 1.3125,-1.53125 0,-0.109375 -0.09375,-0.109375 -0.125,-0.109375 -0.09375,0 -0.09375,0.03125 -0.140625,0.1875 -0.1875,0.625 -0.515625,1.234375 -1.015625,1.234375 -0.171875,0 -0.25,-0.09375 -0.25,-0.328125 0,-0.25 0.0625,-0.390625 0.296875,-1 l 0.390625,-1.046875 z m 0,0"
               id="path20833" />
          </symbol>
          <symbol
             overflow="visible"
             id="textext-b8d676fd-2"
             style="overflow:visible">
            <path
               style="stroke:none"
               d="m 1.90625,-0.53125 c 0,-0.28125 -0.234375,-0.53125 -0.515625,-0.53125 -0.296875,0 -0.53125,0.25 -0.53125,0.53125 C 0.859375,-0.234375 1.09375,0 1.390625,0 1.671875,0 1.90625,-0.234375 1.90625,-0.53125 z m 0,0"
               id="path20836" />
          </symbol>
          <symbol
             overflow="visible"
             id="textext-b8d676fd-3"
             style="overflow:visible">
            <path
               style="stroke:none"
               d=""
               id="path20839" />
          </symbol>
          <symbol
             overflow="visible"
             id="textext-b8d676fd-4"
             style="overflow:visible">
            <path
               style="stroke:none"
               d="m 6.84375,-3.265625 c 0.15625,0 0.34375,0 0.34375,-0.1875 C 7.1875,-3.65625 7,-3.65625 6.859375,-3.65625 l -5.96875,0 c -0.140625,0 -0.328125,0 -0.328125,0.203125 0,0.1875 0.1875,0.1875 0.328125,0.1875 l 5.953125,0 z m 0.015625,1.9375 c 0.140625,0 0.328125,0 0.328125,-0.203125 0,-0.1875 -0.1875,-0.1875 -0.34375,-0.1875 l -5.953125,0 c -0.140625,0 -0.328125,0 -0.328125,0.1875 0,0.203125 0.1875,0.203125 0.328125,0.203125 l 5.96875,0 z m 0,0"
               id="path20842" />
          </symbol>
          <symbol
             overflow="visible"
             id="textext-b8d676fd-5"
             style="overflow:visible">
            <path
               style="stroke:none"
               d="m 4.578125,-3.1875 c 0,-0.796875 -0.046875,-1.59375 -0.390625,-2.328125 -0.453125,-0.96875 -1.28125,-1.125 -1.6875,-1.125 -0.609375,0 -1.328125,0.265625 -1.75,1.1875 -0.3125,0.6875 -0.359375,1.46875 -0.359375,2.265625 0,0.75 0.03125,1.640625 0.453125,2.40625 0.421875,0.796875 1.15625,1 1.640625,1 0.53125,0 1.296875,-0.203125 1.734375,-1.15625 0.3125,-0.6875 0.359375,-1.46875 0.359375,-2.25 z M 2.484375,0 C 2.09375,0 1.5,-0.25 1.328125,-1.203125 1.21875,-1.796875 1.21875,-2.71875 1.21875,-3.3125 c 0,-0.640625 0,-1.296875 0.078125,-1.828125 0.1875,-1.1875 0.9375,-1.28125 1.1875,-1.28125 0.328125,0 0.984375,0.1875 1.171875,1.171875 0.109375,0.5625 0.109375,1.3125 0.109375,1.9375 0,0.75 0,1.421875 -0.109375,2.0625 C 3.5,-0.296875 2.9375,0 2.484375,0 z m 0,0"
               id="path20845" />
          </symbol>
          <symbol
             overflow="visible"
             id="textext-b8d676fd-6"
             style="overflow:visible">
            <path
               style="stroke:none"
               d="m 2.9375,-6.375 c 0,-0.25 0,-0.265625 -0.234375,-0.265625 C 2.078125,-6 1.203125,-6 0.890625,-6 l 0,0.3125 c 0.203125,0 0.78125,0 1.296875,-0.265625 l 0,5.171875 c 0,0.359375 -0.03125,0.46875 -0.921875,0.46875 l -0.3125,0 0,0.3125 c 0.34375,-0.03125 1.203125,-0.03125 1.609375,-0.03125 0.390625,0 1.265625,0 1.609375,0.03125 l 0,-0.3125 -0.3125,0 c -0.90625,0 -0.921875,-0.109375 -0.921875,-0.46875 l 0,-5.59375 z m 0,0"
               id="path20848" />
          </symbol>
          <symbol
             overflow="visible"
             id="textext-b8d676fd-7"
             style="overflow:visible">
            <path
               style="stroke:none"
               d="m 1.265625,-0.765625 1.0625,-1.03125 c 1.546875,-1.375 2.140625,-1.90625 2.140625,-2.90625 0,-1.140625 -0.890625,-1.9375 -2.109375,-1.9375 -1.125,0 -1.859375,0.921875 -1.859375,1.8125 0,0.546875 0.5,0.546875 0.53125,0.546875 0.171875,0 0.515625,-0.109375 0.515625,-0.53125 0,-0.25 -0.1875,-0.515625 -0.53125,-0.515625 -0.078125,0 -0.09375,0 -0.125,0.015625 0.21875,-0.65625 0.765625,-1.015625 1.34375,-1.015625 0.90625,0 1.328125,0.8125 1.328125,1.625 C 3.5625,-3.90625 3.078125,-3.125 2.515625,-2.5 l -1.90625,2.125 C 0.5,-0.265625 0.5,-0.234375 0.5,0 l 3.703125,0 0.265625,-1.734375 -0.234375,0 C 4.171875,-1.4375 4.109375,-1 4,-0.84375 3.9375,-0.765625 3.28125,-0.765625 3.0625,-0.765625 l -1.796875,0 z m 0,0"
               id="path20851" />
          </symbol>
        </g>
      </defs>
      <g
         id="textext-b8d676fd-8">
        <g
           style="fill:#000000;fill-opacity:1"
           id="g20854">
          <use
             xlink:href="#textext-b8d676fd-1"
             x="223.43201"
             y="134.765"
             id="use20856"
             width="744.09448"
             height="1052.3622" />
        </g>
        <g
           style="fill:#000000;fill-opacity:1"
           id="g20858">
          <use
             xlink:href="#textext-b8d676fd-4"
             x="229.632"
             y="134.765"
             id="use20860"
             width="744.09448"
             height="1052.3622" />
        </g>
        <g
           style="fill:#000000;fill-opacity:1"
           id="g20862">
          <use
             xlink:href="#textext-b8d676fd-5"
             x="240.15051"
             y="134.765"
             id="use20864"
             width="744.09448"
             height="1052.3622" />
        </g>
        <g
           style="fill:#000000;fill-opacity:1"
           id="g20866">
          <use
             xlink:href="#textext-b8d676fd-6"
             x="253.43066"
             y="134.765"
             id="use20868"
             width="744.09448"
             height="1052.3622" />
        </g>
        <g
           style="fill:#000000;fill-opacity:1"
           id="g20870">
          <use
             xlink:href="#textext-b8d676fd-7"
             x="266.71082"
             y="134.765"
             id="use20872"
             width="744.09448"
             height="1052.3622" />
        </g>
        <g
           style="fill:#000000;fill-opacity:1"
           id="g20874">
          <use
             xlink:href="#textext-b8d676fd-2"
             x="276.12399"
             y="134.765"
             id="use20876"
             width="744.09448"
             height="1052.3622" />
        </g>
        <g
           style="fill:#000000;fill-opacity:1"
           id="g20878">
          <use
             xlink:href="#textext-b8d676fd-2"
             x="280.55536"
             y="134.765"
             id="use20880"
             width="744.09448"
             height="1052.3622" />
        </g>
        <g
           style="fill:#000000;fill-opacity:1"
           id="g20882">
          <use
             xlink:href="#textext-b8d676fd-2"
             x="284.97678"
             y="134.765"
             id="use20884"
             width="744.09448"
             height="1052.3622" />
        </g>
      </g>
    </g>
    <g
       id="g21078"
       transform="matrix(4.8305043,0,0,4.8305043,-539.08061,62.819241)"
       ns0:preamble=""
       ns0:text="$\\omega$">
      <defs
         id="defs21080">
        <g
           id="g21082">
          <symbol
             id="textext-e72aae5e-0"
             overflow="visible"
             style="overflow:visible">
            <path
               id="path21085"
               d=""
               style="stroke:none" />
          </symbol>
          <symbol
             id="textext-e72aae5e-1"
             overflow="visible"
             style="overflow:visible">
            <path
               id="path21088"
               d="m 6.03125,-3.703125 c 0,-0.453125 -0.171875,-0.703125 -0.40625,-0.703125 -0.25,0 -0.515625,0.234375 -0.515625,0.46875 0,0.09375 0.046875,0.203125 0.140625,0.296875 0.171875,0.15625 0.359375,0.421875 0.359375,0.84375 0,0.390625 -0.203125,0.96875 -0.5,1.421875 C 4.8125,-0.953125 4.4375,-0.609375 3.96875,-0.609375 3.40625,-0.609375 3.09375,-0.96875 3,-1.5 c 0.109375,-0.265625 0.34375,-0.90625 0.34375,-1.1875 0,-0.109375 -0.046875,-0.21875 -0.1875,-0.21875 -0.078125,0 -0.1875,0.03125 -0.265625,0.171875 C 2.78125,-2.53125 2.65625,-1.890625 2.65625,-1.53125 2.328125,-1.0625 1.9375,-0.609375 1.3125,-0.609375 c -0.671875,0 -0.875,-0.59375 -0.875,-1.140625 0,-1.25 1.015625,-2.296875 1.015625,-2.421875 0,-0.109375 -0.078125,-0.1875 -0.1875,-0.1875 -0.125,0 -0.203125,0.125 -0.265625,0.21875 -0.5,0.734375 -0.875,1.921875 -0.875,2.828125 0,0.6875 0.21875,1.421875 1.046875,1.421875 0.703125,0 1.171875,-0.5 1.53125,-1.046875 0.09375,0.578125 0.484375,1.046875 1.09375,1.046875 0.78125,0 1.25,-0.609375 1.609375,-1.359375 0.25,-0.484375 0.625,-1.84375 0.625,-2.453125 z m 0,0"
               style="stroke:none" />
          </symbol>
        </g>
      </defs>
      <g
         id="textext-e72aae5e-2">
        <g
           id="g21091"
           style="fill:#000000;fill-opacity:1">
          <use
             id="use21093"
             y="134.765"
             x="223.43201"
             xlink:href="#textext-e72aae5e-1"
             width="744.09448"
             height="1052.3622" />
        </g>
      </g>
    </g>
    <path
       d="m 23.507501,699.94664 0,-70.01375"
       style="fill:none;stroke:#000000;stroke-width:0.75015002;stroke-linecap:butt;stroke-linejoin:miter;stroke-miterlimit:10;stroke-opacity:1;stroke-dasharray:none"
       id="path21197" />
    <path
       d="m 23.507501,699.94664 500.099879,0"
       style="fill:none;stroke:#000000;stroke-width:0.75015002;stroke-linecap:butt;stroke-linejoin:miter;stroke-miterlimit:10;stroke-opacity:1;stroke-dasharray:none"
       id="path21213" />
    <path
       d="m 23.507501,349.87677 0,350.06987 500.099879,0"
       style="fill:none;stroke:#000000;stroke-width:0.75015002;stroke-linecap:butt;stroke-linejoin:miter;stroke-miterlimit:10;stroke-opacity:1;stroke-dasharray:none;marker-start:url(#Arrow1Lstart);marker-end:url(#Arrow1Lend)"
       id="path21215" />
    <g
       id="g21217"
       ns0:preamble="/home/tobias/Uni/talksAndPoster/120401_karlsruhe/header.tex"
       ns0:text="$f(\\omega(i))$"
       transform="matrix(4.8305043,0,0,4.8305043,28.852133,400.48822)">
      <defs
         id="defs21219">
        <g
           id="g21221">
          <symbol
             id="symbol21223"
             overflow="visible"
             style="overflow:visible">
            <path
               id="path21225"
               d=""
               style="stroke:none" />
          </symbol>
          <symbol
             id="symbol21227"
             overflow="visible"
             style="overflow:visible">
            <path
               id="path21229"
               d="m 3.65625,-3.984375 0.859375,0 c 0.203125,0 0.296875,0 0.296875,-0.203125 0,-0.109375 -0.09375,-0.109375 -0.265625,-0.109375 l -0.828125,0 0.203125,-1.140625 c 0.046875,-0.203125 0.1875,-0.90625 0.25,-1.03125 0.078125,-0.1875 0.25,-0.34375 0.46875,-0.34375 0.03125,0 0.296875,0 0.484375,0.1875 -0.4375,0.03125 -0.546875,0.390625 -0.546875,0.53125 0,0.234375 0.1875,0.359375 0.375,0.359375 C 5.21875,-5.734375 5.5,-5.96875 5.5,-6.34375 c 0,-0.453125 -0.453125,-0.6875 -0.859375,-0.6875 -0.34375,0 -0.96875,0.1875 -1.265625,1.171875 -0.0625,0.203125 -0.09375,0.3125 -0.328125,1.5625 l -0.6875,0 c -0.203125,0 -0.3125,0 -0.3125,0.1875 0,0.125 0.09375,0.125 0.28125,0.125 l 0.65625,0 -0.734375,3.9375 c -0.1875,0.96875 -0.359375,1.875 -0.875,1.875 -0.046875,0 -0.28125,0 -0.484375,-0.1875 C 1.359375,1.609375 1.453125,1.25 1.453125,1.109375 1.453125,0.875 1.265625,0.75 1.078125,0.75 0.8125,0.75 0.53125,0.984375 0.53125,1.359375 c 0,0.4375 0.4375,0.6875 0.84375,0.6875 0.546875,0 0.953125,-0.59375 1.125,-0.96875 0.328125,-0.625 0.546875,-1.828125 0.5625,-1.90625 l 0.59375,-3.15625 z m 0,0"
               style="stroke:none" />
          </symbol>
          <symbol
             id="symbol21231"
             overflow="visible"
             style="overflow:visible">
            <path
               id="path21233"
               d="m 6.03125,-3.703125 c 0,-0.453125 -0.171875,-0.703125 -0.40625,-0.703125 -0.25,0 -0.515625,0.234375 -0.515625,0.46875 0,0.09375 0.046875,0.203125 0.140625,0.296875 0.171875,0.15625 0.359375,0.421875 0.359375,0.84375 0,0.390625 -0.203125,0.96875 -0.5,1.421875 C 4.8125,-0.953125 4.4375,-0.609375 3.96875,-0.609375 3.40625,-0.609375 3.09375,-0.96875 3,-1.5 c 0.109375,-0.265625 0.34375,-0.90625 0.34375,-1.1875 0,-0.109375 -0.046875,-0.21875 -0.1875,-0.21875 -0.078125,0 -0.1875,0.03125 -0.265625,0.171875 C 2.78125,-2.53125 2.65625,-1.890625 2.65625,-1.53125 2.328125,-1.0625 1.9375,-0.609375 1.3125,-0.609375 c -0.671875,0 -0.875,-0.59375 -0.875,-1.140625 0,-1.25 1.015625,-2.296875 1.015625,-2.421875 0,-0.109375 -0.078125,-0.1875 -0.1875,-0.1875 -0.125,0 -0.203125,0.125 -0.265625,0.21875 -0.5,0.734375 -0.875,1.921875 -0.875,2.828125 0,0.6875 0.21875,1.421875 1.046875,1.421875 0.703125,0 1.171875,-0.5 1.53125,-1.046875 0.09375,0.578125 0.484375,1.046875 1.09375,1.046875 0.78125,0 1.25,-0.609375 1.609375,-1.359375 0.25,-0.484375 0.625,-1.84375 0.625,-2.453125 z m 0,0"
               style="stroke:none" />
          </symbol>
          <symbol
             id="symbol21235"
             overflow="visible"
             style="overflow:visible">
            <path
               id="path21237"
               d="m 2.828125,-6.234375 c 0,-0.203125 -0.140625,-0.359375 -0.359375,-0.359375 -0.28125,0 -0.546875,0.265625 -0.546875,0.53125 0,0.1875 0.140625,0.359375 0.375,0.359375 0.234375,0 0.53125,-0.234375 0.53125,-0.53125 z m -0.75,3.75 c 0.109375,-0.28125 0.109375,-0.3125 0.21875,-0.578125 0.078125,-0.203125 0.125,-0.34375 0.125,-0.53125 0,-0.4375 -0.3125,-0.8125 -0.8125,-0.8125 -0.9375,0 -1.3125,1.453125 -1.3125,1.53125 0,0.109375 0.09375,0.109375 0.109375,0.109375 0.109375,0 0.109375,-0.03125 0.15625,-0.1875 0.28125,-0.9375 0.671875,-1.234375 1.015625,-1.234375 0.078125,0 0.25,0 0.25,0.3125 0,0.21875 -0.078125,0.421875 -0.109375,0.53125 -0.078125,0.25 -0.53125,1.40625 -0.6875,1.84375 -0.109375,0.25 -0.234375,0.578125 -0.234375,0.796875 0,0.46875 0.34375,0.8125 0.8125,0.8125 0.9375,0 1.3125,-1.4375 1.3125,-1.53125 0,-0.109375 -0.09375,-0.109375 -0.125,-0.109375 -0.09375,0 -0.09375,0.03125 -0.140625,0.1875 -0.1875,0.625 -0.515625,1.234375 -1.015625,1.234375 -0.171875,0 -0.25,-0.09375 -0.25,-0.328125 0,-0.25 0.0625,-0.390625 0.296875,-1 l 0.390625,-1.046875 z m 0,0"
               style="stroke:none" />
          </symbol>
          <symbol
             id="symbol21239"
             overflow="visible"
             style="overflow:visible">
            <path
               id="path21241"
               d=""
               style="stroke:none" />
          </symbol>
          <symbol
             id="symbol21243"
             overflow="visible"
             style="overflow:visible">
            <path
               id="path21245"
               d="m 3.296875,2.390625 c 0,-0.03125 0,-0.046875 -0.171875,-0.21875 C 1.890625,0.921875 1.5625,-0.96875 1.5625,-2.5 c 0,-1.734375 0.375,-3.46875 1.609375,-4.703125 0.125,-0.125 0.125,-0.140625 0.125,-0.171875 0,-0.078125 -0.03125,-0.109375 -0.09375,-0.109375 -0.109375,0 -1,0.6875 -1.59375,1.953125 -0.5,1.09375 -0.625,2.203125 -0.625,3.03125 0,0.78125 0.109375,1.984375 0.65625,3.125 C 2.25,1.84375 3.09375,2.5 3.203125,2.5 c 0.0625,0 0.09375,-0.03125 0.09375,-0.109375 z m 0,0"
               style="stroke:none" />
          </symbol>
          <symbol
             id="symbol21247"
             overflow="visible"
             style="overflow:visible">
            <path
               id="path21249"
               d="m 2.875,-2.5 c 0,-0.765625 -0.109375,-1.96875 -0.65625,-3.109375 -0.59375,-1.21875 -1.453125,-1.875 -1.546875,-1.875 -0.0625,0 -0.109375,0.046875 -0.109375,0.109375 0,0.03125 0,0.046875 0.1875,0.234375 0.984375,0.984375 1.546875,2.5625 1.546875,4.640625 0,1.71875 -0.359375,3.46875 -1.59375,4.71875 C 0.5625,2.34375 0.5625,2.359375 0.5625,2.390625 0.5625,2.453125 0.609375,2.5 0.671875,2.5 0.765625,2.5 1.671875,1.8125 2.25,0.546875 2.765625,-0.546875 2.875,-1.65625 2.875,-2.5 z m 0,0"
               style="stroke:none" />
          </symbol>
        </g>
      </defs>
      <g
         id="g21251">
        <g
           id="g21253"
           style="fill:#000000;fill-opacity:1">
          <use
             id="use21255"
             y="-0.80900002"
             x="1.1339999"
             xlink:href="#textext-8bf2e918-1"
             width="744.09448"
             height="1052.3622" />
        </g>
        <g
           id="g21257"
           style="fill:#000000;fill-opacity:1">
          <use
             id="use21259"
             y="-0.80900002"
             x="7.0840001"
             xlink:href="#textext-8bf2e918-5"
             width="744.09448"
             height="1052.3622" />
        </g>
        <g
           id="g21261"
           style="fill:#000000;fill-opacity:1">
          <use
             id="use21263"
             y="-0.80900002"
             x="10.958"
             xlink:href="#textext-8bf2e918-2"
             width="744.09448"
             height="1052.3622" />
        </g>
        <g
           id="g21265"
           style="fill:#000000;fill-opacity:1">
          <use
             id="use21267"
             y="-0.80900002"
             x="17.517"
             xlink:href="#textext-8bf2e918-5"
             width="744.09448"
             height="1052.3622" />
        </g>
        <g
           id="g21269"
           style="fill:#000000;fill-opacity:1">
          <use
             id="use21271"
             y="-0.80900002"
             x="21.391001"
             xlink:href="#textext-8bf2e918-3"
             width="744.09448"
             height="1052.3622" />
        </g>
        <g
           id="g21273"
           style="fill:#000000;fill-opacity:1">
          <use
             id="use21275"
             y="-0.80900002"
             x="24.823999"
             xlink:href="#textext-8bf2e918-6"
             width="744.09448"
             height="1052.3622" />
          <use
             id="use21277"
             y="-0.80900002"
             x="28.698456"
             xlink:href="#textext-8bf2e918-6"
             width="744.09448"
             height="1052.3622" />
        </g>
      </g>
    </g>
    <g
       id="g21279"
       transform="matrix(4.8305043,0,0,4.8305043,-1149.57,102.96079)"
       ns0:preamble=""
       ns0:text="$i=0\\;\\;\\;1\\;\\;\\; 2\\;\\dots$">
      <defs
         id="defs21281">
        <g
           id="g21283">
          <symbol
             id="symbol21285"
             overflow="visible"
             style="overflow:visible">
            <path
               id="path21287"
               d=""
               style="stroke:none" />
          </symbol>
          <symbol
             id="symbol21289"
             overflow="visible"
             style="overflow:visible">
            <path
               id="path21291"
               d="m 2.828125,-6.234375 c 0,-0.203125 -0.140625,-0.359375 -0.359375,-0.359375 -0.28125,0 -0.546875,0.265625 -0.546875,0.53125 0,0.1875 0.140625,0.359375 0.375,0.359375 0.234375,0 0.53125,-0.234375 0.53125,-0.53125 z m -0.75,3.75 c 0.109375,-0.28125 0.109375,-0.3125 0.21875,-0.578125 0.078125,-0.203125 0.125,-0.34375 0.125,-0.53125 0,-0.4375 -0.3125,-0.8125 -0.8125,-0.8125 -0.9375,0 -1.3125,1.453125 -1.3125,1.53125 0,0.109375 0.09375,0.109375 0.109375,0.109375 0.109375,0 0.109375,-0.03125 0.15625,-0.1875 0.28125,-0.9375 0.671875,-1.234375 1.015625,-1.234375 0.078125,0 0.25,0 0.25,0.3125 0,0.21875 -0.078125,0.421875 -0.109375,0.53125 -0.078125,0.25 -0.53125,1.40625 -0.6875,1.84375 -0.109375,0.25 -0.234375,0.578125 -0.234375,0.796875 0,0.46875 0.34375,0.8125 0.8125,0.8125 0.9375,0 1.3125,-1.4375 1.3125,-1.53125 0,-0.109375 -0.09375,-0.109375 -0.125,-0.109375 -0.09375,0 -0.09375,0.03125 -0.140625,0.1875 -0.1875,0.625 -0.515625,1.234375 -1.015625,1.234375 -0.171875,0 -0.25,-0.09375 -0.25,-0.328125 0,-0.25 0.0625,-0.390625 0.296875,-1 l 0.390625,-1.046875 z m 0,0"
               style="stroke:none" />
          </symbol>
          <symbol
             id="symbol21293"
             overflow="visible"
             style="overflow:visible">
            <path
               id="path21295"
               d="m 1.90625,-0.53125 c 0,-0.28125 -0.234375,-0.53125 -0.515625,-0.53125 -0.296875,0 -0.53125,0.25 -0.53125,0.53125 C 0.859375,-0.234375 1.09375,0 1.390625,0 1.671875,0 1.90625,-0.234375 1.90625,-0.53125 z m 0,0"
               style="stroke:none" />
          </symbol>
          <symbol
             id="symbol21297"
             overflow="visible"
             style="overflow:visible">
            <path
               id="path21299"
               d=""
               style="stroke:none" />
          </symbol>
          <symbol
             id="symbol21301"
             overflow="visible"
             style="overflow:visible">
            <path
               id="path21303"
               d="m 6.84375,-3.265625 c 0.15625,0 0.34375,0 0.34375,-0.1875 C 7.1875,-3.65625 7,-3.65625 6.859375,-3.65625 l -5.96875,0 c -0.140625,0 -0.328125,0 -0.328125,0.203125 0,0.1875 0.1875,0.1875 0.328125,0.1875 l 5.953125,0 z m 0.015625,1.9375 c 0.140625,0 0.328125,0 0.328125,-0.203125 0,-0.1875 -0.1875,-0.1875 -0.34375,-0.1875 l -5.953125,0 c -0.140625,0 -0.328125,0 -0.328125,0.1875 0,0.203125 0.1875,0.203125 0.328125,0.203125 l 5.96875,0 z m 0,0"
               style="stroke:none" />
          </symbol>
          <symbol
             id="symbol21305"
             overflow="visible"
             style="overflow:visible">
            <path
               id="path21307"
               d="m 4.578125,-3.1875 c 0,-0.796875 -0.046875,-1.59375 -0.390625,-2.328125 -0.453125,-0.96875 -1.28125,-1.125 -1.6875,-1.125 -0.609375,0 -1.328125,0.265625 -1.75,1.1875 -0.3125,0.6875 -0.359375,1.46875 -0.359375,2.265625 0,0.75 0.03125,1.640625 0.453125,2.40625 0.421875,0.796875 1.15625,1 1.640625,1 0.53125,0 1.296875,-0.203125 1.734375,-1.15625 0.3125,-0.6875 0.359375,-1.46875 0.359375,-2.25 z M 2.484375,0 C 2.09375,0 1.5,-0.25 1.328125,-1.203125 1.21875,-1.796875 1.21875,-2.71875 1.21875,-3.3125 c 0,-0.640625 0,-1.296875 0.078125,-1.828125 0.1875,-1.1875 0.9375,-1.28125 1.1875,-1.28125 0.328125,0 0.984375,0.1875 1.171875,1.171875 0.109375,0.5625 0.109375,1.3125 0.109375,1.9375 0,0.75 0,1.421875 -0.109375,2.0625 C 3.5,-0.296875 2.9375,0 2.484375,0 z m 0,0"
               style="stroke:none" />
          </symbol>
          <symbol
             id="symbol21309"
             overflow="visible"
             style="overflow:visible">
            <path
               id="path21311"
               d="m 2.9375,-6.375 c 0,-0.25 0,-0.265625 -0.234375,-0.265625 C 2.078125,-6 1.203125,-6 0.890625,-6 l 0,0.3125 c 0.203125,0 0.78125,0 1.296875,-0.265625 l 0,5.171875 c 0,0.359375 -0.03125,0.46875 -0.921875,0.46875 l -0.3125,0 0,0.3125 c 0.34375,-0.03125 1.203125,-0.03125 1.609375,-0.03125 0.390625,0 1.265625,0 1.609375,0.03125 l 0,-0.3125 -0.3125,0 c -0.90625,0 -0.921875,-0.109375 -0.921875,-0.46875 l 0,-5.59375 z m 0,0"
               style="stroke:none" />
          </symbol>
          <symbol
             id="symbol21313"
             overflow="visible"
             style="overflow:visible">
            <path
               id="path21315"
               d="m 1.265625,-0.765625 1.0625,-1.03125 c 1.546875,-1.375 2.140625,-1.90625 2.140625,-2.90625 0,-1.140625 -0.890625,-1.9375 -2.109375,-1.9375 -1.125,0 -1.859375,0.921875 -1.859375,1.8125 0,0.546875 0.5,0.546875 0.53125,0.546875 0.171875,0 0.515625,-0.109375 0.515625,-0.53125 0,-0.25 -0.1875,-0.515625 -0.53125,-0.515625 -0.078125,0 -0.09375,0 -0.125,0.015625 0.21875,-0.65625 0.765625,-1.015625 1.34375,-1.015625 0.90625,0 1.328125,0.8125 1.328125,1.625 C 3.5625,-3.90625 3.078125,-3.125 2.515625,-2.5 l -1.90625,2.125 C 0.5,-0.265625 0.5,-0.234375 0.5,0 l 3.703125,0 0.265625,-1.734375 -0.234375,0 C 4.171875,-1.4375 4.109375,-1 4,-0.84375 3.9375,-0.765625 3.28125,-0.765625 3.0625,-0.765625 l -1.796875,0 z m 0,0"
               style="stroke:none" />
          </symbol>
        </g>
      </defs>
      <g
         id="g21317">
        <g
           id="g21319"
           style="fill:#000000;fill-opacity:1">
          <use
             id="use21321"
             y="134.765"
             x="223.43201"
             xlink:href="#textext-b8d676fd-1"
             width="744.09448"
             height="1052.3622" />
        </g>
        <g
           id="g21323"
           style="fill:#000000;fill-opacity:1">
          <use
             id="use21325"
             y="134.765"
             x="229.632"
             xlink:href="#textext-b8d676fd-4"
             width="744.09448"
             height="1052.3622" />
        </g>
        <g
           id="g21327"
           style="fill:#000000;fill-opacity:1">
          <use
             id="use21329"
             y="134.765"
             x="240.15051"
             xlink:href="#textext-b8d676fd-5"
             width="744.09448"
             height="1052.3622" />
        </g>
        <g
           id="g21331"
           style="fill:#000000;fill-opacity:1">
          <use
             id="use21333"
             y="134.765"
             x="253.43066"
             xlink:href="#textext-b8d676fd-6"
             width="744.09448"
             height="1052.3622" />
        </g>
        <g
           id="g21335"
           style="fill:#000000;fill-opacity:1">
          <use
             id="use21337"
             y="134.765"
             x="266.71082"
             xlink:href="#textext-b8d676fd-7"
             width="744.09448"
             height="1052.3622" />
        </g>
        <g
           id="g21339"
           style="fill:#000000;fill-opacity:1">
          <use
             id="use21341"
             y="134.765"
             x="276.12399"
             xlink:href="#textext-b8d676fd-2"
             width="744.09448"
             height="1052.3622" />
        </g>
        <g
           id="g21343"
           style="fill:#000000;fill-opacity:1">
          <use
             id="use21345"
             y="134.765"
             x="280.55536"
             xlink:href="#textext-b8d676fd-2"
             width="744.09448"
             height="1052.3622" />
        </g>
        <g
           id="g21347"
           style="fill:#000000;fill-opacity:1">
          <use
             id="use21349"
             y="134.765"
             x="284.97678"
             xlink:href="#textext-b8d676fd-2"
             width="744.09448"
             height="1052.3622" />
        </g>
      </g>
    </g>
    <g
       ns0:text="$\\omega$"
       ns0:preamble=""
       transform="matrix(4.8305043,0,0,4.8305043,-539.08061,62.819241)"
       id="g21351">
      <defs
         id="defs21353">
        <g
           id="g21355">
          <symbol
             style="overflow:visible"
             overflow="visible"
             id="symbol21357">
            <path
               style="stroke:none"
               d=""
               id="path21359" />
          </symbol>
          <symbol
             style="overflow:visible"
             overflow="visible"
             id="symbol21361">
            <path
               style="stroke:none"
               d="m 6.03125,-3.703125 c 0,-0.453125 -0.171875,-0.703125 -0.40625,-0.703125 -0.25,0 -0.515625,0.234375 -0.515625,0.46875 0,0.09375 0.046875,0.203125 0.140625,0.296875 0.171875,0.15625 0.359375,0.421875 0.359375,0.84375 0,0.390625 -0.203125,0.96875 -0.5,1.421875 C 4.8125,-0.953125 4.4375,-0.609375 3.96875,-0.609375 3.40625,-0.609375 3.09375,-0.96875 3,-1.5 c 0.109375,-0.265625 0.34375,-0.90625 0.34375,-1.1875 0,-0.109375 -0.046875,-0.21875 -0.1875,-0.21875 -0.078125,0 -0.1875,0.03125 -0.265625,0.171875 C 2.78125,-2.53125 2.65625,-1.890625 2.65625,-1.53125 2.328125,-1.0625 1.9375,-0.609375 1.3125,-0.609375 c -0.671875,0 -0.875,-0.59375 -0.875,-1.140625 0,-1.25 1.015625,-2.296875 1.015625,-2.421875 0,-0.109375 -0.078125,-0.1875 -0.1875,-0.1875 -0.125,0 -0.203125,0.125 -0.265625,0.21875 -0.5,0.734375 -0.875,1.921875 -0.875,2.828125 0,0.6875 0.21875,1.421875 1.046875,1.421875 0.703125,0 1.171875,-0.5 1.53125,-1.046875 0.09375,0.578125 0.484375,1.046875 1.09375,1.046875 0.78125,0 1.25,-0.609375 1.609375,-1.359375 0.25,-0.484375 0.625,-1.84375 0.625,-2.453125 z m 0,0"
               id="path21363" />
          </symbol>
        </g>
      </defs>
      <g
         id="g21365">
        <g
           style="fill:#000000;fill-opacity:1"
           id="g21367">
          <use
             height="1052.3622"
             width="744.09448"
             xlink:href="#textext-e72aae5e-1"
             x="223.43201"
             y="134.765"
             id="use21369" />
        </g>
      </g>
    </g>
    <path
       sodipodi:type="arc"
       style="fill:#000000;fill-opacity:1;stroke:#000000;stroke-width:1;stroke-miterlimit:4;stroke-opacity:1;stroke-dasharray:none;stroke-dashoffset:0"
       id="path21392"
       sodipodi:cx="-24.230778"
       sodipodi:cy="176.31592"
       sodipodi:rx="4.0384626"
       sodipodi:ry="4.0384626"
       d="m -20.192315,176.31592 a 4.0384626,4.0384626 0 1 1 -8.076925,0 4.0384626,4.0384626 0 1 1 8.076925,0 z"
       transform="matrix(1.2780721,0,0,1.2780721,55.006651,402.69674)" />
    <path
       transform="matrix(1.2780721,0,0,1.2780721,123.15571,334.54768)"
       d="m -20.192315,176.31592 a 4.0384626,4.0384626 0 1 1 -8.076925,0 4.0384626,4.0384626 0 1 1 8.076925,0 z"
       sodipodi:ry="4.0384626"
       sodipodi:rx="4.0384626"
       sodipodi:cy="176.31592"
       sodipodi:cx="-24.230778"
       id="path21394"
       style="fill:#000000;fill-opacity:1;stroke:#000000;stroke-width:1;stroke-miterlimit:4;stroke-opacity:1;stroke-dasharray:none;stroke-dashoffset:0"
       sodipodi:type="arc" />
    <path
       sodipodi:type="arc"
       style="fill:#000000;fill-opacity:1;stroke:#000000;stroke-width:1;stroke-miterlimit:4;stroke-opacity:1;stroke-dasharray:none;stroke-dashoffset:0"
       id="path21396"
       sodipodi:cx="-24.230778"
       sodipodi:cy="176.31592"
       sodipodi:rx="4.0384626"
       sodipodi:ry="4.0384626"
       d="m -20.192315,176.31592 a 4.0384626,4.0384626 0 1 1 -8.076925,0 4.0384626,4.0384626 0 1 1 8.076925,0 z"
       transform="matrix(1.2780721,0,0,1.2780721,191.78728,229.54765)" />
    <path
       transform="matrix(1.2780721,0,0,1.2780721,242.01872,226.014)"
       d="m -20.192315,176.31592 c 0,2.23038 -1.808081,4.03846 -4.038463,4.03846 -2.230381,0 -4.038462,-1.80808 -4.038462,-4.03846 0,-2.23038 1.808081,-4.03846 4.038462,-4.03846 2.230382,0 4.038463,1.80808 4.038463,4.03846 z"
       sodipodi:ry="4.0384626"
       sodipodi:rx="4.0384626"
       sodipodi:cy="176.31592"
       sodipodi:cx="-24.230778"
       id="path21398"
       style="fill:#000000;fill-opacity:1;stroke:#000000;stroke-width:1;stroke-miterlimit:4;stroke-opacity:1;stroke-dasharray:none;stroke-dashoffset:0"
       sodipodi:type="arc" />
    <path
       sodipodi:type="arc"
       style="fill:#000000;fill-opacity:1;stroke:#000000;stroke-width:1;stroke-miterlimit:4;stroke-opacity:1;stroke-dasharray:none;stroke-dashoffset:0"
       id="path21400"
       sodipodi:cx="-24.230778"
       sodipodi:cy="176.31592"
       sodipodi:rx="4.0384626"
       sodipodi:ry="4.0384626"
       d="m -20.192315,176.31592 a 4.0384626,4.0384626 0 1 1 -8.076925,0 4.0384626,4.0384626 0 1 1 8.076925,0 z"
       transform="matrix(1.2780721,0,0,1.2780721,273.78831,222.6282)" />
    <path
       transform="matrix(1.2780721,0,0,1.2780721,311.04081,278.21831)"
       d="m -20.192315,176.31592 a 4.0384626,4.0384626 0 1 1 -8.076925,0 4.0384626,4.0384626 0 1 1 8.076925,0 z"
       sodipodi:ry="4.0384626"
       sodipodi:rx="4.0384626"
       sodipodi:cy="176.31592"
       sodipodi:cx="-24.230778"
       id="path21402"
       style="fill:#000000;fill-opacity:1;stroke:#000000;stroke-width:1;stroke-miterlimit:4;stroke-opacity:1;stroke-dasharray:none;stroke-dashoffset:0"
       sodipodi:type="arc" />
    <path
       sodipodi:type="arc"
       style="fill:#000000;fill-opacity:1;stroke:#000000;stroke-width:1;stroke-miterlimit:4;stroke-opacity:1;stroke-dasharray:none;stroke-dashoffset:0"
       id="path21404"
       sodipodi:cx="-24.230778"
       sodipodi:cy="176.31592"
       sodipodi:rx="4.0384626"
       sodipodi:ry="4.0384626"
       d="m -20.192315,176.31592 a 4.0384626,4.0384626 0 1 1 -8.076925,0 4.0384626,4.0384626 0 1 1 8.076925,0 z"
       transform="matrix(1.2780721,0,0,1.2780721,367.56878,299.56809)" />
    <path
       transform="matrix(1.2780721,0,0,1.2780721,491.91783,319.40345)"
       d="m -20.192315,176.31592 c 0,2.23038 -1.808081,4.03846 -4.038463,4.03846 -2.230381,0 -4.038462,-1.80808 -4.038462,-4.03846 0,-2.23038 1.808081,-4.03846 4.038462,-4.03846 2.230382,0 4.038463,1.80808 4.038463,4.03846 z"
       sodipodi:ry="4.0384626"
       sodipodi:rx="4.0384626"
       sodipodi:cy="176.31592"
       sodipodi:cx="-24.230778"
       id="path21406"
       style="fill:#000000;fill-opacity:1;stroke:#000000;stroke-width:1;stroke-miterlimit:4;stroke-opacity:1;stroke-dasharray:none;stroke-dashoffset:0"
       sodipodi:type="arc" />
    <g
       id="g22093"
       transform="matrix(4.8305043,0,0,4.8305043,-642.74292,102.96079)"
       ns0:preamble=""
       ns0:text="$M$">
      <defs
         id="defs22095">
        <g
           id="g22097">
          <symbol
             id="textext-219d0486-0"
             overflow="visible">
            <path
               id="path22100"
               d=""
               style="stroke:none;" />
          </symbol>
          <symbol
             id="textext-219d0486-1"
             overflow="visible">
            <path
               id="path22103"
               d="M 9.234375 -6.046875 C 9.328125 -6.40625 9.34375 -6.5 10.09375 -6.5 C 10.3125 -6.5 10.40625 -6.5 10.40625 -6.703125 C 10.40625 -6.8125 10.3125 -6.8125 10.140625 -6.8125 L 8.828125 -6.8125 C 8.5625 -6.8125 8.546875 -6.8125 8.4375 -6.625 L 4.796875 -0.9375 L 4.015625 -6.578125 C 3.984375 -6.8125 3.96875 -6.8125 3.703125 -6.8125 L 2.34375 -6.8125 C 2.15625 -6.8125 2.046875 -6.8125 2.046875 -6.625 C 2.046875 -6.5 2.140625 -6.5 2.328125 -6.5 C 2.46875 -6.5 2.640625 -6.484375 2.765625 -6.484375 C 2.921875 -6.453125 2.984375 -6.4375 2.984375 -6.3125 C 2.984375 -6.28125 2.96875 -6.25 2.9375 -6.125 L 1.671875 -1.0625 C 1.578125 -0.65625 1.40625 -0.34375 0.59375 -0.3125 C 0.546875 -0.3125 0.421875 -0.296875 0.421875 -0.125 C 0.421875 -0.03125 0.484375 0 0.5625 0 C 0.875 0 1.21875 -0.03125 1.5625 -0.03125 C 1.890625 -0.03125 2.25 0 2.578125 0 C 2.625 0 2.765625 0 2.765625 -0.203125 C 2.765625 -0.3125 2.65625 -0.3125 2.578125 -0.3125 C 2.015625 -0.3125 1.90625 -0.515625 1.90625 -0.75 C 1.90625 -0.8125 1.90625 -0.875 1.9375 -0.984375 L 3.296875 -6.40625 L 3.3125 -6.40625 L 4.171875 -0.234375 C 4.1875 -0.109375 4.203125 0 4.3125 0 C 4.421875 0 4.484375 -0.109375 4.53125 -0.171875 L 8.5625 -6.484375 L 8.578125 -6.484375 L 7.140625 -0.78125 C 7.046875 -0.390625 7.03125 -0.3125 6.234375 -0.3125 C 6.078125 -0.3125 5.96875 -0.3125 5.96875 -0.125 C 5.96875 0 6.078125 0 6.109375 0 C 6.390625 0 7.0625 -0.03125 7.34375 -0.03125 C 7.75 -0.03125 8.1875 0 8.59375 0 C 8.65625 0 8.78125 0 8.78125 -0.203125 C 8.78125 -0.3125 8.6875 -0.3125 8.5 -0.3125 C 8.140625 -0.3125 7.859375 -0.3125 7.859375 -0.484375 C 7.859375 -0.53125 7.859375 -0.546875 7.90625 -0.734375 L 9.234375 -6.046875 Z M 9.234375 -6.046875 "
               style="stroke:none;" />
          </symbol>
        </g>
      </defs>
      <g
         id="textext-219d0486-2">
        <g
           id="g22106"
           style="fill:rgb(0%,0%,0%);fill-opacity:1;">
          <use
             id="use22108"
             y="134.765"
             x="223.432"
             xlink:href="#textext-219d0486-1" />
        </g>
      </g>
    </g>
    <g
       id="g22535"
       transform="translate(446.06232,163.38073)">
      <path
         d="m -422.52657,466.27151 68.76362,-70.01375 68.76375,-105.02125 50.01,-3.50125 31.25622,-3.5 37.5075,56.01125 56.2613,21.00375 125.025,21.00375"
         style="fill:none;stroke:#000000;stroke-width:0.75015002;stroke-linecap:butt;stroke-linejoin:miter;stroke-miterlimit:10;stroke-opacity:1;stroke-dasharray:none"
         id="path22473" />
      <path
         d="m -353.76295,536.28526 0,-140.0275"
         style="fill:none;stroke:#000000;stroke-width:0.75015002;stroke-linecap:butt;stroke-linejoin:miter;stroke-miterlimit:10;stroke-opacity:1;stroke-dasharray:none"
         id="path22477" />
      <path
         d="m -284.9992,536.28526 0,-245.04875"
         style="fill:none;stroke:#000000;stroke-width:0.75015002;stroke-linecap:butt;stroke-linejoin:miter;stroke-miterlimit:10;stroke-opacity:1;stroke-dasharray:none"
         id="path22479" />
      <path
         d="m -234.9892,536.28526 0,-248.55"
         style="fill:none;stroke:#000000;stroke-width:0.75015002;stroke-linecap:butt;stroke-linejoin:miter;stroke-miterlimit:10;stroke-opacity:1;stroke-dasharray:none"
         id="path22481" />
      <path
         d="m -203.73298,536.28526 0,-252.05"
         style="fill:none;stroke:#000000;stroke-width:0.75015002;stroke-linecap:butt;stroke-linejoin:miter;stroke-miterlimit:10;stroke-opacity:1;stroke-dasharray:none"
         id="path22483" />
      <path
         d="m -166.22548,536.28526 0,-196.03875"
         style="fill:none;stroke:#000000;stroke-width:0.75015002;stroke-linecap:butt;stroke-linejoin:miter;stroke-miterlimit:10;stroke-opacity:1;stroke-dasharray:none"
         id="path22485" />
      <path
         d="m -109.96418,536.28526 0,-175.035"
         style="fill:none;stroke:#000000;stroke-width:0.75015002;stroke-linecap:butt;stroke-linejoin:miter;stroke-miterlimit:10;stroke-opacity:1;stroke-dasharray:none"
         id="path22487" />
      <path
         d="m 15.06082,536.28526 0,-154.03125"
         style="fill:none;stroke:#000000;stroke-width:0.75015002;stroke-linecap:butt;stroke-linejoin:miter;stroke-miterlimit:10;stroke-opacity:1;stroke-dasharray:none"
         id="path22489" />
    </g>
  </g>
</svg>
